<?xml version="1.0" encoding="UTF-8"?>
<svg id="Layer_2" data-name="Layer 2" xmlns="http://www.w3.org/2000/svg" viewBox="0 0 531.23 241.56">
  <defs>
    <style>
      .cls-1 {
        stroke-width: 3px;
      }

      .cls-1, .cls-2 {
        fill: none;
        stroke: #5a7e9c;
      }

      .cls-1, .cls-2, .cls-3 {
        stroke-miterlimit: 10;
      }

      .cls-4, .cls-5, .cls-6, .cls-7 {
        fill: #fff;
      }

      .cls-8 {
        fill: #a5bdc1;
      }

      .cls-9 {
        fill: #c4c4c3;
      }

      .cls-10, .cls-3 {
        fill: #ae0d1d;
      }

      .cls-11 {
        fill: #dc7b1d;
      }

      .cls-12 {
        fill: #141213;
      }

      .cls-13 {
        fill: #1e2741;
      }

      .cls-14 {
        fill: #5a7e9c;
      }

      .cls-15 {
        fill: #75a5c6;
      }

      .cls-16 {
        fill: #78a4c2;
      }

      .cls-17 {
        fill: #25629d;
      }

      .cls-2 {
        stroke-width: 5px;
      }

      .cls-5 {
        font-family: NotoSansJP-Bold-83pv-RKSJ-H, 'Noto Sans JP';
        font-weight: 700;
      }

      .cls-5, .cls-7 {
        font-size: 30.29px;
      }

      .cls-6 {
        font-family: NotoSansJP-Regular-83pv-RKSJ-H, 'Noto Sans JP';
        font-size: 23.45px;
      }

      .cls-7 {
        font-family: NotoSansJP-Medium-83pv-RKSJ-H, 'Noto Sans JP';
        font-weight: 500;
      }

      .cls-3 {
        stroke: #010101;
        stroke-width: 1.5px;
      }
    </style>
  </defs>
  <g id="Layer_1-2" data-name="Layer 1">
    <g>
      <path id="Cutout_Car" data-name="Cutout Car" class="cls-17" d="m405.87,191.28c-1.45-11.85-5.6-19.81-12.02-23.02-11.81-5.91-33.57-12.3-59.7-17.54-15.75-3.21-31.66-5.59-47.66-7.14l-.52-.34c-21.01-13.8-59.31-37.34-79.78-40-10.03-1.31-30.06-2.05-54.97-2.05-43.06,0-94.28,2.31-104.38,6.59l-.58.24.81,4.13c-9.86,8.58-19.25,17.7-28.11,27.31-5.7.78-8.53,2.09-8.92,4.11.13,1.46,1.4,2.75,2.4,3.47-4.36,5.68-7.45,11.22-7.45,14.8v14.79c-1.29.25-3.94,1.07-4.59,3.5-1.01,3.78,1.01,10.7,1.58,12.52-1.36,1.47-2.07,3.43-1.98,5.43.21,2.06,1.54,3.9,3.93,5.48l.16,5.99c-.03.59-.02,3.99,4.83,4.89,1.63.3,5.78,1.06,10.22,1.86l1.98,7.74,21.33-2.39c5.69,15.68,23.02,23.78,38.7,18.09,8.93-3.24,15.82-10.5,18.59-19.59l3.26.36,4.04,4.04h7.91l3.27-3.27h1.55l4.06,4.06h49.82l6.33-2.37h89.79l21.17,3.68c8.45,14.37,26.95,19.18,41.32,10.73,4.24-2.49,7.8-5.98,10.39-10.16l17.99-.12,10.47-5.3h26.38l5.37-5.37.38-.39-.23-.49c-.06-.14-.1-.28-.13-.42l-.02-.18c-.11-1.41.28-2.82,1.12-3.96h0c.13-.21.28-.43.45-.65.03-.04.06-.09.1-.13s.08-.1.12-.15.1-.13.15-.19l.09-.11c.08-.1.17-.2.26-.31l.09-.1c.07-.08.15-.16.22-.24l.09-.1c.11-.11.22-.22.33-.34l.2-.2.02-.28c.47-5.64.38-11.3-.27-16.92Z"/>
      <g id="Group_286" data-name="Group 286">
        <g id="Group_283" data-name="Group 283">
          <circle id="Ellipse_23" data-name="Ellipse 23" class="cls-13" cx="317" cy="211.03" r="28.92"/>
          <circle id="Ellipse_24" data-name="Ellipse 24" class="cls-13" cx="70.87" cy="211.03" r="28.66"/>
          <circle id="Ellipse_25" data-name="Ellipse 25" class="cls-15" cx="70.87" cy="211.03" r="16.89"/>
          <circle id="Ellipse_26" data-name="Ellipse 26" class="cls-15" cx="317" cy="211.03" r="16.89"/>
          <g id="Group_282" data-name="Group 282">
            <path id="Path_268" data-name="Path 268" class="cls-12" d="m317,192.59c-10.18,0-18.43,8.25-18.43,18.43s8.25,18.43,18.43,18.43c10.18,0,18.43-8.25,18.43-18.43h0c-.01-10.18-8.26-18.42-18.43-18.43Zm0,35.32c-9.33,0-16.89-7.56-16.89-16.89,0-9.33,7.56-16.89,16.89-16.89,9.33,0,16.89,7.56,16.89,16.89-.01,9.32-7.57,16.88-16.89,16.89Z"/>
            <path id="Path_269" data-name="Path 269" class="cls-12" d="m70.87,192.59c-10.18,0-18.43,8.25-18.43,18.43s8.25,18.43,18.43,18.43c10.18,0,18.43-8.25,18.43-18.43h0c-.01-10.18-8.26-18.42-18.43-18.43Zm0,35.32c-9.33,0-16.89-7.56-16.89-16.89,0-9.33,7.56-16.89,16.89-16.89,9.33,0,16.89,7.56,16.89,16.89h0c-.01,9.32-7.57,16.88-16.89,16.89Z"/>
            <path id="Path_270" data-name="Path 270" class="cls-12" d="m48.86,169.04c3.85,0,6.97-3.12,6.97-6.97s-3.12-6.97-6.97-6.97c-3.85,0-6.97,3.12-6.97,6.97,0,3.85,3.12,6.96,6.97,6.97Zm0-12.39c2.99,0,5.42,2.43,5.42,5.42s-2.43,5.42-5.42,5.42c-2.99,0-5.42-2.43-5.42-5.42,0-2.99,2.43-5.42,5.42-5.42h0Z"/>
            <path id="Path_271" data-name="Path 271" class="cls-12" d="m65.82,130.16c-2.07,3.85,3.77,8.95,4.02,9.17l.2.17.26.02c.48.03,47.55,3.17,57.71,3.17h.34c2.68-.02,4.66-.78,5.88-2.25,1.03-1.35,1.46-3.05,1.21-4.73l-5.69-24.41-.67.06c-21.84,1.94-38.63,5.2-49.9,9.69-9.35,3.72-12.38,7.31-13.35,9.12Zm62.71-17.21l5.37,23.04c.17,1.23-.15,2.47-.89,3.47-.92,1.1-2.49,1.66-4.69,1.68h-.33c-9.71,0-53.52-2.9-57.34-3.15-1.53-1.39-4.66-4.9-3.48-7.1.7-1.31,3.34-4.75,12.55-8.42,11.02-4.39,27.44-7.59,48.8-9.52h0Z"/>
            <path id="Path_272" data-name="Path 272" class="cls-12" d="m405.87,190.96c-1.45-11.85-5.6-19.81-12.02-23.02-11.81-5.91-33.57-12.3-59.7-17.54-15.75-3.21-31.66-5.59-47.66-7.14l-.52-.34c-21.01-13.8-59.31-37.34-79.78-40-10.03-1.31-30.06-2.05-54.97-2.05-43.06,0-94.28,2.31-104.38,6.59l-.58.24.81,4.13c-9.86,8.58-19.25,17.7-28.11,27.31-5.7.78-8.53,2.09-8.92,4.11-.32,1.68,1.27,3.11,2.27,3.83-4.36,5.68-7.33,10.86-7.33,14.44v14.79c-1.29.25-3.94,1.07-4.59,3.5-1.01,3.78,1.01,10.7,1.58,12.52-1.36,1.47-2.07,3.43-1.98,5.43.21,2.06,1.54,3.9,3.93,5.48l.16,5.99c-.03.59-.02,3.99,4.83,4.89,1.63.3,5.78,1.06,10.22,1.86l1.98,7.74,21.33-2.39c5.69,15.68,23.02,23.78,38.7,18.09,8.93-3.24,15.82-10.5,18.59-19.59l3.26.36,4.04,4.04h7.91l3.27-3.27h1.56l4.06,4.06h49.82l6.33-2.37h89.79l21.17,3.68c8.45,14.37,26.95,19.18,41.32,10.73,4.24-2.49,7.8-5.98,10.39-10.16l17.99-.12,10.47-5.3h26.38l5.37-5.37.38-.39-.23-.49c-.06-.14-.1-.28-.13-.42l-.02-.18c-.11-1.41.28-2.82,1.12-3.96h0c.13-.21.28-.43.45-.65.03-.04.06-.09.1-.13s.08-.1.12-.15l.15-.19s.06-.08.09-.11c.08-.1.17-.2.26-.31l.09-.1c.07-.08.15-.16.22-.24l.09-.1c.11-.11.22-.22.33-.34l.2-.2.02-.28c.47-5.64.38-11.3-.27-16.92Zm-1.67,16.97l-.1.11c-.13.15-.25.29-.37.43h0c-.13.17-.25.32-.36.47l-.04.06c-1.03,1.26-1.7,2.78-1.95,4.39,0,.02,0,.04,0,.05,0,.07-.01.14-.02.21v.11s0,.08-.01.12,0,.08,0,.12h-.34v-.2h-3.11c-2.91-.34-6.57-1.21-8.3-3.43-1.03-1.42-1.31-3.26-.74-4.93.7-3.1,4.83-4.22,8.58-4.58h7.1s.21.01.21.01c.07,3.33-.04,5.81-.09,6.62l-.02.02c-.15.14-.28.29-.41.42h0ZM23.07,176.84l-.04-.03-.02.03-16.48-.62v-.86c2.24.05,4.39-.92,5.83-2.64.16-.22.32-.44.45-.68l28.35,5.48-18.09-.68Zm-12.45-16.24c0-.08-.12-8.33,10.58-10.42,1.67-.34,3.37-.51,5.07-.52,7.7,0,11.01,3.92,11.01,5.16,0,1.69-5.18,6.66-14.77,8.2-2.68.5-5.4.82-8.12.94-2.92,0-3.76-.75-3.76-3.36Zm-4.08,8.31h5.7c-.11,1.04-.49,2.03-1.11,2.87-1.15,1.33-2.84,2.07-4.6,2.03v-4.9Zm99.19,38.29c-1.18-6.73-3.97-16.21-10.58-23.18-1.33-1.4-2.79-2.68-4.36-3.8l55.45,1.23c2.47,16.41,7.02,24.34,11.14,28.13,3.23,2.97,6.02,3.23,6.9,3.23.1,0,.18,0,.23,0h103.86l.17-.53c.05-.14,4.51-13.98,4.77-28l17.45.39c-5.85,6.9-8.68,15.63-10.04,22-.91,4.2-1.43,8.47-1.55,12.77H106.73c.04-4.1-.3-8.19-1.01-12.22h0Zm27.25-97.48l7.9,35.87-75.02-3.92c-1.38-1.43-5.75-6.39-4.53-10.66.83-2.91,4.45-6.4,9.67-9.32,6.82-3.82,16.3-6.76,27.42-8.53,11.45-1.77,22.99-2.92,34.56-3.43h0Zm9.5,35.95l-7.94-36.03c.55-.03,1.11-.05,1.66-.07l8.03,36.19-1.75-.09Zm106.6,3.33c-4.16,0-9.18-2.79-9.25-4.23-.21-3.97.53-7.26,1.98-8.78.53-.59,1.27-.94,2.06-.99,1.4.91,10.02,6.72,8.93,11.76-.32,1.49-1.57,2.24-3.71,2.24h0Zm-10.8-4.15c.02.26.08.51.19.75l-84.06-3.05-7.04-29.7h38.49c.06,0,6.31-.34,16.25,2.33,8.98,2.41,22.86,7.84,38.39,19.98-1.61,1.91-2.42,5.42-2.19,9.7h-.01Zm-83.01,1.35l-.5-2.1,84.64,3.07v-.27c1.31,1.14,2.82,2.02,4.46,2.59l-88.6-3.29Zm99.03.88c1.42-6.52-9.36-13.24-9.82-13.52l-.19-.11h-.22c-.85,0-1.69.22-2.41.67-15.86-12.46-30.07-18-39.26-20.46-9.94-2.66-16.13-2.38-16.63-2.36h-38.78l-.48-2.03c10.9-.21,21.41-.07,31.37.05,5.98.08,11.62.15,17.15.15,11.36,0,27.35,7.28,46.22,21.06,8.35,6.14,16.35,12.73,23.97,19.76l-12.9-.48c1.03-.57,1.75-1.57,1.98-2.72h-.01Zm-109.37-37.78l8.74,36.85-7.1-.26-.75-.04-8.06-36.33c2.41-.09,4.81-.16,7.18-.21h-.01Zm1.04,38.1l.53.03,120.25,4.46c.92,2.18,4.96,12.78,5.01,30.8l-124.19-2.76c-1.36-10.79-1.89-21.67-1.58-32.54h-.01Zm125.77,36.84c-.22,12.24-3.72,24.37-4.53,27.02h-102.82c-.11,0-2.76.2-6.07-2.91-3.6-3.37-6.48-9.16-8.57-17.22-.81-3.18-1.46-6.4-1.94-9.64l123.94,2.75Zm-44.52-72.99c18.26,8.02,39.91,21.27,54.77,30.92-2.3.6-7.07.8-14.01-4.11-20.07-14.23-36.99-24.33-40.93-26.65l.16-.16Zm-1.8.99c.19.11,18.88,10.92,41.67,27.07,5.29,3.75,9.45,4.74,12.37,4.74,1.44.02,2.86-.25,4.18-.81l1.06.69c-1.65.81-3.46,1.27-5.3,1.35h-.02c-6.09.19-12.13-4.12-20.69-10.23-2.35-1.68-4.78-3.41-7.48-5.25-14.16-9.63-26-16.18-29.2-17.91l1.78-2.11c.63.26,1.27.53,1.91.8l-1.14,1.15.86.5Zm53.59,34.6c.1,0,.21,0,.31,0,3.77.63,7.65,1.26,11.75,1.92,21.41,3.47,45.69,7.41,67.79,13.49,9.97,2.74,18.76,6.77,24.54,11.19h-1.13c-.21,0-5.16-.11-7.71,2.27-2.25-3.94-7.04-7.08-10.8-9.08-5.11-2.65-10.51-4.67-16.1-6.03-17.02-4.13-38.23-7.9-64.82-11.54-4.43-.61-6.66-1.79-7.78-2.76,1.29.35,2.62.53,3.95.54h-.02Zm124.77,40.77h-8.82v-.1c-3.44,0-6.23-2.79-6.23-6.22s2.79-6.23,6.23-6.23v-.08h4.28c2.32,3.88,3.87,8.17,4.56,12.63h-.02Zm-16.57-6.33c0,2.51,1.22,4.87,3.27,6.33h-3.27v-.1c-3.44,0-6.23-2.79-6.23-6.23s2.79-6.22,6.23-6.22v-.08h3.23c-2.03,1.46-3.23,3.81-3.23,6.3Zm-11.62-4.4c2.05-2,6.62-1.9,6.69-1.9h.41c-3.48,2.49-4.28,7.34-1.79,10.82.15.21.31.42.49.61-3.05-1.23-6.75-3.49-6.75-7.23-.02-.87.32-1.71.95-2.3h0Zm.73,8.43c2.6,1.89,5.58,3.19,8.73,3.83h.07s8.69.01,8.69.01v10.14l-43.61.05c-1.5-5.04-3.85-9.79-6.95-14.03h33.07Zm-23.91,23.45c-.43-2.66-1.01-5.28-1.74-7.87l40.34-.05c-1.82.75-3.18,2.31-3.67,4.22-.68,2.12-.3,4.44,1.02,6.24.89,1.08,2.03,1.93,3.31,2.48h-38.6c-.16-1.57-.37-3.25-.66-5.01h0Zm48.46-9.63c-1.15,0-2.36.04-3.56.16h-1.95v-10.14h8.7c.5,3.36.77,6.75.82,10.15-.81-.07-2.26-.17-4.01-.17h0Zm-7.7-29.82c1.94.99,3.64,2.4,4.97,4.12h-12.27c-5.86-5.03-15.53-9.64-26.58-12.68-22.19-6.1-46.5-10.04-67.95-13.52-2.6-.42-5.11-.83-7.56-1.23.91-.33,1.79-.73,2.64-1.2,15.93,1.54,31.77,3.92,47.45,7.11,25.99,5.22,47.61,11.56,59.3,17.41h0Zm-241.93-66.91c24.84,0,44.8.74,54.77,2.04,5.6.92,11.06,2.51,16.28,4.72l-2.69,3.18.85.45c10.27,5.58,20.25,11.68,29.9,18.27,2.68,1.83,5.11,3.56,7.45,5.23,5.64,4.02,10.34,7.38,14.78,9.16.45,1.25,2.31,4.06,10.08,5.12,26.54,3.63,47.69,7.39,64.66,11.51,10.42,2.53,23.02,8.28,26.24,14.98-.32.66-.48,1.38-.47,2.11,0,1.68.59,3.3,1.67,4.59h-32.76c-.36-.43-.74-.85-1.12-1.25-5.98-6.3-13.9-9.49-23.54-9.49-10.12,0-18.48,3.26-24.83,9.69-.14.14-.27.28-.4.42l-18.8-.42c-.04-17.09-3.53-27.46-4.85-30.77l.8.03-1.46-1.4c-8.1-7.6-16.66-14.71-25.62-21.29-19.42-14.18-35.28-21.37-47.15-21.37-5.52,0-11.16-.07-17.13-.15-24.08-.31-51.37-.65-79.73,3.85-27.22,4.32-36.9,13.94-38.33,18.95-1.2,4.19,1.84,8.64,3.83,10.97l-31.54-1.65c3.02-1.91,5.81-4.14,8.33-6.67,7.06-7.07,10.68-13.41,10.17-17.88-.12-1.45-.84-2.78-1.99-3.67l-.59-3.02c11.18-4.06,61.06-6.24,103.19-6.24h0Zm-103.28,10.71c.66.64,1.05,1.49,1.12,2.4.26,2.31-.65,7.54-9.72,16.61-6.31,6.33-14.34,10.67-23.09,12.48,3.03-3.63,6.74-7.68,11.12-12.14,9.15-9.3,18.4-17.46,20.57-19.35Zm-36.39,30.42c.08-.4.74-1.65,5.79-2.58-1.44,1.65-2.81,3.29-4.08,4.9-.83-.59-1.86-1.56-1.71-2.32Zm3.23,2.88c5.25-.74,10.31-2.47,14.92-5.09l35.47,1.85.02.02.02-.02,79.21,4.14c-.31,10.89.22,21.78,1.57,32.58l-57.73-1.28c-5.41-2.94-11.49-4.42-17.65-4.27-6.07-.13-12.08,1.21-17.52,3.9l-39.64-7.67c.46-1.66.55-3.4.26-5.1.22.01.44.02.68.02,2.81-.12,5.61-.44,8.37-.96,9.81-1.57,16.07-6.81,16.07-9.72,0-2.41-4.2-6.71-12.55-6.71-1.8.01-3.6.19-5.37.55-6.22,1.22-9.1,4.39-10.43,6.83-.87,1.57-1.35,3.33-1.4,5.13,0,2.65.91,4.1,3.02,4.64.13.69.21,1.39.23,2.1h-5.79v-5.85c0-3.19,2.81-8.31,8.25-15.09h0Zm-9,31.32l16.78.63c.44.25.75.69.84,1.19,0,.58-.64,1.17-1.01,1.45H1.74c.03-.27.09-.54.15-.8.54-2.01,3.5-2.42,3.89-2.46h0Zm-2.19,14.54c-1.04-3.15-1.69-6.42-1.93-9.73h21.18l.19-.11c.2-.12,1.91-1.22,1.92-2.87,0-.39-.09-.77-.27-1.11l26.31.99c-2.14,1.32-4.11,2.9-5.87,4.7-5.16,5.26-8.09,11.88-9.76,17.5l-33.57-6.01c.35-.95.89-1.82,1.59-2.55l.35-.34-.16-.47Zm2.05,17.06v-.06s-.17-6.91-.17-6.91l-.35-.22c-2.19-1.36-3.39-2.89-3.56-4.54-.02-.15-.02-.3-.02-.46l33.42,5.98c-.25.93-.46,1.83-.65,2.68-.8,3.65-1.25,7.36-1.36,11.09-4-.72-20.09-3.64-23.72-4.31-3.75-.69-3.6-3-3.58-3.26h0Zm65.23,30.35c-15.83,0-28.66-12.83-28.66-28.66,0-15.83,12.83-28.66,28.66-28.66,15.83,0,28.66,12.83,28.66,28.66h0c-.02,15.82-12.84,28.64-28.66,28.67h0Zm246.12,0c-15.83,0-28.66-12.83-28.66-28.66,0-15.83,12.83-28.66,28.66-28.66,15.83,0,28.66,12.83,28.66,28.66h0c-.02,15.82-12.84,28.64-28.66,28.67h0Zm79.89-19.74h-26.37l-17.06,3.01c.02-1.37.02-4.12-.26-7.63h44.53c1.19.13,2.38.2,3.58.2l-4.41,4.41Z"/>
            <path id="Path_273" data-name="Path 273" class="cls-12" d="m155.5,160.9c1.16,0,2.27-.5,3.04-1.36l8.37.38c.77,1.03,1.98,1.63,3.26,1.63,2.26,0,4.11-1.82,4.11-4.09,0-2.26-1.82-4.11-4.09-4.11-1.13,0-2.21.46-2.99,1.28l-8.54-.39c-1.42-1.76-4-2.03-5.76-.6-1.76,1.42-2.03,4-.6,5.76.78.96,1.95,1.52,3.18,1.52h0Zm0-6.64c.86,0,1.66.43,2.13,1.15l.22.33,10.07.46.25-.31c.86-1.11,2.47-1.31,3.58-.45s1.31,2.47.45,3.58c-.86,1.11-2.47,1.31-3.58.45-.25-.19-.46-.43-.62-.7l-.21-.35-9.97-.45-.25.34c-.83,1.14-2.42,1.4-3.56.57-1.14-.83-1.4-2.42-.57-3.56.48-.66,1.25-1.06,2.07-1.06h0Z"/>
          </g>
          <path id="Path_274" data-name="Path 274" class="cls-8" d="m238.28,144.85c.02.26.08.51.19.75l-84.06-3.05-7.04-29.7h38.49c.06,0,6.31-.34,16.25,2.33,8.98,2.41,22.86,7.84,38.39,19.98-1.62,1.91-2.43,5.42-2.21,9.7Z"/>
          <path id="Path_275" data-name="Path 275" class="cls-8" d="m128.53,112.95l5.37,23.04c.17,1.23-.15,2.47-.89,3.47-.92,1.1-2.49,1.66-4.69,1.68h-.33c-9.71,0-53.52-2.9-57.34-3.15-1.53-1.39-4.66-4.9-3.48-7.1.7-1.31,3.34-4.75,12.55-8.42,11.02-4.39,27.44-7.59,48.8-9.52Z"/>
          <path id="Path_276" data-name="Path 276" class="cls-8" d="m227.22,111.25c18.26,8.02,39.91,21.27,54.77,30.92-2.3.6-7.07.8-14.01-4.11-20.07-14.23-36.99-24.33-40.93-26.65l.16-.16Z"/>
          <path id="Path_277" data-name="Path 277" class="cls-8" d="m47.96,113.12c.66.64,1.05,1.49,1.12,2.4.26,2.31-.65,7.54-9.72,16.61-6.31,6.33-14.34,10.67-23.09,12.48,3.03-3.63,6.74-7.68,11.12-12.14,9.15-9.3,18.4-17.46,20.57-19.35Z"/>
        </g>
        <g id="Group_284" data-name="Group 284">
          <path id="Path_282" data-name="Path 282" class="cls-12" d="m406.34,196.42c.04,1.15.06,2.24.06,3.26v-3.26h-.06Z"/>
        </g>
      </g>
      <path class="cls-9" d="m403.79,187.62h-.02s-8.82,0-8.82,0v-.1c-3.44,0-6.23-2.79-6.23-6.22s2.79-6.23,6.23-6.23v-.08h4.28c2.32,3.88,3.87,8.17,4.56,12.63"/>
      <path class="cls-11" d="m387.2,181.29c0,2.51,1.22,4.87,3.27,6.33h-3.27v-.1c-3.44,0-6.23-2.79-6.23-6.23s2.79-6.22,6.23-6.22v-.08h3.23c-2.03,1.46-3.23,3.81-3.23,6.3Z"/>
      <path class="cls-10" d="m10.62,160.6c0-.08-.12-8.33,10.58-10.42,1.67-.34,3.37-.51,5.07-.52,7.7,0,11.01,3.92,11.01,5.16,0,1.69-5.18,6.66-14.77,8.2-2.68.5-5.4.82-8.12.94-2.92,0-3.76-.75-3.76-3.36Z"/>
      <path class="cls-3" d="m163.59,50.63c33.01-25.07,47.21-21.73,50.97-18.8s19.64,17.13,20.05,24.65c.42,7.52-7.1,14.62-7.1,14.62,7.52,5.85,11.7,20.47,9.61,24.23s-6.27,17.13-17.97,20.47-31.34-19.22-31.34-19.22c16.71,21.73,18.8,28.83,19.22,36.35.42,7.52-7.1,15.46-2.92,25.07s20.89,22.14,20.89,22.14c0,0-15.04-.42-18.38-4.6,6.68,13.37,10.86,18.38,10.86,18.38-19.64-14.21-38.44-13.37-43.45-37.19s-18.38-44.71-23.4-53.06c-9.61,26.74-16.71,31.75-30.5,29.25s-16.71,1.67-27.99,10.86c-11.28,9.19-34.68,15.04-34.68,15.04,12.12-12.12,9.61-15.04,9.61-15.04-14.62-2.92-29.25.84-29.25.84,27.16-19.64,39.27-25.9,53.9-26.74s15.04-16.71,15.04-16.71c0,0-7.52,8.77-14.62,6.27s-25.49-25.9-21.73-31.34,6.27-7.52,6.27-7.52c-15.04-8.36-3.76-19.22-1.67-24.65s-3.76-12.12,3.34-15.88c7.1-3.76,27.16-8.36,48.88,7.1s20.05,17.97,20.05,17.97l16.29-2.51Z"/>
      <g>
        <path class="cls-16" d="m511.03,83.23c0-2.52,2.04-4.57,4.57-4.57v-3.42c-2.52,0-4.57-2.04-4.57-4.57s2.04-4.57,4.57-4.57v-3.42c-2.52,0-4.57-2.04-4.57-4.57s2.04-4.57,4.57-4.57v-3.42c-2.52,0-4.57-2.04-4.57-4.57s2.04-4.57,4.57-4.57v-3.42c-2.52,0-4.57-2.04-4.57-4.57s2.04-4.57,4.57-4.57v-3.42c-2.52,0-4.57-2.04-4.57-4.57s2.04-4.57,4.57-4.57v-3.42c-2.52,0-4.57-2.04-4.57-4.57s2.04-4.57,4.57-4.57V0h-243.6v3.37c2.52,0,4.57,2.04,4.57,4.57s-2.04,4.57-4.57,4.57v3.42c2.52,0,4.57,2.04,4.57,4.57s-2.04,4.57-4.57,4.57v3.42c2.52,0,4.57,2.04,4.57,4.57s-2.04,4.57-4.57,4.57v3.42c2.52,0,4.57,2.04,4.57,4.57s-2.04,4.57-4.57,4.57v3.42c2.52,0,4.57,2.04,4.57,4.57s-2.04,4.57-4.57,4.57v3.42c2.52,0,4.57,2.04,4.57,4.57s-2.04,4.57-4.57,4.57v3.42c2.52,0,4.57,2.04,4.57,4.57s-2.04,4.57-4.57,4.57v3.57h243.6v-3.57c-2.52,0-4.57-2.04-4.57-4.57Z"/>
        <g>
          <path class="cls-14" d="m277.73,3c1.15,1.33,1.84,3.05,1.84,4.94,0,2.61-1.33,4.91-3.34,6.27,2.01,1.36,3.34,3.67,3.34,6.27s-1.33,4.91-3.34,6.27c2.02,1.36,3.34,3.67,3.34,6.27s-1.33,4.91-3.34,6.27c2.01,1.36,3.34,3.67,3.34,6.27s-1.33,4.91-3.34,6.27c2.02,1.36,3.34,3.67,3.34,6.27s-1.33,4.91-3.34,6.27c2.01,1.36,3.34,3.67,3.34,6.27s-1.33,4.91-3.34,6.27c2.02,1.36,3.34,3.67,3.34,6.27,0,1.98-.76,3.78-2.01,5.13h30.5V3h-30.33Z"/>
          <g>
            <rect class="cls-14" x="318.74" y="3" width="135" height="85.37"/>
            <path class="cls-14" d="m511.38,51.86c-2.02-1.36-3.34-3.67-3.34-6.27s1.33-4.91,3.34-6.27c-2.01-1.36-3.34-3.67-3.34-6.27s1.33-4.91,3.34-6.27c-2.02-1.36-3.34-3.67-3.34-6.27s1.33-4.91,3.34-6.27c-2.01-1.36-3.34-3.67-3.34-6.27,0-1.89.69-3.61,1.84-4.94h-45.45v85.37h45.62c-1.25-1.35-2.01-3.15-2.01-5.13,0-2.61,1.33-4.91,3.34-6.27-2.02-1.36-3.34-3.67-3.34-6.27s1.33-4.91,3.34-6.27c-2.01-1.36-3.34-3.67-3.34-6.27s1.33-4.91,3.34-6.27Z"/>
          </g>
        </g>
        <polygon class="cls-4" points="389.77 55.58 329.55 55.58 329.55 32.32 389.77 32.32 384.25 43.65 389.77 55.58"/>
        <text class="cls-6" transform="translate(328.19 25.76)"><tspan x="0" y="0">CHEAP(er)</tspan></text>
        <path class="cls-1" d="m381.94,44.04c0-7.39,4.75-11.72,10.42-11.72,2.85,0,5.12,1.36,6.57,2.88l-2.33,2.85c-1.15-1.09-2.45-1.88-4.15-1.88-3.39,0-5.94,2.91-5.94,7.72s2.3,7.81,5.85,7.81c1.94,0,3.42-.91,4.63-2.21l2.36,2.79c-1.85,2.15-4.24,3.3-7.15,3.3-5.66,0-10.27-4.06-10.27-11.54Z"/>
        <text class="cls-5" transform="translate(380.31 55.16)"><tspan x="0" y="0">CAR</tspan></text>
        <text class="cls-5" transform="translate(499.54 87.25) rotate(-90)"><tspan x="0" y="0">-$535</tspan></text>
        <g>
          <path class="cls-2" d="m328.48,67.79c0-7.27,4.42-11.63,10.06-11.63,2.79,0,4.97,1.33,6.33,2.82l-1.91,2.24c-1.15-1.18-2.54-2-4.36-2-3.85,0-6.51,3.21-6.51,8.45s2.48,8.54,6.42,8.54c2.06,0,3.6-.91,4.94-2.36l1.88,2.21c-1.79,2.06-4.06,3.21-6.94,3.21-5.6,0-9.9-4.18-9.9-11.48Z"/>
          <path class="cls-2" d="m347.77,70.55c0-5.54,3.73-8.75,7.84-8.75s7.84,3.21,7.84,8.75-3.73,8.72-7.84,8.72-7.84-3.18-7.84-8.72Zm12.12,0c0-3.51-1.64-5.88-4.27-5.88s-4.24,2.36-4.24,5.88,1.63,5.88,4.24,5.88,4.27-2.33,4.27-5.88Z"/>
          <path class="cls-2" d="m367.34,72.7v-10.48h3.48v10.06c0,2.85.82,4,2.79,4,1.54,0,2.61-.73,4-2.48v-11.57h3.48v16.66h-2.85l-.27-2.51h-.09c-1.51,1.76-3.15,2.91-5.42,2.91-3.57,0-5.12-2.33-5.12-6.57Z"/>
          <path class="cls-2" d="m386.34,62.22h2.85l.27,1.82h.09c1.45-1.21,3.27-2.24,5.15-2.24,4.21,0,6.57,3.36,6.57,8.48,0,5.72-3.42,9-7.18,9-1.48,0-2.97-.67-4.39-1.88l.12,2.85v5.39h-3.48v-23.41Zm11.33,8.12c0-3.48-1.12-5.63-3.91-5.63-1.3,0-2.54.67-3.94,2.03v8.15c1.3,1.12,2.57,1.51,3.6,1.51,2.42,0,4.24-2.15,4.24-6.06Z"/>
          <path class="cls-2" d="m404.24,70.55c0-5.54,3.73-8.75,7.84-8.75s7.84,3.21,7.84,8.75-3.73,8.72-7.84,8.72-7.84-3.18-7.84-8.72Zm12.12,0c0-3.51-1.64-5.88-4.27-5.88s-4.24,2.36-4.24,5.88,1.63,5.88,4.24,5.88,4.27-2.33,4.27-5.88Z"/>
          <path class="cls-2" d="m424.02,62.22h2.85l.27,2.3h.09c1.54-1.48,3.24-2.73,5.51-2.73,3.54,0,5.12,2.36,5.12,6.6v10.48h-3.48v-10.06c0-2.88-.85-4.03-2.82-4.03-1.54,0-2.6.79-4.06,2.27v11.81h-3.48v-16.66Z"/>
        </g>
        <text class="cls-7" transform="translate(326.75 78.88)"><tspan x="0" y="0">Coupon</tspan></text>
      </g>
    </g>
  </g>
</svg>