<?xml version="1.0" encoding="UTF-8"?>
<svg id="pong-board" xmlns="http://www.w3.org/2000/svg" viewBox="0 0 980 687.46">
  
  <g id="pong">
    <g id="center-line">
      <rect class="cls-2" x="481.5" y="0" width="17.01" height="11.34"/>
      <path class="cls-2" d="m498.5,653.2h-17.01v-22.92h17.01v22.92Zm0-45.85h-17.01v-22.92h17.01v22.92Zm0-45.85h-17.01v-22.92h17.01v22.92Zm0-45.85h-17.01v-22.92h17.01v22.92Zm0-45.85h-17.01v-22.92h17.01v22.92Zm0-45.85h-17.01v-22.92h17.01v22.92Zm0-45.85h-17.01v-22.92h17.01v22.92Zm0-45.85h-17.01v-22.92h17.01v22.92Zm0-45.85h-17.01v-22.92h17.01v22.92Zm0-45.85h-17.01v-22.92h17.01v22.92Zm0-45.85h-17.01v-22.92h17.01v22.92Zm0-45.85h-17.01v-22.92h17.01v22.92Zm0-45.85h-17.01v-22.92h17.01v22.92Zm0-45.85h-17.01v-22.92h17.01v22.92Z"/>
      <rect class="cls-2" x="481.5" y="676.12" width="17.01" height="11.34"/>
    </g>
    <g id="excel-file">
      <path class="cls-3" d="m352.91,246.47h38.65l18.52,18.52v58.22c0,.97-.79,1.76-1.76,1.76h-55.42c-.97,0-1.76-.79-1.76-1.76v-74.98c0-.97.79-1.76,1.76-1.76Z"/>
      <path class="cls-5" d="m391.56,246.47v16.76c0,.97.79,1.76,1.76,1.76h16.76"/>
      <g>
        <line class="cls-4" x1="403.06" y1="280.27" x2="392.39" y2="280.27"/>
        <line class="cls-4" x1="389.58" y1="280.27" x2="378.91" y2="280.27"/>
        <line class="cls-4" x1="376.11" y1="280.27" x2="365.44" y2="280.27"/>
        <line class="cls-4" x1="403.06" y1="285.86" x2="392.39" y2="285.86"/>
        <line class="cls-4" x1="389.58" y1="285.86" x2="378.91" y2="285.86"/>
        <line class="cls-4" x1="376.11" y1="285.86" x2="365.44" y2="285.86"/>
        <line class="cls-4" x1="403.06" y1="291.46" x2="392.39" y2="291.46"/>
        <line class="cls-4" x1="389.58" y1="291.46" x2="378.91" y2="291.46"/>
        <line class="cls-4" x1="376.11" y1="291.46" x2="365.44" y2="291.46"/>
        <line class="cls-4" x1="403.06" y1="297.06" x2="392.39" y2="297.06"/>
        <line class="cls-4" x1="389.58" y1="297.06" x2="378.91" y2="297.06"/>
        <line class="cls-4" x1="376.11" y1="297.06" x2="365.44" y2="297.06"/>
        <line class="cls-4" x1="403.06" y1="302.66" x2="392.39" y2="302.66"/>
        <line class="cls-4" x1="389.58" y1="302.66" x2="378.91" y2="302.66"/>
        <line class="cls-4" x1="376.11" y1="302.66" x2="365.44" y2="302.66"/>
      </g>
      <g>
        <rect class="cls-1" x="335.05" y="272.49" width="37.81" height="37.81" rx="2.92" ry="2.92"/>
        <path class="cls-2" d="m363.6,280.27h-4.02c-.18,0-.35.09-.45.24l-4.45,6.69c-.22.32-.69.32-.91,0l-4.45-6.69c-.1-.15-.27-.24-.45-.24h-4.02c-.44,0-.7.49-.45.85l6.97,10.47c.12.18.12.42,0,.6l-6.97,10.47c-.24.36.02.85.45.85h4.02c.18,0,.35-.09.45-.24l4.45-6.69c.22-.32.69-.32.91,0l4.45,6.69c.1.15.27.24.45.24h4.02c.44,0,.7-.49.45-.85l-6.97-10.47c-.12-.18-.12-.42,0-.6l6.97-10.47c.24-.36-.02-.85-.45-.85Z"/>
      </g>
    </g>
    <g id="ccap-paddle">
      <rect id="right-paddle" class="cls-2" x="758.87" y="333.45" width="16.22" height="131.73"/>
      <g id="ccap-logo">
        <path id="Fill_1" data-name="Fill 1" class="cls-2" d="m898.52,393.47h19.81v-2.25h-13.76v-9.81s-6.06,0-6.06,0v12.06Z"/>
        <path id="Fill_2" data-name="Fill 2" class="cls-2" d="m806.16,381.41v12.06h6.06v-4.92h10.53v4.92h6.06v-12.06h-6.06v4.91h-10.53v-4.91h-6.06Z"/>
        <g id="Group_26" data-name="Group 26">
          <path id="Fill_3" data-name="Fill 3" class="cls-2" d="m870.45,381.41l-5.64,5.09-5.84-5.09h-7.04s8.54,7.11,8.6,7.15v4.91h6.06v-5.02s7.96-7.04,7.96-7.04h-4.1Z"/>
          <path id="Fill_5" data-name="Fill 5" class="cls-2" d="m920.54,393.47h20.21v-2.03h-14.15v-3.08h13.61v-2.02h-13.61v-2.9h13.88v-2.03s-19.95,0-19.95,0v12.06Z"/>
          <path id="Fill_7" data-name="Fill 7" class="cls-2" d="m874.75,384.55c0,2.79,3.23,3.46,7.63,4,4.48.56,6.57.71,6.57,1.76,0,.94-1.33,1.44-5.19,1.44-2.9-.02-5.79-.43-8.59-1.22-.03.12-.57,2.52-.57,2.52,3.09.66,6.24.97,9.4.94,5.84,0,11.48-1.02,11.48-4.18,0-2.17-2.29-3.29-8.8-4.04-2.7-.32-5.53-.51-5.53-1.56,0-.77.78-1.13,4.63-1.13,2.54.02,5.06.33,7.52.93l.49-2.33c-3.13-.54-6.3-.81-9.47-.81-4.15,0-9.57.57-9.57,3.67"/>
          <path id="Fill_9" data-name="Fill 9" class="cls-2" d="m782.68,387.44c0,3.9,4.11,6.55,12.62,6.55,2.46-.03,4.91-.22,7.35-.56l.53-2.52c-2.19.3-4.39.47-6.6.5-4.73,0-7.91-1.14-7.91-3.97s3.03-3.97,8-3.97c2.18.02,4.36.19,6.52.51l-.53-2.54c-2.37-.33-4.77-.51-7.16-.55-8.64,0-12.8,2.56-12.8,6.54"/>
          <path id="Fill_11" data-name="Fill 11" class="cls-2" d="m831.64,393.47h6.06v-9.92c.83-.05,1.76-.15,3.18-.15,1.14-.03,2.28.03,3.41.15,1.85.29,2.45.88,2.43,1.67-.01.82-.82,1.57-2.69,1.84-1.04.14-2.08.21-3.13.19-.63,0-1.1,0-1.84-.04l6.89,6.26h7.71l-6.98-5.02c1.11-.03,2.2-.23,3.25-.6,1.85-.6,2.76-1.56,2.76-2.63.02-1.4-.89-2.62-4.28-3.38-1.88-.43-4.26-.61-7.47-.62-4.35,0-8.85.17-9.29.19v12.06Z"/>
          <g id="Group_15" data-name="Group 15">
            <g id="Group_15-2" data-name="Group 15-2">
              <path id="Fill_13" data-name="Fill 13" class="cls-2" d="m943.45,393.47h6.06v-9.92c.83-.05,1.75-.15,3.17-.15,1.14-.03,2.29.03,3.42.15,1.83.29,2.43.88,2.42,1.67-.02.82-.82,1.57-2.69,1.84-1.03.14-2.08.21-3.12.19-.63,0-1.1,0-1.84-.04l6.88,6.26h7.71l-6.98-5.02c1.11-.03,2.21-.23,3.25-.6,1.84-.6,2.76-1.56,2.77-2.63,0-1.4-.9-2.62-4.29-3.38-1.88-.43-4.25-.61-7.47-.62-4.36,0-8.86.17-9.29.19v12.06Z"/>
            </g>
          </g>
          <g id="Mask_Group_2" data-name="Mask Group 2">
            <path id="Fill_16" data-name="Fill 16" class="cls-2" d="m782.68,400.32h182.78v-.42h-182.78v.42Z"/>
            <path id="Fill_18" data-name="Fill 18" class="cls-2" d="m810.99,417.07c-.88.44-1.84.67-2.83.68-3.31,0-4.96-1.95-4.96-5.86,0-1.99.41-3.47,1.23-4.43.82-.96,2.06-1.44,3.73-1.44.99,0,1.96.23,2.83.7v1.51c0,.34-.08.5-.24.5-.18,0-.33-.17-.43-.5l-.17-.5c-.32-.57-.93-.85-1.82-.85-1.03-.02-2.02.45-2.65,1.27-.36.47-.63,1-.79,1.57-.2.71-.3,1.44-.29,2.17-.01.74.08,1.47.29,2.18.16.57.43,1.1.79,1.57.64.82,1.62,1.29,2.65,1.27.89,0,1.5-.28,1.82-.85l.17-.5c.1-.34.25-.5.43-.5.16,0,.24.17.24.5v1.53Z"/>
            <path id="Fill_19" data-name="Fill 19" class="cls-2" d="m834.99,417.66h-2.69c-.24,0-.36-.09-.36-.26,0-.09.06-.17.15-.21.11-.06.21-.12.31-.16.13-.06.23-.11.31-.16.1-.05.15-.11.15-.18,0-.04,0-.07-.02-.11l-.61-2c-.05-.19-.22-.32-.42-.31h-3.78c-.29,0-.46.11-.5.31l-.54,1.98s-.02.07-.02.1c0,.01,0,.03-.02.03,0,.07.05.13.15.17s.21.1.31.14c.11.05.21.1.31.16.09.04.15.13.15.23,0,.17-.12.26-.35.26h-2.38c-.22,0-.33-.09-.33-.26,0-.1.06-.19.15-.24.11-.06.23-.11.35-.16.13-.05.26-.11.38-.18.12-.06.21-.17.25-.3l3.33-10.23c.05-.22.25-.36.47-.35h.66c.2-.01.38.12.43.31l3.36,10.3c.1.25.34.41.61.42.33.13.5.27.5.42,0,.17-.11.26-.33.26Zm-6.99-4.4c0,.1.08.16.24.16h3.38c.1,0,.16-.05.16-.14-.01,0-.02-.01-.02-.03,0-.02,0-.04,0-.06,0-.03,0-.05,0-.08l-1.7-5.24c-.05-.12-.09-.17-.12-.17-.05,0-.08.06-.12.17l-1.77,5.24c-.01.07-.03.16-.03.16h0Z"/>
            <path id="Fill_20" data-name="Fill 20" class="cls-2" d="m852.8,417.66h-2.72c-.23,0-.35-.09-.35-.26,0-.11.05-.22.16-.28.11-.06.23-.11.36-.14.12-.03.24-.08.36-.14.1-.05.16-.16.16-.28v-9.38c0-.11-.06-.2-.16-.25-.11-.07-.23-.13-.36-.17-.12-.04-.24-.09-.36-.15-.09-.04-.16-.14-.16-.24,0-.17.12-.26.35-.26h3.35c1.3,0,2.29.26,2.94.77.68.57,1.04,1.44.98,2.32.06.91-.3,1.8-.98,2.4-.65.54-1.66.82-2.97.82h-.93c-.23,0-.35.11-.35.31v3.83c0,.23.17.37.52.42.33.06.5.2.5.42,0,.17-.11.26-.33.26Zm-.36-10.7c-.09,0-.18.02-.25.08-.06.06-.09.15-.08.24v3.99c0,.21.11.31.33.31l.97-.02c.69.03,1.38-.17,1.94-.57.46-.44.7-1.07.65-1.71.05-.63-.18-1.25-.64-1.69-.57-.4-1.25-.61-1.95-.59l-.9-.03s-.05,0-.07,0h0Z"/>
            <path id="Fill_21" data-name="Fill 21" class="cls-2" d="m875.94,417.4c-.02.17-.15.26-.36.26h-2.71c-.23,0-.35-.09-.35-.26,0-.12.05-.22.16-.28.11-.06.23-.11.36-.14.12-.03.24-.07.36-.13.1-.05.16-.16.16-.27v-9.43c0-.1-.06-.19-.16-.23-.11-.06-.23-.12-.36-.16-.12-.04-.24-.09-.36-.16-.1-.04-.16-.14-.16-.24,0-.17.12-.26.36-.26h2.69c.23,0,.35.09.35.26s-.17.31-.5.42c-.35.06-.52.2-.52.42v9.36c0,.12.06.23.16.28.11.06.23.11.36.15.12.04.24.09.36.14.11.05.17.15.17.27"/>
            <path id="Fill_22" data-name="Fill 22" class="cls-2" d="m899.5,407.64c0,.22-.09.33-.26.33-.1,0-.2-.06-.24-.16-.06-.11-.12-.23-.16-.35-.05-.12-.11-.24-.17-.35-.05-.1-.16-.16-.27-.16h-1.94c-.22,0-.33.12-.33.35v9.24c0,.24.17.39.52.43.34.13.5.27.5.42,0,.17-.12.26-.35.26h-2.72c-.22,0-.33-.09-.33-.26,0-.1.06-.19.16-.23.11-.06.23-.12.36-.17.12-.05.24-.11.36-.17.1-.05.16-.16.16-.27v-9.25c0-.23-.12-.35-.36-.35h-2.12c-.11,0-.22.06-.27.16-.07.11-.13.23-.17.35-.05.12-.1.23-.16.35-.04.1-.14.16-.24.16-.17,0-.26-.11-.26-.33v-1.2c0-.22.12-.33.37-.33h7.61c.16-.02.31.09.33.25,0,.03,0,.05,0,.08l.02,1.2Z"/>
            <path id="Fill_23" data-name="Fill 23" class="cls-2" d="m921.81,417.66h-2.69c-.24,0-.36-.09-.36-.26,0-.09.06-.17.15-.21.11-.06.21-.12.31-.16.13-.06.23-.11.31-.16.1-.05.15-.11.15-.18,0-.04,0-.07-.02-.11l-.61-2c-.05-.19-.22-.32-.42-.31h-3.78c-.29,0-.46.11-.5.31l-.54,1.98s-.02.07-.02.1c0,.01,0,.03-.02.03,0,.07.05.13.15.17s.22.1.31.14c.11.05.21.1.31.16.09.04.15.13.15.23,0,.17-.12.26-.35.26h-2.38c-.22,0-.33-.09-.33-.26,0-.1.06-.19.15-.24.11-.06.23-.11.35-.16.13-.05.26-.11.38-.18.12-.06.21-.17.25-.3l3.33-10.23c.05-.22.25-.36.47-.35h.66c.2-.01.38.12.43.31l3.36,10.3c.1.25.34.41.61.42.33.13.5.27.5.42,0,.17-.11.26-.33.26Zm-6.99-4.4c0,.1.08.16.24.16h3.38c.11,0,.16-.05.16-.14-.01,0-.02-.01-.02-.03,0-.02,0-.04,0-.06,0-.03,0-.05,0-.08l-1.7-5.24c-.05-.12-.09-.17-.12-.17-.05,0-.09.06-.12.17l-1.77,5.24c-.02.1-.03.16-.03.16h0Z"/>
            <path id="Fill_24" data-name="Fill 24" class="cls-2" d="m944.95,417.37c0,.19-.12.29-.35.29h-7.29c-.23,0-.35-.09-.35-.26,0-.1.06-.2.16-.24.11-.06.23-.11.36-.16.12-.04.24-.09.36-.16.1-.05.16-.15.16-.26v-9.38c0-.11-.06-.22-.16-.27-.11-.07-.23-.13-.36-.17-.12-.05-.24-.1-.36-.16-.1-.04-.16-.14-.16-.24,0-.16.12-.24.37-.24h2.72c.21,0,.31.08.31.24,0,.1-.06.2-.16.25-.11.06-.23.12-.36.17-.12.05-.24.1-.36.17-.1.04-.16.14-.16.24v9.31c0,.22.12.33.35.33h4.18c.1,0,.2-.06.24-.16.06-.12.12-.23.16-.36.05-.12.1-.24.16-.36.04-.09.14-.16.24-.16.17,0,.26.1.26.29v1.3Z"/>
            <path id="Fill_25" data-name="Fill 25" class="cls-2" d="m950.81,417.63c-.74,0-1.34-.61-1.33-1.35,0-.74.61-1.34,1.35-1.33.74,0,1.33.6,1.33,1.34,0,.74-.6,1.34-1.34,1.34h0Zm0-2.51c-.64,0-1.16.53-1.16,1.18,0,.64.53,1.16,1.18,1.16.64,0,1.16-.52,1.16-1.16,0-.65-.52-1.17-1.17-1.17,0,0,0,0,0,0Zm-.31,1.88h-.24v-1.42h.67c.12,0,.53.03.53.44,0,.19-.13.36-.31.4.02.03.06.1.11.19.08.15.19.34.22.38h-.26l-.29-.54h-.41v.55h0Zm0-1.23v.5h.4c.23,0,.32-.13.32-.25,0-.06-.02-.26-.31-.26h-.41Z"/>
          </g>
        </g>
      </g>
    </g>
    <g id="stellantis-paddle">
      <path id="stellantis-logo" class="cls-2" d="m147.47,309.21c.18-.01.31-.17.3-.35-.01-.18-.17-.31-.35-.3-.18.01-.31.17-.3.35,0,0,0,0,0,0,.02.18.17.31.35.29m-20.6-10.5c0,.52.42.94.94.94s.94-.42.94-.94-.42-.94-.94-.94-.94.42-.94.94h0m5.99,2.02c0,.52.42.95.95.95s.95-.42.95-.95-.42-.95-.95-.95c0,0,0,0,0,0-.52,0-.94.42-.94.94,0,0,0,0,0,0m-22.56,24.69c0,.52.42.95.94.95.52,0,.95-.42.95-.94,0-.52-.42-.95-.94-.95,0,0,0,0,0,0-.52,0-.95.42-.95.94,0,0,0,0,0,0m4.66,3.92c0,.52.42.95.95.95.52,0,.95-.42.95-.95s-.42-.95-.95-.95c0,0,0,0,0,0-.52,0-.94.43-.94.95m5.95,1.82c0,.52.42.95.95.95s.95-.42.95-.95-.42-.95-.95-.95h0c-.52,0-.95.42-.95.95m6.1-.08c.01.52.45.93.97.92s.93-.45.92-.97c-.01-.51-.43-.92-.94-.92-.52,0-.94.42-.94.94,0,0,0,0,0,0m5.85-1.86c0,.52.42.95.94.95.52,0,.95-.42.95-.94,0-.52-.42-.95-.94-.95,0,0,0,0-.01,0-.52,0-.95.42-.95.95m4.66-3.75c0,.52.42.95.95.95s.95-.42.95-.95-.42-.95-.95-.95h0c-.52,0-.95.42-.95.95m-.06-20.99c0,.52.43.94.95.94.52,0,.94-.43.94-.95,0-.52-.42-.94-.94-.94-.52,0-.94.42-.94.94,0,0,0,0,0,0m-6.61-2.5c0-.66-.54-1.2-1.21-1.2-.66,0-1.2.54-1.2,1.21,0,.66.54,1.2,1.2,1.2.66,0,1.2-.54,1.2-1.2,0,0,0,0,0,0m4.05,2.49c0-.66-.54-1.2-1.21-1.2-.66,0-1.2.54-1.2,1.21,0,.66.54,1.2,1.2,1.2.66,0,1.2-.54,1.2-1.2,0,0,0,0,0,0m3.16,3.56c0-.67-.54-1.21-1.21-1.21-.67,0-1.21.54-1.21,1.21,0,.67.54,1.21,1.21,1.21,0,0,0,0,0,0,.66,0,1.2-.54,1.2-1.2,0,0,0,0,0,0m-8.66-13.53c.02-.18-.11-.33-.28-.35-.18-.01-.33.12-.35.29-.01.18.12.33.29.35.17.02.33-.11.35-.29,0,0,0,0,0,0m8.06,2.93c.02-.17-.11-.33-.29-.35,0,0,0,0,0,0-.18,0-.32.15-.32.33,0,.15.11.28.26.31.18.01.33-.12.35-.29m6.33,4.55c.02-.18-.11-.34-.29-.35,0,0,0,0,0,0-.17-.02-.33.11-.35.29,0,0,0,0,0,0-.03.18.08.35.26.38.18.03.35-.08.38-.26,0-.02,0-.04,0-.06m-10.96-4.2c.02-.34-.24-.63-.58-.64-.34-.02-.63.24-.64.58-.02.33.23.61.56.64.34.03.63-.22.66-.56,0,0,0-.01,0-.02m6.15,3.08c.03-.34-.22-.63-.56-.66,0,0-.01,0-.02,0-.34-.04-.64.19-.69.53-.04.34.19.64.53.69.02,0,.04,0,.06,0,.33.03.63-.22.66-.55,0,0,0-.02,0-.03m4.21,4.38c-.34-.02-.63.24-.64.58-.02.34.24.63.58.64.33.02.61-.23.64-.56.03-.34-.22-.63-.56-.66,0,0-.01,0-.02,0m-18.34-9.12c-.34,0-.62.27-.62.61,0,.34.27.62.61.62.34,0,.62-.27.62-.61,0,0,0,0,0-.01,0-.34-.27-.61-.61-.61m-2.98,1.68c-.52,0-.95.42-.95.94s.42.95.94.95.95-.42.95-.94c0,0,0,0,0-.01,0-.52-.42-.94-.94-.94h0m-5.99,2.02c-.52,0-.95.42-.95.94s.42.95.94.95c.52,0,.95-.42.95-.94,0,0,0,0,0,0,0-.52-.42-.95-.94-.95m-8.76,14.27c-.52,0-.95.42-.95.94s.42.95.94.95c.52,0,.95-.42.95-.94,0,0,0,0,0-.01,0-.52-.42-.94-.94-.94h0m1.16-5.57c-.52,0-.95.42-.95.94s.42.95.94.95.95-.42.95-.94c0,0,0,0,0,0,0-.52-.42-.95-.94-.95,0,0,0,0,0,0m3.01-4.97c-.52,0-.95.42-.95.94s.42.95.94.95.95-.42.95-.94c0,0,0,0,0,0,0-.52-.42-.95-.94-.95m13.56,26.41c.67,0,1.21-.54,1.21-1.2s-.54-1.21-1.2-1.21c-.67,0-1.21.54-1.21,1.2,0,0,0,0,0,0,0,.67.54,1.21,1.2,1.21m0-27.46c.67,0,1.21-.54,1.21-1.2s-.54-1.21-1.2-1.21c-.67,0-1.21.54-1.21,1.2,0,0,0,0,0,0,0,.67.54,1.21,1.2,1.21m-4.8.71c.67,0,1.21-.54,1.21-1.2s-.54-1.21-1.2-1.21c-.67,0-1.21.54-1.21,1.2,0,0,0,0,0,0,0,.66.53,1.21,1.2,1.21,0,0,0,0,0,0m-4.05,2.49c.67,0,1.21-.54,1.21-1.2,0-.67-.54-1.21-1.2-1.21-.67,0-1.21.54-1.21,1.2,0,0,0,0,0,0,0,.66.53,1.21,1.2,1.21,0,0,0,0,0,0m-3.19,3.57c.67.02,1.22-.51,1.24-1.18.02-.67-.51-1.22-1.18-1.24s-1.22.51-1.24,1.18c0,0,0,0,0,.01,0,.66.53,1.21,1.2,1.21,0,0,0,0,0,0m-1.31,4.49c.67,0,1.21-.54,1.21-1.2s-.54-1.21-1.2-1.21c-.67,0-1.21.54-1.21,1.2,0,0,0,0,0,.01,0,.66.54,1.2,1.2,1.2h0m9.12-18.94c.18-.02.31-.17.29-.35-.02-.18-.17-.31-.35-.29-.18.02-.31.18-.29.35.01.18.16.31.34.3,0,0,0,0,0,0m-8.06,2.93c.18-.01.31-.16.3-.34,0,0,0,0,0,0-.02-.18-.17-.31-.35-.29-.18.01-.31.16-.3.34,0,0,0,0,0,0,.02.18.17.31.35.29m34.92,25.28c.18,0,.33-.14.33-.32s-.14-.33-.32-.33c-.02,0-.05,0-.07,0-.18.01-.31.16-.3.34,0,0,0,0,0,0,.02.18.17.31.35.29m-3.86,5.38c.18-.02.31-.18.29-.35-.02-.18-.17-.31-.35-.29-.18.02-.31.17-.29.35.02.18.17.31.35.29m-6.45,4.52c.18-.01.31-.16.3-.34,0,0,0,0,0,0,0-.18-.14-.33-.32-.33-.18,0-.33.14-.33.32,0,.02,0,.04,0,.06.02.18.17.3.34.29,0,0,0,0,0,0m-8.05,2.89c.18-.02.31-.18.29-.35-.01-.18-.16-.31-.34-.3,0,0,0,0,0,0-.18.02-.31.17-.29.35.02.18.17.31.35.29m-8.49,0c.18-.02.31-.17.29-.35-.02-.18-.17-.31-.35-.29h0c-.18.02-.31.18-.29.35.01.18.16.31.34.3,0,0,0,0,0,0m-8.06-2.93c.18-.01.31-.16.3-.34,0,0,0,0,0,0-.02-.18-.17-.31-.35-.29-.18.01-.31.16-.3.34,0,0,0,0,0,0,.02.18.17.31.35.29m-6.36-4.54c.18-.01.31-.17.3-.35s-.17-.31-.35-.3c-.18.01-.31.17-.3.35,0,0,0,0,0,0,.02.18.17.31.35.29m-3.98-5.32c.18,0,.33-.14.33-.32s-.14-.33-.32-.33c-.02,0-.05,0-.07,0-.18.03-.29.2-.26.38.03.15.16.26.31.26m4-20.76c.18-.01.31-.17.3-.35s-.17-.31-.35-.3c-.18.01-.31.17-.3.35,0,0,0,0,0,0,.02.18.17.31.35.29m11.27-3.94c.34-.03.59-.33.56-.66s-.33-.59-.66-.56c-.33.03-.58.31-.56.64.02.34.31.6.64.58,0,0,.01,0,.02,0m-6.15,3.08c.34-.04.57-.35.53-.69-.04-.31-.32-.54-.63-.53-.34.01-.6.3-.59.64.01.34.3.6.64.59.02,0,.04,0,.06,0m-5.43,4.49c0,.32.25.58.57.58.03,0,.06,0,.09,0,.34-.03.59-.32.56-.66-.03-.34-.32-.59-.66-.56-.33.03-.58.31-.57.64m39.71,11.65c-.34.03-.59.33-.56.67.03.34.33.59.67.56h0c.34-.03.59-.33.56-.67-.03-.34-.33-.59-.67-.56h0m-2.41,5.95c-.34.03-.59.33-.56.66s.33.59.66.56c.33-.03.58-.31.56-.64-.02-.34-.31-.6-.64-.58,0,0-.01,0-.02,0m-4.76,5.06c-.34.03-.59.32-.56.66.03.34.32.59.66.56.33-.03.58-.31.57-.64,0-.32-.25-.58-.57-.58-.03,0-.06,0-.09,0m-6.27,3.08c-.34.02-.6.31-.58.64,0,0,0,.01,0,.02.01.34.3.6.64.59.34-.01.6-.3.59-.64,0-.02,0-.04,0-.06-.01-.34-.3-.59-.63-.58,0,0-.02,0-.03,0m-7.4,1.01c-.34.01-.6.3-.59.64.01.34.3.6.64.59.02,0,.04,0,.06,0,.34-.04.57-.35.53-.69-.04-.31-.32-.54-.63-.53m-7.1-.81c-.34.03-.59.33-.56.67.03.34.33.59.67.56s.59-.33.56-.67c-.03-.34-.33-.59-.67-.56h0m-6.43-3.24c-.34.01-.6.3-.59.64.01.34.3.6.64.59.02,0,.04,0,.06,0,.34-.04.57-.35.53-.69-.04-.31-.32-.54-.63-.53m-4.77-5.07c-.34.03-.59.33-.56.66s.33.59.66.56c.33-.03.58-.31.56-.64-.02-.34-.31-.6-.64-.58,0,0-.01,0-.02,0m-2.66-11.75c-.34.03-.59.33-.56.66s.33.59.66.56c.33-.03.58-.31.56-.64-.02-.34-.31-.6-.64-.58,0,0-.01,0-.02,0m17.43,16.19c0-.66-.54-1.2-1.2-1.2s-1.2.54-1.2,1.2.54,1.2,1.2,1.2,1.2-.54,1.2-1.2h0m8.31-1.21c-.67,0-1.21.54-1.21,1.2s.54,1.21,1.2,1.21c.67,0,1.21-.54,1.21-1.2,0,0,0,0,0,0,0-.66-.53-1.21-1.2-1.21,0,0,0,0,0,0m4.12-2.39c-.67.01-1.2.56-1.19,1.23s.56,1.2,1.23,1.19c.65-.01,1.17-.54,1.19-1.19,0-.67-.54-1.21-1.2-1.21m4.34-2.45c0-.66-.54-1.2-1.21-1.2-.66,0-1.2.54-1.2,1.21,0,.66.54,1.2,1.2,1.2.66,0,1.2-.54,1.2-1.2,0,0,0,0,0,0m-22.03,2.37c-.67,0-1.21.54-1.21,1.2s.54,1.21,1.2,1.21c.67,0,1.21-.54,1.21-1.2,0,0,0,0,0,0,0-.66-.53-1.21-1.2-1.21,0,0,0,0,0,0m-3.19-3.57c-.67,0-1.21.54-1.21,1.2s.54,1.21,1.2,1.21c.67,0,1.21-.54,1.21-1.2,0,0,0,0,0-.01,0-.66-.54-1.2-1.2-1.2h0m48.29-10.36h7.46v9.95h2.62v-9.95h6.8l.63-1.74h-16.87l-.64,1.74Zm-60.45-1.74h-2.62v11.68h11.95l.64-1.74h-9.97v-9.95Zm24.36,0l6.32,11.57h2.81l-6.32-11.54-2.81-.03Zm-9.54,11.57h2.81l6.31-11.54h-2.81l-6.31,11.54Zm37.67-2.89l-10.99-8.63h-2.63v11.52h2.62v-8.68l10.99,8.68h2.61v-11.54h-2.61v8.65Zm52.96-3.75h-8.03c-.8.07-1.52-.52-1.59-1.32,0-.04,0-.08,0-.13v-.32c.01-.8.67-1.43,1.46-1.42.03,0,.07,0,.1,0h10.84l.64-1.74h-12.24c-2.2,0-3.33,1.49-3.35,2.96v.76c0,1.5,1.16,3.05,3.42,3.05h8.03c.8-.07,1.52.52,1.59,1.32,0,.04,0,.07,0,.11v.32c-.02.8-.67,1.43-1.47,1.41-.03,0-.07,0-.1,0h-10.84l-.64,1.74h12.24c2.2,0,3.33-1.49,3.35-2.96v-.76c0-1.49-1.16-3.04-3.42-3.04m-181.03,0h-8.05c-.8.07-1.52-.52-1.59-1.32,0-.04,0-.07,0-.11v-.32c.01-.8.67-1.43,1.46-1.42.03,0,.07,0,.1,0h10.84l.64-1.74h-12.24c-2.2.05-3.33,1.52-3.35,2.99v.76c0,1.5,1.16,3.05,3.42,3.05h8.03c.8-.07,1.52.52,1.59,1.32,0,.04,0,.07,0,.11v.32c-.02.8-.67,1.43-1.47,1.41-.03,0-.07,0-.1,0h-10.84l-.64,1.74h12.24c2.2,0,3.33-1.49,3.35-2.96v-.79c0-1.49-1.16-3.04-3.42-3.04m159.12,6.66h2.62v-11.54h-2.62v11.54Zm-149.99-9.83h7.45v9.95h2.62v-9.95h6.8l.64-1.74h-16.88l-.63,1.74Zm35.86,0l.64-1.74h-13.26v11.68h12.64l.64-1.74h-10.64v-3.28h7.44l.63-1.7h-8.1v-3.23h10.01Zm11.13,8.22h9.97l-.64,1.74h-11.95v-11.67h2.62v9.93Z"/>
      <rect id="left-paddle" class="cls-2" x="218.66" y="249.1" width="16.22" height="131.73"/>
    </g>
    <g id="v1">
      <polygon id="letter-v-1" class="cls-2" points="300.49 30.66 284.28 30.66 284.28 81.48 273.28 81.48 273.28 94.94 263.28 94.94 263.28 101.35 254.88 101.35 254.88 94.94 244.88 94.94 244.88 81.48 234.88 81.48 234.88 30.66 218.66 30.66 218.66 84.52 228.66 84.52 228.66 94.94 238.66 94.94 238.66 108.41 250.66 108.41 250.66 117.56 266.88 117.56 266.88 108.41 279.49 108.41 279.49 94.94 289.49 94.94 289.49 84.52 300.49 84.52 300.49 30.66"/>
      <polygon id="num-1" class="cls-2" points="372.25 104.1 372.25 30.66 356.04 30.66 356.04 37.76 344.7 37.76 344.7 51.23 356.04 51.23 356.04 104.1 344.7 104.1 344.7 117.56 356.04 117.56 372.25 117.56 383.59 117.56 383.59 104.1 372.25 104.1"/>
    </g>
    <g id="v3">
      <polygon id="num-3" class="cls-2" points="754.97 30.66 700.34 30.66 700.34 46.88 754.97 46.88 754.97 66 700.34 66 700.34 82.22 754.97 82.22 754.97 101.35 700.34 101.35 700.34 117.56 754.97 117.56 771.18 117.56 771.18 101.35 771.18 82.22 771.18 66 771.18 46.88 771.18 30.66 754.97 30.66"/>
      <polygon id="letter-v-2" class="cls-2" points="665.11 30.66 648.9 30.66 648.9 81.48 637.9 81.48 637.9 94.94 627.9 94.94 627.9 101.35 619.5 101.35 619.5 94.94 609.5 94.94 609.5 81.48 599.5 81.48 599.5 30.66 583.28 30.66 583.28 84.52 593.28 84.52 593.28 94.94 603.28 94.94 603.28 108.41 615.28 108.41 615.28 117.56 631.5 117.56 631.5 108.41 644.11 108.41 644.11 94.94 654.11 94.94 654.11 84.52 665.11 84.52 665.11 30.66"/>
    </g>
    
  </g>
</svg>