<?xml version="1.0" encoding="UTF-8"?>
<svg id="Layer_2" data-name="Layer 2" xmlns="http://www.w3.org/2000/svg" viewBox="0 0 980 889.26">
  <defs>
    <style>
      .cls-1 {
        letter-spacing: 0em;
      }

      .cls-2 {
        letter-spacing: -.02em;
      }

      .cls-3 {
        letter-spacing: -.02em;
      }

      .cls-4 {
        letter-spacing: -.02em;
      }

      .cls-5 {
        letter-spacing: -.02em;
      }

      .cls-6 {
        stroke-width: 15.8px;
      }

      .cls-6, .cls-7, .cls-8 {
        fill: none;
        stroke: #707071;
      }

      .cls-9 {
        fill: #fff;
      }

      .cls-10 {
        letter-spacing: -.01em;
      }

      .cls-11 {
        letter-spacing: -.01em;
      }

      .cls-12 {
        letter-spacing: 0em;
      }

      .cls-13 {
        letter-spacing: -.02em;
      }

      .cls-14 {
        font-family: NotoSansJP-Bold-83pv-RKSJ-H, 'Noto Sans JP';
        font-size: 33.18px;
        font-weight: 700;
      }

      .cls-14, .cls-15 {
        fill: #707071;
      }

      .cls-14, .cls-16 {
        isolation: isolate;
      }

      .cls-17 {
        letter-spacing: -.01em;
      }

      .cls-18 {
        letter-spacing: 0em;
      }

      .cls-19 {
        letter-spacing: -.02em;
      }

      .cls-15 {
        font-family: NotoSansJP-Regular-83pv-RKSJ-H, 'Noto Sans JP';
        font-size: 23.7px;
      }

      .cls-20 {
        letter-spacing: -.02em;
      }

      .cls-21 {
        letter-spacing: -.01em;
      }

      .cls-22 {
        letter-spacing: 0em;
      }

      .cls-23 {
        letter-spacing: 0em;
      }

      .cls-24 {
        letter-spacing: 0em;
      }

      .cls-25 {
        letter-spacing: -.01em;
      }

      .cls-26 {
        letter-spacing: -.01em;
      }

      .cls-27 {
        letter-spacing: -.02em;
      }

      .cls-28 {
        letter-spacing: -.02em;
      }

      .cls-7 {
        stroke-width: 12.64px;
      }

      .cls-29 {
        letter-spacing: -.02em;
      }

      .cls-8 {
        stroke-miterlimit: 4;
        stroke-width: 12.64px;
      }

      .cls-30 {
        letter-spacing: .01em;
      }

      .cls-31 {
        letter-spacing: -.01em;
      }

      .cls-32 {
        letter-spacing: 0em;
      }

      .cls-33 {
        letter-spacing: 0em;
      }
    </style>
  </defs>
  <g id="Layer_1-2" data-name="Layer 1">
    <g id="Group_533" data-name="Group 533">
      <g id="Rectangle_169" data-name="Rectangle 169">
        <rect class="cls-9" x="507.95" y="106" width="302.73" height="677.27" transform="translate(-133.98 389.23) rotate(-30)"/>
        <rect class="cls-8" x="514.27" y="112.32" width="290.09" height="664.63" transform="translate(-133.98 389.23) rotate(-30)"/>
      </g>
      <g id="Rectangle_168" data-name="Rectangle 168">
        <rect class="cls-9" x="-17.95" y="293.27" width="677.27" height="302.73" transform="translate(-224.72 500.03) rotate(-60)"/>
        <rect class="cls-8" x="-11.63" y="299.58" width="664.63" height="290.09" transform="translate(-224.72 500.03) rotate(-60)"/>
      </g>
      <g id="Rectangle_170" data-name="Rectangle 170">
        <rect class="cls-9" x="151.37" y="586.53" width="677.27" height="302.73"/>
        <rect class="cls-7" x="157.69" y="592.85" width="664.63" height="290.09"/>
      </g>
      <g id="Ellipse_112" data-name="Ellipse 112">
        <circle class="cls-9" cx="151.37" cy="737.9" r="151.37"/>
        <circle class="cls-6" cx="151.37" cy="737.9" r="143.47"/>
      </g>
      <g id="Ellipse_115" data-name="Ellipse 115">
        <circle class="cls-9" cx="828.63" cy="737.9" r="151.37"/>
        <circle class="cls-6" cx="828.63" cy="737.9" r="143.47"/>
      </g>
      <g id="Customer:_Car_Dealerships" data-name="Customer: Car Dealerships" class="cls-16">
        <text class="cls-14" transform="translate(66.75 726.05)"><tspan class="cls-11" x="0" y="0">C</tspan><tspan x="21.4" y="0">u</tspan><tspan class="cls-2" x="42.53" y="0">s</tspan><tspan class="cls-19" x="58.19" y="0">t</tspan><tspan x="71.5" y="0">ome</tspan><tspan class="cls-30" x="143.52" y="0">r</tspan><tspan class="cls-18" x="158.45" y="0">:</tspan><tspan x="-46.55" y="39.81">Car D</tspan><tspan class="cls-21" x="40.54" y="39.81">e</tspan><tspan class="cls-12" x="59.35" y="39.81">ale</tspan><tspan class="cls-23" x="108.69" y="39.81">r</tspan><tspan x="122.89" y="39.81">shi</tspan><tspan class="cls-33" x="170.63" y="39.81">p</tspan><tspan x="191.83" y="39.81">s </tspan></text>
      </g>
      <g id="Ellipse_114" data-name="Ellipse 114">
        <circle class="cls-9" cx="490" cy="151.37" r="151.37"/>
        <circle class="cls-6" cx="490" cy="151.37" r="143.47"/>
      </g>
      <g id="Chrysler_Capital" data-name="Chrysler Capital" class="cls-16">
        <text class="cls-14" transform="translate(421.19 139.52)"><tspan x="0" y="0">Ch</tspan><tspan class="cls-30" x="43.03" y="0">r</tspan><tspan x="57.96" y="0">ysler</tspan><tspan x="10.77" y="39.81">Capi</tspan><tspan class="cls-3" x="83.62" y="39.81">t</tspan><tspan x="96.79" y="39.81">al</tspan></text>
      </g>
      <g id="Customer:_Car_Shopper" data-name="Customer: Car Shopper" class="cls-16">
        <text class="cls-14" transform="translate(744.02 726.05)"><tspan class="cls-10" x="0" y="0">C</tspan><tspan x="21.4" y="0">u</tspan><tspan class="cls-4" x="42.53" y="0">s</tspan><tspan class="cls-19" x="58.19" y="0">t</tspan><tspan x="71.5" y="0">ome</tspan><tspan class="cls-30" x="143.52" y="0">r</tspan><tspan x="158.45" y="0">:</tspan><tspan x="-16.67" y="39.81">Car Shopper</tspan></text>
      </g>
      <g id="Dealerships_have_direct_contact_with_customers_and_are_in_charge_of_finalizing_the_deal._" data-name="Dealerships have direct contact with customers and are in charge of finalizing the deal. " class="cls-16">
        <text class="cls-15" transform="translate(358.91 705.17)"><tspan x="0" y="0">D</tspan><tspan class="cls-20" x="16.28" y="0">e</tspan><tspan x="29.03" y="0">ale</tspan><tspan class="cls-22" x="62.28" y="0">r</tspan><tspan x="71.38" y="0">ships ha</tspan><tspan class="cls-22" x="162.21" y="0">v</tspan><tspan x="174.46" y="0">e di</tspan><tspan class="cls-26" x="214.11" y="0">r</tspan><tspan x="223.04" y="0">e</tspan><tspan class="cls-26" x="236.17" y="0">c</tspan><tspan x="247.97" y="0">t </tspan><tspan class="cls-13" x="0" y="28.44">c</tspan><tspan x="11.49" y="28.44">on</tspan><tspan class="cls-13" x="40.33" y="28.44">t</tspan><tspan x="48.7" y="28.44">a</tspan><tspan class="cls-26" x="62.07" y="28.44">c</tspan><tspan class="cls-1" x="73.87" y="28.44">t with cu</tspan><tspan class="cls-28" x="168.7" y="28.44">s</tspan><tspan class="cls-31" x="179.27" y="28.44">t</tspan><tspan x="187.85" y="28.44">ome</tspan><tspan class="cls-22" x="237.29" y="28.44">r</tspan><tspan x="246.38" y="28.44">s </tspan><tspan x="0" y="56.88">and a</tspan><tspan class="cls-26" x="61.21" y="56.88">r</tspan><tspan x="70.15" y="56.88">e in cha</tspan><tspan class="cls-26" x="154.7" y="56.88">r</tspan><tspan class="cls-31" x="163.63" y="56.88">g</tspan><tspan x="176.62" y="56.88">e of </tspan><tspan x="0" y="85.31">finalizing the d</tspan><tspan class="cls-20" x="162.66" y="85.31">e</tspan><tspan x="175.41" y="85.31">al. </tspan></text>
      </g>
      <g id="Dealerships_have_direct_contact_with_customers_and_are_in_charge_of_finalizing_the_deal._-2" data-name="Dealerships have direct contact with customers and are in charge of finalizing the deal. " class="cls-16">
        <text class="cls-15" transform="translate(205.38 402.7)"><tspan x="0" y="0">D</tspan><tspan class="cls-20" x="16.28" y="0">e</tspan><tspan x="29.03" y="0">ale</tspan><tspan class="cls-22" x="62.28" y="0">r</tspan><tspan x="71.38" y="0">ships will choose </tspan><tspan x="0" y="28.44">financial </tspan><tspan class="cls-13" x="100.55" y="28.44">c</tspan><tspan x="112.04" y="28.44">om</tspan><tspan class="cls-20" x="148.35" y="28.44">p</tspan><tspan x="162.66" y="28.44">anies </tspan><tspan class="cls-26" x="226.55" y="28.44">f</tspan><tspan x="233.99" y="28.44">or </tspan><tspan x="0" y="56.88">cu</tspan><tspan class="cls-27" x="26.45" y="56.88">s</tspan><tspan class="cls-31" x="37.02" y="56.88">t</tspan><tspan x="45.59" y="56.88">ome</tspan><tspan class="cls-22" x="95.03" y="56.88">r</tspan><tspan x="104.13" y="56.88">s th</tspan><tspan class="cls-31" x="143.84" y="56.88">a</tspan><tspan x="156.85" y="56.88">t will </tspan><tspan x="0" y="85.31">gi</tspan><tspan class="cls-22" x="19.86" y="85.31">v</tspan><tspan x="32.11" y="85.31">e the be</tspan><tspan class="cls-27" x="120.08" y="85.31">s</tspan><tspan x="130.64" y="85.31">t d</tspan><tspan class="cls-20" x="159.58" y="85.31">e</tspan><tspan x="172.33" y="85.31">al </tspan><tspan class="cls-31" x="197.76" y="85.31">t</tspan><tspan x="206.33" y="85.31">o </tspan><tspan x="0" y="113.75">the d</tspan><tspan class="cls-20" x="56.45" y="113.75">e</tspan><tspan x="69.2" y="113.75">ale</tspan><tspan class="cls-22" x="102.44" y="113.75">r</tspan><tspan x="111.54" y="113.75">ship</tspan></text>
      </g>
      <g id="Dealerships_have_direct_contact_with_customers_and_are_in_charge_of_finalizing_the_deal._-3" data-name="Dealerships have direct contact with customers and are in charge of finalizing the deal. " class="cls-16">
        <text class="cls-15" transform="translate(556.36 402.7)"><tspan x="0" y="0">Financial </tspan><tspan class="cls-13" x="105.93" y="0">c</tspan><tspan x="117.42" y="0">om</tspan><tspan class="cls-20" x="153.73" y="0">p</tspan><tspan x="168.04" y="0">anies </tspan><tspan class="cls-13" x="0" y="28.44">t</tspan><tspan x="8.37" y="28.44">a</tspan><tspan class="cls-5" x="21.73" y="28.44">k</tspan><tspan x="34.34" y="28.44">e on the risk of </tspan><tspan x="0" y="56.88">lending mon</tspan><tspan class="cls-32" x="139.48" y="56.88">e</tspan><tspan x="152.73" y="56.88">y and </tspan><tspan class="cls-26" x="0" y="85.31">r</tspan><tspan x="8.93" y="85.31">e</tspan><tspan class="cls-13" x="22.06" y="85.31">c</tspan><tspan x="33.56" y="85.31">ei</tspan><tspan class="cls-24" x="53.2" y="85.31">v</tspan><tspan x="65.45" y="85.31">e </tspan><tspan class="cls-20" x="83.89" y="85.31">p</tspan><tspan x="98.2" y="85.31">aymen</tspan><tspan class="cls-17" x="173.47" y="85.31">t</tspan><tspan x="182.14" y="85.31">s </tspan><tspan x="0" y="113.75">plus in</tspan><tspan class="cls-31" x="73.22" y="113.75">t</tspan><tspan x="81.8" y="113.75">e</tspan><tspan class="cls-25" x="94.93" y="113.75">r</tspan><tspan x="103.86" y="113.75">e</tspan><tspan class="cls-29" x="116.99" y="113.75">s</tspan><tspan x="127.56" y="113.75">t f</tspan><tspan class="cls-25" x="149.51" y="113.75">r</tspan><tspan x="158.44" y="113.75">om </tspan><tspan x="0" y="142.19">the cu</tspan><tspan class="cls-28" x="68.2" y="142.19">s</tspan><tspan class="cls-31" x="78.77" y="142.19">t</tspan><tspan x="87.35" y="142.19">omer</tspan></text>
      </g>
    </g>
  </g>
</svg>