<?xml version="1.0" encoding="UTF-8"?>
<svg id="Layer_2" data-name="Layer 2" xmlns="http://www.w3.org/2000/svg" xmlns:xlink="http://www.w3.org/1999/xlink" viewBox="0 0 980 889.26">
  <defs>
    <style>
      .cls-1 {
        fill: url(#linear-gradient);
      }

      .cls-1, .cls-2, .cls-3, .cls-4, .cls-5, .cls-6, .cls-7 {
        stroke-width: 0px;
      }

      .cls-2 {
        fill: url(#linear-gradient-2);
      }

      .cls-3 {
        fill: url(#linear-gradient-3);
      }

      .cls-8 {
        isolation: isolate;
      }

      .cls-4 {
        fill: #625081;
      }

      .cls-5 {
        fill: #6e6d68;
      }

      .cls-6 {
        fill: #3c9591;
      }

      .cls-7 {
        fill: #fff;
      }
    </style>
    <linearGradient id="linear-gradient" x1="423.62" y1="36.39" x2="896.08" y2="854.71" gradientUnits="userSpaceOnUse">
      <stop offset=".31" stop-color="#2f76ad"/>
      <stop offset=".69" stop-color="#70205c"/>
    </linearGradient>
    <linearGradient id="linear-gradient-2" x1="565.67" y1="20.3" x2="75.7" y2="868.96" gradientUnits="userSpaceOnUse">
      <stop offset=".31" stop-color="#2f76ad"/>
      <stop offset=".69" stop-color="#52b95e"/>
    </linearGradient>
    <linearGradient id="linear-gradient-3" x1="0" y1="737.9" x2="980" y2="737.9" gradientUnits="userSpaceOnUse">
      <stop offset=".31" stop-color="#52b95e"/>
      <stop offset=".69" stop-color="#70205c"/>
    </linearGradient>
  </defs>
  <g id="Layer_1-2" data-name="Layer 1">
    <g>
      <rect class="cls-7" x="507.95" y="106" width="302.73" height="677.27" transform="translate(-133.98 389.23) rotate(-30)"/>
      <path class="cls-1" d="M979.89,743.42c.07-1.84.11-3.68.11-5.53s-.05-3.72-.11-5.57c-.95-26.23-8.57-50.75-21.21-71.92L621.09,75.68l-.03.02C594.85,30.48,545.92,0,490,0c-83.46,0-151.37,67.9-151.37,151.37,0,27.54,7.4,53.39,20.31,75.67l-.03.02,337.56,584.66c24.96,44.6,71.84,75.27,126.06,77.42,2.02.08,4.06.13,6.1.13s4.02-.05,6.02-.13c78.97-3.09,142.39-66.67,145.23-145.71ZM400.06,273.03c25.16,18.65,56.29,29.7,89.94,29.7,83.46,0,151.37-67.9,151.37-151.37,0-5.72-.33-11.37-.95-16.93l278.08,481.65c-24.25-17.92-54.03-28.77-86.31-29.51-1.18-.03-2.37-.05-3.55-.05s-2.41.02-3.61.05c-81.93,1.92-147.75,68.93-147.75,151.32,0,5.72.33,11.36.95,16.92l-278.16-481.78Z"/>
    </g>
    <rect class="cls-7" x="-17.95" y="293.27" width="677.27" height="302.73" transform="translate(-224.72 500.04) rotate(-60)"/>
    <path class="cls-2" d="M641.37,151.37C641.37,67.9,573.46,0,490,0c-55.92,0-104.85,30.48-131.06,75.7l-.03-.02L20.28,662.21l.03.02c-12.91,22.27-20.31,48.12-20.31,75.67,0,83.46,67.9,151.37,151.37,151.37,55.92,0,104.85-30.48,131.06-75.7l.03.02L621.09,227.05l-.03-.02c12.91-22.27,20.31-48.12,20.31-75.67ZM151.37,586.53c-33.66,0-64.78,11.05-89.94,29.7L339.59,134.44c-.62,5.56-.95,11.21-.95,16.93,0,83.46,67.9,151.37,151.37,151.37,33.66,0,64.78-11.05,89.94-29.7l-278.16,481.79c.62-5.56.95-11.2.95-16.93,0-83.46-67.9-151.37-151.37-151.37Z"/>
    <g>
      <rect class="cls-7" x="151.37" y="586.53" width="677.27" height="302.73"/>
      <path class="cls-3" d="M979.89,743.42c.07-1.84.11-3.68.11-5.53s-.05-3.72-.11-5.57c-2.89-79.84-67.6-143.91-147.7-145.75-1.18-.03-2.37-.05-3.55-.05-.03,0-.05,0-.08,0H151.44s-.05,0-.08,0C67.9,586.53,0,654.43,0,737.9s67.9,151.37,151.37,151.37c.03,0,.05,0,.08,0h677.11s.05,0,.08,0c2.02,0,4.02-.05,6.02-.13,78.97-3.09,142.39-66.67,145.23-145.71ZM302.73,737.9c0-61.96-37.42-115.33-90.85-138.73h556.13c-53.42,23.38-90.75,76.69-90.75,138.73s37.33,115.35,90.75,138.73H211.89c53.42-23.4,90.85-76.77,90.85-138.73Z"/>
    </g>
    <g id="Customer:_Car_Dealerships" data-name="Customer: Car Dealerships" class="cls-8">
      <g class="cls-8">
        <path class="cls-7" d="M68.54,713.87c0-8.09,5.21-12.84,11.41-12.84,3.12,0,5.61,1.49,7.2,3.15l-2.55,3.12c-1.26-1.19-2.69-2.06-4.54-2.06-3.71,0-6.5,3.18-6.5,8.46s2.52,8.56,6.4,8.56c2.12,0,3.75-1,5.08-2.42l2.59,3.05c-2.02,2.36-4.64,3.62-7.83,3.62-6.2,0-11.25-4.45-11.25-12.64Z"/>
        <path class="cls-7" d="M90.57,719.08v-11.61h4.88v10.98c0,2.85.8,3.88,2.59,3.88,1.53,0,2.52-.66,3.78-2.32v-12.54h4.88v18.58h-3.98l-.37-2.65h-.13c-1.59,1.89-3.38,3.12-5.91,3.12-4.01,0-5.74-2.79-5.74-7.43Z"/>
        <path class="cls-7" d="M110.14,723.89l2.22-3.05c1.66,1.29,3.25,2.02,4.98,2.02,1.86,0,2.69-.8,2.69-1.96,0-1.39-1.92-2.02-3.88-2.79-2.35-.9-4.98-2.32-4.98-5.44,0-3.32,2.69-5.67,6.93-5.67,2.69,0,4.78,1.13,6.3,2.29l-2.19,2.95c-1.33-.96-2.62-1.59-3.98-1.59-1.69,0-2.49.73-2.49,1.79,0,1.36,1.72,1.86,3.68,2.59,2.46.93,5.17,2.16,5.17,5.61,0,3.25-2.55,5.87-7.4,5.87-2.49,0-5.21-1.09-7.07-2.62Z"/>
        <path class="cls-7" d="M128.26,719.55v-8.23h-2.62v-3.62l2.89-.23.56-5.01h4.05v5.01h4.58v3.85h-4.58v8.23c0,2.12.86,3.12,2.52,3.12.6,0,1.33-.2,1.82-.4l.8,3.55c-1,.33-2.29.7-3.91.7-4.41,0-6.1-2.82-6.1-6.97Z"/>
        <path class="cls-7" d="M139.71,716.76c0-6.17,4.28-9.75,8.92-9.75s8.92,3.58,8.92,9.75-4.28,9.75-8.92,9.75-8.92-3.58-8.92-9.75ZM152.58,716.76c0-3.48-1.43-5.77-3.95-5.77s-3.95,2.29-3.95,5.77,1.43,5.77,3.95,5.77,3.95-2.26,3.95-5.77Z"/>
        <path class="cls-7" d="M161.63,707.47h3.98l.37,2.49h.1c1.56-1.62,3.28-2.95,5.71-2.95,2.65,0,4.21,1.19,5.11,3.25,1.69-1.79,3.48-3.25,5.91-3.25,3.95,0,5.77,2.79,5.77,7.46v11.58h-4.88v-10.98c0-2.89-.83-3.88-2.59-3.88-1.06,0-2.25.7-3.58,2.09v12.77h-4.84v-10.98c0-2.89-.86-3.88-2.62-3.88-1.06,0-2.26.7-3.55,2.09v12.77h-4.88v-18.58Z"/>
        <path class="cls-7" d="M192.46,716.76c0-6,4.25-9.75,8.66-9.75,5.11,0,7.76,3.75,7.76,8.86,0,.93-.1,1.82-.23,2.25h-11.45c.4,3.05,2.39,4.64,5.14,4.64,1.53,0,2.85-.46,4.18-1.29l1.66,2.99c-1.82,1.26-4.18,2.06-6.47,2.06-5.21,0-9.25-3.62-9.25-9.75ZM204.7,714.87c0-2.49-1.13-4.08-3.52-4.08-1.96,0-3.68,1.39-4.05,4.08h7.56Z"/>
        <path class="cls-7" d="M212.89,707.47h3.98l.36,3.28h.1c1.36-2.42,3.35-3.75,5.27-3.75,1.03,0,1.63.17,2.19.4l-.83,4.21c-.66-.2-1.19-.3-1.96-.3-1.46,0-3.22.96-4.25,3.65v11.08h-4.88v-18.58Z"/>
        <path class="cls-7" d="M227.56,710.75c0-1.82,1.29-3.18,3.02-3.18s3.05,1.36,3.05,3.18-1.29,3.15-3.05,3.15-3.02-1.36-3.02-3.15ZM227.56,723.33c0-1.83,1.29-3.18,3.02-3.18s3.05,1.36,3.05,3.18-1.29,3.18-3.05,3.18-3.02-1.39-3.02-3.18Z"/>
        <path class="cls-7" d="M21.99,753.69c0-8.09,5.21-12.84,11.41-12.84,3.12,0,5.61,1.49,7.2,3.15l-2.55,3.12c-1.26-1.19-2.69-2.06-4.54-2.06-3.72,0-6.5,3.18-6.5,8.46s2.52,8.56,6.4,8.56c2.12,0,3.75-1,5.08-2.42l2.59,3.05c-2.02,2.36-4.64,3.62-7.83,3.62-6.2,0-11.25-4.45-11.25-12.64Z"/>
        <path class="cls-7" d="M43.69,760.82c0-3.98,3.22-6.07,10.71-6.87-.1-1.82-.9-3.22-3.18-3.22-1.72,0-3.38.76-5.11,1.76l-1.76-3.22c2.19-1.36,4.84-2.46,7.76-2.46,4.71,0,7.13,2.82,7.13,8.19v10.85h-3.98l-.33-1.99h-.13c-1.63,1.39-3.48,2.46-5.61,2.46-3.32,0-5.51-2.36-5.51-5.51ZM54.41,760.69v-3.75c-4.54.56-6.07,1.83-6.07,3.48,0,1.46,1.03,2.09,2.45,2.09s2.42-.66,3.62-1.82Z"/>
        <path class="cls-7" d="M64.23,747.28h3.98l.36,3.28h.1c1.36-2.42,3.35-3.75,5.27-3.75,1.03,0,1.63.17,2.19.4l-.83,4.21c-.66-.2-1.19-.3-1.96-.3-1.46,0-3.22.96-4.25,3.65v11.08h-4.88v-18.58Z"/>
        <path class="cls-7" d="M86.62,741.28h6.73c7.5,0,12.14,3.91,12.14,12.21s-4.64,12.37-11.88,12.37h-7v-24.58ZM93.06,761.91c4.58,0,7.43-2.46,7.43-8.43s-2.85-8.26-7.43-8.26h-1.53v16.69h1.53Z"/>
        <path class="cls-7" d="M108.75,756.57c0-6,4.25-9.75,8.66-9.75,5.11,0,7.76,3.75,7.76,8.86,0,.93-.1,1.82-.23,2.25h-11.44c.4,3.05,2.39,4.64,5.14,4.64,1.53,0,2.85-.46,4.18-1.29l1.66,2.99c-1.83,1.26-4.18,2.06-6.47,2.06-5.21,0-9.26-3.62-9.26-9.75ZM120.99,754.68c0-2.49-1.13-4.08-3.52-4.08-1.96,0-3.68,1.39-4.05,4.08h7.56Z"/>
        <path class="cls-7" d="M127.79,760.82c0-3.98,3.22-6.07,10.71-6.87-.1-1.82-.9-3.22-3.18-3.22-1.72,0-3.38.76-5.11,1.76l-1.76-3.22c2.19-1.36,4.84-2.46,7.76-2.46,4.71,0,7.13,2.82,7.13,8.19v10.85h-3.98l-.33-1.99h-.13c-1.63,1.39-3.48,2.46-5.61,2.46-3.32,0-5.51-2.36-5.51-5.51ZM138.51,760.69v-3.75c-4.54.56-6.07,1.83-6.07,3.48,0,1.46,1.03,2.09,2.45,2.09s2.42-.66,3.62-1.82Z"/>
        <path class="cls-7" d="M148.33,760.65v-21.26h4.88v21.46c0,1.13.5,1.49.96,1.49.2,0,.33,0,.66-.07l.6,3.62c-.56.23-1.36.43-2.52.43-3.38,0-4.58-2.22-4.58-5.67Z"/>
        <path class="cls-7" d="M157.62,756.57c0-6,4.25-9.75,8.66-9.75,5.11,0,7.76,3.75,7.76,8.86,0,.93-.1,1.82-.23,2.25h-11.44c.4,3.05,2.39,4.64,5.14,4.64,1.53,0,2.85-.46,4.18-1.29l1.66,2.99c-1.83,1.26-4.18,2.06-6.47,2.06-5.21,0-9.26-3.62-9.26-9.75ZM169.86,754.68c0-2.49-1.13-4.08-3.52-4.08-1.96,0-3.68,1.39-4.05,4.08h7.56Z"/>
        <path class="cls-7" d="M178.06,747.28h3.98l.36,3.28h.1c1.36-2.42,3.35-3.75,5.27-3.75,1.03,0,1.63.17,2.19.4l-.83,4.21c-.66-.2-1.19-.3-1.96-.3-1.46,0-3.22.96-4.25,3.65v11.08h-4.88v-18.58Z"/>
        <path class="cls-7" d="M190.5,763.7l2.22-3.05c1.66,1.29,3.25,2.02,4.98,2.02,1.86,0,2.69-.8,2.69-1.96,0-1.39-1.92-2.02-3.88-2.79-2.36-.9-4.98-2.32-4.98-5.44,0-3.32,2.69-5.67,6.93-5.67,2.69,0,4.78,1.13,6.3,2.29l-2.19,2.95c-1.33-.96-2.62-1.59-3.98-1.59-1.69,0-2.49.73-2.49,1.79,0,1.36,1.73,1.86,3.68,2.59,2.45.93,5.17,2.16,5.17,5.61,0,3.25-2.55,5.87-7.4,5.87-2.49,0-5.21-1.09-7.07-2.62Z"/>
        <path class="cls-7" d="M208.68,739.39h4.88v6.67l-.23,3.48c1.49-1.39,3.32-2.72,5.84-2.72,4.01,0,5.74,2.79,5.74,7.46v11.58h-4.88v-10.98c0-2.89-.8-3.88-2.62-3.88-1.53,0-2.49.73-3.85,2.09v12.77h-4.88v-26.47Z"/>
        <path class="cls-7" d="M229.51,741.61c0-1.59,1.16-2.65,2.85-2.65s2.82,1.06,2.82,2.65-1.16,2.69-2.82,2.69-2.85-1.06-2.85-2.69ZM229.91,747.28h4.88v18.58h-4.88v-18.58Z"/>
        <path class="cls-7" d="M240,747.28h3.98l.37,1.92h.1c1.56-1.33,3.48-2.39,5.47-2.39,4.58,0,7.3,3.75,7.3,9.45,0,6.37-3.82,10.05-7.9,10.05-1.62,0-3.18-.73-4.61-2.02l.17,3.05v5.64h-4.88v-25.71ZM252.2,756.34c0-3.55-1.13-5.51-3.68-5.51-1.26,0-2.39.63-3.65,1.92v8.16c1.16,1.03,2.36,1.39,3.35,1.39,2.26,0,3.98-1.92,3.98-5.97Z"/>
        <path class="cls-7" d="M259.44,763.7l2.22-3.05c1.66,1.29,3.25,2.02,4.98,2.02,1.86,0,2.69-.8,2.69-1.96,0-1.39-1.92-2.02-3.88-2.79-2.35-.9-4.98-2.32-4.98-5.44,0-3.32,2.69-5.67,6.93-5.67,2.69,0,4.78,1.13,6.3,2.29l-2.19,2.95c-1.33-.96-2.62-1.59-3.98-1.59-1.69,0-2.49.73-2.49,1.79,0,1.36,1.72,1.86,3.68,2.59,2.46.93,5.17,2.16,5.17,5.61,0,3.25-2.55,5.87-7.4,5.87-2.49,0-5.21-1.09-7.07-2.62Z"/>
      </g>
    </g>
    <g id="Chrysler_Capital" data-name="Chrysler Capital" class="cls-8">
      <g class="cls-8">
        <path class="cls-7" d="M422.98,127.34c0-8.09,5.21-12.84,11.41-12.84,3.12,0,5.61,1.49,7.2,3.15l-2.55,3.12c-1.26-1.19-2.69-2.06-4.54-2.06-3.72,0-6.5,3.18-6.5,8.46s2.52,8.56,6.4,8.56c2.12,0,3.75-1,5.08-2.42l2.59,3.05c-2.02,2.35-4.64,3.62-7.83,3.62-6.2,0-11.25-4.45-11.25-12.64Z"/>
        <path class="cls-7" d="M445.61,113.05h4.88v6.67l-.23,3.48c1.49-1.39,3.32-2.72,5.84-2.72,4.01,0,5.74,2.79,5.74,7.46v11.58h-4.88v-10.98c0-2.89-.8-3.88-2.62-3.88-1.53,0-2.49.73-3.85,2.09v12.77h-4.88v-26.47Z"/>
        <path class="cls-7" d="M466.84,120.94h3.98l.36,3.28h.1c1.36-2.42,3.35-3.75,5.27-3.75,1.03,0,1.63.17,2.19.4l-.83,4.21c-.66-.2-1.19-.3-1.96-.3-1.46,0-3.22.96-4.25,3.65v11.08h-4.88v-18.58Z"/>
        <path class="cls-7" d="M480.84,146.62l.9-3.75c.33.1.86.23,1.29.23,1.89,0,2.95-1.19,3.48-2.82l.33-1.09-7.23-18.25h4.91l2.95,8.62c.56,1.66,1.03,3.45,1.56,5.24h.17c.43-1.73.9-3.52,1.33-5.24l2.55-8.62h4.68l-6.6,19.14c-1.62,4.38-3.62,6.9-7.76,6.9-1.09,0-1.83-.13-2.55-.36Z"/>
        <path class="cls-7" d="M499.06,137.36l2.22-3.05c1.66,1.29,3.25,2.02,4.98,2.02,1.86,0,2.69-.8,2.69-1.96,0-1.39-1.92-2.02-3.88-2.79-2.36-.9-4.98-2.32-4.98-5.44,0-3.32,2.69-5.67,6.93-5.67,2.69,0,4.78,1.13,6.3,2.29l-2.19,2.95c-1.33-.96-2.62-1.59-3.98-1.59-1.69,0-2.49.73-2.49,1.79,0,1.36,1.73,1.86,3.68,2.59,2.45.93,5.17,2.16,5.17,5.61,0,3.25-2.55,5.87-7.4,5.87-2.49,0-5.21-1.09-7.07-2.62Z"/>
        <path class="cls-7" d="M517.24,134.31v-21.26h4.88v21.46c0,1.13.5,1.49.96,1.49.2,0,.33,0,.66-.07l.6,3.62c-.56.23-1.36.43-2.52.43-3.38,0-4.58-2.22-4.58-5.67Z"/>
        <path class="cls-7" d="M526.53,130.23c0-6,4.25-9.75,8.66-9.75,5.11,0,7.76,3.75,7.76,8.86,0,.93-.1,1.82-.23,2.26h-11.45c.4,3.05,2.39,4.64,5.14,4.64,1.53,0,2.85-.46,4.18-1.29l1.66,2.99c-1.82,1.26-4.18,2.06-6.47,2.06-5.21,0-9.25-3.62-9.25-9.75ZM538.77,128.34c0-2.49-1.13-4.08-3.52-4.08-1.96,0-3.68,1.39-4.05,4.08h7.56Z"/>
        <path class="cls-7" d="M546.96,120.94h3.98l.37,3.28h.1c1.36-2.42,3.35-3.75,5.27-3.75,1.03,0,1.62.17,2.19.4l-.83,4.21c-.66-.2-1.19-.3-1.96-.3-1.46,0-3.22.96-4.25,3.65v11.08h-4.88v-18.58Z"/>
        <path class="cls-7" d="M433.75,167.16c0-8.09,5.21-12.84,11.41-12.84,3.12,0,5.61,1.49,7.2,3.15l-2.55,3.12c-1.26-1.19-2.69-2.06-4.54-2.06-3.72,0-6.5,3.18-6.5,8.46s2.52,8.56,6.4,8.56c2.12,0,3.75-1,5.08-2.42l2.59,3.05c-2.02,2.35-4.64,3.62-7.83,3.62-6.2,0-11.25-4.45-11.25-12.64Z"/>
        <path class="cls-7" d="M455.45,174.29c0-3.98,3.22-6.07,10.71-6.87-.1-1.82-.9-3.22-3.18-3.22-1.72,0-3.38.76-5.11,1.76l-1.76-3.22c2.19-1.36,4.84-2.45,7.76-2.45,4.71,0,7.13,2.82,7.13,8.19v10.85h-3.98l-.33-1.99h-.13c-1.63,1.39-3.48,2.45-5.61,2.45-3.32,0-5.51-2.35-5.51-5.51ZM466.16,174.15v-3.75c-4.54.56-6.07,1.82-6.07,3.48,0,1.46,1.03,2.09,2.45,2.09s2.42-.66,3.62-1.82Z"/>
        <path class="cls-7" d="M475.98,160.75h3.98l.36,1.92h.1c1.56-1.33,3.48-2.39,5.47-2.39,4.58,0,7.3,3.75,7.3,9.45,0,6.37-3.81,10.05-7.89,10.05-1.63,0-3.18-.73-4.61-2.02l.17,3.05v5.64h-4.88v-25.71ZM488.19,169.81c0-3.55-1.13-5.51-3.68-5.51-1.26,0-2.39.63-3.65,1.92v8.16c1.16,1.03,2.35,1.39,3.35,1.39,2.25,0,3.98-1.92,3.98-5.97Z"/>
        <path class="cls-7" d="M496.95,155.08c0-1.59,1.16-2.65,2.85-2.65s2.82,1.06,2.82,2.65-1.16,2.69-2.82,2.69-2.85-1.06-2.85-2.69ZM497.35,160.75h4.88v18.58h-4.88v-18.58Z"/>
        <path class="cls-7" d="M508.13,172.83v-8.23h-2.62v-3.62l2.89-.23.56-5.01h4.05v5.01h4.58v3.85h-4.58v8.23c0,2.12.86,3.12,2.52,3.12.6,0,1.33-.2,1.82-.4l.8,3.55c-1,.33-2.29.7-3.91.7-4.41,0-6.1-2.82-6.1-6.97Z"/>
        <path class="cls-7" d="M519.68,174.29c0-3.98,3.22-6.07,10.71-6.87-.1-1.82-.9-3.22-3.18-3.22-1.73,0-3.38.76-5.11,1.76l-1.76-3.22c2.19-1.36,4.84-2.45,7.76-2.45,4.71,0,7.13,2.82,7.13,8.19v10.85h-3.98l-.33-1.99h-.13c-1.62,1.39-3.48,2.45-5.61,2.45-3.32,0-5.51-2.35-5.51-5.51ZM530.39,174.15v-3.75c-4.54.56-6.07,1.82-6.07,3.48,0,1.46,1.03,2.09,2.46,2.09s2.42-.66,3.62-1.82Z"/>
        <path class="cls-7" d="M540.21,174.12v-21.26h4.88v21.46c0,1.13.5,1.49.96,1.49.2,0,.33,0,.66-.07l.6,3.62c-.56.23-1.36.43-2.52.43-3.38,0-4.58-2.22-4.58-5.67Z"/>
      </g>
    </g>
    <g id="Customer:_Car_Shopper" data-name="Customer: Car Shopper" class="cls-8">
      <g class="cls-8">
        <path class="cls-7" d="M745.81,713.87c0-8.09,5.21-12.84,11.41-12.84,3.12,0,5.61,1.49,7.2,3.15l-2.55,3.12c-1.26-1.19-2.69-2.06-4.54-2.06-3.71,0-6.5,3.18-6.5,8.46s2.52,8.56,6.4,8.56c2.12,0,3.75-1,5.08-2.42l2.59,3.05c-2.02,2.36-4.64,3.62-7.83,3.62-6.2,0-11.25-4.45-11.25-12.64Z"/>
        <path class="cls-7" d="M767.84,719.08v-11.61h4.88v10.98c0,2.85.8,3.88,2.59,3.88,1.53,0,2.52-.66,3.78-2.32v-12.54h4.88v18.58h-3.98l-.36-2.65h-.13c-1.59,1.89-3.38,3.12-5.91,3.12-4.01,0-5.74-2.79-5.74-7.43Z"/>
        <path class="cls-7" d="M787.41,723.89l2.22-3.05c1.66,1.29,3.25,2.02,4.98,2.02,1.86,0,2.69-.8,2.69-1.96,0-1.39-1.92-2.02-3.88-2.79-2.36-.9-4.98-2.32-4.98-5.44,0-3.32,2.69-5.67,6.93-5.67,2.69,0,4.78,1.13,6.3,2.29l-2.19,2.95c-1.33-.96-2.62-1.59-3.98-1.59-1.69,0-2.49.73-2.49,1.79,0,1.36,1.72,1.86,3.68,2.59,2.46.93,5.18,2.16,5.18,5.61,0,3.25-2.55,5.87-7.4,5.87-2.49,0-5.21-1.09-7.07-2.62Z"/>
        <path class="cls-7" d="M805.53,719.55v-8.23h-2.62v-3.62l2.89-.23.56-5.01h4.05v5.01h4.58v3.85h-4.58v8.23c0,2.12.86,3.12,2.52,3.12.6,0,1.33-.2,1.82-.4l.8,3.55c-1,.33-2.29.7-3.91.7-4.41,0-6.1-2.82-6.1-6.97Z"/>
        <path class="cls-7" d="M816.97,716.76c0-6.17,4.28-9.75,8.92-9.75s8.92,3.58,8.92,9.75-4.28,9.75-8.92,9.75-8.92-3.58-8.92-9.75ZM829.84,716.76c0-3.48-1.43-5.77-3.95-5.77s-3.95,2.29-3.95,5.77,1.43,5.77,3.95,5.77,3.95-2.26,3.95-5.77Z"/>
        <path class="cls-7" d="M838.9,707.47h3.98l.36,2.49h.1c1.56-1.62,3.28-2.95,5.71-2.95,2.65,0,4.21,1.19,5.11,3.25,1.69-1.79,3.48-3.25,5.91-3.25,3.95,0,5.77,2.79,5.77,7.46v11.58h-4.88v-10.98c0-2.89-.83-3.88-2.59-3.88-1.06,0-2.26.7-3.58,2.09v12.77h-4.84v-10.98c0-2.89-.86-3.88-2.62-3.88-1.06,0-2.26.7-3.55,2.09v12.77h-4.88v-18.58Z"/>
        <path class="cls-7" d="M869.72,716.76c0-6,4.25-9.75,8.66-9.75,5.11,0,7.76,3.75,7.76,8.86,0,.93-.1,1.82-.23,2.25h-11.44c.4,3.05,2.39,4.64,5.14,4.64,1.53,0,2.85-.46,4.18-1.29l1.66,2.99c-1.82,1.26-4.18,2.06-6.47,2.06-5.21,0-9.25-3.62-9.25-9.75ZM881.96,714.87c0-2.49-1.13-4.08-3.52-4.08-1.96,0-3.68,1.39-4.05,4.08h7.56Z"/>
        <path class="cls-7" d="M890.16,707.47h3.98l.36,3.28h.1c1.36-2.42,3.35-3.75,5.27-3.75,1.03,0,1.63.17,2.19.4l-.83,4.21c-.66-.2-1.19-.3-1.96-.3-1.46,0-3.22.96-4.25,3.65v11.08h-4.88v-18.58Z"/>
        <path class="cls-7" d="M904.82,710.75c0-1.82,1.29-3.18,3.02-3.18s3.05,1.36,3.05,3.18-1.29,3.15-3.05,3.15-3.02-1.36-3.02-3.15ZM904.82,723.33c0-1.83,1.29-3.18,3.02-3.18s3.05,1.36,3.05,3.18-1.29,3.18-3.05,3.18-3.02-1.39-3.02-3.18Z"/>
        <path class="cls-7" d="M729.14,753.69c0-8.09,5.21-12.84,11.41-12.84,3.12,0,5.61,1.49,7.2,3.15l-2.55,3.12c-1.26-1.19-2.69-2.06-4.54-2.06-3.71,0-6.5,3.18-6.5,8.46s2.52,8.56,6.4,8.56c2.12,0,3.75-1,5.08-2.42l2.59,3.05c-2.02,2.36-4.64,3.62-7.83,3.62-6.2,0-11.25-4.45-11.25-12.64Z"/>
        <path class="cls-7" d="M750.83,760.82c0-3.98,3.22-6.07,10.71-6.87-.1-1.82-.9-3.22-3.18-3.22-1.72,0-3.38.76-5.11,1.76l-1.76-3.22c2.19-1.36,4.84-2.46,7.76-2.46,4.71,0,7.13,2.82,7.13,8.19v10.85h-3.98l-.33-1.99h-.13c-1.63,1.39-3.48,2.46-5.61,2.46-3.32,0-5.51-2.36-5.51-5.51ZM761.55,760.69v-3.75c-4.54.56-6.07,1.83-6.07,3.48,0,1.46,1.03,2.09,2.46,2.09s2.42-.66,3.62-1.82Z"/>
        <path class="cls-7" d="M771.37,747.28h3.98l.36,3.28h.1c1.36-2.42,3.35-3.75,5.27-3.75,1.03,0,1.63.17,2.19.4l-.83,4.21c-.66-.2-1.19-.3-1.96-.3-1.46,0-3.22.96-4.25,3.65v11.08h-4.88v-18.58Z"/>
        <path class="cls-7" d="M792.14,762.74l2.82-3.38c1.76,1.63,4.08,2.72,6.24,2.72,2.55,0,3.91-1.09,3.91-2.82,0-1.82-1.49-2.39-3.68-3.32l-3.28-1.39c-2.49-1.03-4.98-3.02-4.98-6.6,0-4.01,3.52-7.1,8.49-7.1,2.85,0,5.71,1.13,7.7,3.15l-2.49,3.08c-1.56-1.29-3.18-2.02-5.21-2.02-2.16,0-3.52.96-3.52,2.59,0,1.76,1.72,2.39,3.81,3.22l3.22,1.36c2.99,1.23,4.94,3.12,4.94,6.67,0,4.01-3.35,7.43-9.02,7.43-3.28,0-6.57-1.29-8.96-3.58Z"/>
        <path class="cls-7" d="M814.07,739.39h4.88v6.67l-.23,3.48c1.49-1.39,3.32-2.72,5.84-2.72,4.01,0,5.74,2.79,5.74,7.46v11.58h-4.88v-10.98c0-2.89-.8-3.88-2.62-3.88-1.53,0-2.49.73-3.85,2.09v12.77h-4.88v-26.47Z"/>
        <path class="cls-7" d="M834.14,756.57c0-6.17,4.28-9.75,8.92-9.75s8.92,3.58,8.92,9.75-4.28,9.75-8.92,9.75-8.92-3.58-8.92-9.75ZM847.01,756.57c0-3.48-1.43-5.77-3.95-5.77s-3.95,2.29-3.95,5.77,1.43,5.77,3.95,5.77,3.95-2.26,3.95-5.77Z"/>
        <path class="cls-7" d="M856.07,747.28h3.98l.36,1.92h.1c1.56-1.33,3.48-2.39,5.47-2.39,4.58,0,7.3,3.75,7.3,9.45,0,6.37-3.81,10.05-7.89,10.05-1.63,0-3.18-.73-4.61-2.02l.17,3.05v5.64h-4.88v-25.71ZM868.28,756.34c0-3.55-1.13-5.51-3.68-5.51-1.26,0-2.39.63-3.65,1.92v8.16c1.16,1.03,2.36,1.39,3.35,1.39,2.26,0,3.98-1.92,3.98-5.97Z"/>
        <path class="cls-7" d="M877.44,747.28h3.98l.36,1.92h.1c1.56-1.33,3.48-2.39,5.47-2.39,4.58,0,7.3,3.75,7.3,9.45,0,6.37-3.81,10.05-7.89,10.05-1.63,0-3.18-.73-4.61-2.02l.17,3.05v5.64h-4.88v-25.71ZM889.64,756.34c0-3.55-1.13-5.51-3.68-5.51-1.26,0-2.39.63-3.65,1.92v8.16c1.16,1.03,2.36,1.39,3.35,1.39,2.26,0,3.98-1.92,3.98-5.97Z"/>
        <path class="cls-7" d="M897.64,756.57c0-6,4.25-9.75,8.66-9.75,5.11,0,7.76,3.75,7.76,8.86,0,.93-.1,1.82-.23,2.25h-11.44c.4,3.05,2.39,4.64,5.14,4.64,1.53,0,2.85-.46,4.18-1.29l1.66,2.99c-1.82,1.26-4.18,2.06-6.47,2.06-5.21,0-9.25-3.62-9.25-9.75ZM909.88,754.68c0-2.49-1.13-4.08-3.52-4.08-1.96,0-3.68,1.39-4.05,4.08h7.56Z"/>
        <path class="cls-7" d="M918.08,747.28h3.98l.36,3.28h.1c1.36-2.42,3.35-3.75,5.27-3.75,1.03,0,1.63.17,2.19.4l-.83,4.21c-.66-.2-1.19-.3-1.96-.3-1.46,0-3.22.96-4.25,3.65v11.08h-4.88v-18.58Z"/>
      </g>
    </g>
    <g id="Dealerships_have_direct_contact_with_customers_and_are_in_charge_of_finalizing_the_deal._" data-name="Dealerships have direct contact with customers and are in charge of finalizing the deal. " class="cls-8">
      <g>
        <path class="cls-5" d="M361.28,687.78h4.36c5.33,0,8.2,3.13,8.2,8.65s-2.87,8.74-8.1,8.74h-4.46v-17.39ZM365.45,703.37c4.1,0,6.11-2.56,6.11-6.94s-2.01-6.85-6.11-6.85h-1.97v13.79h1.97Z"/>
        <path class="cls-5" d="M376.4,698.75c0-4.17,2.82-6.78,5.81-6.78,3.27,0,5.12,2.37,5.12,6.04,0,.47-.05.92-.09,1.23h-8.67c.14,2.75,1.83,4.5,4.27,4.5,1.26,0,2.28-.38,3.22-1.02l.78,1.42c-1.14.73-2.51,1.33-4.27,1.33-3.41,0-6.16-2.49-6.16-6.73ZM385.43,697.69c0-2.58-1.19-3.98-3.2-3.98-1.83,0-3.44,1.47-3.7,3.98h6.9Z"/>
        <path class="cls-5" d="M389.32,701.83c0-2.8,2.44-4.19,7.91-4.81,0-1.66-.54-3.25-2.65-3.25-1.49,0-2.84.69-3.86,1.38l-.85-1.49c1.18-.76,3.01-1.68,5.07-1.68,3.13,0,4.46,2.11,4.46,5.28v7.92h-1.78l-.19-1.54h-.07c-1.23,1.02-2.68,1.85-4.27,1.85-2.16,0-3.77-1.33-3.77-3.65ZM397.23,702.05v-3.6c-4.34.52-5.81,1.59-5.81,3.25,0,1.47,1,2.06,2.28,2.06s2.27-.59,3.53-1.71Z"/>
        <path class="cls-5" d="M403.49,702.62v-16.3h2.16v16.45c0,.66.29.92.62.92.12,0,.21,0,.45-.05l.31,1.66c-.31.12-.66.19-1.26.19-1.61,0-2.28-1.04-2.28-2.87Z"/>
        <path class="cls-5" d="M409.27,698.75c0-4.17,2.82-6.78,5.81-6.78,3.27,0,5.12,2.37,5.12,6.04,0,.47-.05.92-.09,1.23h-8.67c.14,2.75,1.82,4.5,4.27,4.5,1.26,0,2.27-.38,3.22-1.02l.78,1.42c-1.14.73-2.51,1.33-4.27,1.33-3.41,0-6.16-2.49-6.16-6.73ZM418.3,697.69c0-2.58-1.18-3.98-3.2-3.98-1.82,0-3.44,1.47-3.7,3.98h6.9Z"/>
        <path class="cls-5" d="M423.37,692.31h1.78l.19,2.35h.07c.9-1.63,2.2-2.68,3.65-2.68.57,0,.97.07,1.37.28l-.4,1.9c-.43-.17-.73-.21-1.26-.21-1.07,0-2.39.76-3.25,2.96v8.27h-2.16v-12.87Z"/>
        <path class="cls-5" d="M431.02,703.71l1.07-1.42c1.11.9,2.27,1.52,3.82,1.52,1.71,0,2.54-.9,2.54-2.01,0-1.33-1.52-1.9-2.94-2.44-1.8-.66-3.77-1.54-3.77-3.72,0-2.04,1.66-3.65,4.46-3.65,1.59,0,2.99.66,3.98,1.45l-1.04,1.4c-.88-.66-1.78-1.14-2.92-1.14-1.63,0-2.39.85-2.39,1.85,0,1.23,1.33,1.68,2.77,2.23,1.87.71,3.93,1.47,3.93,3.91,0,2.08-1.66,3.81-4.69,3.81-1.83,0-3.58-.76-4.81-1.78Z"/>
        <path class="cls-5" d="M443.56,686.31h2.16v5.17l-.07,2.65c1.18-1.18,2.51-2.16,4.27-2.16,2.7,0,3.93,1.75,3.93,5.05v8.15h-2.16v-7.87c0-2.42-.73-3.44-2.44-3.44-1.33,0-2.23.66-3.53,1.97v9.34h-2.16v-18.86Z"/>
        <path class="cls-5" d="M457.59,688.21c0-.83.59-1.4,1.45-1.4s1.45.57,1.45,1.4c0,.88-.59,1.45-1.45,1.45s-1.45-.57-1.45-1.45ZM457.94,692.31h2.16v12.87h-2.16v-12.87Z"/>
        <path class="cls-5" d="M464.46,692.31h1.78l.19,1.47h.07c1.16-.95,2.61-1.8,4.1-1.8,3.32,0,5.12,2.61,5.12,6.56,0,4.41-2.63,6.94-5.59,6.94-1.16,0-2.39-.54-3.55-1.49l.05,2.25v4.36h-2.16v-18.29ZM473.47,698.56c0-2.84-.95-4.76-3.39-4.76-1.09,0-2.2.62-3.46,1.78v6.75c1.16,1,2.3,1.35,3.15,1.35,2.13,0,3.7-1.92,3.7-5.12Z"/>
        <path class="cls-5" d="M477.71,703.71l1.07-1.42c1.11.9,2.27,1.52,3.82,1.52,1.71,0,2.54-.9,2.54-2.01,0-1.33-1.52-1.9-2.94-2.44-1.8-.66-3.77-1.54-3.77-3.72,0-2.04,1.66-3.65,4.46-3.65,1.59,0,2.99.66,3.98,1.45l-1.04,1.4c-.88-.66-1.78-1.14-2.92-1.14-1.63,0-2.39.85-2.39,1.85,0,1.23,1.33,1.68,2.77,2.23,1.87.71,3.93,1.47,3.93,3.91,0,2.08-1.66,3.81-4.69,3.81-1.83,0-3.58-.76-4.81-1.78Z"/>
        <path class="cls-5" d="M495.55,686.31h2.16v5.17l-.07,2.65c1.18-1.18,2.51-2.16,4.26-2.16,2.7,0,3.93,1.75,3.93,5.05v8.15h-2.16v-7.87c0-2.42-.73-3.44-2.44-3.44-1.33,0-2.23.66-3.53,1.97v9.34h-2.16v-18.86Z"/>
        <path class="cls-5" d="M509.13,701.83c0-2.8,2.44-4.19,7.91-4.81,0-1.66-.54-3.25-2.65-3.25-1.49,0-2.84.69-3.86,1.38l-.85-1.49c1.18-.76,3.01-1.68,5.07-1.68,3.13,0,4.46,2.11,4.46,5.28v7.92h-1.78l-.19-1.54h-.07c-1.23,1.02-2.68,1.85-4.27,1.85-2.16,0-3.77-1.33-3.77-3.65ZM517.04,702.05v-3.6c-4.34.52-5.81,1.59-5.81,3.25,0,1.47,1,2.06,2.28,2.06s2.27-.59,3.53-1.71Z"/>
        <path class="cls-5" d="M521.43,692.31h2.25l2.42,7.32c.4,1.26.81,2.58,1.21,3.79h.09c.4-1.21.81-2.54,1.18-3.79l2.44-7.32h2.13l-4.57,12.87h-2.51l-4.64-12.87Z"/>
        <path class="cls-5" d="M534.58,698.75c0-4.17,2.82-6.78,5.81-6.78,3.27,0,5.12,2.37,5.12,6.04,0,.47-.05.92-.09,1.23h-8.67c.14,2.75,1.83,4.5,4.27,4.5,1.26,0,2.28-.38,3.22-1.02l.78,1.42c-1.14.73-2.51,1.33-4.27,1.33-3.41,0-6.16-2.49-6.16-6.73ZM543.61,697.69c0-2.58-1.19-3.98-3.2-3.98-1.83,0-3.44,1.47-3.7,3.98h6.9Z"/>
        <path class="cls-5" d="M553.07,698.75c0-4.17,2.63-6.78,5.57-6.78,1.52,0,2.49.57,3.63,1.52l-.09-2.23v-4.95h2.13v18.86h-1.75l-.19-1.52h-.07c-1.02,1-2.37,1.82-3.91,1.82-3.22,0-5.31-2.44-5.31-6.73ZM562.17,701.9v-6.75c-1.11-.97-2.09-1.35-3.15-1.35-2.09,0-3.72,1.99-3.72,4.93,0,3.1,1.28,4.95,3.55,4.95,1.18,0,2.23-.59,3.32-1.78Z"/>
        <path class="cls-5" d="M568.33,688.21c0-.83.59-1.4,1.45-1.4s1.45.57,1.45,1.4c0,.88-.59,1.45-1.45,1.45s-1.45-.57-1.45-1.45ZM568.68,692.31h2.16v12.87h-2.16v-12.87Z"/>
        <path class="cls-5" d="M575.2,692.31h1.78l.19,2.35h.07c.9-1.63,2.2-2.68,3.65-2.68.57,0,.97.07,1.37.28l-.4,1.9c-.43-.17-.73-.21-1.26-.21-1.07,0-2.39.76-3.25,2.96v8.27h-2.16v-12.87Z"/>
        <path class="cls-5" d="M583.16,698.75c0-4.17,2.82-6.78,5.81-6.78,3.27,0,5.12,2.37,5.12,6.04,0,.47-.05.92-.09,1.23h-8.67c.14,2.75,1.82,4.5,4.27,4.5,1.26,0,2.27-.38,3.22-1.02l.78,1.42c-1.14.73-2.51,1.33-4.27,1.33-3.41,0-6.16-2.49-6.16-6.73ZM592.19,697.69c0-2.58-1.18-3.98-3.2-3.98-1.82,0-3.44,1.47-3.7,3.98h6.9Z"/>
        <path class="cls-5" d="M596.29,698.75c0-4.29,2.92-6.78,6.21-6.78,1.68,0,2.84.71,3.77,1.52l-1.11,1.42c-.76-.66-1.54-1.14-2.56-1.14-2.35,0-4.05,2.01-4.05,4.98s1.61,4.93,3.98,4.93c1.18,0,2.23-.54,3.03-1.28l.95,1.45c-1.16,1.04-2.63,1.63-4.17,1.63-3.41,0-6.04-2.46-6.04-6.73Z"/>
        <path class="cls-5" d="M609.44,701.19v-7.13h-1.92v-1.63l2.01-.12.26-3.63h1.8v3.63h3.48v1.75h-3.48v7.18c0,1.59.5,2.49,1.99,2.49.45,0,1.04-.17,1.47-.33l.43,1.61c-.73.24-1.59.47-2.37.47-2.75,0-3.67-1.73-3.67-4.29Z"/>
        <path class="cls-5" d="M360.12,727.19c0-4.29,2.92-6.78,6.21-6.78,1.68,0,2.84.71,3.77,1.52l-1.11,1.42c-.76-.66-1.54-1.14-2.56-1.14-2.35,0-4.05,2.01-4.05,4.98s1.61,4.93,3.98,4.93c1.18,0,2.23-.54,3.03-1.28l.95,1.45c-1.16,1.04-2.63,1.63-4.17,1.63-3.41,0-6.04-2.46-6.04-6.73Z"/>
        <path class="cls-5" d="M371.61,727.19c0-4.29,2.82-6.78,5.97-6.78s5.97,2.49,5.97,6.78-2.82,6.73-5.97,6.73-5.97-2.46-5.97-6.73ZM381.33,727.19c0-2.96-1.52-4.98-3.74-4.98s-3.72,2.01-3.72,4.98,1.49,4.93,3.72,4.93,3.74-1.97,3.74-4.93Z"/>
        <path class="cls-5" d="M386.95,720.75h1.78l.19,1.85h.07c1.23-1.21,2.56-2.18,4.31-2.18,2.7,0,3.93,1.75,3.93,5.05v8.15h-2.16v-7.87c0-2.42-.73-3.44-2.44-3.44-1.33,0-2.23.66-3.53,1.97v9.34h-2.16v-12.87Z"/>
        <path class="cls-5" d="M401.8,729.63v-7.13h-1.92v-1.63l2.01-.12.26-3.63h1.8v3.63h3.48v1.75h-3.48v7.18c0,1.59.5,2.49,1.99,2.49.45,0,1.04-.17,1.47-.33l.43,1.61c-.73.24-1.59.47-2.37.47-2.75,0-3.67-1.73-3.67-4.29Z"/>
        <path class="cls-5" d="M408.99,730.27c0-2.8,2.44-4.19,7.91-4.81,0-1.66-.54-3.25-2.65-3.25-1.49,0-2.84.69-3.86,1.38l-.85-1.49c1.18-.76,3.01-1.68,5.07-1.68,3.13,0,4.46,2.11,4.46,5.28v7.92h-1.78l-.19-1.54h-.07c-1.23,1.02-2.68,1.85-4.27,1.85-2.16,0-3.77-1.33-3.77-3.65ZM416.9,730.48v-3.6c-4.34.52-5.81,1.59-5.81,3.25,0,1.47,1,2.06,2.28,2.06s2.27-.59,3.53-1.71Z"/>
        <path class="cls-5" d="M422.19,727.19c0-4.29,2.92-6.78,6.21-6.78,1.68,0,2.84.71,3.77,1.52l-1.11,1.42c-.76-.66-1.54-1.14-2.56-1.14-2.35,0-4.05,2.01-4.05,4.98s1.61,4.93,3.98,4.93c1.18,0,2.23-.54,3.03-1.28l.95,1.45c-1.16,1.04-2.63,1.63-4.17,1.63-3.41,0-6.04-2.46-6.04-6.73Z"/>
        <path class="cls-5" d="M435.34,729.63v-7.13h-1.92v-1.63l2.01-.12.26-3.63h1.8v3.63h3.48v1.75h-3.48v7.18c0,1.59.5,2.49,1.99,2.49.45,0,1.04-.17,1.47-.33l.43,1.61c-.73.24-1.59.47-2.37.47-2.75,0-3.67-1.73-3.67-4.29Z"/>
        <path class="cls-5" d="M447.66,720.75h2.2l1.92,7.44c.26,1.23.52,2.39.76,3.6h.12c.28-1.21.54-2.39.88-3.6l1.99-7.44h2.11l2.01,7.44c.31,1.23.59,2.39.9,3.6h.09c.29-1.21.52-2.37.81-3.6l1.9-7.44h2.04l-3.46,12.87h-2.61l-1.87-6.94c-.33-1.21-.57-2.39-.88-3.7h-.12c-.28,1.3-.54,2.51-.88,3.74l-1.8,6.9h-2.54l-3.58-12.87Z"/>
        <path class="cls-5" d="M467.85,716.65c0-.83.59-1.4,1.45-1.4s1.45.57,1.45,1.4c0,.88-.59,1.45-1.45,1.45s-1.45-.57-1.45-1.45ZM468.21,720.75h2.16v12.87h-2.16v-12.87Z"/>
        <path class="cls-5" d="M475.1,729.63v-7.13h-1.92v-1.63l2.01-.12.26-3.63h1.8v3.63h3.48v1.75h-3.48v7.18c0,1.59.5,2.49,1.99,2.49.45,0,1.04-.17,1.47-.33l.43,1.61c-.73.24-1.59.47-2.37.47-2.75,0-3.67-1.73-3.67-4.29Z"/>
        <path class="cls-5" d="M483.66,714.75h2.16v5.17l-.07,2.65c1.18-1.18,2.51-2.16,4.26-2.16,2.7,0,3.93,1.75,3.93,5.05v8.15h-2.16v-7.87c0-2.42-.73-3.44-2.44-3.44-1.33,0-2.23.66-3.53,1.97v9.34h-2.16v-18.86Z"/>
        <path class="cls-5" d="M502.38,727.19c0-4.29,2.92-6.78,6.21-6.78,1.68,0,2.84.71,3.77,1.52l-1.11,1.42c-.76-.66-1.54-1.14-2.56-1.14-2.35,0-4.05,2.01-4.05,4.98s1.61,4.93,3.98,4.93c1.18,0,2.23-.54,3.03-1.28l.95,1.45c-1.16,1.04-2.63,1.63-4.17,1.63-3.41,0-6.04-2.46-6.04-6.73Z"/>
        <path class="cls-5" d="M515.25,728.9v-8.15h2.16v7.89c0,2.39.71,3.41,2.42,3.41,1.33,0,2.25-.64,3.48-2.18v-9.12h2.16v12.87h-1.8l-.17-2.01h-.07c-1.21,1.4-2.49,2.32-4.27,2.32-2.7,0-3.91-1.75-3.91-5.02Z"/>
        <path class="cls-5" d="M528.35,732.14l1.07-1.42c1.11.9,2.27,1.52,3.82,1.52,1.71,0,2.54-.9,2.54-2.01,0-1.33-1.52-1.9-2.94-2.44-1.8-.66-3.77-1.54-3.77-3.72,0-2.04,1.66-3.65,4.46-3.65,1.59,0,2.99.66,3.98,1.45l-1.04,1.4c-.88-.66-1.78-1.14-2.92-1.14-1.63,0-2.39.85-2.39,1.85,0,1.23,1.33,1.68,2.77,2.23,1.87.71,3.93,1.47,3.93,3.91,0,2.08-1.66,3.81-4.69,3.81-1.83,0-3.58-.76-4.81-1.78Z"/>
        <path class="cls-5" d="M540.74,729.63v-7.13h-1.92v-1.63l2.01-.12.26-3.63h1.8v3.63h3.48v1.75h-3.48v7.18c0,1.59.5,2.49,1.99,2.49.45,0,1.04-.17,1.47-.33l.43,1.61c-.74.24-1.59.47-2.37.47-2.75,0-3.67-1.73-3.67-4.29Z"/>
        <path class="cls-5" d="M547.97,727.19c0-4.29,2.82-6.78,5.97-6.78s5.97,2.49,5.97,6.78-2.82,6.73-5.97,6.73-5.97-2.46-5.97-6.73ZM557.69,727.19c0-2.96-1.52-4.98-3.74-4.98s-3.72,2.01-3.72,4.98,1.49,4.93,3.72,4.93,3.74-1.97,3.74-4.93Z"/>
        <path class="cls-5" d="M563.3,720.75h1.78l.19,1.87h.07c1.11-1.23,2.46-2.2,4-2.2,1.97,0,3.03.95,3.55,2.46,1.33-1.45,2.68-2.46,4.24-2.46,2.65,0,3.91,1.75,3.91,5.05v8.15h-2.16v-7.87c0-2.42-.76-3.44-2.39-3.44-1,0-2.04.64-3.25,1.97v9.34h-2.16v-7.87c0-2.42-.76-3.44-2.39-3.44-.97,0-2.06.64-3.25,1.97v9.34h-2.16v-12.87Z"/>
        <path class="cls-5" d="M584.28,727.19c0-4.17,2.82-6.78,5.81-6.78,3.27,0,5.12,2.37,5.12,6.04,0,.47-.05.92-.09,1.23h-8.67c.14,2.75,1.82,4.5,4.27,4.5,1.26,0,2.27-.38,3.22-1.02l.78,1.42c-1.14.73-2.51,1.33-4.27,1.33-3.41,0-6.16-2.49-6.16-6.73ZM593.31,726.12c0-2.58-1.18-3.98-3.2-3.98-1.82,0-3.44,1.47-3.7,3.98h6.9Z"/>
        <path class="cls-5" d="M598.38,720.75h1.78l.19,2.35h.07c.9-1.63,2.2-2.68,3.65-2.68.57,0,.97.07,1.37.28l-.4,1.9c-.43-.17-.73-.21-1.26-.21-1.07,0-2.39.76-3.25,2.96v8.27h-2.16v-12.87Z"/>
        <path class="cls-5" d="M606.03,732.14l1.07-1.42c1.11.9,2.27,1.52,3.82,1.52,1.71,0,2.54-.9,2.54-2.01,0-1.33-1.52-1.9-2.94-2.44-1.8-.66-3.77-1.54-3.77-3.72,0-2.04,1.66-3.65,4.46-3.65,1.59,0,2.99.66,3.98,1.45l-1.04,1.4c-.88-.66-1.78-1.14-2.92-1.14-1.63,0-2.39.85-2.39,1.85,0,1.23,1.33,1.68,2.77,2.23,1.87.71,3.93,1.47,3.93,3.91,0,2.08-1.66,3.81-4.69,3.81-1.83,0-3.58-.76-4.81-1.78Z"/>
        <path class="cls-5" d="M360.29,758.71c0-2.8,2.44-4.19,7.92-4.81,0-1.66-.54-3.25-2.65-3.25-1.49,0-2.84.69-3.86,1.38l-.85-1.49c1.19-.76,3.01-1.68,5.07-1.68,3.13,0,4.46,2.11,4.46,5.28v7.92h-1.78l-.19-1.54h-.07c-1.23,1.02-2.68,1.85-4.27,1.85-2.16,0-3.77-1.33-3.77-3.65ZM368.2,758.92v-3.6c-4.34.52-5.81,1.59-5.81,3.25,0,1.47,1,2.06,2.27,2.06s2.28-.59,3.53-1.71Z"/>
        <path class="cls-5" d="M374.46,749.18h1.78l.19,1.85h.07c1.23-1.21,2.56-2.18,4.31-2.18,2.7,0,3.93,1.75,3.93,5.05v8.15h-2.16v-7.87c0-2.42-.73-3.44-2.44-3.44-1.33,0-2.23.66-3.53,1.97v9.34h-2.16v-12.87Z"/>
        <path class="cls-5" d="M388.01,755.63c0-4.17,2.63-6.78,5.57-6.78,1.52,0,2.49.57,3.63,1.52l-.09-2.23v-4.95h2.13v18.86h-1.75l-.19-1.52h-.07c-1.02,1-2.37,1.82-3.91,1.82-3.22,0-5.31-2.44-5.31-6.73ZM397.11,758.78v-6.75c-1.11-.97-2.09-1.35-3.15-1.35-2.09,0-3.72,1.99-3.72,4.93,0,3.1,1.28,4.95,3.55,4.95,1.18,0,2.23-.59,3.32-1.78Z"/>
        <path class="cls-5" d="M408.13,758.71c0-2.8,2.44-4.19,7.91-4.81,0-1.66-.54-3.25-2.65-3.25-1.49,0-2.84.69-3.86,1.38l-.85-1.49c1.18-.76,3.01-1.68,5.07-1.68,3.13,0,4.46,2.11,4.46,5.28v7.92h-1.78l-.19-1.54h-.07c-1.23,1.02-2.68,1.85-4.27,1.85-2.16,0-3.77-1.33-3.77-3.65ZM416.05,758.92v-3.6c-4.34.52-5.81,1.59-5.81,3.25,0,1.47,1,2.06,2.28,2.06s2.27-.59,3.53-1.71Z"/>
        <path class="cls-5" d="M422.3,749.18h1.78l.19,2.35h.07c.9-1.63,2.2-2.68,3.65-2.68.57,0,.97.07,1.37.28l-.4,1.9c-.43-.17-.73-.21-1.26-.21-1.07,0-2.39.76-3.25,2.96v8.27h-2.16v-12.87Z"/>
        <path class="cls-5" d="M430.27,755.63c0-4.17,2.82-6.78,5.81-6.78,3.27,0,5.12,2.37,5.12,6.04,0,.47-.05.92-.09,1.23h-8.67c.14,2.75,1.82,4.5,4.27,4.5,1.26,0,2.27-.38,3.22-1.02l.78,1.42c-1.14.73-2.51,1.33-4.27,1.33-3.41,0-6.16-2.49-6.16-6.73ZM439.29,754.56c0-2.58-1.18-3.98-3.2-3.98-1.82,0-3.44,1.47-3.7,3.98h6.9Z"/>
        <path class="cls-5" d="M449.32,745.08c0-.83.59-1.4,1.45-1.4s1.45.57,1.45,1.4c0,.88-.59,1.45-1.45,1.45s-1.45-.57-1.45-1.45ZM449.67,749.18h2.16v12.87h-2.16v-12.87Z"/>
        <path class="cls-5" d="M456.19,749.18h1.78l.19,1.85h.07c1.23-1.21,2.56-2.18,4.31-2.18,2.7,0,3.93,1.75,3.93,5.05v8.15h-2.16v-7.87c0-2.42-.73-3.44-2.44-3.44-1.33,0-2.23.66-3.53,1.97v9.34h-2.16v-12.87Z"/>
        <path class="cls-5" d="M475.01,755.63c0-4.29,2.92-6.78,6.21-6.78,1.68,0,2.84.71,3.77,1.52l-1.11,1.42c-.76-.66-1.54-1.14-2.56-1.14-2.35,0-4.05,2.01-4.05,4.98s1.61,4.93,3.98,4.93c1.18,0,2.23-.54,3.03-1.28l.95,1.45c-1.16,1.04-2.63,1.63-4.17,1.63-3.41,0-6.04-2.46-6.04-6.73Z"/>
        <path class="cls-5" d="M488.04,743.19h2.16v5.17l-.07,2.65c1.18-1.18,2.51-2.16,4.27-2.16,2.7,0,3.93,1.75,3.93,5.05v8.15h-2.16v-7.87c0-2.42-.73-3.44-2.44-3.44-1.33,0-2.23.66-3.53,1.97v9.34h-2.16v-18.86Z"/>
        <path class="cls-5" d="M501.62,758.71c0-2.8,2.44-4.19,7.92-4.81,0-1.66-.54-3.25-2.65-3.25-1.49,0-2.84.69-3.86,1.38l-.85-1.49c1.19-.76,3.01-1.68,5.07-1.68,3.13,0,4.46,2.11,4.46,5.28v7.92h-1.78l-.19-1.54h-.07c-1.23,1.02-2.68,1.85-4.27,1.85-2.16,0-3.77-1.33-3.77-3.65ZM509.53,758.92v-3.6c-4.34.52-5.81,1.59-5.81,3.25,0,1.47,1,2.06,2.27,2.06s2.28-.59,3.53-1.71Z"/>
        <path class="cls-5" d="M515.79,749.18h1.78l.19,2.35h.07c.9-1.63,2.2-2.68,3.65-2.68.57,0,.97.07,1.38.28l-.4,1.9c-.43-.17-.73-.21-1.26-.21-1.07,0-2.39.76-3.25,2.96v8.27h-2.16v-12.87Z"/>
        <path class="cls-5" d="M523.75,764.51c0-1.09.69-2.13,1.9-2.92v-.09c-.69-.4-1.19-1.09-1.19-2.11s.78-1.92,1.45-2.39v-.09c-.85-.69-1.68-1.92-1.68-3.46,0-2.82,2.23-4.6,4.83-4.6.71,0,1.35.17,1.8.33h4.48v1.66h-2.63c.62.59,1.04,1.54,1.04,2.65,0,2.75-2.08,4.48-4.69,4.48-.64,0-1.35-.17-1.92-.45-.47.4-.83.83-.83,1.54,0,.83.52,1.4,2.25,1.4h2.51c2.99,0,4.5.95,4.5,3.06,0,2.39-2.54,4.46-6.52,4.46-3.15,0-5.31-1.23-5.31-3.46ZM533.47,763.85c0-1.18-.92-1.59-2.63-1.59h-2.23c-.47,0-1.09-.07-1.66-.21-.92.66-1.3,1.42-1.3,2.18,0,1.38,1.4,2.28,3.72,2.28,2.46,0,4.1-1.3,4.1-2.65ZM531.81,753.45c0-1.87-1.23-3.01-2.75-3.01s-2.75,1.11-2.75,3.01,1.26,3.06,2.75,3.06,2.75-1.18,2.75-3.06Z"/>
        <path class="cls-5" d="M536.74,755.63c0-4.17,2.82-6.78,5.81-6.78,3.27,0,5.12,2.37,5.12,6.04,0,.47-.05.92-.09,1.23h-8.67c.14,2.75,1.83,4.5,4.27,4.5,1.26,0,2.28-.38,3.22-1.02l.78,1.42c-1.14.73-2.51,1.33-4.27,1.33-3.41,0-6.16-2.49-6.16-6.73ZM545.77,754.56c0-2.58-1.19-3.98-3.2-3.98-1.83,0-3.44,1.47-3.7,3.98h6.9Z"/>
        <path class="cls-5" d="M555.17,755.63c0-4.29,2.82-6.78,5.97-6.78s5.97,2.49,5.97,6.78-2.82,6.73-5.97,6.73-5.97-2.46-5.97-6.73ZM564.89,755.63c0-2.96-1.52-4.98-3.74-4.98s-3.72,2.01-3.72,4.98,1.49,4.93,3.72,4.93,3.74-1.97,3.74-4.93Z"/>
        <path class="cls-5" d="M570.86,750.94h-1.75v-1.63l1.75-.12v-2.06c0-2.61,1.18-4.24,3.74-4.24.78,0,1.56.17,2.16.43l-.47,1.63c-.47-.21-1-.33-1.45-.33-1.23,0-1.82.88-1.82,2.54v2.04h2.72v1.75h-2.72v11.11h-2.16v-11.11Z"/>
        <path class="cls-5" d="M361.45,779.37h-1.75v-1.63l1.75-.12v-2.06c0-2.61,1.18-4.24,3.74-4.24.78,0,1.56.17,2.16.43l-.47,1.63c-.47-.21-1-.33-1.45-.33-1.23,0-1.83.88-1.83,2.54v2.04h2.73v1.75h-2.73v11.11h-2.16v-11.11ZM368.46,773.52c0-.83.59-1.4,1.42-1.4s1.47.57,1.47,1.4c0,.88-.62,1.45-1.47,1.45s-1.42-.57-1.42-1.45ZM368.79,777.62h2.18v12.87h-2.18v-12.87Z"/>
        <path class="cls-5" d="M375.31,777.62h1.78l.19,1.85h.07c1.23-1.21,2.56-2.18,4.31-2.18,2.7,0,3.93,1.75,3.93,5.05v8.15h-2.16v-7.87c0-2.42-.73-3.44-2.44-3.44-1.33,0-2.23.66-3.53,1.97v9.34h-2.16v-12.87Z"/>
        <path class="cls-5" d="M388.98,787.15c0-2.8,2.44-4.19,7.92-4.81,0-1.66-.54-3.25-2.65-3.25-1.49,0-2.84.69-3.86,1.38l-.85-1.49c1.19-.76,3.01-1.68,5.07-1.68,3.13,0,4.46,2.11,4.46,5.28v7.92h-1.78l-.19-1.54h-.07c-1.23,1.02-2.68,1.85-4.27,1.85-2.16,0-3.77-1.33-3.77-3.65ZM396.9,787.36v-3.6c-4.34.52-5.81,1.59-5.81,3.25,0,1.47,1,2.06,2.27,2.06s2.28-.59,3.53-1.71Z"/>
        <path class="cls-5" d="M403.16,787.93v-16.3h2.16v16.45c0,.66.28.92.62.92.12,0,.21,0,.45-.05l.31,1.66c-.31.12-.66.19-1.26.19-1.61,0-2.27-1.04-2.27-2.87Z"/>
        <path class="cls-5" d="M409.55,773.52c0-.83.59-1.4,1.45-1.4s1.45.57,1.45,1.4c0,.88-.59,1.45-1.45,1.45s-1.45-.57-1.45-1.45ZM409.91,777.62h2.16v12.87h-2.16v-12.87Z"/>
        <path class="cls-5" d="M415.08,789.33l6.78-9.95h-6.04v-1.75h8.77v1.16l-6.78,9.95h7.01v1.75h-9.74v-1.16Z"/>
        <path class="cls-5" d="M427.3,773.52c0-.83.59-1.4,1.45-1.4s1.45.57,1.45,1.4c0,.88-.59,1.45-1.45,1.45s-1.45-.57-1.45-1.45ZM427.66,777.62h2.16v12.87h-2.16v-12.87Z"/>
        <path class="cls-5" d="M434.18,777.62h1.78l.19,1.85h.07c1.23-1.21,2.56-2.18,4.31-2.18,2.7,0,3.93,1.75,3.93,5.05v8.15h-2.16v-7.87c0-2.42-.73-3.44-2.44-3.44-1.33,0-2.23.66-3.53,1.97v9.34h-2.16v-12.87Z"/>
        <path class="cls-5" d="M447.68,792.95c0-1.09.69-2.13,1.9-2.92v-.09c-.69-.4-1.19-1.09-1.19-2.11s.78-1.92,1.45-2.39v-.09c-.85-.69-1.68-1.92-1.68-3.46,0-2.82,2.23-4.6,4.83-4.6.71,0,1.35.17,1.8.33h4.48v1.66h-2.63c.62.59,1.04,1.54,1.04,2.65,0,2.75-2.08,4.48-4.69,4.48-.64,0-1.35-.17-1.92-.45-.47.4-.83.83-.83,1.54,0,.83.52,1.4,2.25,1.4h2.51c2.99,0,4.5.95,4.5,3.06,0,2.39-2.54,4.46-6.52,4.46-3.15,0-5.31-1.23-5.31-3.46ZM457.4,792.29c0-1.18-.92-1.59-2.63-1.59h-2.23c-.47,0-1.09-.07-1.66-.21-.92.66-1.3,1.42-1.3,2.18,0,1.38,1.4,2.28,3.72,2.28,2.46,0,4.1-1.3,4.1-2.65ZM455.74,781.89c0-1.87-1.23-3.01-2.75-3.01s-2.75,1.11-2.75,3.01,1.26,3.06,2.75,3.06,2.75-1.18,2.75-3.06Z"/>
        <path class="cls-5" d="M467.68,786.51v-7.13h-1.92v-1.63l2.01-.12.26-3.63h1.8v3.63h3.48v1.75h-3.48v7.18c0,1.59.5,2.49,1.99,2.49.45,0,1.04-.17,1.47-.33l.43,1.61c-.74.24-1.59.47-2.37.47-2.75,0-3.67-1.73-3.67-4.29Z"/>
        <path class="cls-5" d="M476.24,771.62h2.16v5.17l-.07,2.65c1.18-1.18,2.51-2.16,4.26-2.16,2.7,0,3.93,1.75,3.93,5.05v8.15h-2.16v-7.87c0-2.42-.73-3.44-2.44-3.44-1.33,0-2.23.66-3.53,1.97v9.34h-2.16v-18.86Z"/>
        <path class="cls-5" d="M489.65,784.07c0-4.17,2.82-6.78,5.81-6.78,3.27,0,5.12,2.37,5.12,6.04,0,.47-.05.92-.09,1.23h-8.67c.14,2.75,1.82,4.5,4.27,4.5,1.26,0,2.27-.38,3.22-1.02l.78,1.42c-1.14.73-2.51,1.33-4.27,1.33-3.41,0-6.16-2.49-6.16-6.73ZM498.68,783c0-2.58-1.18-3.98-3.2-3.98-1.82,0-3.44,1.47-3.7,3.98h6.9Z"/>
        <path class="cls-5" d="M508.13,784.07c0-4.17,2.63-6.78,5.57-6.78,1.52,0,2.49.57,3.62,1.52l-.09-2.23v-4.95h2.13v18.86h-1.75l-.19-1.52h-.07c-1.02,1-2.37,1.82-3.91,1.82-3.22,0-5.31-2.44-5.31-6.73ZM517.23,787.22v-6.75c-1.11-.97-2.08-1.35-3.15-1.35-2.08,0-3.72,1.99-3.72,4.93,0,3.1,1.28,4.95,3.55,4.95,1.18,0,2.23-.59,3.32-1.78Z"/>
        <path class="cls-5" d="M522.78,784.07c0-4.17,2.82-6.78,5.81-6.78,3.27,0,5.12,2.37,5.12,6.04,0,.47-.05.92-.09,1.23h-8.67c.14,2.75,1.82,4.5,4.27,4.5,1.26,0,2.27-.38,3.22-1.02l.78,1.42c-1.14.73-2.51,1.33-4.27,1.33-3.41,0-6.16-2.49-6.16-6.73ZM531.81,783c0-2.58-1.18-3.98-3.2-3.98-1.82,0-3.44,1.47-3.7,3.98h6.9Z"/>
        <path class="cls-5" d="M535.7,787.15c0-2.8,2.44-4.19,7.92-4.81,0-1.66-.54-3.25-2.65-3.25-1.49,0-2.84.69-3.86,1.38l-.85-1.49c1.19-.76,3.01-1.68,5.07-1.68,3.13,0,4.46,2.11,4.46,5.28v7.92h-1.78l-.19-1.54h-.07c-1.23,1.02-2.68,1.85-4.27,1.85-2.16,0-3.77-1.33-3.77-3.65ZM543.61,787.36v-3.6c-4.34.52-5.81,1.59-5.81,3.25,0,1.47,1,2.06,2.27,2.06s2.28-.59,3.53-1.71Z"/>
        <path class="cls-5" d="M549.87,787.93v-16.3h2.16v16.45c0,.66.28.92.62.92.12,0,.21,0,.45-.05l.31,1.66c-.31.12-.66.19-1.26.19-1.61,0-2.27-1.04-2.27-2.87Z"/>
        <path class="cls-5" d="M556.17,789.16c0-1,.71-1.68,1.56-1.68s1.56.69,1.56,1.68-.71,1.63-1.56,1.63-1.56-.66-1.56-1.63Z"/>
      </g>
    </g>
    <g id="Dealerships_have_direct_contact_with_customers_and_are_in_charge_of_finalizing_the_deal._-2" data-name="Dealerships have direct contact with customers and are in charge of finalizing the deal. ">
      <g>
        <path class="cls-6" d="M207.75,385.31h4.36c5.33,0,8.2,3.13,8.2,8.65s-2.87,8.74-8.1,8.74h-4.46v-17.39ZM211.92,400.9c4.1,0,6.11-2.56,6.11-6.94s-2.01-6.85-6.11-6.85h-1.97v13.79h1.97Z"/>
        <path class="cls-6" d="M222.86,396.28c0-4.17,2.82-6.78,5.81-6.78,3.27,0,5.12,2.37,5.12,6.04,0,.47-.05.92-.09,1.23h-8.67c.14,2.75,1.83,4.5,4.27,4.5,1.26,0,2.28-.38,3.22-1.02l.78,1.42c-1.14.73-2.51,1.33-4.27,1.33-3.41,0-6.16-2.49-6.16-6.73ZM231.89,395.21c0-2.58-1.19-3.98-3.2-3.98-1.83,0-3.44,1.47-3.7,3.98h6.9Z"/>
        <path class="cls-6" d="M235.78,399.36c0-2.8,2.44-4.19,7.91-4.81,0-1.66-.54-3.25-2.65-3.25-1.49,0-2.84.69-3.86,1.37l-.85-1.49c1.18-.76,3.01-1.68,5.07-1.68,3.13,0,4.46,2.11,4.46,5.28v7.91h-1.78l-.19-1.54h-.07c-1.23,1.02-2.68,1.85-4.27,1.85-2.16,0-3.77-1.33-3.77-3.65ZM243.69,399.57v-3.6c-4.34.52-5.81,1.59-5.81,3.25,0,1.47,1,2.06,2.28,2.06s2.27-.59,3.53-1.71Z"/>
        <path class="cls-6" d="M249.95,400.14v-16.3h2.16v16.45c0,.66.29.92.62.92.12,0,.21,0,.45-.05l.31,1.66c-.31.12-.66.19-1.26.19-1.61,0-2.28-1.04-2.28-2.87Z"/>
        <path class="cls-6" d="M255.73,396.28c0-4.17,2.82-6.78,5.81-6.78,3.27,0,5.12,2.37,5.12,6.04,0,.47-.05.92-.09,1.23h-8.67c.14,2.75,1.82,4.5,4.27,4.5,1.26,0,2.27-.38,3.22-1.02l.78,1.42c-1.14.73-2.51,1.33-4.27,1.33-3.41,0-6.16-2.49-6.16-6.73ZM264.76,395.21c0-2.58-1.18-3.98-3.2-3.98-1.82,0-3.44,1.47-3.7,3.98h6.9Z"/>
        <path class="cls-6" d="M269.83,389.83h1.78l.19,2.35h.07c.9-1.64,2.2-2.68,3.65-2.68.57,0,.97.07,1.37.28l-.4,1.9c-.43-.17-.73-.21-1.26-.21-1.07,0-2.39.76-3.25,2.96v8.27h-2.16v-12.87Z"/>
        <path class="cls-6" d="M277.49,401.23l1.07-1.42c1.11.9,2.27,1.52,3.82,1.52,1.71,0,2.54-.9,2.54-2.01,0-1.33-1.52-1.9-2.94-2.44-1.8-.66-3.77-1.54-3.77-3.72,0-2.04,1.66-3.65,4.46-3.65,1.59,0,2.99.66,3.98,1.45l-1.04,1.4c-.88-.66-1.78-1.14-2.92-1.14-1.63,0-2.39.85-2.39,1.85,0,1.23,1.33,1.68,2.77,2.23,1.87.71,3.93,1.47,3.93,3.91,0,2.09-1.66,3.82-4.69,3.82-1.83,0-3.58-.76-4.81-1.78Z"/>
        <path class="cls-6" d="M290.02,383.84h2.16v5.17l-.07,2.65c1.18-1.18,2.51-2.16,4.27-2.16,2.7,0,3.93,1.75,3.93,5.05v8.15h-2.16v-7.87c0-2.42-.73-3.44-2.44-3.44-1.33,0-2.23.66-3.53,1.97v9.34h-2.16v-18.86Z"/>
        <path class="cls-6" d="M304.05,385.73c0-.83.59-1.4,1.45-1.4s1.45.57,1.45,1.4c0,.88-.59,1.45-1.45,1.45s-1.45-.57-1.45-1.45ZM304.41,389.83h2.16v12.87h-2.16v-12.87Z"/>
        <path class="cls-6" d="M310.92,389.83h1.78l.19,1.47h.07c1.16-.95,2.61-1.8,4.1-1.8,3.32,0,5.12,2.61,5.12,6.56,0,4.41-2.63,6.94-5.59,6.94-1.16,0-2.39-.54-3.55-1.49l.05,2.25v4.36h-2.16v-18.29ZM319.93,396.09c0-2.84-.95-4.76-3.39-4.76-1.09,0-2.2.62-3.46,1.78v6.75c1.16,1,2.3,1.35,3.15,1.35,2.13,0,3.7-1.92,3.7-5.12Z"/>
        <path class="cls-6" d="M324.17,401.23l1.07-1.42c1.11.9,2.27,1.52,3.82,1.52,1.71,0,2.54-.9,2.54-2.01,0-1.33-1.52-1.9-2.94-2.44-1.8-.66-3.77-1.54-3.77-3.72,0-2.04,1.66-3.65,4.46-3.65,1.59,0,2.99.66,3.98,1.45l-1.04,1.4c-.88-.66-1.78-1.14-2.92-1.14-1.63,0-2.39.85-2.39,1.85,0,1.23,1.33,1.68,2.77,2.23,1.87.71,3.93,1.47,3.93,3.91,0,2.09-1.66,3.82-4.69,3.82-1.83,0-3.58-.76-4.81-1.78Z"/>
        <path class="cls-6" d="M340.47,389.83h2.2l1.92,7.44c.26,1.23.52,2.39.76,3.6h.12c.28-1.21.54-2.39.88-3.6l1.99-7.44h2.11l2.01,7.44c.31,1.23.59,2.39.9,3.6h.09c.29-1.21.52-2.37.81-3.6l1.9-7.44h2.04l-3.46,12.87h-2.61l-1.87-6.94c-.33-1.21-.57-2.39-.88-3.7h-.12c-.28,1.3-.54,2.51-.88,3.74l-1.8,6.9h-2.54l-3.58-12.87Z"/>
        <path class="cls-6" d="M360.67,385.73c0-.83.59-1.4,1.45-1.4s1.45.57,1.45,1.4c0,.88-.59,1.45-1.45,1.45s-1.45-.57-1.45-1.45ZM361.02,389.83h2.16v12.87h-2.16v-12.87Z"/>
        <path class="cls-6" d="M367.54,400.14v-16.3h2.16v16.45c0,.66.28.92.62.92.12,0,.21,0,.45-.05l.31,1.66c-.31.12-.66.19-1.26.19-1.61,0-2.27-1.04-2.27-2.87Z"/>
        <path class="cls-6" d="M374.29,400.14v-16.3h2.16v16.45c0,.66.29.92.62.92.12,0,.21,0,.45-.05l.31,1.66c-.31.12-.66.19-1.26.19-1.61,0-2.28-1.04-2.28-2.87Z"/>
        <path class="cls-6" d="M385.38,396.28c0-4.29,2.92-6.78,6.21-6.78,1.68,0,2.84.71,3.77,1.52l-1.11,1.42c-.76-.66-1.54-1.14-2.56-1.14-2.35,0-4.05,2.01-4.05,4.98s1.61,4.93,3.98,4.93c1.18,0,2.23-.55,3.03-1.28l.95,1.45c-1.16,1.04-2.63,1.64-4.17,1.64-3.41,0-6.04-2.46-6.04-6.73Z"/>
        <path class="cls-6" d="M398.41,383.84h2.16v5.17l-.07,2.65c1.18-1.18,2.51-2.16,4.27-2.16,2.7,0,3.93,1.75,3.93,5.05v8.15h-2.16v-7.87c0-2.42-.73-3.44-2.44-3.44-1.33,0-2.23.66-3.53,1.97v9.34h-2.16v-18.86Z"/>
        <path class="cls-6" d="M411.83,396.28c0-4.29,2.82-6.78,5.97-6.78s5.97,2.49,5.97,6.78-2.82,6.73-5.97,6.73-5.97-2.46-5.97-6.73ZM421.54,396.28c0-2.96-1.52-4.98-3.74-4.98s-3.72,2.01-3.72,4.98,1.49,4.93,3.72,4.93,3.74-1.97,3.74-4.93Z"/>
        <path class="cls-6" d="M426.19,396.28c0-4.29,2.82-6.78,5.97-6.78s5.97,2.49,5.97,6.78-2.82,6.73-5.97,6.73-5.97-2.46-5.97-6.73ZM435.9,396.28c0-2.96-1.52-4.98-3.74-4.98s-3.72,2.01-3.72,4.98,1.49,4.93,3.72,4.93,3.74-1.97,3.74-4.93Z"/>
        <path class="cls-6" d="M440.07,401.23l1.07-1.42c1.11.9,2.27,1.52,3.82,1.52,1.71,0,2.54-.9,2.54-2.01,0-1.33-1.52-1.9-2.94-2.44-1.8-.66-3.77-1.54-3.77-3.72,0-2.04,1.66-3.65,4.46-3.65,1.59,0,2.99.66,3.98,1.45l-1.04,1.4c-.88-.66-1.78-1.14-2.92-1.14-1.63,0-2.39.85-2.39,1.85,0,1.23,1.33,1.68,2.77,2.23,1.87.71,3.93,1.47,3.93,3.91,0,2.09-1.66,3.82-4.69,3.82-1.83,0-3.58-.76-4.81-1.78Z"/>
        <path class="cls-6" d="M451.64,396.28c0-4.17,2.82-6.78,5.81-6.78,3.27,0,5.12,2.37,5.12,6.04,0,.47-.05.92-.09,1.23h-8.67c.14,2.75,1.82,4.5,4.27,4.5,1.26,0,2.27-.38,3.22-1.02l.78,1.42c-1.14.73-2.51,1.33-4.27,1.33-3.41,0-6.16-2.49-6.16-6.73ZM460.67,395.21c0-2.58-1.18-3.98-3.2-3.98-1.82,0-3.44,1.47-3.7,3.98h6.9Z"/>
        <path class="cls-6" d="M207.91,420.03h-1.75v-1.64l1.75-.12v-2.06c0-2.61,1.18-4.24,3.74-4.24.78,0,1.56.17,2.16.43l-.47,1.63c-.47-.21-1-.33-1.45-.33-1.23,0-1.83.88-1.83,2.54v2.04h2.73v1.75h-2.73v11.11h-2.16v-11.11ZM214.93,414.17c0-.83.59-1.4,1.42-1.4s1.47.57,1.47,1.4c0,.88-.62,1.45-1.47,1.45s-1.42-.57-1.42-1.45ZM215.26,418.27h2.18v12.87h-2.18v-12.87Z"/>
        <path class="cls-6" d="M221.77,418.27h1.78l.19,1.85h.07c1.23-1.21,2.56-2.18,4.31-2.18,2.7,0,3.93,1.75,3.93,5.05v8.15h-2.16v-7.87c0-2.42-.73-3.44-2.44-3.44-1.33,0-2.23.66-3.53,1.97v9.34h-2.16v-12.87Z"/>
        <path class="cls-6" d="M235.45,427.8c0-2.8,2.44-4.19,7.92-4.81,0-1.66-.54-3.25-2.65-3.25-1.49,0-2.84.69-3.86,1.37l-.85-1.49c1.19-.76,3.01-1.68,5.07-1.68,3.13,0,4.46,2.11,4.46,5.28v7.91h-1.78l-.19-1.54h-.07c-1.23,1.02-2.68,1.85-4.27,1.85-2.16,0-3.77-1.33-3.77-3.65ZM243.36,428.01v-3.6c-4.34.52-5.81,1.59-5.81,3.25,0,1.47,1,2.06,2.27,2.06s2.28-.59,3.53-1.71Z"/>
        <path class="cls-6" d="M249.62,418.27h1.78l.19,1.85h.07c1.23-1.21,2.56-2.18,4.31-2.18,2.7,0,3.93,1.75,3.93,5.05v8.15h-2.16v-7.87c0-2.42-.73-3.44-2.44-3.44-1.33,0-2.23.66-3.53,1.97v9.34h-2.16v-12.87Z"/>
        <path class="cls-6" d="M263.13,424.72c0-4.29,2.92-6.78,6.21-6.78,1.68,0,2.84.71,3.77,1.52l-1.11,1.42c-.76-.66-1.54-1.14-2.56-1.14-2.35,0-4.05,2.01-4.05,4.98s1.61,4.93,3.98,4.93c1.18,0,2.23-.55,3.03-1.28l.95,1.45c-1.16,1.04-2.63,1.64-4.17,1.64-3.41,0-6.04-2.46-6.04-6.73Z"/>
        <path class="cls-6" d="M275.81,414.17c0-.83.59-1.4,1.45-1.4s1.45.57,1.45,1.4c0,.88-.59,1.45-1.45,1.45s-1.45-.57-1.45-1.45ZM276.16,418.27h2.16v12.87h-2.16v-12.87Z"/>
        <path class="cls-6" d="M281.87,427.8c0-2.8,2.44-4.19,7.91-4.81,0-1.66-.54-3.25-2.65-3.25-1.49,0-2.84.69-3.86,1.37l-.85-1.49c1.18-.76,3.01-1.68,5.07-1.68,3.13,0,4.46,2.11,4.46,5.28v7.91h-1.78l-.19-1.54h-.07c-1.23,1.02-2.68,1.85-4.27,1.85-2.16,0-3.77-1.33-3.77-3.65ZM289.79,428.01v-3.6c-4.34.52-5.81,1.59-5.81,3.25,0,1.47,1,2.06,2.28,2.06s2.27-.59,3.53-1.71Z"/>
        <path class="cls-6" d="M296.04,428.58v-16.3h2.16v16.45c0,.66.29.92.62.92.12,0,.21,0,.45-.05l.31,1.66c-.31.12-.66.19-1.26.19-1.61,0-2.28-1.04-2.28-2.87Z"/>
        <path class="cls-6" d="M307.13,424.72c0-4.29,2.92-6.78,6.21-6.78,1.68,0,2.84.71,3.77,1.52l-1.11,1.42c-.76-.66-1.54-1.14-2.56-1.14-2.35,0-4.05,2.01-4.05,4.98s1.61,4.93,3.98,4.93c1.18,0,2.23-.55,3.03-1.28l.95,1.45c-1.16,1.04-2.63,1.64-4.17,1.64-3.41,0-6.04-2.46-6.04-6.73Z"/>
        <path class="cls-6" d="M318.63,424.72c0-4.29,2.82-6.78,5.97-6.78s5.97,2.49,5.97,6.78-2.82,6.73-5.97,6.73-5.97-2.46-5.97-6.73ZM328.34,424.72c0-2.96-1.52-4.98-3.74-4.98s-3.72,2.01-3.72,4.98,1.49,4.93,3.72,4.93,3.74-1.97,3.74-4.93Z"/>
        <path class="cls-6" d="M333.96,418.27h1.78l.19,1.87h.07c1.11-1.23,2.46-2.2,4-2.2,1.97,0,3.03.95,3.55,2.46,1.33-1.45,2.68-2.46,4.24-2.46,2.65,0,3.91,1.75,3.91,5.05v8.15h-2.16v-7.87c0-2.42-.76-3.44-2.39-3.44-1,0-2.04.64-3.25,1.97v9.34h-2.16v-7.87c0-2.42-.76-3.44-2.39-3.44-.97,0-2.06.64-3.25,1.97v9.34h-2.16v-12.87Z"/>
        <path class="cls-6" d="M355.9,418.27h1.78l.19,1.47h.07c1.16-.95,2.61-1.8,4.1-1.8,3.32,0,5.12,2.61,5.12,6.56,0,4.41-2.63,6.94-5.59,6.94-1.16,0-2.39-.54-3.55-1.49l.05,2.25v4.36h-2.16v-18.29ZM364.91,424.53c0-2.84-.95-4.76-3.39-4.76-1.09,0-2.2.62-3.46,1.78v6.75c1.16,1,2.3,1.35,3.15,1.35,2.13,0,3.7-1.92,3.7-5.12Z"/>
        <path class="cls-6" d="M369.41,427.8c0-2.8,2.44-4.19,7.92-4.81,0-1.66-.54-3.25-2.65-3.25-1.49,0-2.84.69-3.86,1.37l-.85-1.49c1.19-.76,3.01-1.68,5.07-1.68,3.13,0,4.46,2.11,4.46,5.28v7.91h-1.78l-.19-1.54h-.07c-1.23,1.02-2.68,1.85-4.27,1.85-2.16,0-3.77-1.33-3.77-3.65ZM377.33,428.01v-3.6c-4.34.52-5.81,1.59-5.81,3.25,0,1.47,1,2.06,2.27,2.06s2.28-.59,3.53-1.71Z"/>
        <path class="cls-6" d="M383.58,418.27h1.78l.19,1.85h.07c1.23-1.21,2.56-2.18,4.31-2.18,2.7,0,3.93,1.75,3.93,5.05v8.15h-2.16v-7.87c0-2.42-.73-3.44-2.44-3.44-1.33,0-2.23.66-3.53,1.97v9.34h-2.16v-12.87Z"/>
        <path class="cls-6" d="M397.71,414.17c0-.83.59-1.4,1.45-1.4s1.45.57,1.45,1.4c0,.88-.59,1.45-1.45,1.45s-1.45-.57-1.45-1.45ZM398.06,418.27h2.16v12.87h-2.16v-12.87Z"/>
        <path class="cls-6" d="M403.61,424.72c0-4.17,2.82-6.78,5.81-6.78,3.27,0,5.12,2.37,5.12,6.04,0,.47-.05.92-.09,1.23h-8.67c.14,2.75,1.83,4.5,4.27,4.5,1.26,0,2.28-.38,3.22-1.02l.78,1.42c-1.14.73-2.51,1.33-4.27,1.33-3.41,0-6.16-2.49-6.16-6.73ZM412.64,423.65c0-2.58-1.19-3.98-3.2-3.98-1.83,0-3.44,1.47-3.7,3.98h6.9Z"/>
        <path class="cls-6" d="M416.26,429.67l1.07-1.42c1.11.9,2.28,1.52,3.82,1.52,1.71,0,2.54-.9,2.54-2.01,0-1.33-1.52-1.9-2.94-2.44-1.8-.66-3.77-1.54-3.77-3.72,0-2.04,1.66-3.65,4.46-3.65,1.59,0,2.99.66,3.98,1.45l-1.04,1.4c-.88-.66-1.78-1.14-2.91-1.14-1.64,0-2.39.85-2.39,1.85,0,1.23,1.33,1.68,2.77,2.23,1.87.71,3.93,1.47,3.93,3.91,0,2.09-1.66,3.82-4.69,3.82-1.82,0-3.58-.76-4.81-1.78Z"/>
        <path class="cls-6" d="M434.46,420.03h-1.75v-1.64l1.75-.12v-2.06c0-2.61,1.18-4.24,3.74-4.24.78,0,1.56.17,2.16.43l-.47,1.63c-.47-.21-1-.33-1.45-.33-1.23,0-1.82.88-1.82,2.54v2.04h2.72v1.75h-2.72v11.11h-2.16v-11.11Z"/>
        <path class="cls-6" d="M440.58,424.72c0-4.29,2.82-6.78,5.97-6.78s5.97,2.49,5.97,6.78-2.82,6.73-5.97,6.73-5.97-2.46-5.97-6.73ZM450.29,424.72c0-2.96-1.52-4.98-3.74-4.98s-3.72,2.01-3.72,4.98,1.49,4.93,3.72,4.93,3.74-1.97,3.74-4.93Z"/>
        <path class="cls-6" d="M455.91,418.27h1.78l.19,2.35h.07c.9-1.64,2.2-2.68,3.65-2.68.57,0,.97.07,1.37.28l-.4,1.9c-.43-.17-.73-.21-1.26-.21-1.07,0-2.39.76-3.25,2.96v8.27h-2.16v-12.87Z"/>
        <path class="cls-6" d="M206.58,453.15c0-4.29,2.92-6.78,6.21-6.78,1.68,0,2.84.71,3.77,1.52l-1.11,1.42c-.76-.66-1.54-1.14-2.56-1.14-2.35,0-4.05,2.01-4.05,4.98s1.61,4.93,3.98,4.93c1.18,0,2.23-.55,3.03-1.28l.95,1.45c-1.16,1.04-2.63,1.64-4.17,1.64-3.41,0-6.04-2.46-6.04-6.73Z"/>
        <path class="cls-6" d="M219.45,454.86v-8.15h2.16v7.89c0,2.39.71,3.41,2.42,3.41,1.33,0,2.25-.64,3.48-2.18v-9.12h2.16v12.87h-1.8l-.17-2.01h-.07c-1.21,1.4-2.49,2.32-4.26,2.32-2.7,0-3.91-1.75-3.91-5.02Z"/>
        <path class="cls-6" d="M232.56,458.11l1.07-1.42c1.11.9,2.27,1.52,3.82,1.52,1.71,0,2.54-.9,2.54-2.01,0-1.33-1.52-1.9-2.94-2.44-1.8-.66-3.77-1.54-3.77-3.72,0-2.04,1.66-3.65,4.46-3.65,1.59,0,2.99.66,3.98,1.45l-1.04,1.4c-.88-.66-1.78-1.14-2.92-1.14-1.63,0-2.39.85-2.39,1.85,0,1.23,1.33,1.68,2.77,2.23,1.87.71,3.93,1.47,3.93,3.91,0,2.09-1.66,3.82-4.69,3.82-1.83,0-3.58-.76-4.81-1.78Z"/>
        <path class="cls-6" d="M244.95,455.6v-7.13h-1.92v-1.64l2.01-.12.26-3.63h1.8v3.63h3.48v1.75h-3.48v7.18c0,1.59.5,2.49,1.99,2.49.45,0,1.04-.17,1.47-.33l.43,1.61c-.73.24-1.59.47-2.37.47-2.75,0-3.67-1.73-3.67-4.29Z"/>
        <path class="cls-6" d="M252.18,453.15c0-4.29,2.82-6.78,5.97-6.78s5.97,2.49,5.97,6.78-2.82,6.73-5.97,6.73-5.97-2.46-5.97-6.73ZM261.89,453.15c0-2.96-1.52-4.98-3.74-4.98s-3.72,2.01-3.72,4.98,1.49,4.93,3.72,4.93,3.74-1.97,3.74-4.93Z"/>
        <path class="cls-6" d="M267.51,446.71h1.78l.19,1.87h.07c1.11-1.23,2.46-2.2,4-2.2,1.97,0,3.03.95,3.55,2.46,1.33-1.45,2.68-2.46,4.24-2.46,2.65,0,3.91,1.75,3.91,5.05v8.15h-2.16v-7.87c0-2.42-.76-3.44-2.39-3.44-1,0-2.04.64-3.25,1.97v9.34h-2.16v-7.87c0-2.42-.76-3.44-2.39-3.44-.97,0-2.06.64-3.25,1.97v9.34h-2.16v-12.87Z"/>
        <path class="cls-6" d="M288.48,453.15c0-4.17,2.82-6.78,5.81-6.78,3.27,0,5.12,2.37,5.12,6.04,0,.47-.05.92-.09,1.23h-8.67c.14,2.75,1.83,4.5,4.27,4.5,1.26,0,2.28-.38,3.22-1.02l.78,1.42c-1.14.73-2.51,1.33-4.27,1.33-3.41,0-6.16-2.49-6.16-6.73ZM297.51,452.09c0-2.58-1.19-3.98-3.2-3.98-1.83,0-3.44,1.47-3.7,3.98h6.9Z"/>
        <path class="cls-6" d="M302.58,446.71h1.78l.19,2.35h.07c.9-1.64,2.2-2.68,3.65-2.68.57,0,.97.07,1.38.28l-.4,1.9c-.43-.17-.73-.21-1.26-.21-1.07,0-2.39.76-3.25,2.96v8.27h-2.16v-12.87Z"/>
        <path class="cls-6" d="M310.24,458.11l1.07-1.42c1.11.9,2.28,1.52,3.82,1.52,1.71,0,2.54-.9,2.54-2.01,0-1.33-1.52-1.9-2.94-2.44-1.8-.66-3.77-1.54-3.77-3.72,0-2.04,1.66-3.65,4.46-3.65,1.59,0,2.99.66,3.98,1.45l-1.04,1.4c-.88-.66-1.78-1.14-2.91-1.14-1.64,0-2.39.85-2.39,1.85,0,1.23,1.33,1.68,2.77,2.23,1.87.71,3.93,1.47,3.93,3.91,0,2.09-1.66,3.82-4.69,3.82-1.82,0-3.58-.76-4.81-1.78Z"/>
        <path class="cls-6" d="M328.46,455.6v-7.13h-1.92v-1.64l2.01-.12.26-3.63h1.8v3.63h3.48v1.75h-3.48v7.18c0,1.59.5,2.49,1.99,2.49.45,0,1.04-.17,1.47-.33l.43,1.61c-.74.24-1.59.47-2.37.47-2.75,0-3.67-1.73-3.67-4.29Z"/>
        <path class="cls-6" d="M337.02,440.71h2.16v5.17l-.07,2.65c1.18-1.18,2.51-2.16,4.26-2.16,2.7,0,3.93,1.75,3.93,5.05v8.15h-2.16v-7.87c0-2.42-.73-3.44-2.44-3.44-1.33,0-2.23.66-3.53,1.97v9.34h-2.16v-18.86Z"/>
        <path class="cls-6" d="M350.59,456.24c0-2.8,2.44-4.19,7.91-4.81,0-1.66-.54-3.25-2.65-3.25-1.49,0-2.84.69-3.86,1.37l-.85-1.49c1.18-.76,3.01-1.68,5.07-1.68,3.13,0,4.46,2.11,4.46,5.28v7.91h-1.78l-.19-1.54h-.07c-1.23,1.02-2.68,1.85-4.27,1.85-2.16,0-3.77-1.33-3.77-3.65ZM358.51,456.45v-3.6c-4.34.52-5.81,1.59-5.81,3.25,0,1.47,1,2.06,2.28,2.06s2.27-.59,3.53-1.71Z"/>
        <path class="cls-6" d="M364.79,455.6v-7.13h-1.92v-1.64l2.01-.12.26-3.63h1.8v3.63h3.48v1.75h-3.48v7.18c0,1.59.5,2.49,1.99,2.49.45,0,1.04-.17,1.47-.33l.43,1.61c-.73.24-1.59.47-2.37.47-2.75,0-3.67-1.73-3.67-4.29Z"/>
        <path class="cls-6" d="M377.11,446.71h2.2l1.92,7.44c.26,1.23.52,2.39.76,3.6h.12c.28-1.21.54-2.39.88-3.6l1.99-7.44h2.11l2.01,7.44c.31,1.23.59,2.39.9,3.6h.09c.29-1.21.52-2.37.81-3.6l1.9-7.44h2.04l-3.46,12.87h-2.61l-1.87-6.94c-.33-1.21-.57-2.39-.88-3.7h-.12c-.28,1.3-.54,2.51-.88,3.74l-1.8,6.9h-2.54l-3.58-12.87Z"/>
        <path class="cls-6" d="M397.3,442.61c0-.83.59-1.4,1.45-1.4s1.45.57,1.45,1.4c0,.88-.59,1.45-1.45,1.45s-1.45-.57-1.45-1.45ZM397.66,446.71h2.16v12.87h-2.16v-12.87Z"/>
        <path class="cls-6" d="M404.17,457.02v-16.3h2.16v16.45c0,.66.28.92.62.92.12,0,.21,0,.45-.05l.31,1.66c-.31.12-.66.19-1.26.19-1.61,0-2.27-1.04-2.27-2.87Z"/>
        <path class="cls-6" d="M410.93,457.02v-16.3h2.16v16.45c0,.66.29.92.62.92.12,0,.21,0,.45-.05l.31,1.66c-.31.12-.66.19-1.26.19-1.61,0-2.28-1.04-2.28-2.87Z"/>
        <path class="cls-6" d="M206.58,490.48c0-1.09.69-2.13,1.9-2.91v-.09c-.69-.4-1.19-1.09-1.19-2.11s.78-1.92,1.45-2.39v-.09c-.85-.69-1.68-1.92-1.68-3.46,0-2.82,2.23-4.6,4.83-4.6.71,0,1.35.17,1.8.33h4.48v1.66h-2.63c.62.59,1.04,1.54,1.04,2.65,0,2.75-2.08,4.48-4.69,4.48-.64,0-1.35-.17-1.92-.45-.47.4-.83.83-.83,1.54,0,.83.52,1.4,2.25,1.4h2.51c2.99,0,4.5.95,4.5,3.06,0,2.39-2.54,4.46-6.52,4.46-3.15,0-5.31-1.23-5.31-3.46ZM216.3,489.81c0-1.18-.92-1.59-2.63-1.59h-2.23c-.47,0-1.09-.07-1.66-.21-.92.66-1.3,1.42-1.3,2.18,0,1.37,1.4,2.27,3.72,2.27,2.46,0,4.1-1.3,4.1-2.65ZM214.64,479.41c0-1.87-1.23-3.01-2.75-3.01s-2.75,1.11-2.75,3.01,1.26,3.06,2.75,3.06,2.75-1.19,2.75-3.06Z"/>
        <path class="cls-6" d="M220.54,471.05c0-.83.59-1.4,1.45-1.4s1.45.57,1.45,1.4c0,.88-.59,1.45-1.45,1.45s-1.45-.57-1.45-1.45ZM220.9,475.15h2.16v12.87h-2.16v-12.87Z"/>
        <path class="cls-6" d="M225.54,475.15h2.25l2.42,7.32c.4,1.26.81,2.58,1.21,3.79h.09c.4-1.21.81-2.54,1.18-3.79l2.44-7.32h2.13l-4.57,12.87h-2.51l-4.64-12.87Z"/>
        <path class="cls-6" d="M238.69,481.59c0-4.17,2.82-6.78,5.81-6.78,3.27,0,5.12,2.37,5.12,6.04,0,.47-.05.92-.09,1.23h-8.67c.14,2.75,1.83,4.5,4.27,4.5,1.26,0,2.28-.38,3.22-1.02l.78,1.42c-1.14.73-2.51,1.33-4.27,1.33-3.41,0-6.16-2.49-6.16-6.73ZM247.72,480.53c0-2.58-1.19-3.98-3.2-3.98-1.83,0-3.44,1.47-3.7,3.98h6.9Z"/>
        <path class="cls-6" d="M258.48,484.03v-7.13h-1.92v-1.64l2.01-.12.26-3.63h1.8v3.63h3.48v1.75h-3.48v7.18c0,1.59.5,2.49,1.99,2.49.45,0,1.04-.17,1.47-.33l.43,1.61c-.73.24-1.59.47-2.37.47-2.75,0-3.67-1.73-3.67-4.29Z"/>
        <path class="cls-6" d="M267.04,469.15h2.16v5.17l-.07,2.65c1.18-1.18,2.51-2.16,4.27-2.16,2.7,0,3.93,1.75,3.93,5.05v8.15h-2.16v-7.87c0-2.42-.73-3.44-2.44-3.44-1.33,0-2.23.66-3.53,1.97v9.34h-2.16v-18.86Z"/>
        <path class="cls-6" d="M280.45,481.59c0-4.17,2.82-6.78,5.81-6.78,3.27,0,5.12,2.37,5.12,6.04,0,.47-.05.92-.09,1.23h-8.67c.14,2.75,1.83,4.5,4.27,4.5,1.26,0,2.28-.38,3.22-1.02l.78,1.42c-1.14.73-2.51,1.33-4.27,1.33-3.41,0-6.16-2.49-6.16-6.73ZM289.48,480.53c0-2.58-1.19-3.98-3.2-3.98-1.83,0-3.44,1.47-3.7,3.98h6.9Z"/>
        <path class="cls-6" d="M301.87,486.69h-.09l-.19,1.33h-1.73v-18.86h2.16v5.17l-.07,2.32c1.16-1.02,2.61-1.82,4.03-1.82,3.34,0,5.14,2.61,5.14,6.54,0,4.43-2.63,6.97-5.59,6.97-1.19,0-2.54-.62-3.65-1.64ZM308.86,481.4c0-2.84-.95-4.76-3.39-4.76-1.09,0-2.23.62-3.46,1.78v6.75c1.14,1,2.3,1.35,3.15,1.35,2.13,0,3.7-1.92,3.7-5.12Z"/>
        <path class="cls-6" d="M313.53,481.59c0-4.17,2.82-6.78,5.81-6.78,3.27,0,5.12,2.37,5.12,6.04,0,.47-.05.92-.09,1.23h-8.67c.14,2.75,1.82,4.5,4.27,4.5,1.26,0,2.27-.38,3.22-1.02l.78,1.42c-1.14.73-2.51,1.33-4.27,1.33-3.41,0-6.16-2.49-6.16-6.73ZM322.56,480.53c0-2.58-1.18-3.98-3.2-3.98-1.82,0-3.44,1.47-3.7,3.98h6.9Z"/>
        <path class="cls-6" d="M326.19,486.54l1.07-1.42c1.11.9,2.27,1.52,3.82,1.52,1.71,0,2.54-.9,2.54-2.01,0-1.33-1.52-1.9-2.94-2.44-1.8-.66-3.77-1.54-3.77-3.72,0-2.04,1.66-3.65,4.46-3.65,1.59,0,2.99.66,3.98,1.45l-1.04,1.4c-.88-.66-1.78-1.14-2.92-1.14-1.63,0-2.39.85-2.39,1.85,0,1.23,1.33,1.68,2.77,2.23,1.87.71,3.93,1.47,3.93,3.91,0,2.09-1.66,3.82-4.69,3.82-1.83,0-3.58-.76-4.81-1.78Z"/>
        <path class="cls-6" d="M338.58,484.03v-7.13h-1.92v-1.64l2.01-.12.26-3.63h1.8v3.63h3.48v1.75h-3.48v7.18c0,1.59.5,2.49,1.99,2.49.45,0,1.04-.17,1.47-.33l.43,1.61c-.73.24-1.59.47-2.37.47-2.75,0-3.67-1.73-3.67-4.29Z"/>
        <path class="cls-6" d="M351.52,481.59c0-4.17,2.63-6.78,5.57-6.78,1.52,0,2.49.57,3.63,1.52l-.09-2.23v-4.95h2.13v18.86h-1.75l-.19-1.52h-.07c-1.02,1-2.37,1.82-3.91,1.82-3.22,0-5.31-2.44-5.31-6.73ZM360.62,484.74v-6.75c-1.11-.97-2.09-1.35-3.15-1.35-2.09,0-3.72,1.99-3.72,4.93,0,3.1,1.28,4.95,3.55,4.95,1.18,0,2.23-.59,3.32-1.78Z"/>
        <path class="cls-6" d="M366.16,481.59c0-4.17,2.82-6.78,5.81-6.78,3.27,0,5.12,2.37,5.12,6.04,0,.47-.05.92-.09,1.23h-8.67c.14,2.75,1.83,4.5,4.27,4.5,1.26,0,2.28-.38,3.22-1.02l.78,1.42c-1.14.73-2.51,1.33-4.27,1.33-3.41,0-6.16-2.49-6.16-6.73ZM375.19,480.53c0-2.58-1.19-3.98-3.2-3.98-1.83,0-3.44,1.47-3.7,3.98h6.9Z"/>
        <path class="cls-6" d="M379.08,484.67c0-2.8,2.44-4.19,7.91-4.81,0-1.66-.54-3.25-2.65-3.25-1.49,0-2.84.69-3.86,1.37l-.85-1.49c1.18-.76,3.01-1.68,5.07-1.68,3.13,0,4.46,2.11,4.46,5.28v7.91h-1.78l-.19-1.54h-.07c-1.23,1.02-2.68,1.85-4.27,1.85-2.16,0-3.77-1.33-3.77-3.65ZM386.99,484.89v-3.6c-4.34.52-5.81,1.59-5.81,3.25,0,1.47,1,2.06,2.28,2.06s2.27-.59,3.53-1.71Z"/>
        <path class="cls-6" d="M393.25,485.46v-16.3h2.16v16.45c0,.66.29.92.62.92.12,0,.21,0,.45-.05l.31,1.66c-.31.12-.66.19-1.26.19-1.61,0-2.28-1.04-2.28-2.87Z"/>
        <path class="cls-6" d="M405.69,484.03v-7.13h-1.92v-1.64l2.01-.12.26-3.63h1.8v3.63h3.48v1.75h-3.48v7.18c0,1.59.5,2.49,1.99,2.49.45,0,1.04-.17,1.47-.33l.43,1.61c-.73.24-1.59.47-2.37.47-2.75,0-3.67-1.73-3.67-4.29Z"/>
        <path class="cls-6" d="M412.92,481.59c0-4.29,2.82-6.78,5.97-6.78s5.97,2.49,5.97,6.78-2.82,6.73-5.97,6.73-5.97-2.46-5.97-6.73ZM422.63,481.59c0-2.96-1.52-4.98-3.74-4.98s-3.72,2.01-3.72,4.98,1.49,4.93,3.72,4.93,3.74-1.97,3.74-4.93Z"/>
        <path class="cls-6" d="M207.93,512.47v-7.13h-1.92v-1.64l2.01-.12.26-3.63h1.8v3.63h3.48v1.75h-3.48v7.18c0,1.59.5,2.49,1.99,2.49.45,0,1.04-.17,1.47-.33l.43,1.61c-.73.24-1.59.47-2.37.47-2.75,0-3.67-1.73-3.67-4.29Z"/>
        <path class="cls-6" d="M216.49,497.59h2.16v5.17l-.07,2.65c1.18-1.18,2.51-2.16,4.27-2.16,2.7,0,3.93,1.75,3.93,5.05v8.15h-2.16v-7.87c0-2.42-.73-3.44-2.44-3.44-1.33,0-2.23.66-3.53,1.97v9.34h-2.16v-18.86Z"/>
        <path class="cls-6" d="M229.9,510.03c0-4.17,2.82-6.78,5.81-6.78,3.27,0,5.12,2.37,5.12,6.04,0,.47-.05.92-.09,1.23h-8.67c.14,2.75,1.83,4.5,4.27,4.5,1.26,0,2.28-.38,3.22-1.02l.78,1.42c-1.14.73-2.51,1.33-4.27,1.33-3.41,0-6.16-2.49-6.16-6.73ZM238.93,508.96c0-2.58-1.19-3.98-3.2-3.98-1.83,0-3.44,1.47-3.7,3.98h6.9Z"/>
        <path class="cls-6" d="M248.39,510.03c0-4.17,2.63-6.78,5.57-6.78,1.52,0,2.49.57,3.63,1.52l-.09-2.23v-4.95h2.13v18.86h-1.75l-.19-1.52h-.07c-1.02,1-2.37,1.82-3.91,1.82-3.22,0-5.31-2.44-5.31-6.73ZM257.49,513.18v-6.75c-1.11-.97-2.09-1.35-3.15-1.35-2.09,0-3.72,1.99-3.72,4.93,0,3.1,1.28,4.95,3.55,4.95,1.18,0,2.23-.59,3.32-1.78Z"/>
        <path class="cls-6" d="M263.03,510.03c0-4.17,2.82-6.78,5.81-6.78,3.27,0,5.12,2.37,5.12,6.04,0,.47-.05.92-.09,1.23h-8.67c.14,2.75,1.83,4.5,4.27,4.5,1.26,0,2.28-.38,3.22-1.02l.78,1.42c-1.14.73-2.51,1.33-4.27,1.33-3.41,0-6.16-2.49-6.16-6.73ZM272.06,508.96c0-2.58-1.19-3.98-3.2-3.98-1.83,0-3.44,1.47-3.7,3.98h6.9Z"/>
        <path class="cls-6" d="M275.95,513.11c0-2.8,2.44-4.19,7.91-4.81,0-1.66-.54-3.25-2.65-3.25-1.49,0-2.84.69-3.86,1.37l-.85-1.49c1.18-.76,3.01-1.68,5.07-1.68,3.13,0,4.46,2.11,4.46,5.28v7.91h-1.78l-.19-1.54h-.07c-1.23,1.02-2.68,1.85-4.27,1.85-2.16,0-3.77-1.33-3.77-3.65ZM283.86,513.32v-3.6c-4.34.52-5.81,1.59-5.81,3.25,0,1.47,1,2.06,2.28,2.06s2.27-.59,3.53-1.71Z"/>
        <path class="cls-6" d="M290.12,513.89v-16.3h2.16v16.45c0,.66.29.92.62.92.12,0,.21,0,.45-.05l.31,1.66c-.31.12-.66.19-1.26.19-1.61,0-2.28-1.04-2.28-2.87Z"/>
        <path class="cls-6" d="M295.9,510.03c0-4.17,2.82-6.78,5.81-6.78,3.27,0,5.12,2.37,5.12,6.04,0,.47-.05.92-.09,1.23h-8.67c.14,2.75,1.82,4.5,4.27,4.5,1.26,0,2.27-.38,3.22-1.02l.78,1.42c-1.14.73-2.51,1.33-4.27,1.33-3.41,0-6.16-2.49-6.16-6.73ZM304.93,508.96c0-2.58-1.18-3.98-3.2-3.98-1.82,0-3.44,1.47-3.7,3.98h6.9Z"/>
        <path class="cls-6" d="M310,503.58h1.78l.19,2.35h.07c.9-1.64,2.2-2.68,3.65-2.68.57,0,.97.07,1.37.28l-.4,1.9c-.43-.17-.73-.21-1.26-.21-1.07,0-2.39.76-3.25,2.96v8.27h-2.16v-12.87Z"/>
        <path class="cls-6" d="M317.65,514.98l1.07-1.42c1.11.9,2.27,1.52,3.82,1.52,1.71,0,2.54-.9,2.54-2.01,0-1.33-1.52-1.9-2.94-2.44-1.8-.66-3.77-1.54-3.77-3.72,0-2.04,1.66-3.65,4.46-3.65,1.59,0,2.99.66,3.98,1.45l-1.04,1.4c-.88-.66-1.78-1.14-2.92-1.14-1.63,0-2.39.85-2.39,1.85,0,1.23,1.33,1.68,2.77,2.23,1.87.71,3.93,1.47,3.93,3.91,0,2.09-1.66,3.82-4.69,3.82-1.83,0-3.58-.76-4.81-1.78Z"/>
        <path class="cls-6" d="M330.19,497.59h2.16v5.17l-.07,2.65c1.18-1.18,2.51-2.16,4.27-2.16,2.7,0,3.93,1.75,3.93,5.05v8.15h-2.16v-7.87c0-2.42-.73-3.44-2.44-3.44-1.33,0-2.23.66-3.53,1.97v9.34h-2.16v-18.86Z"/>
        <path class="cls-6" d="M344.22,499.48c0-.83.59-1.4,1.45-1.4s1.45.57,1.45,1.4c0,.88-.59,1.45-1.45,1.45s-1.45-.57-1.45-1.45ZM344.57,503.58h2.16v12.87h-2.16v-12.87Z"/>
        <path class="cls-6" d="M351.09,503.58h1.78l.19,1.47h.07c1.16-.95,2.61-1.8,4.1-1.8,3.32,0,5.12,2.61,5.12,6.56,0,4.41-2.63,6.94-5.59,6.94-1.16,0-2.39-.54-3.55-1.49l.05,2.25v4.36h-2.16v-18.29ZM360.1,509.84c0-2.84-.95-4.76-3.39-4.76-1.09,0-2.2.62-3.46,1.78v6.75c1.16,1,2.3,1.35,3.15,1.35,2.13,0,3.7-1.92,3.7-5.12Z"/>
      </g>
    </g>
    <g id="Dealerships_have_direct_contact_with_customers_and_are_in_charge_of_finalizing_the_deal._-3" data-name="Dealerships have direct contact with customers and are in charge of finalizing the deal. " class="cls-8">
      <g>
        <path class="cls-4" d="M558.73,385.31h10.02v1.87h-7.82v5.88h6.63v1.85h-6.63v7.8h-2.2v-17.39Z"/>
        <path class="cls-4" d="M571.26,385.73c0-.83.59-1.4,1.45-1.4s1.45.57,1.45,1.4c0,.88-.59,1.45-1.45,1.45s-1.45-.57-1.45-1.45ZM571.62,389.83h2.16v12.87h-2.16v-12.87Z"/>
        <path class="cls-4" d="M578.14,389.83h1.78l.19,1.85h.07c1.23-1.21,2.56-2.18,4.31-2.18,2.7,0,3.93,1.75,3.93,5.05v8.15h-2.16v-7.87c0-2.42-.73-3.44-2.44-3.44-1.33,0-2.23.66-3.53,1.97v9.34h-2.16v-12.87Z"/>
        <path class="cls-4" d="M591.81,399.36c0-2.8,2.44-4.19,7.92-4.81,0-1.66-.54-3.25-2.65-3.25-1.49,0-2.84.69-3.86,1.37l-.85-1.49c1.19-.76,3.01-1.68,5.07-1.68,3.13,0,4.46,2.11,4.46,5.28v7.91h-1.78l-.19-1.54h-.07c-1.23,1.02-2.68,1.85-4.27,1.85-2.16,0-3.77-1.33-3.77-3.65ZM599.73,399.57v-3.6c-4.34.52-5.81,1.59-5.81,3.25,0,1.47,1,2.06,2.27,2.06s2.28-.59,3.53-1.71Z"/>
        <path class="cls-4" d="M605.98,389.83h1.78l.19,1.85h.07c1.23-1.21,2.56-2.18,4.31-2.18,2.7,0,3.93,1.75,3.93,5.05v8.15h-2.16v-7.87c0-2.42-.73-3.44-2.44-3.44-1.33,0-2.23.66-3.53,1.97v9.34h-2.16v-12.87Z"/>
        <path class="cls-4" d="M619.49,396.28c0-4.29,2.92-6.78,6.21-6.78,1.68,0,2.84.71,3.77,1.52l-1.11,1.42c-.76-.66-1.54-1.14-2.56-1.14-2.35,0-4.05,2.01-4.05,4.98s1.61,4.93,3.98,4.93c1.19,0,2.23-.55,3.03-1.28l.95,1.45c-1.16,1.04-2.63,1.64-4.17,1.64-3.41,0-6.04-2.46-6.04-6.73Z"/>
        <path class="cls-4" d="M632.17,385.73c0-.83.59-1.4,1.45-1.4s1.45.57,1.45,1.4c0,.88-.59,1.45-1.45,1.45s-1.45-.57-1.45-1.45ZM632.52,389.83h2.16v12.87h-2.16v-12.87Z"/>
        <path class="cls-4" d="M638.23,399.36c0-2.8,2.44-4.19,7.92-4.81,0-1.66-.54-3.25-2.65-3.25-1.49,0-2.84.69-3.86,1.37l-.85-1.49c1.18-.76,3.01-1.68,5.07-1.68,3.13,0,4.46,2.11,4.46,5.28v7.91h-1.78l-.19-1.54h-.07c-1.23,1.02-2.68,1.85-4.26,1.85-2.16,0-3.77-1.33-3.77-3.65ZM646.15,399.57v-3.6c-4.34.52-5.81,1.59-5.81,3.25,0,1.47,1,2.06,2.28,2.06s2.27-.59,3.53-1.71Z"/>
        <path class="cls-4" d="M652.4,400.14v-16.3h2.16v16.45c0,.66.28.92.62.92.12,0,.21,0,.45-.05l.31,1.66c-.31.12-.66.19-1.26.19-1.61,0-2.28-1.04-2.28-2.87Z"/>
        <path class="cls-4" d="M663.5,396.28c0-4.29,2.91-6.78,6.21-6.78,1.68,0,2.84.71,3.77,1.52l-1.11,1.42c-.76-.66-1.54-1.14-2.56-1.14-2.35,0-4.05,2.01-4.05,4.98s1.61,4.93,3.98,4.93c1.19,0,2.23-.55,3.03-1.28l.95,1.45c-1.16,1.04-2.63,1.64-4.17,1.64-3.41,0-6.04-2.46-6.04-6.73Z"/>
        <path class="cls-4" d="M674.99,396.28c0-4.29,2.82-6.78,5.97-6.78s5.97,2.49,5.97,6.78-2.82,6.73-5.97,6.73-5.97-2.46-5.97-6.73ZM684.7,396.28c0-2.96-1.52-4.98-3.74-4.98s-3.72,2.01-3.72,4.98,1.49,4.93,3.72,4.93,3.74-1.97,3.74-4.93Z"/>
        <path class="cls-4" d="M690.32,389.83h1.78l.19,1.87h.07c1.11-1.23,2.46-2.2,4-2.2,1.97,0,3.03.95,3.55,2.46,1.33-1.45,2.68-2.46,4.24-2.46,2.65,0,3.91,1.75,3.91,5.05v8.15h-2.16v-7.87c0-2.42-.76-3.44-2.39-3.44-1,0-2.04.64-3.25,1.97v9.34h-2.16v-7.87c0-2.42-.76-3.44-2.39-3.44-.97,0-2.06.64-3.25,1.97v9.34h-2.16v-12.87Z"/>
        <path class="cls-4" d="M712.26,389.83h1.78l.19,1.47h.07c1.16-.95,2.61-1.8,4.1-1.8,3.32,0,5.12,2.61,5.12,6.56,0,4.41-2.63,6.94-5.59,6.94-1.16,0-2.39-.54-3.55-1.49l.05,2.25v4.36h-2.16v-18.29ZM721.27,396.09c0-2.84-.95-4.76-3.39-4.76-1.09,0-2.2.62-3.46,1.78v6.75c1.16,1,2.3,1.35,3.15,1.35,2.13,0,3.7-1.92,3.7-5.12Z"/>
        <path class="cls-4" d="M725.77,399.36c0-2.8,2.44-4.19,7.92-4.81,0-1.66-.54-3.25-2.65-3.25-1.49,0-2.84.69-3.86,1.37l-.85-1.49c1.18-.76,3.01-1.68,5.07-1.68,3.13,0,4.46,2.11,4.46,5.28v7.91h-1.78l-.19-1.54h-.07c-1.23,1.02-2.68,1.85-4.26,1.85-2.16,0-3.77-1.33-3.77-3.65ZM733.69,399.57v-3.6c-4.34.52-5.81,1.59-5.81,3.25,0,1.47,1,2.06,2.28,2.06s2.27-.59,3.53-1.71Z"/>
        <path class="cls-4" d="M739.94,389.83h1.78l.19,1.85h.07c1.23-1.21,2.56-2.18,4.31-2.18,2.7,0,3.93,1.75,3.93,5.05v8.15h-2.16v-7.87c0-2.42-.74-3.44-2.44-3.44-1.33,0-2.23.66-3.53,1.97v9.34h-2.16v-12.87Z"/>
        <path class="cls-4" d="M754.07,385.73c0-.83.59-1.4,1.45-1.4s1.45.57,1.45,1.4c0,.88-.59,1.45-1.45,1.45s-1.45-.57-1.45-1.45ZM754.42,389.83h2.16v12.87h-2.16v-12.87Z"/>
        <path class="cls-4" d="M759.97,396.28c0-4.17,2.82-6.78,5.81-6.78,3.27,0,5.12,2.37,5.12,6.04,0,.47-.05.92-.09,1.23h-8.67c.14,2.75,1.82,4.5,4.27,4.5,1.26,0,2.27-.38,3.22-1.02l.78,1.42c-1.14.73-2.51,1.33-4.26,1.33-3.41,0-6.16-2.49-6.16-6.73ZM769,395.21c0-2.58-1.19-3.98-3.2-3.98-1.83,0-3.44,1.47-3.7,3.98h6.9Z"/>
        <path class="cls-4" d="M772.62,401.23l1.07-1.42c1.11.9,2.28,1.52,3.82,1.52,1.71,0,2.54-.9,2.54-2.01,0-1.33-1.52-1.9-2.94-2.44-1.8-.66-3.77-1.54-3.77-3.72,0-2.04,1.66-3.65,4.46-3.65,1.59,0,2.99.66,3.98,1.45l-1.04,1.4c-.88-.66-1.78-1.14-2.92-1.14-1.63,0-2.39.85-2.39,1.85,0,1.23,1.33,1.68,2.77,2.23,1.87.71,3.93,1.47,3.93,3.91,0,2.09-1.66,3.82-4.69,3.82-1.82,0-3.58-.76-4.81-1.78Z"/>
        <path class="cls-4" d="M558.92,427.16v-7.13h-1.92v-1.64l2.01-.12.26-3.63h1.8v3.63h3.48v1.75h-3.48v7.18c0,1.59.5,2.49,1.99,2.49.45,0,1.04-.17,1.47-.33l.43,1.61c-.73.24-1.59.47-2.37.47-2.75,0-3.67-1.73-3.67-4.29Z"/>
        <path class="cls-4" d="M566.1,427.8c0-2.8,2.44-4.19,7.91-4.81,0-1.66-.54-3.25-2.65-3.25-1.49,0-2.84.69-3.86,1.37l-.85-1.49c1.18-.76,3.01-1.68,5.07-1.68,3.13,0,4.46,2.11,4.46,5.28v7.91h-1.78l-.19-1.54h-.07c-1.23,1.02-2.68,1.85-4.27,1.85-2.16,0-3.77-1.33-3.77-3.65ZM574.01,428.01v-3.6c-4.34.52-5.81,1.59-5.81,3.25,0,1.47,1,2.06,2.28,2.06s2.27-.59,3.53-1.71Z"/>
        <path class="cls-4" d="M580.27,412.28h2.13v12.8h.07l5.47-6.8h2.42l-4.29,5.19,4.86,7.68h-2.35l-3.77-6.21-2.42,2.82v3.39h-2.13v-18.86Z"/>
        <path class="cls-4" d="M591.91,424.72c0-4.17,2.82-6.78,5.81-6.78,3.27,0,5.12,2.37,5.12,6.04,0,.47-.05.92-.09,1.23h-8.67c.14,2.75,1.83,4.5,4.27,4.5,1.26,0,2.28-.38,3.22-1.02l.78,1.42c-1.14.73-2.51,1.33-4.27,1.33-3.41,0-6.16-2.49-6.16-6.73ZM600.94,423.65c0-2.58-1.19-3.98-3.2-3.98-1.83,0-3.44,1.47-3.7,3.98h6.9Z"/>
        <path class="cls-4" d="M610.34,424.72c0-4.29,2.82-6.78,5.97-6.78s5.97,2.49,5.97,6.78-2.82,6.73-5.97,6.73-5.97-2.46-5.97-6.73ZM620.06,424.72c0-2.96-1.52-4.98-3.74-4.98s-3.72,2.01-3.72,4.98,1.49,4.93,3.72,4.93,3.74-1.97,3.74-4.93Z"/>
        <path class="cls-4" d="M625.67,418.27h1.78l.19,1.85h.07c1.23-1.21,2.56-2.18,4.31-2.18,2.7,0,3.93,1.75,3.93,5.05v8.15h-2.16v-7.87c0-2.42-.74-3.44-2.44-3.44-1.33,0-2.23.66-3.53,1.97v9.34h-2.16v-12.87Z"/>
        <path class="cls-4" d="M645.84,427.16v-7.13h-1.92v-1.64l2.01-.12.26-3.63h1.8v3.63h3.48v1.75h-3.48v7.18c0,1.59.5,2.49,1.99,2.49.45,0,1.04-.17,1.47-.33l.43,1.61c-.73.24-1.59.47-2.37.47-2.75,0-3.67-1.73-3.67-4.29Z"/>
        <path class="cls-4" d="M654.4,412.28h2.16v5.17l-.07,2.65c1.18-1.18,2.51-2.16,4.27-2.16,2.7,0,3.93,1.75,3.93,5.05v8.15h-2.16v-7.87c0-2.42-.74-3.44-2.44-3.44-1.33,0-2.23.66-3.53,1.97v9.34h-2.16v-18.86Z"/>
        <path class="cls-4" d="M667.81,424.72c0-4.17,2.82-6.78,5.81-6.78,3.27,0,5.12,2.37,5.12,6.04,0,.47-.05.92-.09,1.23h-8.67c.14,2.75,1.82,4.5,4.27,4.5,1.26,0,2.27-.38,3.22-1.02l.78,1.42c-1.14.73-2.51,1.33-4.26,1.33-3.41,0-6.16-2.49-6.16-6.73ZM676.84,423.65c0-2.58-1.19-3.98-3.2-3.98-1.83,0-3.44,1.47-3.7,3.98h6.9Z"/>
        <path class="cls-4" d="M687.22,418.27h1.78l.19,2.35h.07c.9-1.64,2.2-2.68,3.65-2.68.57,0,.97.07,1.38.28l-.4,1.9c-.43-.17-.73-.21-1.26-.21-1.07,0-2.39.76-3.25,2.96v8.27h-2.16v-12.87Z"/>
        <path class="cls-4" d="M696.06,414.17c0-.83.59-1.4,1.45-1.4s1.45.57,1.45,1.4c0,.88-.59,1.45-1.45,1.45s-1.45-.57-1.45-1.45ZM696.41,418.27h2.16v12.87h-2.16v-12.87Z"/>
        <path class="cls-4" d="M701.48,429.67l1.07-1.42c1.11.9,2.28,1.52,3.82,1.52,1.71,0,2.54-.9,2.54-2.01,0-1.33-1.52-1.9-2.94-2.44-1.8-.66-3.77-1.54-3.77-3.72,0-2.04,1.66-3.65,4.46-3.65,1.59,0,2.99.66,3.98,1.45l-1.04,1.4c-.88-.66-1.78-1.14-2.92-1.14-1.63,0-2.39.85-2.39,1.85,0,1.23,1.33,1.68,2.77,2.23,1.87.71,3.93,1.47,3.93,3.91,0,2.09-1.66,3.82-4.69,3.82-1.82,0-3.58-.76-4.81-1.78Z"/>
        <path class="cls-4" d="M714.02,412.28h2.13v12.8h.07l5.47-6.8h2.42l-4.29,5.19,4.86,7.68h-2.35l-3.77-6.21-2.42,2.82v3.39h-2.13v-18.86Z"/>
        <path class="cls-4" d="M731.44,424.72c0-4.29,2.82-6.78,5.97-6.78s5.97,2.49,5.97,6.78-2.82,6.73-5.97,6.73-5.97-2.46-5.97-6.73ZM741.15,424.72c0-2.96-1.52-4.98-3.74-4.98s-3.72,2.01-3.72,4.98,1.49,4.93,3.72,4.93,3.74-1.97,3.74-4.93Z"/>
        <path class="cls-4" d="M747.13,420.03h-1.75v-1.64l1.75-.12v-2.06c0-2.61,1.19-4.24,3.74-4.24.78,0,1.56.17,2.16.43l-.47,1.63c-.47-.21-1-.33-1.45-.33-1.23,0-1.82.88-1.82,2.54v2.04h2.72v1.75h-2.72v11.11h-2.16v-11.11Z"/>
        <path class="cls-4" d="M558.54,457.02v-16.3h2.16v16.45c0,.66.29.92.62.92.12,0,.21,0,.45-.05l.31,1.66c-.31.12-.66.19-1.26.19-1.61,0-2.28-1.04-2.28-2.87Z"/>
        <path class="cls-4" d="M564.32,453.15c0-4.17,2.82-6.78,5.81-6.78,3.27,0,5.12,2.37,5.12,6.04,0,.47-.05.92-.09,1.23h-8.67c.14,2.75,1.82,4.5,4.27,4.5,1.26,0,2.27-.38,3.22-1.02l.78,1.42c-1.14.73-2.51,1.33-4.27,1.33-3.41,0-6.16-2.49-6.16-6.73ZM573.35,452.09c0-2.58-1.18-3.98-3.2-3.98-1.82,0-3.44,1.47-3.7,3.98h6.9Z"/>
        <path class="cls-4" d="M578.42,446.71h1.78l.19,1.85h.07c1.23-1.21,2.56-2.18,4.31-2.18,2.7,0,3.93,1.75,3.93,5.05v8.15h-2.16v-7.87c0-2.42-.73-3.44-2.44-3.44-1.33,0-2.23.66-3.53,1.97v9.34h-2.16v-12.87Z"/>
        <path class="cls-4" d="M591.98,453.15c0-4.17,2.63-6.78,5.57-6.78,1.52,0,2.49.57,3.63,1.52l-.09-2.23v-4.95h2.13v18.86h-1.75l-.19-1.52h-.07c-1.02,1-2.37,1.82-3.91,1.82-3.22,0-5.31-2.44-5.31-6.73ZM601.08,456.31v-6.75c-1.11-.97-2.09-1.35-3.15-1.35-2.09,0-3.72,1.99-3.72,4.93,0,3.1,1.28,4.95,3.55,4.95,1.18,0,2.23-.59,3.32-1.78Z"/>
        <path class="cls-4" d="M607.24,442.61c0-.83.59-1.4,1.45-1.4s1.45.57,1.45,1.4c0,.88-.59,1.45-1.45,1.45s-1.45-.57-1.45-1.45ZM607.59,446.71h2.16v12.87h-2.16v-12.87Z"/>
        <path class="cls-4" d="M614.11,446.71h1.78l.19,1.85h.07c1.23-1.21,2.56-2.18,4.31-2.18,2.7,0,3.93,1.75,3.93,5.05v8.15h-2.16v-7.87c0-2.42-.74-3.44-2.44-3.44-1.33,0-2.23.66-3.53,1.97v9.34h-2.16v-12.87Z"/>
        <path class="cls-4" d="M627.62,462.04c0-1.09.69-2.13,1.9-2.91v-.09c-.69-.4-1.18-1.09-1.18-2.11s.78-1.92,1.45-2.39v-.09c-.85-.69-1.68-1.92-1.68-3.46,0-2.82,2.23-4.6,4.83-4.6.71,0,1.35.17,1.8.33h4.48v1.66h-2.63c.62.59,1.04,1.54,1.04,2.65,0,2.75-2.09,4.48-4.69,4.48-.64,0-1.35-.17-1.92-.45-.47.4-.83.83-.83,1.54,0,.83.52,1.4,2.25,1.4h2.51c2.99,0,4.5.95,4.5,3.06,0,2.39-2.54,4.46-6.52,4.46-3.15,0-5.31-1.23-5.31-3.46ZM637.33,461.38c0-1.18-.92-1.59-2.63-1.59h-2.23c-.47,0-1.09-.07-1.66-.21-.92.66-1.3,1.42-1.3,2.18,0,1.37,1.4,2.27,3.72,2.27,2.46,0,4.1-1.3,4.1-2.65ZM635.67,450.97c0-1.87-1.23-3.01-2.75-3.01s-2.75,1.11-2.75,3.01,1.26,3.06,2.75,3.06,2.75-1.19,2.75-3.06Z"/>
        <path class="cls-4" d="M647.24,446.71h1.78l.19,1.87h.07c1.11-1.23,2.46-2.2,4-2.2,1.97,0,3.03.95,3.55,2.46,1.33-1.45,2.68-2.46,4.24-2.46,2.65,0,3.91,1.75,3.91,5.05v8.15h-2.16v-7.87c0-2.42-.76-3.44-2.39-3.44-1,0-2.04.64-3.25,1.97v9.34h-2.16v-7.87c0-2.42-.76-3.44-2.39-3.44-.97,0-2.06.64-3.25,1.97v9.34h-2.16v-12.87Z"/>
        <path class="cls-4" d="M668.21,453.15c0-4.29,2.82-6.78,5.97-6.78s5.97,2.49,5.97,6.78-2.82,6.73-5.97,6.73-5.97-2.46-5.97-6.73ZM677.93,453.15c0-2.96-1.52-4.98-3.74-4.98s-3.72,2.01-3.72,4.98,1.49,4.93,3.72,4.93,3.74-1.97,3.74-4.93Z"/>
        <path class="cls-4" d="M683.54,446.71h1.78l.19,1.85h.07c1.23-1.21,2.56-2.18,4.31-2.18,2.7,0,3.93,1.75,3.93,5.05v8.15h-2.16v-7.87c0-2.42-.74-3.44-2.44-3.44-1.33,0-2.23.66-3.53,1.97v9.34h-2.16v-12.87Z"/>
        <path class="cls-4" d="M697.05,453.15c0-4.17,2.82-6.78,5.81-6.78,3.27,0,5.12,2.37,5.12,6.04,0,.47-.05.92-.09,1.23h-8.67c.14,2.75,1.82,4.5,4.27,4.5,1.26,0,2.27-.38,3.22-1.02l.78,1.42c-1.14.73-2.51,1.33-4.26,1.33-3.41,0-6.16-2.49-6.16-6.73ZM706.08,452.09c0-2.58-1.19-3.98-3.2-3.98-1.83,0-3.44,1.47-3.7,3.98h6.9Z"/>
        <path class="cls-4" d="M709.97,464.86l.43-1.73c.26.09.64.21.97.21,1.47,0,2.39-1.18,2.91-2.77l.28-.97-5.17-12.89h2.25l2.63,7.16c.38,1.11.83,2.44,1.23,3.6h.12c.36-1.16.74-2.46,1.09-3.6l2.3-7.16h2.11l-4.86,13.93c-.88,2.54-2.23,4.48-4.79,4.48-.62,0-1.11-.09-1.52-.26Z"/>
        <path class="cls-4" d="M728.12,456.24c0-2.8,2.44-4.19,7.92-4.81,0-1.66-.54-3.25-2.65-3.25-1.49,0-2.84.69-3.86,1.37l-.85-1.49c1.18-.76,3.01-1.68,5.07-1.68,3.13,0,4.46,2.11,4.46,5.28v7.91h-1.78l-.19-1.54h-.07c-1.23,1.02-2.68,1.85-4.26,1.85-2.16,0-3.77-1.33-3.77-3.65ZM736.03,456.45v-3.6c-4.34.52-5.81,1.59-5.81,3.25,0,1.47,1,2.06,2.28,2.06s2.27-.59,3.53-1.71Z"/>
        <path class="cls-4" d="M742.29,446.71h1.78l.19,1.85h.07c1.23-1.21,2.56-2.18,4.31-2.18,2.7,0,3.93,1.75,3.93,5.05v8.15h-2.16v-7.87c0-2.42-.74-3.44-2.44-3.44-1.33,0-2.23.66-3.53,1.97v9.34h-2.16v-12.87Z"/>
        <path class="cls-4" d="M755.85,453.15c0-4.17,2.63-6.78,5.57-6.78,1.52,0,2.49.57,3.63,1.52l-.09-2.23v-4.95h2.13v18.86h-1.75l-.19-1.52h-.07c-1.02,1-2.37,1.82-3.91,1.82-3.22,0-5.31-2.44-5.31-6.73ZM764.95,456.31v-6.75c-1.11-.97-2.08-1.35-3.15-1.35-2.09,0-3.72,1.99-3.72,4.93,0,3.1,1.28,4.95,3.55,4.95,1.18,0,2.23-.59,3.32-1.78Z"/>
        <path class="cls-4" d="M558.54,475.15h1.78l.19,2.35h.07c.9-1.64,2.2-2.68,3.65-2.68.57,0,.97.07,1.37.28l-.4,1.9c-.43-.17-.73-.21-1.26-.21-1.07,0-2.39.76-3.25,2.96v8.27h-2.16v-12.87Z"/>
        <path class="cls-4" d="M566.5,481.59c0-4.17,2.82-6.78,5.81-6.78,3.27,0,5.12,2.37,5.12,6.04,0,.47-.05.92-.09,1.23h-8.67c.14,2.75,1.82,4.5,4.27,4.5,1.26,0,2.27-.38,3.22-1.02l.78,1.42c-1.14.73-2.51,1.33-4.27,1.33-3.41,0-6.16-2.49-6.16-6.73ZM575.53,480.53c0-2.58-1.18-3.98-3.2-3.98-1.82,0-3.44,1.47-3.7,3.98h6.9Z"/>
        <path class="cls-4" d="M579.63,481.59c0-4.29,2.92-6.78,6.21-6.78,1.68,0,2.84.71,3.77,1.52l-1.11,1.42c-.76-.66-1.54-1.14-2.56-1.14-2.35,0-4.05,2.01-4.05,4.98s1.61,4.93,3.98,4.93c1.18,0,2.23-.55,3.03-1.28l.95,1.45c-1.16,1.04-2.63,1.64-4.17,1.64-3.41,0-6.04-2.46-6.04-6.73Z"/>
        <path class="cls-4" d="M591.12,481.59c0-4.17,2.82-6.78,5.81-6.78,3.27,0,5.12,2.37,5.12,6.04,0,.47-.05.92-.09,1.23h-8.67c.14,2.75,1.82,4.5,4.27,4.5,1.26,0,2.27-.38,3.22-1.02l.78,1.42c-1.14.73-2.51,1.33-4.27,1.33-3.41,0-6.16-2.49-6.16-6.73ZM600.15,480.53c0-2.58-1.18-3.98-3.2-3.98-1.82,0-3.44,1.47-3.7,3.98h6.9Z"/>
        <path class="cls-4" d="M604.87,471.05c0-.83.59-1.4,1.45-1.4s1.45.57,1.45,1.4c0,.88-.59,1.45-1.45,1.45s-1.45-.57-1.45-1.45ZM605.22,475.15h2.16v12.87h-2.16v-12.87Z"/>
        <path class="cls-4" d="M609.87,475.15h2.25l2.42,7.32c.4,1.26.81,2.58,1.21,3.79h.09c.4-1.21.81-2.54,1.18-3.79l2.44-7.32h2.13l-4.57,12.87h-2.51l-4.64-12.87Z"/>
        <path class="cls-4" d="M623.02,481.59c0-4.17,2.82-6.78,5.81-6.78,3.27,0,5.12,2.37,5.12,6.04,0,.47-.05.92-.09,1.23h-8.67c.14,2.75,1.82,4.5,4.27,4.5,1.26,0,2.27-.38,3.22-1.02l.78,1.42c-1.14.73-2.51,1.33-4.26,1.33-3.41,0-6.16-2.49-6.16-6.73ZM632.05,480.53c0-2.58-1.19-3.98-3.2-3.98-1.83,0-3.44,1.47-3.7,3.98h6.9Z"/>
        <path class="cls-4" d="M642.43,475.15h1.78l.19,1.47h.07c1.16-.95,2.61-1.8,4.1-1.8,3.32,0,5.12,2.61,5.12,6.56,0,4.41-2.63,6.94-5.59,6.94-1.16,0-2.39-.54-3.55-1.49l.05,2.25v4.36h-2.16v-18.29ZM651.43,481.4c0-2.84-.95-4.76-3.39-4.76-1.09,0-2.2.62-3.46,1.78v6.75c1.16,1,2.3,1.35,3.15,1.35,2.13,0,3.7-1.92,3.7-5.12Z"/>
        <path class="cls-4" d="M655.94,484.67c0-2.8,2.44-4.19,7.92-4.81,0-1.66-.54-3.25-2.65-3.25-1.49,0-2.84.69-3.86,1.37l-.85-1.49c1.18-.76,3.01-1.68,5.07-1.68,3.13,0,4.46,2.11,4.46,5.28v7.91h-1.78l-.19-1.54h-.07c-1.23,1.02-2.68,1.85-4.26,1.85-2.16,0-3.77-1.33-3.77-3.65ZM663.85,484.89v-3.6c-4.34.52-5.81,1.59-5.81,3.25,0,1.47,1,2.06,2.28,2.06s2.27-.59,3.53-1.71Z"/>
        <path class="cls-4" d="M668.8,493.3l.43-1.73c.26.09.64.21.97.21,1.47,0,2.39-1.18,2.92-2.77l.28-.97-5.17-12.89h2.25l2.63,7.16c.38,1.11.83,2.44,1.23,3.6h.12c.36-1.16.74-2.46,1.09-3.6l2.3-7.16h2.11l-4.86,13.93c-.88,2.54-2.23,4.48-4.79,4.48-.62,0-1.11-.09-1.52-.26Z"/>
        <path class="cls-4" d="M682.45,475.15h1.78l.19,1.87h.07c1.11-1.23,2.46-2.2,4-2.2,1.97,0,3.03.95,3.55,2.46,1.33-1.45,2.68-2.46,4.24-2.46,2.65,0,3.91,1.75,3.91,5.05v8.15h-2.16v-7.87c0-2.42-.76-3.44-2.39-3.44-1,0-2.04.64-3.25,1.97v9.34h-2.16v-7.87c0-2.42-.76-3.44-2.39-3.44-.97,0-2.06.64-3.25,1.97v9.34h-2.16v-12.87Z"/>
        <path class="cls-4" d="M703.43,481.59c0-4.17,2.82-6.78,5.81-6.78,3.27,0,5.12,2.37,5.12,6.04,0,.47-.05.92-.09,1.23h-8.67c.14,2.75,1.82,4.5,4.27,4.5,1.26,0,2.27-.38,3.22-1.02l.78,1.42c-1.14.73-2.51,1.33-4.26,1.33-3.41,0-6.16-2.49-6.16-6.73ZM712.46,480.53c0-2.58-1.19-3.98-3.2-3.98-1.83,0-3.44,1.47-3.7,3.98h6.9Z"/>
        <path class="cls-4" d="M717.53,475.15h1.78l.19,1.85h.07c1.23-1.21,2.56-2.18,4.31-2.18,2.7,0,3.93,1.75,3.93,5.05v8.15h-2.16v-7.87c0-2.42-.74-3.44-2.44-3.44-1.33,0-2.23.66-3.53,1.97v9.34h-2.16v-12.87Z"/>
        <path class="cls-4" d="M732.38,484.03v-7.13h-1.92v-1.64l2.01-.12.26-3.63h1.8v3.63h3.48v1.75h-3.48v7.18c0,1.59.5,2.49,1.99,2.49.45,0,1.04-.17,1.47-.33l.43,1.61c-.73.24-1.59.47-2.37.47-2.75,0-3.67-1.73-3.67-4.29Z"/>
        <path class="cls-4" d="M739.23,486.54l1.07-1.42c1.11.9,2.28,1.52,3.82,1.52,1.71,0,2.54-.9,2.54-2.01,0-1.33-1.52-1.9-2.94-2.44-1.8-.66-3.77-1.54-3.77-3.72,0-2.04,1.66-3.65,4.46-3.65,1.59,0,2.99.66,3.98,1.45l-1.04,1.4c-.88-.66-1.78-1.14-2.92-1.14-1.63,0-2.39.85-2.39,1.85,0,1.23,1.33,1.68,2.77,2.23,1.87.71,3.93,1.47,3.93,3.91,0,2.09-1.66,3.82-4.69,3.82-1.82,0-3.58-.76-4.81-1.78Z"/>
        <path class="cls-4" d="M558.54,503.58h1.78l.19,1.47h.07c1.16-.95,2.61-1.8,4.1-1.8,3.32,0,5.12,2.61,5.12,6.56,0,4.41-2.63,6.94-5.59,6.94-1.16,0-2.39-.54-3.55-1.49l.05,2.25v4.36h-2.16v-18.29ZM567.54,509.84c0-2.84-.95-4.76-3.39-4.76-1.09,0-2.2.62-3.46,1.78v6.75c1.16,1,2.3,1.35,3.15,1.35,2.13,0,3.7-1.92,3.7-5.12Z"/>
        <path class="cls-4" d="M573.23,513.89v-16.3h2.16v16.45c0,.66.29.92.62.92.12,0,.21,0,.45-.05l.31,1.66c-.31.12-.66.19-1.26.19-1.61,0-2.28-1.04-2.28-2.87Z"/>
        <path class="cls-4" d="M579.82,511.74v-8.15h2.16v7.89c0,2.39.71,3.41,2.42,3.41,1.33,0,2.25-.64,3.48-2.18v-9.12h2.16v12.87h-1.8l-.17-2.01h-.07c-1.21,1.4-2.49,2.32-4.26,2.32-2.7,0-3.91-1.75-3.91-5.02Z"/>
        <path class="cls-4" d="M592.92,514.98l1.07-1.42c1.11.9,2.27,1.52,3.82,1.52,1.71,0,2.54-.9,2.54-2.01,0-1.33-1.52-1.9-2.94-2.44-1.8-.66-3.77-1.54-3.77-3.72,0-2.04,1.66-3.65,4.46-3.65,1.59,0,2.99.66,3.98,1.45l-1.04,1.4c-.88-.66-1.78-1.14-2.92-1.14-1.63,0-2.39.85-2.39,1.85,0,1.23,1.33,1.68,2.77,2.23,1.87.71,3.93,1.47,3.93,3.91,0,2.09-1.66,3.82-4.69,3.82-1.83,0-3.58-.76-4.81-1.78Z"/>
        <path class="cls-4" d="M610.41,499.48c0-.83.59-1.4,1.45-1.4s1.45.57,1.45,1.4c0,.88-.59,1.45-1.45,1.45s-1.45-.57-1.45-1.45ZM610.77,503.58h2.16v12.87h-2.16v-12.87Z"/>
        <path class="cls-4" d="M617.28,503.58h1.78l.19,1.85h.07c1.23-1.21,2.56-2.18,4.31-2.18,2.7,0,3.93,1.75,3.93,5.05v8.15h-2.16v-7.87c0-2.42-.74-3.44-2.44-3.44-1.33,0-2.23.66-3.53,1.97v9.34h-2.16v-12.87Z"/>
        <path class="cls-4" d="M632.14,512.47v-7.13h-1.92v-1.64l2.01-.12.26-3.63h1.8v3.63h3.48v1.75h-3.48v7.18c0,1.59.5,2.49,1.99,2.49.45,0,1.04-.17,1.47-.33l.43,1.61c-.73.24-1.59.47-2.37.47-2.75,0-3.67-1.73-3.67-4.29Z"/>
        <path class="cls-4" d="M639.37,510.03c0-4.17,2.82-6.78,5.81-6.78,3.27,0,5.12,2.37,5.12,6.04,0,.47-.05.92-.09,1.23h-8.67c.14,2.75,1.82,4.5,4.27,4.5,1.26,0,2.27-.38,3.22-1.02l.78,1.42c-1.14.73-2.51,1.33-4.26,1.33-3.41,0-6.16-2.49-6.16-6.73ZM648.4,508.96c0-2.58-1.19-3.98-3.2-3.98-1.83,0-3.44,1.47-3.7,3.98h6.9Z"/>
        <path class="cls-4" d="M653.47,503.58h1.78l.19,2.35h.07c.9-1.64,2.2-2.68,3.65-2.68.57,0,.97.07,1.38.28l-.4,1.9c-.43-.17-.73-.21-1.26-.21-1.07,0-2.39.76-3.25,2.96v8.27h-2.16v-12.87Z"/>
        <path class="cls-4" d="M661.43,510.03c0-4.17,2.82-6.78,5.81-6.78,3.27,0,5.12,2.37,5.12,6.04,0,.47-.05.92-.09,1.23h-8.67c.14,2.75,1.82,4.5,4.27,4.5,1.26,0,2.27-.38,3.22-1.02l.78,1.42c-1.14.73-2.51,1.33-4.26,1.33-3.41,0-6.16-2.49-6.16-6.73ZM670.46,508.96c0-2.58-1.19-3.98-3.2-3.98-1.83,0-3.44,1.47-3.7,3.98h6.9Z"/>
        <path class="cls-4" d="M674.09,514.98l1.07-1.42c1.11.9,2.28,1.52,3.82,1.52,1.71,0,2.54-.9,2.54-2.01,0-1.33-1.52-1.9-2.94-2.44-1.8-.66-3.77-1.54-3.77-3.72,0-2.04,1.66-3.65,4.46-3.65,1.59,0,2.99.66,3.98,1.45l-1.04,1.4c-.88-.66-1.78-1.14-2.92-1.14-1.63,0-2.39.85-2.39,1.85,0,1.23,1.33,1.68,2.77,2.23,1.87.71,3.93,1.47,3.93,3.91,0,2.09-1.66,3.82-4.69,3.82-1.82,0-3.58-.76-4.81-1.78Z"/>
        <path class="cls-4" d="M686.48,512.47v-7.13h-1.92v-1.64l2.01-.12.26-3.63h1.8v3.63h3.48v1.75h-3.48v7.18c0,1.59.5,2.49,1.99,2.49.45,0,1.04-.17,1.47-.33l.43,1.61c-.73.24-1.59.47-2.37.47-2.75,0-3.67-1.73-3.67-4.29Z"/>
        <path class="cls-4" d="M700.7,505.34h-1.75v-1.64l1.75-.12v-2.06c0-2.61,1.19-4.24,3.74-4.24.78,0,1.56.17,2.16.43l-.47,1.63c-.47-.21-1-.33-1.45-.33-1.23,0-1.82.88-1.82,2.54v2.04h2.72v1.75h-2.72v11.11h-2.16v-11.11Z"/>
        <path class="cls-4" d="M708.05,503.58h1.78l.19,2.35h.07c.9-1.64,2.2-2.68,3.65-2.68.57,0,.97.07,1.38.28l-.4,1.9c-.43-.17-.73-.21-1.26-.21-1.07,0-2.39.76-3.25,2.96v8.27h-2.16v-12.87Z"/>
        <path class="cls-4" d="M716.01,510.03c0-4.29,2.82-6.78,5.97-6.78s5.97,2.49,5.97,6.78-2.82,6.73-5.97,6.73-5.97-2.46-5.97-6.73ZM725.72,510.03c0-2.96-1.52-4.98-3.74-4.98s-3.72,2.01-3.72,4.98,1.49,4.93,3.72,4.93,3.74-1.97,3.74-4.93Z"/>
        <path class="cls-4" d="M731.34,503.58h1.78l.19,1.87h.07c1.11-1.23,2.46-2.2,4-2.2,1.97,0,3.03.95,3.55,2.46,1.33-1.45,2.68-2.46,4.24-2.46,2.65,0,3.91,1.75,3.91,5.05v8.15h-2.16v-7.87c0-2.42-.76-3.44-2.39-3.44-1,0-2.04.64-3.25,1.97v9.34h-2.16v-7.87c0-2.42-.76-3.44-2.39-3.44-.97,0-2.06.64-3.25,1.97v9.34h-2.16v-12.87Z"/>
        <path class="cls-4" d="M558.92,540.91v-7.13h-1.92v-1.64l2.01-.12.26-3.63h1.8v3.63h3.48v1.75h-3.48v7.18c0,1.59.5,2.49,1.99,2.49.45,0,1.04-.17,1.47-.33l.43,1.61c-.73.24-1.59.47-2.37.47-2.75,0-3.67-1.73-3.67-4.29Z"/>
        <path class="cls-4" d="M567.47,526.03h2.16v5.17l-.07,2.65c1.18-1.18,2.51-2.16,4.27-2.16,2.7,0,3.93,1.75,3.93,5.05v8.15h-2.16v-7.87c0-2.42-.73-3.44-2.44-3.44-1.33,0-2.23.66-3.53,1.97v9.34h-2.16v-18.86Z"/>
        <path class="cls-4" d="M580.89,538.47c0-4.17,2.82-6.78,5.81-6.78,3.27,0,5.12,2.37,5.12,6.04,0,.47-.05.92-.09,1.23h-8.67c.14,2.75,1.83,4.5,4.27,4.5,1.26,0,2.28-.38,3.22-1.02l.78,1.42c-1.14.73-2.51,1.33-4.27,1.33-3.41,0-6.16-2.49-6.16-6.73ZM589.92,537.4c0-2.58-1.19-3.98-3.2-3.98-1.83,0-3.44,1.47-3.7,3.98h6.9Z"/>
        <path class="cls-4" d="M599.32,538.47c0-4.29,2.92-6.78,6.21-6.78,1.68,0,2.84.71,3.77,1.52l-1.11,1.42c-.76-.66-1.54-1.14-2.56-1.14-2.35,0-4.05,2.01-4.05,4.98s1.61,4.93,3.98,4.93c1.18,0,2.23-.55,3.03-1.28l.95,1.45c-1.16,1.04-2.63,1.64-4.17,1.64-3.41,0-6.04-2.46-6.04-6.73Z"/>
        <path class="cls-4" d="M612.19,540.17v-8.15h2.16v7.89c0,2.39.71,3.41,2.42,3.41,1.33,0,2.25-.64,3.48-2.18v-9.12h2.16v12.87h-1.8l-.17-2.01h-.07c-1.21,1.4-2.49,2.32-4.26,2.32-2.7,0-3.91-1.75-3.91-5.02Z"/>
        <path class="cls-4" d="M625.3,543.42l1.07-1.42c1.11.9,2.28,1.52,3.82,1.52,1.71,0,2.54-.9,2.54-2.01,0-1.33-1.52-1.9-2.94-2.44-1.8-.66-3.77-1.54-3.77-3.72,0-2.04,1.66-3.65,4.46-3.65,1.59,0,2.99.66,3.98,1.45l-1.04,1.4c-.88-.66-1.78-1.14-2.92-1.14-1.63,0-2.39.85-2.39,1.85,0,1.23,1.33,1.68,2.77,2.23,1.87.71,3.93,1.47,3.93,3.91,0,2.09-1.66,3.82-4.69,3.82-1.82,0-3.58-.76-4.81-1.78Z"/>
        <path class="cls-4" d="M637.69,540.91v-7.13h-1.92v-1.64l2.01-.12.26-3.63h1.8v3.63h3.48v1.75h-3.48v7.18c0,1.59.5,2.49,1.99,2.49.45,0,1.04-.17,1.47-.33l.43,1.61c-.73.24-1.59.47-2.37.47-2.75,0-3.67-1.73-3.67-4.29Z"/>
        <path class="cls-4" d="M644.92,538.47c0-4.29,2.82-6.78,5.97-6.78s5.97,2.49,5.97,6.78-2.82,6.73-5.97,6.73-5.97-2.46-5.97-6.73ZM654.63,538.47c0-2.96-1.52-4.98-3.74-4.98s-3.72,2.01-3.72,4.98,1.49,4.93,3.72,4.93,3.74-1.97,3.74-4.93Z"/>
        <path class="cls-4" d="M660.25,532.02h1.78l.19,1.87h.07c1.11-1.23,2.46-2.2,4-2.2,1.97,0,3.03.95,3.55,2.46,1.33-1.45,2.68-2.46,4.24-2.46,2.65,0,3.91,1.75,3.91,5.05v8.15h-2.16v-7.87c0-2.42-.76-3.44-2.39-3.44-1,0-2.04.64-3.25,1.97v9.34h-2.16v-7.87c0-2.42-.76-3.44-2.39-3.44-.97,0-2.06.64-3.25,1.97v9.34h-2.16v-12.87Z"/>
        <path class="cls-4" d="M681.22,538.47c0-4.17,2.82-6.78,5.81-6.78,3.27,0,5.12,2.37,5.12,6.04,0,.47-.05.92-.09,1.23h-8.67c.14,2.75,1.82,4.5,4.27,4.5,1.26,0,2.27-.38,3.22-1.02l.78,1.42c-1.14.73-2.51,1.33-4.26,1.33-3.41,0-6.16-2.49-6.16-6.73ZM690.25,537.4c0-2.58-1.19-3.98-3.2-3.98-1.83,0-3.44,1.47-3.7,3.98h6.9Z"/>
        <path class="cls-4" d="M695.32,532.02h1.78l.19,2.35h.07c.9-1.64,2.2-2.68,3.65-2.68.57,0,.97.07,1.38.28l-.4,1.9c-.43-.17-.73-.21-1.26-.21-1.07,0-2.39.76-3.25,2.96v8.27h-2.16v-12.87Z"/>
      </g>
    </g>
  </g>
</svg>