<?xml version="1.0" encoding="UTF-8"?>
<svg data-bbox="5.598 8.399 55.988 50.384" viewBox="0 0 67.183 67.183" height="67.183" width="67.183" xmlns="http://www.w3.org/2000/svg" data-type="ugc">
    <g>
        <path stroke="#3366fb" fill="#3366ff" d="M47.752 53.279v-.093H29.277v.093a5.5 5.5 0 1 1-6.33-5.44l2.372-3.912a8.206 8.206 0 0 0 .146-8.148l-6.952-12.48-2.46-4.4a1.283 1.283 0 0 1-.085-.17l-4.195-7.53H6.998a1.4 1.4 0 1 1 0-2.8h5.6a1.4 1.4 0 0 1 1.221.718l4.279 7.682h39.5a3.954 3.954 0 0 1 3.336 1.809 4.188 4.188 0 0 1 .262 4.008l-8.35 13.854a5.644 5.644 0 0 1-4.809 2.721H30.688a5.645 5.645 0 0 1-1.434-.184 10.934 10.934 0 0 1-1.539 6.371l-1.735 2.86a5.535 5.535 0 0 1 2.474 2.149h20.122a5.5 5.5 0 1 1-.824 2.892zm2.8 0a2.7 2.7 0 1 0 .217-1.059 1.388 1.388 0 0 1-.06.153 2.69 2.69 0 0 0-.156.906zm-29.482 0a2.7 2.7 0 1 0 2.74-2.7h-.072a2.708 2.708 0 0 0-2.666 2.7zm7.2-18.258a2.825 2.825 0 0 0 2.414 1.371h17.353a2.83 2.83 0 0 0 2.409-1.363l8.269-13.705a1.228 1.228 0 0 0-.1-1.172 1.214 1.214 0 0 0-1.017-.553H19.655l1.092 1.96z"/>
    </g>
</svg>
