<?xml version="1.0" encoding="utf-8"?>
<!-- Generator: Adobe Illustrator 26.0.1, SVG Export Plug-In . SVG Version: 6.00 Build 0)  -->
<svg version="1.1" id="Layer_1" xmlns="http://www.w3.org/2000/svg" xmlns:xlink="http://www.w3.org/1999/xlink" x="0px" y="0px"
	 viewBox="0 0 934.4 529.2" style="enable-background:new 0 0 934.4 529.2;" xml:space="preserve">
<style type="text/css">
	.st0{fill:none;stroke:#29AAD9;stroke-width:3.8445;stroke-miterlimit:10;}
	.st1{fill:none;stroke:#636866;stroke-width:3.8445;stroke-miterlimit:10;}
	.st2{fill:#636866;}
	.st3{fill:#FFFFFF;stroke:#29AAD9;stroke-width:3.8445;stroke-miterlimit:10;}
	.st4{fill:#7BBFBE;}
	.st5{fill:#5472D2;}
	.st6{fill:#E87425;}
	.st7{fill:#E41F2D;}
	.st8{fill:#FFFFFF;stroke:#636866;stroke-width:3.8445;stroke-linecap:round;stroke-miterlimit:10;}
</style>
<g>
	<path class="st0" d="M246,263.7c80.7-80.7,103.8-190.3,211.4-190.3s148.2,127.3,212,191.1s112.7,95.4,209.4,95.4"/>
	<line class="st1" x1="884.2" y1="73.4" x2="884.2" y2="455.9"/>
	<line class="st1" x1="669.5" y1="73.4" x2="669.5" y2="455.9"/>
	<line class="st1" x1="457.6" y1="73.4" x2="457.6" y2="455.9"/>
	<line class="st1" x1="246.7" y1="73.4" x2="246.7" y2="455.9"/>
	<g>
		<path d="M609.8,2.5h9.7v2.4h-7.1v3.6h6.7v2.4h-6.7v4h7.5v2.4h-10.1V2.5z"/>
		<path d="M622.2,7.2h2.4v1.6h0c0.5-1,1.4-1.8,3-1.8c2.7,0,3.6,1.9,3.6,3.9v6.3h-2.5v-5c0-1.1-0.1-2.9-1.8-2.9
			c-1.6,0-2.3,1.2-2.3,2.5v5.4h-2.5V7.2z"/>
		<path d="M632.9,9.3V7.2h2V4.4h2.5v2.9h2.7v2.1h-2.7v4.3c0,1,0.3,1.6,1.4,1.6c0.4,0,1-0.1,1.3-0.3v2.1c-0.5,0.2-1.4,0.3-2,0.3
			c-2.6,0-3.2-1.2-3.2-3.5V9.3H632.9z"/>
		<path d="M644.6,8.6L644.6,8.6c0.4-0.8,1.4-1.6,3-1.6c2.7,0,3.6,1.9,3.6,3.9v6.3h-2.5v-5c0-1.1-0.1-2.9-1.8-2.9
			c-1.6,0-2.3,1.2-2.3,2.5v5.4h-2.5V1.5h2.5V8.6z"/>
		<path d="M663.1,17.2h-2.4v-1.6h0c-0.5,1-1.4,1.8-3,1.8c-2.7,0-3.6-1.9-3.6-3.9V7.2h2.5v5c0,1.1,0.1,2.9,1.8,2.9
			c1.6,0,2.3-1.2,2.3-2.5V7.2h2.5V17.2z"/>
		<path d="M671.2,10c-0.5-0.7-1.1-1-1.9-1c-0.7,0-1.4,0.3-1.4,1.1c0,1.8,5.4,0.3,5.4,4.2c0,2.4-2.3,3.2-4.3,3.2
			c-1.5,0-2.9-0.4-3.9-1.5l1.7-1.6c0.6,0.7,1.3,1.2,2.4,1.2c0.7,0,1.7-0.4,1.7-1.1c0-2-5.4-0.4-5.4-4.2c0-2.2,2-3.2,4-3.2
			c1.3,0,2.7,0.4,3.5,1.5L671.2,10z"/>
		<path d="M676.3,2.4c0.9,0,1.6,0.6,1.6,1.5s-0.7,1.5-1.6,1.5s-1.6-0.7-1.6-1.5S675.4,2.4,676.3,2.4z M675.1,7.2h2.5v9.9h-2.5V7.2z"
			/>
		<path d="M686.6,15.8L686.6,15.8c-0.8,1.1-1.9,1.6-3.2,1.6c-1.8,0-3.6-1-3.6-3c0-3.2,3.8-3.5,6.2-3.5h0.6v-0.3c0-1.2-1-1.9-2.3-1.9
			c-1,0-2,0.4-2.6,1l-1.3-1.3c1.1-1.1,2.6-1.6,4.2-1.6c4.2,0,4.2,3.1,4.2,4.5v5.7h-2.2V15.8z M686.5,12.7H686
			c-1.4,0-3.7,0.1-3.7,1.5c0,0.9,0.9,1.3,1.7,1.3c1.7,0,2.5-0.9,2.5-2.3V12.7z"/>
		<path d="M696.8,10c-0.5-0.7-1.1-1-1.9-1c-0.7,0-1.4,0.3-1.4,1.1c0,1.8,5.4,0.3,5.4,4.2c0,2.4-2.3,3.2-4.3,3.2
			c-1.5,0-2.9-0.4-3.9-1.5l1.7-1.6c0.6,0.7,1.3,1.2,2.4,1.2c0.7,0,1.7-0.4,1.7-1.1c0-2-5.4-0.4-5.4-4.2c0-2.2,2-3.2,4-3.2
			c1.3,0,2.7,0.4,3.5,1.5L696.8,10z"/>
		<path d="M699.6,9.3V7.2h2V4.4h2.5v2.9h2.7v2.1h-2.7v4.3c0,1,0.3,1.6,1.4,1.6c0.4,0,1-0.1,1.3-0.3v2.1c-0.5,0.2-1.4,0.3-2,0.3
			c-2.6,0-3.2-1.2-3.2-3.5V9.3H699.6z"/>
		<path d="M710,2.4c0.9,0,1.6,0.6,1.6,1.5s-0.7,1.5-1.6,1.5s-1.6-0.7-1.6-1.5S709.1,2.4,710,2.4z M708.8,7.2h2.5v9.9h-2.5V7.2z"/>
		<path d="M720.9,10.2c-0.6-0.6-1.2-1-1.9-1c-1.8,0-2.9,1.4-2.9,3s1.1,3,2.9,3c0.8,0,1.5-0.3,1.9-0.9l1.7,1.8c-1,1-2.7,1.4-3.6,1.4
			c-3,0-5.4-2.1-5.4-5.2s2.4-5.2,5.4-5.2c1.3,0,2.6,0.5,3.6,1.5L720.9,10.2z"/>
		<path d="M724.2,18.2l-1.7-0.6L729,1.5l1.7,0.7L724.2,18.2z"/>
		<path d="M622.3,27.3h9.7v2.4h-7.1v3.6h6.7v2.4h-6.7v4h7.5V42h-10.1V27.3z"/>
		<path d="M634.6,32.1h2.4v1.6h0c0.4-0.9,1.4-1.8,3-1.8c1.5,0,2.6,0.6,3.1,1.8c0.7-1.3,1.8-1.8,3.3-1.8c2.6,0,3.6,1.9,3.6,4.3V42
			h-2.5v-5.6c0-1.2-0.4-2.3-1.8-2.3c-1.6,0-2.1,1.3-2.1,2.6V42H641v-5.9c0-1.2-0.5-2-1.7-2c-1.6,0-2.3,1.2-2.3,2.5V42h-2.5V32.1z"/>
		<path d="M657.6,31.8c3,0,5.4,2.1,5.4,5.2s-2.4,5.2-5.4,5.2s-5.4-2.1-5.4-5.2S654.6,31.8,657.6,31.8z M657.6,40
			c1.8,0,2.9-1.4,2.9-3s-1.1-3-2.9-3c-1.8,0-2.9,1.4-2.9,3S655.8,40,657.6,40z"/>
		<path d="M664.1,34.2v-2.1h2v-2.9h2.5v2.9h2.7v2.1h-2.7v4.3c0,1,0.3,1.6,1.4,1.6c0.4,0,1-0.1,1.3-0.3v2.1c-0.5,0.2-1.4,0.3-2,0.3
			c-2.6,0-3.2-1.2-3.2-3.5v-4.6H664.1z"/>
		<path d="M674.6,27.2c0.9,0,1.6,0.6,1.6,1.5c0,0.8-0.7,1.5-1.6,1.5s-1.6-0.7-1.6-1.5S673.7,27.2,674.6,27.2z M673.4,32.1h2.5V42
			h-2.5V32.1z"/>
		<path d="M683.6,31.8c3,0,5.4,2.1,5.4,5.2s-2.4,5.2-5.4,5.2s-5.4-2.1-5.4-5.2S680.6,31.8,683.6,31.8z M683.6,40
			c1.8,0,2.9-1.4,2.9-3s-1.1-3-2.9-3c-1.8,0-2.9,1.4-2.9,3S681.8,40,683.6,40z"/>
		<path d="M691.3,32.1h2.4v1.6h0c0.5-1,1.4-1.8,3-1.8c2.7,0,3.6,1.9,3.6,3.9V42h-2.5v-5c0-1.1-0.1-2.9-1.8-2.9
			c-1.6,0-2.3,1.2-2.3,2.5V42h-2.5V32.1z"/>
		<path d="M709.4,40.6L709.4,40.6c-0.8,1.1-1.9,1.6-3.2,1.6c-1.8,0-3.6-1-3.6-3c0-3.2,3.8-3.5,6.2-3.5h0.6v-0.3c0-1.2-1-1.9-2.3-1.9
			c-1,0-2,0.4-2.6,1l-1.3-1.3c1.1-1.1,2.6-1.6,4.2-1.6c4.2,0,4.2,3.1,4.2,4.5V42h-2.2V40.6z M709.3,37.5h-0.5
			c-1.4,0-3.7,0.1-3.7,1.5c0,0.9,0.9,1.3,1.7,1.3c1.7,0,2.5-0.9,2.5-2.3V37.5z"/>
		<path d="M714.4,26.3h2.5V42h-2.5V26.3z"/>
	</g>
	<g>
		<path d="M219.3,13.6h9.5V16h-6.8v3.8h6.5v2.4h-6.5v6.1h-2.6V13.6z"/>
		<path d="M240,28.3h-2.4v-1.6h0c-0.5,1-1.4,1.8-3,1.8c-2.7,0-3.6-1.9-3.6-3.9v-6.3h2.5v5c0,1.1,0.1,2.9,1.8,2.9
			c1.6,0,2.3-1.2,2.3-2.5v-5.4h2.5V28.3z"/>
		<path d="M242.8,18.3h2.4v1.6h0c0.5-1,1.4-1.8,3-1.8c2.7,0,3.6,1.9,3.6,3.9v6.3h-2.5v-5c0-1.1-0.1-2.9-1.8-2.9
			c-1.6,0-2.3,1.2-2.3,2.5v5.4h-2.5V18.3z"/>
		<path d="M254.6,18.3h2.4v1.6h0c0.5-1,1.4-1.8,3-1.8c2.7,0,3.6,1.9,3.6,3.9v6.3h-2.5v-5c0-1.1-0.1-2.9-1.8-2.9
			c-1.6,0-2.3,1.2-2.3,2.5v5.4h-2.5V18.3z"/>
		<path d="M265.2,18.3h2.7l2.8,6.9h0l2.5-6.9h2.6l-4.7,12.1c-0.7,1.9-1.6,2.8-3.8,2.8c-0.6,0-1.3-0.1-1.9-0.2l0.3-2.2
			c0.4,0.1,0.8,0.2,1.3,0.2c1.2,0,1.6-0.4,2-1.5l0.5-1.2L265.2,18.3z"/>
	</g>
	<g>
		<path d="M44.6,174.3h2.6v12.3h6.2v2.4h-8.8V174.3z"/>
		<path d="M56.4,174.1c0.9,0,1.6,0.6,1.6,1.5c0,0.8-0.7,1.5-1.6,1.5c-0.9,0-1.6-0.7-1.6-1.5C54.8,174.8,55.5,174.1,56.4,174.1z
			 M55.2,179h2.5v9.9h-2.5V179z"/>
		<path d="M60.5,179h2.4v1.6h0c0.5-1,1.4-1.8,3-1.8c2.7,0,3.6,1.9,3.6,3.9v6.3h-2.5v-5c0-1.1-0.1-2.9-1.8-2.9
			c-1.6,0-2.3,1.2-2.3,2.5v5.4h-2.5V179z"/>
		<path d="M72.4,173.3h2.5v9.8l3.8-4.1h3.2l-4.3,4.5l4.5,5.4h-3.3l-4-5.1h0v5.1h-2.5V173.3z"/>
		<path d="M88.8,181.8c-0.5-0.7-1.1-1-1.9-1c-0.7,0-1.4,0.3-1.4,1.1c0,1.8,5.4,0.3,5.4,4.2c0,2.4-2.3,3.2-4.3,3.2
			c-1.5,0-2.9-0.4-3.9-1.5l1.7-1.6c0.6,0.7,1.3,1.2,2.4,1.2c0.7,0,1.7-0.4,1.7-1.1c0-2-5.4-0.4-5.4-4.2c0-2.2,2-3.2,4-3.2
			c1.3,0,2.7,0.4,3.5,1.5L88.8,181.8z"/>
		<path d="M99,174.3h2.6v5.8h6.8v-5.8h2.6v14.6h-2.6v-6.5h-6.8v6.5H99V174.3z"/>
		<path d="M114.4,174.3h4l3.9,10.3l4-10.3h3.9v14.6h-2.5v-12.2h0l-4.4,12.2h-1.8l-4.4-12.2h0v12.2h-2.5V174.3z"/>
		<path d="M133.5,174.3h9.7v2.4h-7.1v3.6h6.7v2.4h-6.7v4h7.5v2.4h-10.1V174.3z"/>
	</g>
	<g>
		<path d="M44.6,214.7h5.7c2.2,0,4.5,1,4.5,3.7c0,1.7-1,2.8-2.5,3.2v0c1.8,0.2,3.2,1.7,3.2,3.5c0,3.2-2.8,4.2-5.5,4.2h-5.3V214.7z
			 M47.2,220.6h2.4c1.7,0,2.6-0.7,2.6-1.8c0-1.3-0.9-1.9-2.8-1.9h-2.2V220.6z M47.2,227.1h2.4c1.3,0,3.2-0.2,3.2-2.2
			c0-1.5-1-2.1-3.1-2.1h-2.5V227.1z"/>
		<path d="M58,214.7h9.5v2.4h-6.8v3.8h6.5v2.4h-6.5v6.1H58V214.7z"/>
		<path d="M69.7,213.7h2.5v15.6h-2.5V213.7z"/>
		<path d="M79.9,219.1c3,0,5.4,2.1,5.4,5.2s-2.4,5.2-5.4,5.2c-3,0-5.4-2.1-5.4-5.2S76.9,219.1,79.9,219.1z M79.9,227.3
			c1.8,0,2.9-1.4,2.9-3s-1.1-3-2.9-3s-2.9,1.4-2.9,3S78.1,227.3,79.9,227.3z"/>
		<path d="M86.3,219.4H89l2.2,7h0l2-7h2.7l2.2,7h0l2.1-7h2.5l-3.4,9.9h-2.5l-2.4-6.8h0l-2.1,6.8h-2.6L86.3,219.4z"/>
	</g>
	<g>
		<path d="M44.6,255h5.7c2.2,0,4.5,1,4.5,3.7c0,1.7-1,2.8-2.5,3.2v0c1.8,0.2,3.2,1.7,3.2,3.5c0,3.2-2.8,4.2-5.5,4.2h-5.3V255z
			 M47.2,261h2.4c1.7,0,2.6-0.7,2.6-1.8c0-1.3-0.9-1.9-2.8-1.9h-2.2V261z M47.2,267.4h2.4c1.3,0,3.2-0.2,3.2-2.2
			c0-1.5-1-2.1-3.1-2.1h-2.5V267.4z"/>
		<path d="M57.8,259.7h2.5v1.6h0c0.5-1.1,1.6-1.8,2.9-1.8c0.3,0,0.6,0.1,0.9,0.1v2.4c-0.4-0.1-0.8-0.2-1.2-0.2c-2.3,0-2.7,2-2.7,2.5
			v5.3h-2.5V259.7z"/>
		<path d="M67.1,254.9c0.9,0,1.6,0.6,1.6,1.5c0,0.8-0.7,1.5-1.6,1.5c-0.9,0-1.6-0.7-1.6-1.5C65.5,255.6,66.2,254.9,67.1,254.9z
			 M65.9,259.7h2.5v9.9h-2.5V259.7z"/>
		<path d="M81.4,259.7v9c0,3.6-1.7,5.9-5.6,5.9c-1.8,0-3.5-0.4-4.9-1.6l1.5-2c1,0.9,2,1.4,3.4,1.4c2.4,0,3.1-1.4,3.1-3.3v-0.7h0
			c-0.7,1-2,1.4-3.2,1.4c-3,0-4.9-2.3-4.9-5.1c0-2.9,1.8-5.2,4.9-5.2c1.4,0,2.7,0.5,3.4,1.7h0v-1.5H81.4z M73.2,264.7
			c0,1.6,1.2,2.9,2.9,2.9c1.8,0,3-1.3,3-2.9c0-1.7-1.1-2.9-2.9-2.9C74.4,261.7,73.2,262.9,73.2,264.7z"/>
		<path d="M86.7,261.1L86.7,261.1c0.4-0.8,1.4-1.6,3-1.6c2.7,0,3.6,1.9,3.6,3.9v6.3h-2.5v-5c0-1.1-0.1-2.9-1.8-2.9
			c-1.6,0-2.3,1.2-2.3,2.5v5.4h-2.5V254h2.5V261.1z"/>
		<path d="M95,261.8v-2.1h2v-2.9h2.5v2.9h2.7v2.1h-2.7v4.3c0,1,0.3,1.6,1.4,1.6c0.4,0,1-0.1,1.3-0.3v2.1c-0.5,0.2-1.4,0.3-2,0.3
			c-2.6,0-3.2-1.2-3.2-3.5v-4.6H95z"/>
		<path d="M104.2,259.7h2.5v1.6h0c0.5-1.1,1.6-1.8,2.9-1.8c0.3,0,0.6,0.1,0.9,0.1v2.4c-0.4-0.1-0.8-0.2-1.2-0.2
			c-2.3,0-2.7,2-2.7,2.5v5.3h-2.5V259.7z"/>
		<path d="M113.8,265.6c0.2,1.5,1.3,2.4,2.7,2.4c1.2,0,2-0.6,2.7-1.3l1.8,1.3c-1.2,1.4-2.6,2-4.2,2c-3,0-5.4-2.1-5.4-5.2
			s2.4-5.2,5.4-5.2c2.8,0,4.7,1.9,4.7,5.4v0.7H113.8z M118.9,263.7c0-1.4-1-2.4-2.5-2.4c-1.5,0-2.4,0.9-2.6,2.4H118.9z"/>
		<path d="M125.7,265.6c0.2,1.5,1.3,2.4,2.7,2.4c1.2,0,2-0.6,2.7-1.3l1.8,1.3c-1.2,1.4-2.6,2-4.2,2c-3,0-5.4-2.1-5.4-5.2
			s2.4-5.2,5.4-5.2c2.8,0,4.7,1.9,4.7,5.4v0.7H125.7z M130.8,263.7c0-1.4-1-2.4-2.5-2.4c-1.5,0-2.4,0.9-2.6,2.4H130.8z"/>
	</g>
	<g>
		<path d="M44.6,295.4h5.8c3.8,0,7.4,2.4,7.4,7.3c0,5-4.2,7.3-7.8,7.3h-5.5V295.4z M49.2,307.7c3.3,0,5.9-1.4,5.9-5
			c0-3.6-2.3-5-5.5-5h-2.4v9.9H49.2z"/>
		<path d="M60.4,295.4h4l3.9,10.3l4-10.3h3.9V310h-2.5v-12.2h0L69.2,310h-1.8l-4.4-12.2h0V310h-2.5V295.4z"/>
		<path d="M79.5,295.4h9.7v2.4h-7.1v3.6h6.7v2.4h-6.7v4h7.5v2.4H79.5V295.4z"/>
		<path d="M90.5,295.4h2.9l2.8,10.6h0l3.3-10.6h2.6l3.2,10.6h0l2.9-10.6h2.6l-4.3,14.6H104l-3.4-11.2h0L97.2,310h-2.4L90.5,295.4z"
			/>
		<path d="M116.7,299.9c3,0,5.4,2.1,5.4,5.2s-2.4,5.2-5.4,5.2c-3,0-5.4-2.1-5.4-5.2S113.7,299.9,116.7,299.9z M116.7,308.1
			c1.8,0,2.9-1.4,2.9-3s-1.1-3-2.9-3s-2.9,1.4-2.9,3S114.9,308.1,116.7,308.1z"/>
		<path d="M124.4,300.1h2.5v1.6h0c0.5-1.1,1.6-1.8,2.9-1.8c0.3,0,0.6,0.1,0.9,0.1v2.4c-0.4-0.1-0.8-0.2-1.2-0.2
			c-2.3,0-2.7,2-2.7,2.5v5.3h-2.5V300.1z"/>
		<path d="M132.5,294.4h2.5v9.8l3.8-4.1h3.2l-4.3,4.5l4.5,5.4h-3.3l-4-5.1h0v5.1h-2.5V294.4z"/>
		<path d="M148.9,302.9c-0.5-0.7-1.1-1-1.9-1c-0.7,0-1.4,0.3-1.4,1.1c0,1.8,5.4,0.3,5.4,4.2c0,2.4-2.3,3.2-4.3,3.2
			c-1.5,0-2.9-0.4-3.9-1.5l1.7-1.6c0.6,0.7,1.3,1.2,2.4,1.2c0.7,0,1.7-0.4,1.7-1.1c0-2-5.4-0.4-5.4-4.2c0-2.2,2-3.2,4-3.2
			c1.3,0,2.7,0.4,3.5,1.5L148.9,302.9z"/>
		<path d="M154.4,307c0.9,0,1.7,0.7,1.7,1.6c0,0.9-0.7,1.6-1.7,1.6c-0.9,0-1.7-0.7-1.7-1.6S153.5,307,154.4,307z M155.6,305.4h-2.5
			v-10.1h2.5V305.4z"/>
	</g>
	<g>
		<path d="M47.6,338.1h-4.5v-2.4h11.6v2.4h-4.5v12.3h-2.6V338.1z"/>
		<path d="M55.9,346.3c0.2,1.5,1.3,2.4,2.7,2.4c1.2,0,2-0.6,2.7-1.3l1.8,1.3c-1.2,1.4-2.6,2-4.2,2c-3,0-5.4-2.1-5.4-5.2
			s2.4-5.2,5.4-5.2c2.8,0,4.7,1.9,4.7,5.4v0.7H55.9z M61,344.4c0-1.4-1-2.4-2.5-2.4c-1.5,0-2.4,0.9-2.6,2.4H61z"/>
		<path d="M72,349L72,349c-0.8,1.1-1.9,1.6-3.2,1.6c-1.8,0-3.6-1-3.6-3c0-3.2,3.8-3.5,6.2-3.5H72v-0.3c0-1.2-1-1.9-2.3-1.9
			c-1,0-2,0.4-2.6,1l-1.3-1.3c1.1-1.1,2.6-1.6,4.2-1.6c4.2,0,4.2,3.1,4.2,4.5v5.7H72V349z M71.9,346h-0.5c-1.4,0-3.7,0.1-3.7,1.5
			c0,0.9,0.9,1.3,1.7,1.3c1.7,0,2.5-0.9,2.5-2.3V346z"/>
		<path d="M76.8,340.5h2.4v1.6h0c0.4-0.9,1.4-1.8,3-1.8c1.5,0,2.6,0.6,3.1,1.8c0.7-1.3,1.8-1.8,3.3-1.8c2.6,0,3.6,1.9,3.6,4.3v5.9
			h-2.5v-5.6c0-1.2-0.4-2.3-1.8-2.3c-1.6,0-2.1,1.3-2.1,2.6v5.4h-2.5v-5.9c0-1.2-0.5-2-1.7-2c-1.6,0-2.3,1.2-2.3,2.5v5.4h-2.5V340.5
			z"/>
		<path d="M95.2,335.8h5.8c3.8,0,7.4,2.4,7.4,7.3c0,5-4.2,7.3-7.8,7.3h-5.5V335.8z M99.7,348c3.3,0,5.9-1.4,5.9-5c0-3.6-2.3-5-5.5-5
			h-2.4v9.9H99.7z"/>
		<path d="M110.9,335.8h4l3.9,10.3l4-10.3h3.9v14.6h-2.5v-12.2h0l-4.4,12.2h-1.8l-4.4-12.2h0v12.2h-2.5V335.8z"/>
		<path d="M130,335.8h9.7v2.4h-7.1v3.6h6.7v2.4h-6.7v4h7.5v2.4H130V335.8z"/>
		<path d="M144.1,347.3c0.9,0,1.7,0.7,1.7,1.6c0,0.9-0.7,1.6-1.7,1.6c-0.9,0-1.7-0.7-1.7-1.6S143.2,347.3,144.1,347.3z M145.3,345.8
			h-2.5v-10.1h2.5V345.8z"/>
	</g>
	<g>
		<path d="M425.5,496.9h9.5v2.4h-6.8v3.8h6.5v2.4h-6.5v6.1h-2.6V496.9z"/>
		<path d="M442.1,501.4c3,0,5.4,2.1,5.4,5.2s-2.4,5.2-5.4,5.2s-5.4-2.1-5.4-5.2S439.1,501.4,442.1,501.4z M442.1,509.6
			c1.8,0,2.9-1.4,2.9-3s-1.1-3-2.9-3c-1.8,0-2.9,1.4-2.9,3S440.3,509.6,442.1,509.6z"/>
		<path d="M449.8,501.7h2.5v1.6h0c0.5-1.1,1.6-1.8,2.9-1.8c0.3,0,0.6,0.1,0.9,0.1v2.4c-0.4-0.1-0.8-0.2-1.2-0.2
			c-2.3,0-2.7,2-2.7,2.5v5.3h-2.5V501.7z"/>
		<path d="M458.1,501.7h2.4v1.6h0c0.4-0.9,1.4-1.8,3-1.8c1.5,0,2.6,0.6,3.1,1.8c0.7-1.3,1.8-1.8,3.3-1.8c2.6,0,3.6,1.9,3.6,4.3v5.9
			H471V506c0-1.2-0.4-2.3-1.8-2.3c-1.6,0-2.1,1.3-2.1,2.6v5.4h-2.5v-5.9c0-1.2-0.5-2-1.7-2c-1.6,0-2.3,1.2-2.3,2.5v5.4h-2.5V501.7z"
			/>
		<path d="M482.4,510.2L482.4,510.2c-0.8,1.1-1.9,1.6-3.2,1.6c-1.8,0-3.6-1-3.6-3c0-3.2,3.8-3.5,6.2-3.5h0.6v-0.3
			c0-1.2-1-1.9-2.3-1.9c-1,0-2,0.4-2.6,1l-1.3-1.3c1.1-1.1,2.6-1.6,4.2-1.6c4.2,0,4.2,3.1,4.2,4.5v5.7h-2.2V510.2z M482.3,507.1
			h-0.5c-1.4,0-3.7,0.1-3.7,1.5c0,0.9,0.9,1.3,1.7,1.3c1.7,0,2.5-0.9,2.5-2.3V507.1z"/>
		<path d="M487.4,495.9h2.5v15.6h-2.5V495.9z"/>
	</g>
	<g>
		<path d="M437.9,17c-1.1-1.1-2.1-1.4-3.1-1.4c-3,0-5,2.3-5,5.2c0,3.1,2,5.4,5,5.4c1.2,0,2.3-0.5,3.3-1.8l2.2,1.5
			c-1.3,1.8-3.3,2.6-5.5,2.6c-4.5,0-7.7-3.1-7.7-7.6c0-4.7,3.2-7.8,7.7-7.8c2,0,3.7,0.6,5.1,2.3L437.9,17z"/>
		<path d="M448,26.9L448,26.9c-0.8,1.1-1.9,1.6-3.2,1.6c-1.8,0-3.6-1-3.6-3c0-3.2,3.8-3.5,6.2-3.5h0.6v-0.3c0-1.2-1-1.9-2.3-1.9
			c-1,0-2,0.4-2.6,1l-1.3-1.3c1.1-1.1,2.6-1.6,4.2-1.6c4.2,0,4.2,3.1,4.2,4.5v5.7H448V26.9z M447.8,23.8h-0.5
			c-1.4,0-3.7,0.1-3.7,1.5c0,0.9,0.9,1.3,1.7,1.3c1.7,0,2.5-0.9,2.5-2.3V23.8z"/>
		<path d="M458.2,21.1c-0.5-0.7-1.1-1-1.9-1c-0.7,0-1.4,0.3-1.4,1.1c0,1.8,5.4,0.3,5.4,4.2c0,2.4-2.3,3.2-4.3,3.2
			c-1.5,0-2.9-0.4-3.9-1.5l1.7-1.6c0.6,0.7,1.3,1.2,2.4,1.2c0.7,0,1.7-0.4,1.7-1.1c0-2-5.4-0.4-5.4-4.2c0-2.2,2-3.2,4-3.2
			c1.3,0,2.7,0.4,3.5,1.5L458.2,21.1z"/>
		<path d="M471.1,28.3h-2.4v-1.6h0c-0.5,1-1.4,1.8-3,1.8c-2.7,0-3.6-1.9-3.6-3.9v-6.3h2.5v5c0,1.1,0.1,2.9,1.8,2.9
			c1.6,0,2.3-1.2,2.3-2.5v-5.4h2.5V28.3z"/>
		<path d="M480.1,26.9L480.1,26.9c-0.8,1.1-1.9,1.6-3.2,1.6c-1.8,0-3.6-1-3.6-3c0-3.2,3.8-3.5,6.2-3.5h0.6v-0.3c0-1.2-1-1.9-2.3-1.9
			c-1,0-2,0.4-2.6,1l-1.3-1.3c1.1-1.1,2.6-1.6,4.2-1.6c4.2,0,4.2,3.1,4.2,4.5v5.7h-2.2V26.9z M480,23.8h-0.5c-1.4,0-3.7,0.1-3.7,1.5
			c0,0.9,0.9,1.3,1.7,1.3c1.7,0,2.5-0.9,2.5-2.3V23.8z"/>
		<path d="M485.1,12.6h2.5v15.6h-2.5V12.6z"/>
	</g>
	<g>
		<path d="M220.1,500.1c-0.6-0.8-1.6-1.2-2.6-1.2c-1.2,0-2.4,0.5-2.4,1.9c0,2.9,7,1.3,7,6.5c0,3.1-2.5,4.7-5.4,4.7
			c-1.8,0-3.6-0.6-4.8-2l2-1.9c0.6,1,1.7,1.5,2.9,1.5c1.2,0,2.6-0.7,2.6-2c0-3.2-7-1.4-7-6.6c0-3,2.7-4.4,5.4-4.4
			c1.5,0,3.1,0.4,4.2,1.5L220.1,500.1z"/>
		<path d="M226.6,507.5c0.2,1.5,1.3,2.4,2.7,2.4c1.2,0,2-0.6,2.7-1.3l1.8,1.3c-1.2,1.4-2.6,2-4.2,2c-3,0-5.4-2.1-5.4-5.2
			s2.4-5.2,5.4-5.2c2.8,0,4.7,1.9,4.7,5.4v0.7H226.6z M231.7,505.6c0-1.4-1-2.4-2.5-2.4c-1.5,0-2.4,0.9-2.6,2.4H231.7z"/>
		<path d="M236.5,501.7h2.5v1.6h0c0.5-1.1,1.6-1.8,2.9-1.8c0.3,0,0.6,0.1,0.9,0.1v2.4c-0.4-0.1-0.8-0.2-1.2-0.2
			c-2.3,0-2.7,2-2.7,2.5v5.3h-2.5V501.7z"/>
		<path d="M245.8,496.8c0.9,0,1.6,0.6,1.6,1.5c0,0.8-0.7,1.5-1.6,1.5c-0.9,0-1.6-0.7-1.6-1.5C244.2,497.5,244.9,496.8,245.8,496.8z
			 M244.6,501.7h2.5v9.9h-2.5V501.7z"/>
		<path d="M254.8,501.4c3,0,5.4,2.1,5.4,5.2s-2.4,5.2-5.4,5.2c-3,0-5.4-2.1-5.4-5.2S251.8,501.4,254.8,501.4z M254.8,509.6
			c1.8,0,2.9-1.4,2.9-3s-1.1-3-2.9-3c-1.8,0-2.9,1.4-2.9,3S253,509.6,254.8,509.6z"/>
		<path d="M271.6,511.6h-2.4V510h0c-0.5,1-1.4,1.8-3,1.8c-2.7,0-3.6-1.9-3.6-3.9v-6.3h2.5v5c0,1.1,0.1,2.9,1.8,2.9
			c1.6,0,2.3-1.2,2.3-2.5v-5.4h2.5V511.6z"/>
		<path d="M279.7,504.4c-0.5-0.7-1.1-1-1.9-1c-0.7,0-1.4,0.3-1.4,1.1c0,1.8,5.4,0.3,5.4,4.2c0,2.4-2.3,3.2-4.3,3.2
			c-1.5,0-2.9-0.4-3.9-1.5l1.7-1.6c0.6,0.7,1.3,1.2,2.4,1.2c0.7,0,1.7-0.4,1.7-1.1c0-2-5.4-0.4-5.4-4.2c0-2.2,2-3.2,4-3.2
			c1.3,0,2.7,0.4,3.5,1.5L279.7,504.4z"/>
	</g>
	<g>
		<path d="M837.5,13.6h2.6v14.6h-2.6V13.6z"/>
		<path d="M843.1,18.3h2.5v1.6h0c0.5-1.1,1.6-1.8,2.9-1.8c0.3,0,0.6,0.1,0.9,0.1v2.4c-0.4-0.1-0.8-0.2-1.2-0.2c-2.3,0-2.7,2-2.7,2.5
			v5.3h-2.5V18.3z"/>
		<path d="M851.1,18.3h2.5v1.6h0c0.5-1.1,1.6-1.8,2.9-1.8c0.3,0,0.6,0.1,0.9,0.1v2.4c-0.4-0.1-0.8-0.2-1.2-0.2c-2.3,0-2.7,2-2.7,2.5
			v5.3h-2.5V18.3z"/>
		<path d="M860.8,24.2c0.2,1.5,1.3,2.4,2.7,2.4c1.2,0,2-0.6,2.7-1.3l1.8,1.3c-1.2,1.4-2.6,2-4.2,2c-3,0-5.4-2.1-5.4-5.2
			s2.4-5.2,5.4-5.2c2.8,0,4.7,1.9,4.7,5.4v0.7H860.8z M865.9,22.3c0-1.4-1-2.4-2.5-2.4c-1.5,0-2.4,0.9-2.6,2.4H865.9z"/>
		<path d="M869.3,18.3h2.7l2.6,7h0l2.7-7h2.5l-3.9,9.9h-2.6L869.3,18.3z"/>
		<path d="M883.4,24.2c0.2,1.5,1.3,2.4,2.7,2.4c1.2,0,2-0.6,2.7-1.3l1.8,1.3c-1.2,1.4-2.6,2-4.2,2c-3,0-5.4-2.1-5.4-5.2
			s2.4-5.2,5.4-5.2c2.8,0,4.7,1.9,4.7,5.4v0.7H883.4z M888.5,22.3c0-1.4-1-2.4-2.5-2.4c-1.5,0-2.4,0.9-2.6,2.4H888.5z"/>
		<path d="M893.3,18.3h2.5v1.6h0c0.5-1.1,1.6-1.8,2.9-1.8c0.3,0,0.6,0.1,0.9,0.1v2.4c-0.4-0.1-0.8-0.2-1.2-0.2c-2.3,0-2.7,2-2.7,2.5
			v5.3h-2.5V18.3z"/>
		<path d="M902.9,24.2c0.2,1.5,1.3,2.4,2.7,2.4c1.2,0,2-0.6,2.7-1.3l1.8,1.3c-1.2,1.4-2.6,2-4.2,2c-3,0-5.4-2.1-5.4-5.2
			s2.4-5.2,5.4-5.2c2.8,0,4.7,1.9,4.7,5.4v0.7H902.9z M908,22.3c0-1.4-1-2.4-2.5-2.4c-1.5,0-2.4,0.9-2.6,2.4H908z"/>
		<path d="M912.8,18.3h2.4v1.6h0c0.5-1,1.4-1.8,3-1.8c2.7,0,3.6,1.9,3.6,3.9v6.3h-2.5v-5c0-1.1-0.1-2.9-1.8-2.9
			c-1.6,0-2.3,1.2-2.3,2.5v5.4h-2.5V18.3z"/>
		<path d="M923.5,20.4v-2.1h2v-2.9h2.5v2.9h2.7v2.1h-2.7v4.3c0,1,0.3,1.6,1.4,1.6c0.4,0,1-0.1,1.3-0.3v2.1c-0.5,0.2-1.4,0.3-2,0.3
			c-2.6,0-3.2-1.2-3.2-3.5v-4.6H923.5z"/>
	</g>
	<g>
		<path d="M638,484.5h4l3.9,10.3l4-10.3h3.9v14.6h-2.5V487h0l-4.4,12.2H645l-4.4-12.2h0v12.2H638V484.5z"/>
		<path d="M663.1,497.8L663.1,497.8c-0.8,1.1-1.9,1.6-3.2,1.6c-1.8,0-3.6-1-3.6-3c0-3.2,3.8-3.5,6.2-3.5h0.6v-0.3
			c0-1.2-1-1.9-2.3-1.9c-1,0-2,0.4-2.6,1l-1.3-1.3c1.1-1.1,2.6-1.6,4.2-1.6c4.2,0,4.2,3.1,4.2,4.5v5.7h-2.2V497.8z M662.9,494.7
			h-0.5c-1.4,0-3.7,0.1-3.7,1.5c0,0.9,0.9,1.3,1.7,1.3c1.7,0,2.5-0.9,2.5-2.3V494.7z"/>
		<path d="M666.8,491.4v-2.1h2v-2.9h2.5v2.9h2.7v2.1h-2.7v4.3c0,1,0.3,1.6,1.4,1.6c0.4,0,1-0.1,1.3-0.3v2.1c-0.5,0.2-1.4,0.3-2,0.3
			c-2.6,0-3.2-1.2-3.2-3.5v-4.6H666.8z"/>
		<path d="M674.9,491.4v-2.1h2v-2.9h2.5v2.9h2.7v2.1h-2.7v4.3c0,1,0.3,1.6,1.4,1.6c0.4,0,1-0.1,1.3-0.3v2.1c-0.5,0.2-1.4,0.3-2,0.3
			c-2.6,0-3.2-1.2-3.2-3.5v-4.6H674.9z"/>
		<path d="M686.1,495.1c0.2,1.5,1.3,2.4,2.7,2.4c1.2,0,2-0.6,2.7-1.3l1.8,1.3c-1.2,1.4-2.6,2-4.2,2c-3,0-5.4-2.1-5.4-5.2
			s2.4-5.2,5.4-5.2c2.8,0,4.7,1.9,4.7,5.4v0.7H686.1z M691.2,493.2c0-1.4-1-2.4-2.5-2.4c-1.5,0-2.4,0.9-2.6,2.4H691.2z"/>
		<path d="M696,489.2h2.5v1.6h0c0.5-1.1,1.6-1.8,2.9-1.8c0.3,0,0.6,0.1,0.9,0.1v2.4c-0.4-0.1-0.8-0.2-1.2-0.2c-2.3,0-2.7,2-2.7,2.5
			v5.3H696V489.2z"/>
		<path d="M642.3,513.8c3,0,5.4,2.1,5.4,5.2s-2.4,5.2-5.4,5.2s-5.4-2.1-5.4-5.2S639.3,513.8,642.3,513.8z M642.3,522
			c1.8,0,2.9-1.4,2.9-3s-1.1-3-2.9-3c-1.8,0-2.9,1.4-2.9,3S640.4,522,642.3,522z"/>
		<path d="M650.9,516.2h-2v-2.1h2v-1.4c0-2.8,0.6-4.6,3.7-4.6c0.5,0,1.1,0,1.6,0.1l-0.2,2.1c-0.4-0.1-0.7-0.1-1-0.1
			c-1.4,0-1.6,1-1.6,2v1.8h2.3v2.1h-2.3v7.8h-2.5V516.2z"/>
		<path d="M663.6,509.3h9.5v2.4h-6.8v3.8h6.5v2.4h-6.5v6.1h-2.6V509.3z"/>
		<path d="M681.5,522.6L681.5,522.6c-0.8,1.1-1.9,1.6-3.2,1.6c-1.8,0-3.6-1-3.6-3c0-3.2,3.8-3.5,6.2-3.5h0.6v-0.3
			c0-1.2-1-1.9-2.3-1.9c-1,0-2,0.4-2.6,1l-1.3-1.3c1.1-1.1,2.6-1.6,4.2-1.6c4.2,0,4.2,3.1,4.2,4.5v5.7h-2.2V522.6z M681.3,519.6
			h-0.5c-1.4,0-3.7,0.1-3.7,1.5c0,0.9,0.9,1.3,1.7,1.3c1.7,0,2.5-0.9,2.5-2.3V519.6z"/>
		<path d="M693.1,517c-0.6-0.6-1.2-1-1.9-1c-1.8,0-2.9,1.4-2.9,3s1.1,3,2.9,3c0.8,0,1.5-0.3,1.9-0.9l1.7,1.8c-1,1-2.7,1.4-3.6,1.4
			c-3,0-5.4-2.1-5.4-5.2s2.4-5.2,5.4-5.2c1.3,0,2.6,0.5,3.6,1.5L693.1,517z"/>
		<path d="M695.2,516.2v-2.1h2v-2.9h2.5v2.9h2.7v2.1h-2.7v4.3c0,1,0.3,1.6,1.4,1.6c0.4,0,1-0.1,1.3-0.3v2.1c-0.5,0.2-1.4,0.3-2,0.3
			c-2.6,0-3.2-1.2-3.2-3.5v-4.6H695.2z"/>
	</g>
	<g>
		<path d="M834.5,496.9h5.1c2.8,0,5.5,0.9,5.5,4.2c0,2.1-1.2,3.7-3.4,4l3.9,6.5h-3.1l-3.4-6.2h-1.9v6.2h-2.6V496.9z M839.1,503.1
			c1.5,0,3.2-0.1,3.2-2c0-1.7-1.6-1.9-3-1.9h-2.3v4H839.1z"/>
		<path d="M849.3,507.5c0.2,1.5,1.3,2.4,2.7,2.4c1.2,0,2-0.6,2.7-1.3l1.8,1.3c-1.2,1.4-2.6,2-4.2,2c-3,0-5.4-2.1-5.4-5.2
			s2.4-5.2,5.4-5.2c2.8,0,4.7,1.9,4.7,5.4v0.7H849.3z M854.4,505.6c0-1.4-1-2.4-2.5-2.4c-1.5,0-2.4,0.9-2.6,2.4H854.4z"/>
		<path d="M864.5,504.4c-0.5-0.7-1.1-1-1.9-1c-0.7,0-1.4,0.3-1.4,1.1c0,1.8,5.4,0.3,5.4,4.2c0,2.4-2.3,3.2-4.3,3.2
			c-1.5,0-2.9-0.4-3.9-1.5l1.7-1.6c0.6,0.7,1.3,1.2,2.4,1.2c0.7,0,1.7-0.4,1.7-1.1c0-2-5.4-0.4-5.4-4.2c0-2.2,2-3.2,4-3.2
			c1.3,0,2.7,0.4,3.5,1.5L864.5,504.4z"/>
		<path d="M868.3,501.7h2.4v1.5h0c0.7-1.2,2-1.7,3.4-1.7c3.1,0,4.9,2.3,4.9,5.2s-2,5.2-4.8,5.2c-1.9,0-2.9-0.9-3.4-1.5h-0.1v6h-2.5
			V501.7z M873.7,503.6c-1.8,0-2.9,1.4-2.9,3s1.1,3,2.9,3c1.8,0,2.9-1.4,2.9-3S875.5,503.6,873.7,503.6z"/>
		<path d="M883.4,507.5c0.2,1.5,1.3,2.4,2.7,2.4c1.2,0,2-0.6,2.7-1.3l1.8,1.3c-1.2,1.4-2.6,2-4.2,2c-3,0-5.4-2.1-5.4-5.2
			s2.4-5.2,5.4-5.2c2.8,0,4.7,1.9,4.7,5.4v0.7H883.4z M888.4,505.6c0-1.4-1-2.4-2.5-2.4c-1.5,0-2.4,0.9-2.6,2.4H888.4z"/>
		<path d="M900,504.6c-0.6-0.6-1.2-1-1.9-1c-1.8,0-2.9,1.4-2.9,3s1.1,3,2.9,3c0.8,0,1.5-0.3,1.9-0.9l1.7,1.8c-1,1-2.7,1.4-3.6,1.4
			c-3,0-5.4-2.1-5.4-5.2s2.4-5.2,5.4-5.2c1.3,0,2.6,0.5,3.6,1.5L900,504.6z"/>
		<path d="M902.1,503.8v-2.1h2v-2.9h2.5v2.9h2.7v2.1h-2.7v4.3c0,1,0.3,1.6,1.4,1.6c0.4,0,1-0.1,1.3-0.3v2.1c-0.5,0.2-1.4,0.3-2,0.3
			c-2.6,0-3.2-1.2-3.2-3.5v-4.6H902.1z"/>
		<path d="M912.2,503.8h-2v-2.1h2v-1.4c0-2.8,0.6-4.6,3.7-4.6c0.5,0,1.1,0,1.6,0.1l-0.2,2.1c-0.4-0.1-0.7-0.1-1-0.1
			c-1.4,0-1.6,1-1.6,2v1.8h2.3v2.1h-2.3v7.8h-2.5V503.8z"/>
		<path d="M927.6,511.6h-2.4V510h0c-0.5,1-1.4,1.8-3,1.8c-2.7,0-3.6-1.9-3.6-3.9v-6.3h2.5v5c0,1.1,0.1,2.9,1.8,2.9
			c1.6,0,2.3-1.2,2.3-2.5v-5.4h2.5V511.6z"/>
		<path d="M930.5,495.9h2.5v15.6h-2.5V495.9z"/>
	</g>
	<path class="st2" d="M465.9,181.4h-16.6c-2.3,0-4.2-1.9-4.2-4.2v-16.6c0-2.3,1.9-4.2,4.2-4.2h16.6c2.3,0,4.2,1.9,4.2,4.2v16.6
		C470.1,179.5,468.2,181.4,465.9,181.4z"/>
	<path class="st2" d="M677.7,181.4h-16.6c-2.3,0-4.2-1.9-4.2-4.2v-16.6c0-2.3,1.9-4.2,4.2-4.2h16.6c2.3,0,4.2,1.9,4.2,4.2v16.6
		C682,179.5,680.1,181.4,677.7,181.4z"/>
	<circle class="st3" cx="246" cy="263.7" r="13.5"/>
	<circle class="st4" cx="246.7" cy="73.4" r="13.5"/>
	<circle class="st3" cx="15.4" cy="182.9" r="13.5"/>
	<circle class="st5" cx="15.4" cy="223.3" r="13.5"/>
	<circle class="st6" cx="15.4" cy="263.7" r="13.5"/>
	<circle class="st7" cx="15.4" cy="304" r="13.5"/>
	<circle class="st4" cx="15.4" cy="344.4" r="13.5"/>
	<circle class="st4" cx="890.6" cy="359.9" r="13.5"/>
	<g>
		<circle class="st5" cx="451.2" cy="168.9" r="13.5"/>
		<circle class="st4" cx="464" cy="168.9" r="13.5"/>
	</g>
	<g>
		<circle class="st7" cx="240.3" cy="455.4" r="13.5"/>
		<circle class="st6" cx="253.1" cy="455.4" r="13.5"/>
	</g>
	<circle class="st8" cx="457.6" cy="455.4" r="5.7"/>
	<circle class="st8" cx="246.7" cy="168.9" r="5.7"/>
	<g>
		<circle class="st5" cx="663.1" cy="168.9" r="13.5"/>
		<circle class="st4" cx="675.8" cy="168.9" r="13.5"/>
	</g>
	<circle class="st3" cx="457.5" cy="73.4" r="13.5"/>
	<circle class="st3" cx="669.5" cy="264.4" r="13.5"/>
	<circle class="st8" cx="669.5" cy="73.4" r="5.7"/>
	<circle class="st3" cx="878.8" cy="359.8" r="13.5"/>
	<circle class="st8" cx="884.2" cy="73.4" r="5.7"/>
	<circle class="st8" cx="884.2" cy="168.9" r="5.7"/>
	<circle class="st8" cx="884.2" cy="264.4" r="5.7"/>
	<circle class="st5" cx="246.7" cy="359.9" r="13.5"/>
	<circle class="st6" cx="457.6" cy="264.4" r="13.5"/>
	<circle class="st7" cx="457.6" cy="359.9" r="13.5"/>
	<circle class="st6" cx="669.5" cy="359.9" r="13.5"/>
	<circle class="st7" cx="669.5" cy="455.4" r="13.5"/>
	<g>
		<circle class="st5" cx="878.3" cy="455.4" r="13.5"/>
		<circle class="st7" cx="884.1" cy="455.4" r="13.5"/>
		<circle class="st6" cx="890.2" cy="455.4" r="13.5"/>
	</g>
</g>
<g>
</g>
<g>
</g>
<g>
</g>
<g>
</g>
<g>
</g>
<g>
</g>
<g>
</g>
<g>
</g>
<g>
</g>
<g>
</g>
<g>
</g>
<g>
</g>
<g>
</g>
<g>
</g>
<g>
</g>
</svg>
