<?xml version="1.0" encoding="UTF-8"?>
<svg data-bbox="0 0 199 133" viewBox="0 0 199 133" height="133" width="199" xmlns="http://www.w3.org/2000/svg" data-type="ugc">
    <g>
        <g>
            <g stroke-width="2" stroke-miterlimit="10" stroke="#e7eff3">
                <path fill="none" d="M130 3v30a3 3 0 0 1-3 3H72a3 3 0 0 1-3-3V3a3 3 0 0 1 3-3h55a3 3 0 0 1 3 3z" stroke="none"/>
                <path fill="none" d="M129 3v30a2 2 0 0 1-2 2H72a2 2 0 0 1-2-2V3a2 2 0 0 1 2-2h55a2 2 0 0 1 2 2z"/>
            </g>
        </g>
        <g>
            <g stroke-width="2" stroke-miterlimit="10" stroke="#e7eff3">
                <path fill="none" d="M130 52v30a3 3 0 0 1-3 3H72a3 3 0 0 1-3-3V52a3 3 0 0 1 3-3h55a3 3 0 0 1 3 3z" stroke="none"/>
                <path fill="none" d="M129 52v30a2 2 0 0 1-2 2H72a2 2 0 0 1-2-2V52a2 2 0 0 1 2-2h55a2 2 0 0 1 2 2z"/>
            </g>
        </g>
        <g>
            <g stroke-width="2" stroke-miterlimit="10" stroke="#e7eff3">
                <path fill="none" d="M199 3v30a3 3 0 0 1-3 3h-55a3 3 0 0 1-3-3V3a3 3 0 0 1 3-3h55a3 3 0 0 1 3 3z" stroke="none"/>
                <path fill="none" d="M198 3v30a2 2 0 0 1-2 2h-55a2 2 0 0 1-2-2V3a2 2 0 0 1 2-2h55a2 2 0 0 1 2 2z"/>
            </g>
        </g>
        <g>
            <g stroke-width="5" stroke-miterlimit="10" stroke="#e7eff3">
                <path fill="none" d="M199 52v30a3 3 0 0 1-3 3h-55a3 3 0 0 1-3-3V52a3 3 0 0 1 3-3h55a3 3 0 0 1 3 3z" stroke="none"/>
                <path fill="none" d="M196.5 52v30a.5.5 0 0 1-.5.5h-55a.5.5 0 0 1-.5-.5V52a.5.5 0 0 1 .5-.5h55a.5.5 0 0 1 .5.5z"/>
            </g>
        </g>
        <g>
            <g stroke-width="5" stroke-miterlimit="10" stroke="#e7eff3">
                <path fill="none" d="M130 100v30a3 3 0 0 1-3 3H72a3 3 0 0 1-3-3v-30a3 3 0 0 1 3-3h55a3 3 0 0 1 3 3z" stroke="none"/>
                <path fill="none" d="M127.5 100v30a.5.5 0 0 1-.5.5H72a.5.5 0 0 1-.5-.5v-30a.5.5 0 0 1 .5-.5h55a.5.5 0 0 1 .5.5z"/>
            </g>
        </g>
        <g>
            <g stroke-width="2" stroke-miterlimit="10" stroke="#e7eff3">
                <path fill="none" d="M199 100v30a3 3 0 0 1-3 3h-55a3 3 0 0 1-3-3v-30a3 3 0 0 1 3-3h55a3 3 0 0 1 3 3z" stroke="none"/>
                <path fill="none" d="M198 100v30a2 2 0 0 1-2 2h-55a2 2 0 0 1-2-2v-30a2 2 0 0 1 2-2h55a2 2 0 0 1 2 2z"/>
            </g>
        </g>
        <g>
            <g>
                <g stroke-width="5" stroke-miterlimit="10" stroke="#e7eff3">
                    <path fill="none" d="M61 3v30a3 3 0 0 1-3 3H3a3 3 0 0 1-3-3V3a3 3 0 0 1 3-3h55a3 3 0 0 1 3 3z" stroke="none"/>
                    <path fill="none" d="M58.5 3v30a.5.5 0 0 1-.5.5H3a.5.5 0 0 1-.5-.5V3a.5.5 0 0 1 .5-.5h55a.5.5 0 0 1 .5.5z"/>
                </g>
            </g>
        </g>
        <g>
            <g>
                <g stroke-width="2" stroke-miterlimit="10" stroke="#e7eff3">
                    <path fill="none" d="M61 51v30a3 3 0 0 1-3 3H3a3 3 0 0 1-3-3V51a3 3 0 0 1 3-3h55a3 3 0 0 1 3 3z" stroke="none"/>
                    <path fill="none" d="M60 51v30a2 2 0 0 1-2 2H3a2 2 0 0 1-2-2V51a2 2 0 0 1 2-2h55a2 2 0 0 1 2 2z"/>
                </g>
            </g>
        </g>
        <g>
            <g>
                <g stroke-width="2" stroke-miterlimit="10" stroke="#e7eff3">
                    <path fill="none" d="M61 100v30a3 3 0 0 1-3 3H3a3 3 0 0 1-3-3v-30a3 3 0 0 1 3-3h55a3 3 0 0 1 3 3z" stroke="none"/>
                    <path fill="none" d="M60 100v30a2 2 0 0 1-2 2H3a2 2 0 0 1-2-2v-30a2 2 0 0 1 2-2h55a2 2 0 0 1 2 2z"/>
                </g>
            </g>
        </g>
    </g>
</svg>
