<?xml version="1.0" encoding="UTF-8"?>
<svg id="Layer_1" data-name="Layer 1" xmlns="http://www.w3.org/2000/svg" viewBox="0 0 25 25">
  <defs>
    <style>
      .cls-1 {
        fill: #3a6185;
      }
    </style>
  </defs>
  <path class="cls-1" d="m12.5,0C5.6,0,0,5.6,0,12.5s5.6,12.5,12.5,12.5,12.5-5.6,12.5-12.5S19.4,0,12.5,0Zm4.77,14.08c.62.62.62,1.62,0,2.24l-.96.96c-.62.62-1.62.62-2.24,0l-1.58-1.58-1.58,1.58c-.62.62-1.62.62-2.24,0l-.96-.96c-.62-.62-.62-1.62,0-2.24l1.58-1.58-1.58-1.58c-.62-.62-.62-1.62,0-2.24l.96-.96c.62-.62,1.62-.62,2.24,0l1.58,1.58,1.58-1.58c.62-.62,1.62-.62,2.24,0l.96.96c.62.62.62,1.62,0,2.24l-1.58,1.58,1.58,1.58Z"/>
</svg>