<?xml version="1.0" encoding="UTF-8"?>
<svg id="Layer_2" data-name="Layer 2" xmlns="http://www.w3.org/2000/svg" xmlns:xlink="http://www.w3.org/1999/xlink" viewBox="0 0 350 350">
  <defs>
    <style>
      .cls-1 {
        fill: none;
      }

      .cls-2 {
        fill: url(#New_Pattern);
      }

      .cls-3 {
        fill: #fff;
      }
    </style>
    <pattern id="New_Pattern" data-name="New Pattern" x="0" y="0" width="350" height="350" patternTransform="translate(-2446.92 1158.11)" patternUnits="userSpaceOnUse" viewBox="0 0 350 350">
      <g>
        <rect class="cls-1" width="350" height="350"/>
        <path id="Fill_773" data-name="Fill 773" class="cls-3" d="m120.79,346.14c0-6.97-5.65-12.62-12.62-12.62s-12.62,5.65-12.62,12.62,5.65,12.62,12.62,12.62c6.96,0,12.61-5.65,12.62-12.62Zm-5.05,0c0,4.18-3.39,7.57-7.57,7.57s-7.57-3.39-7.57-7.57,3.39-7.57,7.57-7.57,7.57,3.39,7.57,7.57Z"/>
        <g>
          <g>
            <path class="cls-3" d="m319.39,49.85h-7.99c-1.57,0-2.85,1.28-2.85,2.84v32.73c0,1.57,1.28,2.84,2.85,2.84h7.99c1.57,0,2.85-1.28,2.85-2.84v-32.73c0-1.57-1.28-2.84-2.85-2.84Zm-7.99,2.29h7.99c.31,0,.55.25.55.56v14.78h-9.1v-14.78c0-.31.25-.56.55-.56Zm7.99,33.84h-7.99c-.31,0-.55-.25-.55-.56v-16.57h9.1v16.57c0,.31-.25.56-.55.56Z"/>
            <path class="cls-3" d="m335.71,49.85h-7.99c-1.57,0-2.85,1.28-2.85,2.84v32.73c0,1.57,1.28,2.84,2.85,2.84h7.99c1.57,0,2.85-1.28,2.85-2.84v-32.73c0-1.57-1.28-2.84-2.85-2.84Zm-7.99,2.29h7.99c.31,0,.55.25.55.56v12.61h-9.1v-12.61c0-.31.25-.56.55-.56Zm7.99,33.84h-7.99c-.31,0-.55-.25-.55-.56v-18.74h9.1v18.74c0,.31-.25.56-.55.56Z"/>
            <path class="cls-3" d="m352.03,49.85h-7.99c-1.57,0-2.85,1.28-2.85,2.84v32.73c0,1.57,1.28,2.84,2.85,2.84h7.99c1.57,0,2.85-1.28,2.85-2.84v-32.73c0-1.57-1.28-2.84-2.85-2.84Zm-7.99,2.29h7.99c.31,0,.55.25.55.56v10.44h-9.1v-10.44c0-.31.25-.56.55-.56Zm7.99,33.84h-7.99c-.31,0-.55-.25-.55-.56v-20.91h9.1v20.91c0,.31-.25.56-.55.56Z"/>
          </g>
          <path id="Fill_460" data-name="Fill 460" class="cls-3" d="m379.66,132.83h-4.13v-26.84c0-1.14-.92-2.06-2.06-2.06h-8.26c-1.14,0-2.06.92-2.06,2.06v26.84h-2.06v-14.45c0-1.14-.92-2.06-2.06-2.06h-8.26c-1.14,0-2.06.92-2.06,2.06v14.45h-2.06v-18.58c0-1.14-.92-2.06-2.06-2.06h-8.26c-1.14,0-2.06.92-2.06,2.06v18.58h-4.13v4.13h49.55v-4.13Zm-8.26-24.78v24.78h-4.13v-24.78h4.13Zm-14.45,12.39v12.39h-4.13v-12.39h4.13Zm-14.45-4.13v16.52h-4.13v-16.52h4.13Z"/>
        </g>
        <g>
          <g>
            <path class="cls-3" d="m252.97,67.07c-5.72,0-10.37-4.65-10.37-10.37s4.65-10.37,10.37-10.37,10.37,4.65,10.37,10.37-4.65,10.37-10.37,10.37Zm0-17.09c-3.71,0-6.72,3.01-6.72,6.72s3.01,6.72,6.72,6.72,6.72-3.01,6.72-6.72-3.01-6.72-6.72-6.72Z"/>
            <path class="cls-3" d="m252.97,141.17c-5.72,0-10.37-4.65-10.37-10.37s4.65-10.37,10.37-10.37,10.37,4.65,10.37,10.37-4.65,10.37-10.37,10.37Zm0-17.09c-3.71,0-6.72,3.01-6.72,6.72s3.01,6.72,6.72,6.72,6.72-3.01,6.72-6.72-3.01-6.72-6.72-6.72Z"/>
            <path class="cls-3" d="m254.7,145.33c-2.45,0-3.11-.31-3.57-1.23-.3-.6-.64-1.91-.81-2.64l-.3-1.27,1.1-.7c.1-.07.2-.13.28-.2l.53-.4.66.03c.13,0,.26,0,.39,0,4.49,0,8.14-3.65,8.14-8.14s-3.65-8.14-8.14-8.14c-.42,0-.84.03-1.25.1l-.17.03h-.17c-.85-.03-1.34.04-1.34.04l-2.07.31-.04-2.09-.68-55.49,2.75-.45,2.97-.15c4.56,0,8.26-3.71,8.26-8.27s-3.71-8.27-8.26-8.27c-.77,0-1.53.11-2.27.32l-1.49.43-1.12-2.37.32-8.54,2.82,2.23c.94.75,1.08.73,1.48.68.29-.04.6-.07.97-.07.61,0,3.03-.04,5.48-.08,2.56-.04,5.17-.09,5.85-.09,1.38,0,2.7.74,3.44,1.25,3.42.01,7.39.2,8.32,3.5.5,1.8,1.66,8.34,2.07,10.67,2.55,1.58,11.16,6.99,13.98,9.51,2.39,2.13,4.86,8.13,5.11,36.39.19,20.94-.14,32.96-1.03,37.85-.15.82-.72,1.45-1.48,1.65-.67.18-1.54.15-2.91-1.19-6.37,1.45-22.89,2.45-25.35,2.53-.61.67-1.43,1.4-3.32,1.66-1.37.18-4.07.39-6.42.49-1.09.05-1.99.08-2.72.08Zm-1.73-26.31c6.5,0,11.78,5.29,11.78,11.78,0,4.81-2.89,8.95-7.03,10.78,2.06-.1,4.34-.27,5.63-.44.75-.1.87-.24,1.12-.51.37-.41,1.06-1.17,2.45-1.17,1.29,0,20.76-1.18,25.64-2.67l1.13-.35c.55-5.93.74-16.98.58-34.15-.24-26.51-2.54-32.5-3.89-33.71-3.01-2.69-14.05-9.49-14.16-9.56l-.7-.43-.14-.81c-.44-2.54-1.67-9.48-2.13-11.11-.23-.84-3.86-.84-5.41-.84h-.66l-.51-.42c-.47-.39-1.28-.83-1.67-.83-.67,0-3.25.04-5.79.09-2.48.04-4.93.08-5.54.08-.17,0-.31.02-.44.03,6.45.14,11.64,5.43,11.64,11.91s-5.32,11.89-11.86,11.91l-2.08.11.62,50.39c.47-.06.94-.08,1.41-.08Zm-1.16-74.21v.03s.09,0,.13-.01c-.04,0-.09-.01-.13-.02Z"/>
            <path class="cls-3" d="m263.56,125.49c-1.21,0-2.37-.43-3.28-1.23-2.01-1.76-4.3-2.87-6.79-3.3-2.4-.41-4.14-2.47-4.14-4.91v-44.82c0-1.91,1.5-3.45,3.41-3.51l22.22-.66c1.19-.03,2.35.24,3.38.79l14.56,7.69c1.89,1,3.09,2.95,3.13,5.09l.74,39.62c.04,2.42-1.89,4.44-4.31,4.5l-28.8.73s-.09,0-.13,0Zm-10.56-54.12v44.68c0,.65.46,1.2,1.1,1.31,3.17.54,6.06,1.93,8.58,4.15.25.22.58.32.91.33l28.8-.73c.42-.01.76-.37.76-.79l-.74-39.62c-.02-.81-.47-1.56-1.19-1.94l-14.56-7.69c-.48-.25-1.03-.38-1.57-.36l-22.09.66Z"/>
            <polygon class="cls-3" points="294.49 100.52 251.09 98.49 251.26 94.85 294.66 96.87 294.49 100.52"/>
            <path class="cls-3" d="m274.18,98.49c-1.81,0-2.66-1.84-2.66-5.78s.84-5.78,2.66-5.78,2.66,1.84,2.66,5.78-.84,5.78-2.66,5.78Z"/>
            <path class="cls-3" d="m274.18,108.43c-1.81,0-2.66-1.84-2.66-5.78s.84-5.78,2.66-5.78,2.66,1.84,2.66,5.78-.84,5.78-2.66,5.78Z"/>
            <path class="cls-3" d="m286.32,134.42c-2.44,0-4.83-.89-6.67-2.52-2.13-1.88-3.37-4.58-3.4-7.42l-.93-70.47,18.1,12.24,1.12,67.32-7.1.79c-.37.04-.74.06-1.11.06Zm-7.27-73.48l.84,63.49c.02,1.83.79,3.51,2.17,4.73,1.38,1.22,3.13,1.77,4.96,1.57l3.8-.42-1.03-62.1-10.74-7.26Z"/>
          </g>
          <g>
            <path class="cls-3" d="m73.4,213.89c0,5.72-4.65,10.37-10.37,10.37s-10.37-4.65-10.37-10.37,4.65-10.37,10.37-10.37,10.37,4.65,10.37,10.37Zm-17.09,0c0,3.71,3.01,6.72,6.72,6.72s6.72-3.01,6.72-6.72-3.01-6.72-6.72-6.72-6.72,3.01-6.72,6.72Z"/>
            <path class="cls-3" d="m147.51,213.89c0,5.72-4.65,10.37-10.37,10.37s-10.37-4.65-10.37-10.37,4.65-10.37,10.37-10.37,10.37,4.65,10.37,10.37Zm-17.09,0c0,3.71,3.01,6.72,6.72,6.72s6.72-3.01,6.72-6.72-3.01-6.72-6.72-6.72-6.72,3.01-6.72,6.72Z"/>
            <path class="cls-3" d="m151.66,212.16c0,2.45-.31,3.11-1.23,3.57-.6.3-1.91.64-2.64.81l-1.27.3-.7-1.1c-.07-.1-.13-.2-.2-.28l-.4-.53.03-.66c0-.13,0-.26,0-.39,0-4.49-3.65-8.14-8.14-8.14s-8.14,3.65-8.14,8.14c0,.42.03.84.1,1.25l.03.17v.17c-.03.85.04,1.34.04,1.34l.31,2.07-2.09.04-55.49.68-.45-2.75-.15-2.97c0-4.56-3.71-8.26-8.27-8.26s-8.27,3.71-8.27,8.26c0,.77.11,1.53.32,2.27l.43,1.49-2.37,1.12-8.54-.32,2.23-2.82c.75-.94.73-1.08.68-1.48-.04-.29-.07-.6-.07-.97,0-.61-.04-3.03-.08-5.48-.04-2.56-.09-5.17-.09-5.85,0-1.38.74-2.7,1.25-3.44.01-3.42.2-7.39,3.5-8.32,1.8-.5,8.34-1.66,10.67-2.07,1.58-2.55,6.99-11.16,9.51-13.98,2.13-2.39,8.13-4.86,36.39-5.11,20.94-.19,32.96.14,37.85,1.03.82.15,1.45.72,1.65,1.48.18.67.15,1.54-1.19,2.91,1.45,6.37,2.45,22.89,2.53,25.35.67.61,1.4,1.43,1.66,3.32.18,1.37.39,4.07.49,6.42.05,1.09.08,1.99.08,2.72Zm-26.31,1.73c0-6.5,5.29-11.78,11.78-11.78,4.81,0,8.95,2.89,10.78,7.03-.1-2.06-.27-4.34-.44-5.63-.1-.75-.24-.87-.51-1.12-.41-.37-1.17-1.06-1.17-2.45,0-1.29-1.18-20.76-2.67-25.64l-.35-1.13c-5.93-.55-16.98-.74-34.15-.58-26.51.24-32.5,2.54-33.71,3.89-2.69,3.01-9.49,14.05-9.56,14.16l-.43.7-.81.14c-2.54.44-9.48,1.67-11.11,2.13-.84.23-.84,3.86-.84,5.41v.66l-.42.51c-.39.47-.83,1.28-.83,1.67,0,.67.04,3.25.09,5.79.04,2.48.08,4.93.08,5.54,0,.17.02.31.03.44.14-6.45,5.43-11.64,11.91-11.64s11.89,5.32,11.91,11.86l.11,2.08,50.39-.62c-.06-.47-.08-.94-.08-1.41Zm-74.21,1.16h.03s0-.09-.01-.13c0,.04-.01.09-.02.13Z"/>
            <path class="cls-3" d="m131.82,203.3c0,1.21-.43,2.37-1.23,3.28-1.76,2.01-2.87,4.3-3.3,6.79-.41,2.4-2.47,4.14-4.91,4.14h-44.82c-1.91,0-3.45-1.5-3.51-3.41l-.66-22.22c-.03-1.19.24-2.35.79-3.38l7.69-14.56c1-1.89,2.95-3.09,5.09-3.13l39.62-.74c2.42-.04,4.44,1.89,4.5,4.31l.73,28.8s0,.09,0,.13Zm-54.12,10.56h44.68c.65,0,1.2-.46,1.31-1.1.54-3.17,1.93-6.06,4.15-8.58.22-.25.32-.58.33-.91l-.73-28.8c-.01-.42-.37-.76-.79-.76l-39.62.74c-.81.02-1.56.47-1.94,1.19l-7.69,14.56c-.25.48-.38,1.03-.36,1.57l.66,22.09Z"/>
            <polygon class="cls-3" points="106.85 172.38 104.82 215.77 101.18 215.6 103.21 172.21 106.85 172.38"/>
            <path class="cls-3" d="m104.82,192.68c0,1.81-1.84,2.66-5.78,2.66s-5.78-.84-5.78-2.66,1.84-2.66,5.78-2.66,5.78.84,5.78,2.66Z"/>
            <path class="cls-3" d="m114.76,192.68c0,1.81-1.84,2.66-5.78,2.66s-5.78-.84-5.78-2.66,1.84-2.66,5.78-2.66,5.78.84,5.78,2.66Z"/>
            <path class="cls-3" d="m140.75,180.54c0,2.44-.89,4.83-2.52,6.67-1.88,2.13-4.58,3.37-7.42,3.4l-70.47.93,12.24-18.1,67.32-1.12.79,7.1c.04.37.06.74.06,1.11Zm-73.48,7.27l63.49-.84c1.83-.02,3.51-.79,4.73-2.17,1.22-1.38,1.77-3.13,1.57-4.96l-.42-3.8-62.1,1.03-7.26,10.74Z"/>
          </g>
          <g>
            <path class="cls-3" d="m378.44,282.89c0,5.28-4.3,9.58-9.58,9.58s-9.58-4.3-9.58-9.58,4.3-9.58,9.58-9.58,9.58,4.3,9.58,9.58Zm-15.79,0c0,3.42,2.78,6.21,6.21,6.21s6.21-2.79,6.21-6.21-2.78-6.21-6.21-6.21-6.21,2.79-6.21,6.21Z"/>
            <path class="cls-3" d="m378.44,214.43c0,5.28-4.3,9.58-9.58,9.58s-9.58-4.3-9.58-9.58,4.3-9.58,9.58-9.58,9.58,4.3,9.58,9.58Zm-15.79,0c0,3.42,2.78,6.21,6.21,6.21s6.21-2.79,6.21-6.21-2.78-6.21-6.21-6.21-6.21,2.79-6.21,6.21Z"/>
            <path class="cls-3" d="m374.14,274.7l-2.54.41-2.74.14c-4.21,0-7.64,3.43-7.64,7.64s3.43,7.64,7.64,7.64c.71,0,1.42-.1,2.1-.29l1.38-.39,1.03,2.19-.29,7.89-2.61-2.06c-.87-.69-1-.67-1.37-.63-.27.03-.55.07-.9.07-.56,0-2.8.04-5.07.08-2.37.04-4.78.08-5.41.08-1.28,0-2.49-.68-3.18-1.16-3.16,0-6.83-.18-7.69-3.23-.46-1.66-1.54-7.71-1.91-9.85-2.35-1.46-10.31-6.46-12.92-8.79-2.2-1.97-4.49-7.51-4.72-33.62-.17-19.34.13-30.46.95-34.97.14-.75.66-1.34,1.37-1.53.62-.17,1.42-.14,2.69,1.1,5.88-1.34,21.15-2.27,23.42-2.34.57-.62,1.32-1.3,3.07-1.53,1.26-.17,3.76-.36,5.93-.46,4.39-.19,5.26-.03,5.81,1.06.28.55.59,1.77.75,2.44l.28,1.17-1.02.64c-.1.06-.18.12-.26.18l-.49.37-.61-.03c-.12,0-.24,0-.36,0-4.15,0-7.52,3.37-7.52,7.52s3.37,7.52,7.52,7.52c.39,0,.77-.03,1.16-.09l.15-.02h.15c.79.03,1.24-.04,1.24-.04l1.91-.29.04,1.93.63,51.27Zm-5.33-2.82l1.92-.1-.58-46.55c-.43.05-.87.08-1.3.08-6,0-10.89-4.88-10.89-10.89,0-4.44,2.67-8.27,6.49-9.96-1.91.09-4.01.25-5.2.41-.69.09-.8.22-1.04.48-.34.38-.98,1.08-2.27,1.08-1.19,0-19.18,1.09-23.69,2.47l-1.04.32c-.51,5.48-.68,15.68-.54,31.55.22,24.49,2.35,30.02,3.6,31.14,2.78,2.49,12.98,8.77,13.08,8.83l.65.4.13.75c.4,2.34,1.54,8.75,1.96,10.27.22.77,3.57.77,5,.77h.61l.47.39c.44.36,1.18.77,1.54.77.62,0,3.01-.04,5.35-.08,2.29-.04,4.55-.08,5.12-.08.15,0,.29-.02.41-.03-5.96-.13-10.76-5.02-10.76-11s4.91-10.98,10.96-11.01Zm1.11,21.99v-.03s-.08,0-.12.01c.04,0,.08,0,.12.02Z"/>
            <path class="cls-3" d="m372.2,228.06v41.4c0,1.76-1.38,3.19-3.14,3.24l-20.53.61c-1.08.03-2.16-.22-3.12-.72l-13.45-7.1c-1.75-.92-2.86-2.73-2.9-4.71l-.68-36.6c-.04-2.24,1.74-4.11,3.98-4.16l26.61-.68c1.16-.03,2.28.37,3.15,1.13,1.86,1.63,3.97,2.65,6.27,3.05,2.21.38,3.82,2.28,3.82,4.54Zm-3.37,41.28v-41.28c0-.6-.43-1.11-1.02-1.21-2.93-.5-5.59-1.79-7.93-3.83-.23-.2-.53-.31-.84-.3l-26.61.68c-.39,0-.7.33-.7.71h0s.68,36.62.68,36.62c.01.75.44,1.44,1.1,1.79l13.45,7.1c.45.24.95.35,1.45.34l20.41-.61Z"/>
            <polygon class="cls-3" points="370.59 244.28 370.43 247.65 330.35 245.77 330.5 242.41 370.59 244.28"/>
            <path class="cls-3" d="m351.71,249.62c0,3.64-.78,5.34-2.46,5.34s-2.46-1.7-2.46-5.34.78-5.34,2.46-5.34,2.46,1.7,2.46,5.34Z"/>
            <path class="cls-3" d="m351.71,240.44c0,3.64-.78,5.34-2.46,5.34s-2.46-1.7-2.46-5.34.78-5.34,2.46-5.34,2.46,1.7,2.46,5.34Z"/>
            <path class="cls-3" d="m348.21,285.38l-16.72-11.31-1.03-62.19,6.56-.73c2.6-.29,5.22.54,7.19,2.27,1.96,1.73,3.11,4.23,3.14,6.85l.86,65.11Zm-13.38-13.12l9.92,6.71-.77-58.66c-.02-1.7-.73-3.25-2.01-4.37-1.27-1.12-2.9-1.64-4.58-1.45l-3.51.39.95,57.37Z"/>
          </g>
          <g>
            <path class="cls-3" d="m131.44,82.44H55.93c-2.17,0-3.95-1.42-4.45-3.52-.49-2.11.48-4.17,2.42-5.13l37.76-18.76c1.27-.63,2.79-.63,4.06,0l37.76,18.76c1.94.96,2.91,3.03,2.42,5.13-.5,2.11-2.28,3.52-4.45,3.52Zm-37.76-24.89c-.24,0-.48.05-.7.16h0l-37.76,18.76c-1.03.51-.89,1.48-.83,1.76s.37,1.21,1.53,1.21h75.52c1.15,0,1.46-.93,1.53-1.21s.2-1.25-.83-1.76l-37.76-18.76c-.22-.11-.46-.16-.7-.16Z"/>
            <g>
              <path class="cls-3" d="m63.86,133h-11.38v-47.7h11.38v47.7Zm-8.38-3h5.38v-41.7h-5.38v41.7Z"/>
              <path class="cls-3" d="m64.32,89.36c-1,0-1.94-.39-2.65-1.06h-7c-.71.68-1.65,1.06-2.65,1.06-2.12,0-3.84-1.72-3.84-3.84,0-.03,0-.07,0-.1v-.76c0-1.64,1.33-2.97,2.97-2.97h14.03c1.64,0,2.97,1.33,2.97,2.97v.87c0,2.12-1.72,3.84-3.84,3.84Zm-11.15-4.06h10l.44.68c.16.24.42.38.7.38.46,0,.84-.38.84-.84v-.2s0-.64,0-.64h-14l.04.73v.08c0,.49.37.87.83.87.28,0,.54-.14.7-.38l.44-.68Zm11.98-.64h1.5-1.5Z"/>
              <path class="cls-3" d="m62.93,140.45h-9.53c-2.88,0-5.22-2.34-5.22-5.22s2.34-5.22,5.22-5.22h9.53c2.88,0,5.22,2.34,5.22,5.22s-2.34,5.22-5.22,5.22Zm-9.53-7.44c-1.22,0-2.22,1-2.22,2.22s1,2.22,2.22,2.22h9.53c1.22,0,2.22-1,2.22-2.22s-1-2.22-2.22-2.22h-9.53Z"/>
            </g>
            <g>
              <path class="cls-3" d="m87.47,133h-11.38v-47.7h11.38v47.7Zm-8.38-3h5.38v-41.7h-5.38v41.7Z"/>
              <path class="cls-3" d="m87.93,89.36c-1,0-1.94-.39-2.65-1.06h-7c-.71.68-1.65,1.06-2.65,1.06-2.12,0-3.84-1.72-3.84-3.84,0-.03,0-.07,0-.1v-.76c0-1.64,1.33-2.97,2.97-2.97h14.03c1.64,0,2.97,1.33,2.97,2.97v.87c0,2.12-1.72,3.84-3.84,3.84Zm-11.15-4.06h10l.44.68c.16.24.42.38.7.38.46,0,.84-.38.84-.84v-.2s0-.64,0-.64h-14l.04.73v.08c0,.49.37.87.83.87.28,0,.54-.14.7-.38l.44-.68Zm11.98-.64h0s0,0,0,0h1.5-1.5Z"/>
              <path class="cls-3" d="m86.55,140.45h-9.53c-2.88,0-5.22-2.34-5.22-5.22s2.34-5.22,5.22-5.22h9.53c2.88,0,5.22,2.34,5.22,5.22s-2.34,5.22-5.22,5.22Zm-9.53-7.44c-1.22,0-2.22,1-2.22,2.22s1,2.22,2.22,2.22h9.53c1.22,0,2.22-1,2.22-2.22s-1-2.22-2.22-2.22h-9.53Z"/>
            </g>
            <g>
              <path class="cls-3" d="m111.08,133h-11.38v-47.7h11.38v47.7Zm-8.38-3h5.38v-41.7h-5.38v41.7Z"/>
              <path class="cls-3" d="m111.54,89.36c-1,0-1.94-.39-2.65-1.06h-7c-.71.68-1.65,1.06-2.65,1.06-2.12,0-3.84-1.72-3.84-3.84v-.87c0-1.64,1.33-2.97,2.97-2.97h14.03c1.64,0,2.97,1.33,2.97,2.97v.87c0,2.12-1.72,3.84-3.84,3.84Zm-11.15-4.06h10l.44.68c.16.24.42.38.7.38.46,0,.84-.38.84-.84v-.2s0-.64,0-.64h-14l.04.71v.07s-1.5-.02-1.5-.02l1.5.12c0,.42.38.8.84.8.28,0,.54-.14.7-.38l.44-.68Zm11.98-.64h0s0,0,0,0h1.5-1.5Z"/>
              <path class="cls-3" d="m110.16,140.45h-9.53c-2.88,0-5.22-2.34-5.22-5.22s2.34-5.22,5.22-5.22h9.53c2.88,0,5.22,2.34,5.22,5.22s-2.34,5.22-5.22,5.22Zm-9.53-7.44c-1.22,0-2.22,1-2.22,2.22s1,2.22,2.22,2.22h9.53c1.22,0,2.22-1,2.22-2.22s-1-2.22-2.22-2.22h-9.53Z"/>
            </g>
            <g>
              <path class="cls-3" d="m134.7,133h-11.38v-47.7h11.38v47.7Zm-8.38-3h5.38v-41.7h-5.38v41.7Z"/>
              <path class="cls-3" d="m135.15,89.36c-1,0-1.94-.39-2.65-1.06h-7c-.71.68-1.65,1.06-2.65,1.06-2.12,0-3.84-1.72-3.84-3.84v-.87c0-1.64,1.33-2.97,2.97-2.97h14.03c1.64,0,2.97,1.33,2.97,2.97v.87c0,2.12-1.72,3.84-3.84,3.84Zm-11.15-4.06h10l.44.68c.16.24.42.38.7.38.46,0,.84-.38.84-.84v-.2s0-.64,0-.64h-14l.04.71v.07s-1.5-.02-1.5-.02l1.5.12c0,.42.38.8.84.8.28,0,.54-.14.7-.38l.44-.68Zm11.99-.64h0s0,0,0,0h1.5-1.5Z"/>
              <path class="cls-3" d="m133.77,140.45h-9.53c-2.88,0-5.22-2.34-5.22-5.22s2.34-5.22,5.22-5.22h9.53c2.88,0,5.22,2.34,5.22,5.22s-2.34,5.22-5.22,5.22Zm-9.53-7.44c-1.22,0-2.22,1-2.22,2.22s1,2.22,2.22,2.22h9.53c1.22,0,2.22-1,2.22-2.22s-1-2.22-2.22-2.22h-9.53Z"/>
            </g>
            <path class="cls-3" d="m146.49,157.35H40.68v-8.41h3.27v-4.61h4.24v-4.58h90.81v4.58h4.24v4.61h3.27v8.41Zm-102.81-3h99.81v-2.41h-3.27v-4.61h-4.24v-4.58H51.19v4.58h-4.24v4.61h-3.27v2.41Z"/>
          </g>
          <g>
            <path class="cls-3" d="m228.56,282.2h-75.52c-2.17,0-3.95-1.42-4.45-3.52-.49-2.11.48-4.17,2.42-5.13l37.76-18.76c1.27-.63,2.79-.63,4.06,0l37.76,18.76c1.94.96,2.91,3.03,2.42,5.13-.5,2.11-2.28,3.52-4.45,3.52Zm-37.76-24.89c-.24,0-.48.05-.7.16h0l-37.76,18.76c-1.03.51-.89,1.48-.83,1.76s.37,1.21,1.53,1.21h75.52c1.15,0,1.46-.93,1.53-1.21s.2-1.25-.83-1.76l-37.76-18.76c-.22-.11-.46-.16-.7-.16Z"/>
            <g>
              <path class="cls-3" d="m160.98,332.76h-11.38v-47.7h11.38v47.7Zm-8.38-3h5.38v-41.7h-5.38v41.7Z"/>
              <path class="cls-3" d="m161.44,289.12c-1,0-1.94-.39-2.65-1.06h-7c-.71.68-1.65,1.06-2.65,1.06-2.12,0-3.84-1.72-3.84-3.84,0-.03,0-.07,0-.1v-.76c0-1.64,1.33-2.97,2.97-2.97h14.03c1.64,0,2.97,1.33,2.97,2.97v.87c0,2.12-1.72,3.84-3.84,3.84Zm-11.15-4.06h10l.44.68c.16.24.42.38.7.38.46,0,.84-.38.84-.84v-.2s0-.64,0-.64h-14l.04.73v.08c0,.49.37.87.83.87.28,0,.54-.14.7-.38l.44-.68Zm11.98-.64h1.5-1.5Z"/>
              <path class="cls-3" d="m160.05,340.2h-9.53c-2.88,0-5.22-2.34-5.22-5.22s2.34-5.22,5.22-5.22h9.53c2.88,0,5.22,2.34,5.22,5.22s-2.34,5.22-5.22,5.22Zm-9.53-7.44c-1.22,0-2.22,1-2.22,2.22s1,2.22,2.22,2.22h9.53c1.22,0,2.22-1,2.22-2.22s-1-2.22-2.22-2.22h-9.53Z"/>
            </g>
            <g>
              <path class="cls-3" d="m184.59,332.76h-11.38v-47.7h11.38v47.7Zm-8.38-3h5.38v-41.7h-5.38v41.7Z"/>
              <path class="cls-3" d="m185.05,289.12c-1,0-1.94-.39-2.65-1.06h-7c-.71.68-1.65,1.06-2.65,1.06-2.12,0-3.84-1.72-3.84-3.84,0-.03,0-.07,0-.1v-.76c0-1.64,1.33-2.97,2.97-2.97h14.03c1.64,0,2.97,1.33,2.97,2.97v.87c0,2.12-1.72,3.84-3.84,3.84Zm-11.15-4.06h10l.44.68c.16.24.42.38.7.38.46,0,.84-.38.84-.84v-.2s0-.64,0-.64h-14l.04.73v.08c0,.49.37.87.83.87.28,0,.54-.14.7-.38l.44-.68Zm11.98-.64h0s0,0,0,0h1.5-1.5Z"/>
              <path class="cls-3" d="m183.67,340.2h-9.53c-2.88,0-5.22-2.34-5.22-5.22s2.34-5.22,5.22-5.22h9.53c2.88,0,5.22,2.34,5.22,5.22s-2.34,5.22-5.22,5.22Zm-9.53-7.44c-1.22,0-2.22,1-2.22,2.22s1,2.22,2.22,2.22h9.53c1.22,0,2.22-1,2.22-2.22s-1-2.22-2.22-2.22h-9.53Z"/>
            </g>
            <g>
              <path class="cls-3" d="m208.21,332.76h-11.38v-47.7h11.38v47.7Zm-8.38-3h5.38v-41.7h-5.38v41.7Z"/>
              <path class="cls-3" d="m208.66,289.12c-1,0-1.94-.39-2.65-1.06h-7c-.71.68-1.65,1.06-2.65,1.06-2.12,0-3.84-1.72-3.84-3.84v-.87c0-1.64,1.33-2.97,2.97-2.97h14.03c1.64,0,2.97,1.33,2.97,2.97v.87c0,2.12-1.72,3.84-3.84,3.84Zm-11.15-4.06h10l.44.68c.16.24.42.38.7.38.46,0,.84-.38.84-.84v-.2s0-.64,0-.64h-14l.04.71v.07s-1.5-.02-1.5-.02l1.5.12c0,.42.38.8.84.8.28,0,.54-.14.7-.38l.44-.68Zm11.98-.64h0s0,0,0,0h1.5-1.5Z"/>
              <path class="cls-3" d="m207.28,340.2h-9.53c-2.88,0-5.22-2.34-5.22-5.22s2.34-5.22,5.22-5.22h9.53c2.88,0,5.22,2.34,5.22,5.22s-2.34,5.22-5.22,5.22Zm-9.53-7.44c-1.22,0-2.22,1-2.22,2.22s1,2.22,2.22,2.22h9.53c1.22,0,2.22-1,2.22-2.22s-1-2.22-2.22-2.22h-9.53Z"/>
            </g>
            <g>
              <path class="cls-3" d="m231.82,332.76h-11.38v-47.7h11.38v47.7Zm-8.38-3h5.38v-41.7h-5.38v41.7Z"/>
              <path class="cls-3" d="m232.27,289.12c-1,0-1.94-.39-2.65-1.06h-7c-.71.68-1.65,1.06-2.65,1.06-2.12,0-3.84-1.72-3.84-3.84v-.87c0-1.64,1.33-2.97,2.97-2.97h14.03c1.64,0,2.97,1.33,2.97,2.97v.87c0,2.12-1.72,3.84-3.84,3.84Zm-11.15-4.06h10l.44.68c.16.24.42.38.7.38.46,0,.84-.38.84-.84v-.2s0-.64,0-.64h-14l.04.71v.07s-1.5-.02-1.5-.02l1.5.12c0,.42.38.8.84.8.28,0,.54-.14.7-.38l.44-.68Zm11.99-.64h0s0,0,0,0h1.5-1.5Z"/>
              <path class="cls-3" d="m230.89,340.2h-9.53c-2.88,0-5.22-2.34-5.22-5.22s2.34-5.22,5.22-5.22h9.53c2.88,0,5.22,2.34,5.22,5.22s-2.34,5.22-5.22,5.22Zm-9.53-7.44c-1.22,0-2.22,1-2.22,2.22s1,2.22,2.22,2.22h9.53c1.22,0,2.22-1,2.22-2.22s-1-2.22-2.22-2.22h-9.53Z"/>
            </g>
            <path class="cls-3" d="m243.61,357.11h-105.81v-8.41h3.27v-4.61h4.24v-4.58h90.81v4.58h4.24v4.61h3.27v8.41Zm-102.81-3h99.81v-2.41h-3.27v-4.61h-4.24v-4.58h-84.81v4.58h-4.24v4.61h-3.27v2.41Z"/>
          </g>
          <g>
            <path class="cls-3" d="m-30.61,49.85h-7.99c-1.57,0-2.85,1.28-2.85,2.84v32.73c0,1.57,1.28,2.84,2.85,2.84h7.99c1.57,0,2.85-1.28,2.85-2.84v-32.73c0-1.57-1.28-2.84-2.85-2.84Zm-7.99,2.29h7.99c.31,0,.55.25.55.56v14.78h-9.1v-14.78c0-.31.25-.56.55-.56Zm7.99,33.84h-7.99c-.31,0-.55-.25-.55-.56v-16.57h9.1v16.57c0,.31-.25.56-.55.56Z"/>
            <path class="cls-3" d="m-14.29,49.85h-7.99c-1.57,0-2.85,1.28-2.85,2.84v32.73c0,1.57,1.28,2.84,2.85,2.84h7.99c1.57,0,2.85-1.28,2.85-2.84v-32.73c0-1.57-1.28-2.84-2.85-2.84Zm-7.99,2.29h7.99c.31,0,.55.25.55.56v12.61h-9.1v-12.61c0-.31.25-.56.55-.56Zm7.99,33.84h-7.99c-.31,0-.55-.25-.55-.56v-18.74h9.1v18.74c0,.31-.25.56-.55.56Z"/>
            <path class="cls-3" d="m2.03,49.85h-7.99c-1.57,0-2.85,1.28-2.85,2.84v32.73c0,1.57,1.28,2.84,2.85,2.84H2.03c1.57,0,2.85-1.28,2.85-2.84v-32.73c0-1.57-1.28-2.84-2.85-2.84Zm-7.99,2.29H2.03c.31,0,.55.25.55.56v10.44H-6.51v-10.44c0-.31.25-.56.55-.56Zm7.99,33.84h-7.99c-.31,0-.55-.25-.55-.56v-20.91H2.59v20.91c0,.31-.25.56-.55.56Z"/>
            <path class="cls-3" d="m18.35,49.85h-7.99c-1.57,0-2.85,1.28-2.85,2.84v32.73c0,1.57,1.28,2.84,2.85,2.84h7.99c1.57,0,2.85-1.28,2.85-2.84v-32.73c0-1.57-1.28-2.84-2.85-2.84Zm-7.99,2.29h7.99c.31,0,.55.25.55.56v8.27h-9.1v-8.27c0-.31.25-.56.55-.56Zm7.99,33.84h-7.99c-.31,0-.55-.25-.55-.55v-23.09h9.1v23.09c0,.31-.25.55-.55.55Z"/>
            <path class="cls-3" d="m34.67,49.85h-7.99c-1.57,0-2.85,1.28-2.85,2.84v32.73c0,1.57,1.28,2.84,2.85,2.84h7.99c1.57,0,2.85-1.28,2.85-2.84v-32.73c0-1.57-1.28-2.84-2.85-2.84Zm-7.99,2.29h7.99c.31,0,.55.25.55.56v6.09h-9.1v-6.09c0-.31.25-.56.55-.56Zm7.99,33.84h-7.99c-.31,0-.55-.25-.55-.55v-25.26h9.1v25.26c0,.31-.25.55-.55.55Z"/>
          </g>
          <g>
            <path class="cls-3" d="m189.05,204.43h-7.99c-1.57,0-2.85,1.28-2.85,2.84v32.73c0,1.57,1.28,2.84,2.85,2.84h7.99c1.57,0,2.85-1.28,2.85-2.84v-32.73c0-1.57-1.28-2.84-2.85-2.84Zm-7.99,2.29h7.99c.31,0,.55.25.55.56v14.78h-9.1v-14.78c0-.31.25-.56.55-.56Zm7.99,33.84h-7.99c-.31,0-.55-.25-.55-.56v-16.57h9.1v16.57c0,.31-.25.56-.55.56Z"/>
            <path class="cls-3" d="m205.37,204.43h-7.99c-1.57,0-2.85,1.28-2.85,2.84v32.73c0,1.57,1.28,2.84,2.85,2.84h7.99c1.57,0,2.85-1.28,2.85-2.84v-32.73c0-1.57-1.28-2.84-2.85-2.84Zm-7.99,2.29h7.99c.31,0,.55.25.55.56v12.61h-9.1v-12.61c0-.31.25-.56.55-.56Zm7.99,33.84h-7.99c-.31,0-.55-.25-.55-.56v-18.74h9.1v18.74c0,.31-.25.56-.55.56Z"/>
            <path class="cls-3" d="m221.69,204.43h-7.99c-1.57,0-2.85,1.28-2.85,2.84v32.73c0,1.57,1.28,2.84,2.85,2.84h7.99c1.57,0,2.85-1.28,2.85-2.84v-32.73c0-1.57-1.28-2.84-2.85-2.84Zm-7.99,2.29h7.99c.31,0,.55.25.55.56v10.44h-9.1v-10.44c0-.31.25-.56.55-.56Zm7.99,33.84h-7.99c-.31,0-.55-.25-.55-.56v-20.91h9.1v20.91c0,.31-.25.56-.55.56Z"/>
            <path class="cls-3" d="m238.01,204.43h-7.99c-1.57,0-2.85,1.28-2.85,2.84v32.73c0,1.57,1.28,2.84,2.85,2.84h7.99c1.57,0,2.85-1.28,2.85-2.84v-32.73c0-1.57-1.28-2.84-2.85-2.84Zm-7.99,2.29h7.99c.31,0,.55.25.55.56v8.27h-9.1v-8.27c0-.31.25-.56.55-.56Zm7.99,33.84h-7.99c-.31,0-.55-.25-.55-.55v-23.09h9.1v23.09c0,.31-.25.55-.55.55Z"/>
            <path class="cls-3" d="m254.33,204.43h-7.99c-1.57,0-2.85,1.28-2.85,2.84v32.73c0,1.57,1.28,2.84,2.85,2.84h7.99c1.57,0,2.85-1.28,2.85-2.84v-32.73c0-1.57-1.28-2.84-2.85-2.84Zm-7.99,2.29h7.99c.31,0,.55.25.55.56v6.09h-9.1v-6.09c0-.31.25-.56.55-.56Zm7.99,33.84h-7.99c-.31,0-.55-.25-.55-.55v-25.26h9.1v25.26c0,.31-.25.55-.55.55Z"/>
          </g>
          <g>
            <path id="Fill_773-2" data-name="Fill 773" class="cls-3" d="m233.09,148.31c0-6.97-5.65-12.62-12.62-12.62s-12.62,5.65-12.62,12.62,5.65,12.62,12.62,12.62c6.96,0,12.61-5.65,12.62-12.62Zm-5.05,0c0,4.18-3.39,7.57-7.57,7.57s-7.57-3.39-7.57-7.57,3.39-7.57,7.57-7.57,7.57,3.39,7.57,7.57Z"/>
            <path id="Fill_774" data-name="Fill 774" class="cls-3" d="m206.26,196.08l25.23-10.09c.32-.13.6-.32.85-.56.99-.98.99-2.58,0-3.57l-7.57-7.57c-.47-.48-1.11-.74-1.78-.74-.23,0-.47.03-.69.1l-16.54,4.73-4.04-2.69,2.87-2.87c.77-.77.96-1.94.47-2.92l-2.52-5.05c-.56-1.12-1.87-1.66-3.06-1.26l-12.01,4c-.37-.97-1.3-1.61-2.33-1.61h-10.09c-1.39,0-2.52,1.13-2.52,2.52v20.19c0,1.39,1.13,2.52,2.52,2.52h10.09c.99,0,1.89-.59,2.29-1.49l17.01,6.38c.28.11.58.16.89.16.32,0,.64-.06.93-.18Zm-7.26-27.02l.73,1.46-3.75,3.77c-.12.12-.22.24-.31.38-.78,1.16-.46,2.73.69,3.5l7.57,5.05c.41.28.9.42,1.4.42.23,0,.47-.03.69-.1l16.24-4.64,3.81,3.81-20.77,8.31-17.63-6.61v-11.57l11.34-3.78h0Zm-16.38,1.96v15.14h-5.05v-15.14h5.05Z"/>
          </g>
          <g>
            <path id="Fill_773-3" data-name="Fill 773" class="cls-3" d="m120.79-3.86c0-6.97-5.65-12.62-12.62-12.62s-12.62,5.65-12.62,12.62,5.65,12.62,12.62,12.62c6.96,0,12.61-5.65,12.62-12.62Zm-5.05,0c0,4.18-3.39,7.57-7.57,7.57s-7.57-3.39-7.57-7.57,3.39-7.57,7.57-7.57,7.57,3.39,7.57,7.57Z"/>
            <path id="Fill_774-2" data-name="Fill 774" class="cls-3" d="m93.96,43.9l25.23-10.09c.32-.13.6-.32.85-.56.99-.98.99-2.58,0-3.57l-7.57-7.57c-.47-.48-1.11-.74-1.78-.74-.23,0-.47.03-.69.1l-16.54,4.73-4.04-2.69,2.87-2.87c.77-.77.96-1.94.47-2.92l-2.52-5.05c-.56-1.12-1.87-1.66-3.06-1.26l-12.01,4c-.37-.97-1.3-1.61-2.33-1.61h-10.09c-1.39,0-2.52,1.13-2.52,2.52v20.19c0,1.39,1.13,2.52,2.52,2.52h10.09c.99,0,1.89-.59,2.29-1.49l17.01,6.38c.28.11.58.16.89.16.32,0,.64-.06.93-.18Zm-7.26-27.02l.73,1.46-3.75,3.77c-.12.12-.22.24-.31.38-.78,1.16-.46,2.73.69,3.5l7.57,5.05c.41.28.9.42,1.4.42.23,0,.47-.03.69-.1l16.24-4.64,3.81,3.81-20.77,8.31-17.63-6.61v-11.57l11.34-3.78h0Zm-16.38,1.96v15.14h-5.05v-15.14h5.05Z"/>
          </g>
          <path id="Fill_460-2" data-name="Fill 460" class="cls-3" d="m141.63,322.31h-4.13v-26.84c0-1.14-.92-2.06-2.06-2.06h-8.26c-1.14,0-2.06.92-2.06,2.06v26.84h-2.06v-14.45c0-1.14-.92-2.06-2.06-2.06h-8.26c-1.14,0-2.06.92-2.06,2.06v14.45h-2.06v-18.58c0-1.14-.92-2.06-2.06-2.06h-8.26c-1.14,0-2.06.92-2.06,2.06v18.58h-4.13v4.13h49.55v-4.13Zm-8.26-24.78v24.78h-4.13v-24.78h4.13Zm-14.45,12.39v12.39h-4.13v-12.39h4.13Zm-14.45-4.13v16.52h-4.13v-16.52h4.13Z"/>
          <path id="Fill_460-3" data-name="Fill 460" class="cls-3" d="m29.66,132.83h-4.13v-26.84c0-1.14-.92-2.06-2.06-2.06h-8.26c-1.14,0-2.06.92-2.06,2.06v26.84h-2.06v-14.45c0-1.14-.92-2.06-2.06-2.06H.75c-1.14,0-2.06.92-2.06,2.06v14.45h-2.06v-18.58c0-1.14-.92-2.06-2.06-2.06h-8.26c-1.14,0-2.06.92-2.06,2.06v18.58h-4.13v4.13H29.66v-4.13Zm-8.26-24.78v24.78h-4.13v-24.78h4.13Zm-14.45,12.39v12.39H2.81v-12.39h4.13Zm-14.45-4.13v16.52h-4.13v-16.52h4.13Z"/>
          <path id="Fill_460-4" data-name="Fill 460" class="cls-3" d="m324.32,295.28h-4.13v-26.84c0-1.14-.92-2.06-2.06-2.06h-8.26c-1.14,0-2.06.92-2.06,2.06v26.84h-2.06v-14.45c0-1.14-.92-2.06-2.06-2.06h-8.26c-1.14,0-2.06.92-2.06,2.06v14.45h-2.06v-18.58c0-1.14-.92-2.06-2.06-2.06h-8.26c-1.14,0-2.06.92-2.06,2.06v18.58h-4.13v4.13h49.55v-4.13Zm-8.26-24.78v24.78h-4.13v-24.78h4.13Zm-14.45,12.39v12.39h-4.13v-12.39h4.13Zm-14.45-4.13v16.52h-4.13v-16.52h4.13Z"/>
          <g>
            <path id="Fill_467" data-name="Fill 467" class="cls-3" d="m338.27,309.84c0-3.47-2.81-6.28-6.28-6.28s-6.28,2.81-6.28,6.28,2.81,6.28,6.28,6.28,6.28-2.81,6.28-6.28Zm-3.14,0c0,1.74-1.41,3.14-3.14,3.14s-3.14-1.41-3.14-3.14,1.41-3.14,3.14-3.14,3.14,1.41,3.14,3.14Z"/>
            <path id="Fill_468" data-name="Fill 468" class="cls-3" d="m353.98,325.55c0-3.47-2.81-6.28-6.28-6.28s-6.28,2.81-6.28,6.28,2.81,6.28,6.28,6.28,6.28-2.81,6.28-6.28Zm-3.14,0c0,1.74-1.41,3.14-3.14,3.14s-3.14-1.41-3.14-3.14,1.41-3.14,3.14-3.14,3.14,1.41,3.14,3.14Z"/>
            <path id="Fill_469" data-name="Fill 469" class="cls-3" d="m351.3,304.02l-25.13,25.13,2.22,2.22,25.13-25.13-2.22-2.22Z"/>
          </g>
          <g>
            <path id="Fill_467-2" data-name="Fill 467" class="cls-3" d="m114.23,261.36c0-3.47-2.81-6.28-6.28-6.28s-6.28,2.81-6.28,6.28,2.81,6.28,6.28,6.28,6.28-2.81,6.28-6.28Zm-3.14,0c0,1.74-1.41,3.14-3.14,3.14s-3.14-1.41-3.14-3.14,1.41-3.14,3.14-3.14,3.14,1.41,3.14,3.14Z"/>
            <path id="Fill_468-2" data-name="Fill 468" class="cls-3" d="m129.94,277.07c0-3.47-2.81-6.28-6.28-6.28s-6.28,2.81-6.28,6.28,2.81,6.28,6.28,6.28,6.28-2.81,6.28-6.28Zm-3.14,0c0,1.74-1.41,3.14-3.14,3.14s-3.14-1.41-3.14-3.14,1.41-3.14,3.14-3.14,3.14,1.41,3.14,3.14Z"/>
            <path id="Fill_469-2" data-name="Fill 469" class="cls-3" d="m127.25,255.54l-25.13,25.13,2.22,2.22,25.13-25.13-2.22-2.22Z"/>
          </g>
          <g>
            <path id="Fill_467-3" data-name="Fill 467" class="cls-3" d="m254.61,258.52c0-3.47-2.81-6.28-6.28-6.28s-6.28,2.81-6.28,6.28,2.81,6.28,6.28,6.28,6.28-2.81,6.28-6.28Zm-3.14,0c0,1.74-1.41,3.14-3.14,3.14s-3.14-1.41-3.14-3.14,1.41-3.14,3.14-3.14,3.14,1.41,3.14,3.14Z"/>
            <path id="Fill_468-3" data-name="Fill 468" class="cls-3" d="m270.32,274.23c0-3.47-2.81-6.28-6.28-6.28s-6.28,2.81-6.28,6.28,2.81,6.28,6.28,6.28,6.28-2.81,6.28-6.28Zm-3.14,0c0,1.74-1.41,3.14-3.14,3.14s-3.14-1.41-3.14-3.14,1.41-3.14,3.14-3.14,3.14,1.41,3.14,3.14Z"/>
            <path id="Fill_469-3" data-name="Fill 469" class="cls-3" d="m267.63,252.7l-25.13,25.13,2.22,2.22,25.13-25.13-2.22-2.22Z"/>
          </g>
          <g>
            <path id="Fill_467-4" data-name="Fill 467" class="cls-3" d="m160.7,83.94c0-3.47-2.81-6.28-6.28-6.28s-6.28,2.81-6.28,6.28,2.81,6.28,6.28,6.28,6.28-2.81,6.28-6.28Zm-3.14,0c0,1.74-1.41,3.14-3.14,3.14s-3.14-1.41-3.14-3.14,1.41-3.14,3.14-3.14,3.14,1.41,3.14,3.14Z"/>
            <path id="Fill_468-4" data-name="Fill 468" class="cls-3" d="m176.41,99.65c0-3.47-2.81-6.28-6.28-6.28s-6.28,2.81-6.28,6.28,2.81,6.28,6.28,6.28,6.28-2.81,6.28-6.28Zm-3.14,0c0,1.74-1.41,3.14-3.14,3.14s-3.14-1.41-3.14-3.14,1.41-3.14,3.14-3.14,3.14,1.41,3.14,3.14Z"/>
            <path id="Fill_469-4" data-name="Fill 469" class="cls-3" d="m173.73,78.12l-25.13,25.13,2.22,2.22,25.13-25.13-2.22-2.22Z"/>
          </g>
          <g>
            <path id="Fill_467-5" data-name="Fill 467" class="cls-3" d="m25.06,167.15c0-3.47-2.81-6.28-6.28-6.28s-6.28,2.81-6.28,6.28,2.81,6.28,6.28,6.28,6.28-2.81,6.28-6.28Zm-3.14,0c0,1.74-1.41,3.14-3.14,3.14s-3.14-1.41-3.14-3.14,1.41-3.14,3.14-3.14,3.14,1.41,3.14,3.14Z"/>
            <path id="Fill_468-5" data-name="Fill 468" class="cls-3" d="m40.77,182.85c0-3.47-2.81-6.28-6.28-6.28s-6.28,2.81-6.28,6.28,2.81,6.28,6.28,6.28,6.28-2.81,6.28-6.28Zm-3.14,0c0,1.74-1.41,3.14-3.14,3.14s-3.14-1.41-3.14-3.14,1.41-3.14,3.14-3.14,3.14,1.41,3.14,3.14Z"/>
            <path id="Fill_469-5" data-name="Fill 469" class="cls-3" d="m38.08,161.32l-25.13,25.13,2.22,2.22,25.13-25.13-2.22-2.22Z"/>
          </g>
          <g>
            <path id="Fill_1177" data-name="Fill 1177" class="cls-3" d="m156.73,58.29l20.56-20.56c.8-.8.8-2.1,0-2.91l-20.56-20.56c-.8-.8-2.1-.8-2.91,0l-20.56,20.56c-.8.8-.8,2.1,0,2.91l20.56,20.56c.38.39.91.6,1.45.6.55,0,1.07-.22,1.45-.6Zm16.2-22.02l-17.66,17.66-17.66-17.66,17.66-17.66h0l17.66,17.66Z"/>
            <path id="Fill_1178" data-name="Fill 1178" class="cls-3" d="m157.32,30.63v-.52h4.13l-6.17-6.17-6.17,6.17h4.1v.52c.03.56-.2,1.09-.62,1.46-1.06,1.12-1.58,2.65-1.43,4.19.14,1.93,1.21,3.68,2.88,4.67.9.66,1.16.88,1.22,1.65.02.73-.23,1.43-.7,1.98-.85,1.18-1.32,2.58-1.35,4.03h4.11c.04-.68.29-1.33.72-1.85.95-1.29,1.42-2.87,1.33-4.47-.14-1.93-1.22-3.67-2.89-4.66-.9-.66-1.16-.88-1.22-1.65-.04-.62.04-.73.5-1.28,1.03-1.11,1.59-2.57,1.55-4.09"/>
          </g>
          <g>
            <path id="Fill_1177-2" data-name="Fill 1177" class="cls-3" d="m318.28,200.78l24.08-24.08c.94-.94.94-2.46,0-3.4l-24.08-24.08c-.94-.94-2.46-.94-3.4,0l-24.08,24.08c-.94.94-.94,2.46,0,3.4l24.08,24.08c.45.45,1.06.71,1.7.71.64,0,1.25-.25,1.7-.71Zm18.97-25.78l-20.68,20.68-20.68-20.68,20.68-20.68h0l20.68,20.68Z"/>
            <path id="Fill_1178-2" data-name="Fill 1178" class="cls-3" d="m318.97,168.38v-.61h4.83l-7.22-7.22-7.22,7.22h4.8v.61c.03.65-.23,1.28-.72,1.71-1.24,1.32-1.85,3.11-1.67,4.91.16,2.27,1.42,4.31,3.37,5.47,1.05.77,1.36,1.04,1.42,1.93.02.85-.27,1.68-.82,2.32-1,1.38-1.55,3.03-1.58,4.72h4.82c.04-.79.34-1.55.85-2.17,1.11-1.51,1.66-3.36,1.56-5.24-.17-2.26-1.43-4.3-3.38-5.46-1.05-.78-1.36-1.04-1.43-1.93-.05-.72.05-.85.59-1.5,1.21-1.3,1.86-3.01,1.82-4.78"/>
          </g>
          <g>
            <path id="Fill_1177-3" data-name="Fill 1177" class="cls-3" d="m209.91,129.88l24.08-24.08c.94-.94.94-2.46,0-3.4l-24.08-24.08c-.94-.94-2.46-.94-3.4,0l-24.08,24.08c-.94.94-.94,2.46,0,3.4l24.08,24.08c.45.45,1.06.71,1.7.71.64,0,1.25-.25,1.7-.71Zm18.97-25.78l-20.68,20.68-20.68-20.68,20.68-20.68h0l20.68,20.68Z"/>
            <path id="Fill_1178-3" data-name="Fill 1178" class="cls-3" d="m210.6,97.48v-.61h4.83l-7.22-7.22-7.22,7.22h4.8v.61c.03.65-.23,1.28-.72,1.71-1.24,1.32-1.85,3.11-1.67,4.91.16,2.27,1.42,4.31,3.37,5.47,1.05.77,1.36,1.04,1.42,1.93.02.85-.27,1.68-.82,2.32-1,1.38-1.55,3.03-1.58,4.72h4.82c.04-.79.34-1.55.85-2.17,1.11-1.51,1.66-3.36,1.56-5.24-.17-2.26-1.43-4.3-3.38-5.46-1.05-.78-1.36-1.04-1.43-1.93-.05-.72.05-.85.59-1.5,1.21-1.3,1.86-3.01,1.82-4.78"/>
          </g>
          <g>
            <path id="Fill_1177-4" data-name="Fill 1177" class="cls-3" d="m64.73,281.32l24.08-24.08c.94-.94.94-2.46,0-3.4l-24.08-24.08c-.94-.94-2.46-.94-3.4,0l-24.08,24.08c-.94.94-.94,2.46,0,3.4l24.08,24.08c.45.45,1.06.71,1.7.71.64,0,1.25-.25,1.7-.71Zm18.97-25.78l-20.68,20.68-20.68-20.68,20.68-20.68h0l20.68,20.68Z"/>
            <path id="Fill_1178-4" data-name="Fill 1178" class="cls-3" d="m65.42,248.92v-.61h4.83l-7.22-7.22-7.22,7.22h4.8v.61c.03.65-.23,1.28-.72,1.71-1.24,1.32-1.85,3.11-1.67,4.91.16,2.27,1.42,4.31,3.37,5.47,1.05.77,1.36,1.04,1.42,1.93.02.85-.27,1.68-.82,2.32-1,1.38-1.55,3.03-1.58,4.72h4.82c.04-.79.34-1.55.85-2.17,1.11-1.51,1.66-3.36,1.56-5.24-.17-2.26-1.43-4.3-3.38-5.46-1.05-.78-1.36-1.04-1.43-1.93-.05-.72.05-.85.59-1.5,1.21-1.3,1.86-3.01,1.82-4.78"/>
          </g>
          <g>
            <path id="Fill_1391" data-name="Fill 1391" class="cls-3" d="m268.36,182.95v-3.21h11.24v-3.21h-11.24v-3.21c0-.89-.72-1.61-1.61-1.61h-6.42c-.89,0-1.61.72-1.61,1.61v3.21h-11.24v3.21h11.24v3.21c0,.89.72,1.61,1.61,1.61h6.42c.89,0,1.61-.72,1.61-1.61Zm-3.21-8.03v6.42h-3.21v-6.42h3.21Z"/>
            <path id="Fill_1392" data-name="Fill 1392" class="cls-3" d="m276.39,199v-3.21h3.21v-3.21h-3.21v-3.21c0-.89-.72-1.61-1.61-1.61h-6.42c-.89,0-1.61.72-1.61,1.61v3.21h-19.26v3.21h19.26v3.21c0,.89.72,1.61,1.61,1.61h6.42c.89,0,1.61-.72,1.61-1.61Zm-3.21-8.03v6.42h-3.21v-6.42h3.21Z"/>
          </g>
          <g>
            <path id="Fill_1391-2" data-name="Fill 1391" class="cls-3" d="m225.25,29.85v-3.21h11.24v-3.21h-11.24v-3.21c0-.89-.72-1.61-1.61-1.61h-6.42c-.89,0-1.61.72-1.61,1.61v3.21h-11.24v3.21h11.24v3.21c0,.89.72,1.61,1.61,1.61h6.42c.89,0,1.61-.72,1.61-1.61Zm-3.21-8.03v6.42h-3.21v-6.42h3.21Z"/>
            <path id="Fill_1392-2" data-name="Fill 1392" class="cls-3" d="m233.28,45.9v-3.21h3.21v-3.21h-3.21v-3.21c0-.89-.72-1.61-1.61-1.61h-6.42c-.89,0-1.61.72-1.61,1.61v3.21h-19.26v3.21h19.26v3.21c0,.89.72,1.61,1.61,1.61h6.42c.89,0,1.61-.72,1.61-1.61Zm-3.21-8.03v6.42h-3.21v-6.42h3.21Z"/>
          </g>
          <g>
            <path id="Fill_1391-3" data-name="Fill 1391" class="cls-3" d="m169.43,133.24v-3.21h11.24v-3.21h-11.24v-3.21c0-.89-.72-1.61-1.61-1.61h-6.42c-.89,0-1.61.72-1.61,1.61v3.21h-11.24v3.21h11.24v3.21c0,.89.72,1.61,1.61,1.61h6.42c.89,0,1.61-.72,1.61-1.61Zm-3.21-8.03v6.42h-3.21v-6.42h3.21Z"/>
            <path id="Fill_1392-3" data-name="Fill 1392" class="cls-3" d="m177.46,149.29v-3.21h3.21v-3.21h-3.21v-3.21c0-.89-.72-1.61-1.61-1.61h-6.42c-.89,0-1.61.72-1.61,1.61v3.21h-19.26v3.21h19.26v3.21c0,.89.72,1.61,1.61,1.61h6.42c.89,0,1.61-.72,1.61-1.61Zm-3.21-8.03v6.42h-3.21v-6.42h3.21Z"/>
          </g>
          <g>
            <path id="Fill_1391-4" data-name="Fill 1391" class="cls-3" d="m39.15,346.79v-3.21h11.24v-3.21h-11.24v-3.21c0-.89-.72-1.61-1.61-1.61h-6.42c-.89,0-1.61.72-1.61,1.61v3.21h-11.24v3.21h11.24v3.21c0,.89.72,1.61,1.61,1.61h6.42c.89,0,1.61-.72,1.61-1.61Zm-3.21-8.03v6.42h-3.21v-6.42h3.21Z"/>
            <path id="Fill_1392-4" data-name="Fill 1392" class="cls-3" d="m47.17,362.84v-3.21h3.21v-3.21h-3.21v-3.21c0-.89-.72-1.61-1.61-1.61h-6.42c-.89,0-1.61.72-1.61,1.61v3.21h-19.26v3.21h19.26v3.21c0,.89.72,1.61,1.61,1.61h6.42c.89,0,1.61-.72,1.61-1.61Zm-3.21-8.03v6.42h-3.21v-6.42h3.21Z"/>
          </g>
          <path id="Fill_1450" data-name="Fill 1450" class="cls-3" d="m141.58,268.51v-11.51h3.84v11.51h3.84v-12.82c3.22-1.53,5.71-4.28,6.9-7.65,2.47-6.98-1.19-14.64-8.17-17.11l-2.56-.91v11.63c0,1.06-.86,1.92-1.92,1.92s-1.92-.86-1.92-1.92v-11.63l-2.56.91c-.99.35-1.93.81-2.82,1.38-6.22,4.01-8.01,12.3-4,18.51,1.36,2.1,3.27,3.79,5.53,4.86v12.82h3.84Zm-3.84-26.85c0,3.18,2.58,5.75,5.75,5.75s5.75-2.58,5.75-5.75v-5.74c.73.55,1.37,1.19,1.92,1.92,3.18,4.24,2.32,10.25-1.92,13.42-4.24,3.18-10.25,2.32-13.42-1.92-3.18-4.24-2.32-10.25,1.92-13.42v5.74Z"/>
          <path id="Fill_1450-2" data-name="Fill 1450" class="cls-3" d="m178.98,58.09h11.51v3.84h-11.51v3.84h12.82c1.53,3.22,4.28,5.71,7.65,6.9,6.98,2.47,14.64-1.19,17.11-8.17l.91-2.56h-11.63c-1.06,0-1.92-.86-1.92-1.92s.86-1.92,1.92-1.92h11.63l-.91-2.56c-.35-.99-.81-1.93-1.38-2.82-4.01-6.22-12.3-8.01-18.51-4-2.1,1.36-3.79,3.27-4.86,5.53h-12.82v3.84h0Zm26.85-3.84c-3.18,0-5.75,2.58-5.75,5.75s2.58,5.75,5.75,5.75h5.74c-.55.73-1.19,1.37-1.92,1.92-4.24,3.18-10.25,2.32-13.42-1.92-3.18-4.24-2.32-10.25,1.92-13.42,4.24-3.18,10.25-2.32,13.42,1.92h-5.74Z"/>
          <path id="Fill_1450-3" data-name="Fill 1450" class="cls-3" d="m37.15,294.95l8.14,8.14-2.71,2.71-8.14-8.14-2.71,2.71,9.06,9.06c-1.2,3.36-1.01,7.06.53,10.28,3.19,6.68,11.2,9.51,17.88,6.32l2.45-1.17-8.22-8.22c-.75-.75-.75-1.96,0-2.71s1.96-.75,2.71,0l8.22,8.22,1.17-2.45c.45-.95.79-1.94,1.02-2.97,1.56-7.23-3.03-14.36-10.26-15.92-2.45-.53-4.99-.36-7.35.47l-9.07-9.07-2.71,2.71h0Zm21.69,16.27c-2.25-2.25-5.89-2.25-8.14,0s-2.25,5.89,0,8.14l4.06,4.06c-.9.13-1.81.13-2.71,0-5.24-.75-8.89-5.61-8.14-10.85.75-5.24,5.61-8.89,10.85-8.14,5.24.75,8.89,5.61,8.14,10.85l-4.06-4.06Z"/>
          <path id="Fill_1450-4" data-name="Fill 1450" class="cls-3" d="m301.72,207.12v13.09h-4.36v-13.09h-4.36v14.58c-3.67,1.74-6.49,4.87-7.84,8.7-2.81,7.94,1.36,16.65,9.3,19.46l2.91,1.03v-13.23c0-1.2.98-2.18,2.18-2.18s2.18.98,2.18,2.18v13.23l2.91-1.03c1.12-.4,2.2-.92,3.2-1.57,7.07-4.56,9.1-13.98,4.55-21.05-1.55-2.39-3.72-4.3-6.29-5.53v-14.58h-4.36Zm4.36,30.54c0-3.61-2.93-6.54-6.54-6.54s-6.54,2.93-6.54,6.54v6.53c-.83-.62-1.56-1.35-2.18-2.18-3.61-4.82-2.64-11.65,2.18-15.27,4.82-3.61,11.65-2.64,15.27,2.18,3.61,4.82,2.64,11.65-2.18,15.27v-6.53Z"/>
          <g>
            <path id="Fill_1247" data-name="Fill 1247" class="cls-3" d="m328.72,377.13h5.47c3.02,0,5.47-2.45,5.47-5.47v-25.53c0-3.02-2.45-5.47-5.47-5.47h-36.47c-3.02,0-5.47,2.45-5.47,5.47v25.53c0,3.02,2.45,5.47,5.47,5.47h11.55l19.45,14.59h0v-14.59Zm3.65-29.18v21.88h-10.94v7.29l-9.73-7.29h-12.16v-21.88h32.82Z"/>
            <path id="Fill_1248" data-name="Fill 1248" class="cls-3" d="m263.08,377.13v-14.59h-5.47c-3.02,0-5.47-2.45-5.47-5.47v-40.12c0-3.02,2.45-5.47,5.47-5.47h47.41c3.02,0,5.47,2.45,5.47,5.47v16.41h-7.29v-14.59h-43.76v36.47h10.94v7.29l9.73-7.29h4.86v7.29h-2.43l-19.45,14.59Z"/>
          </g>
        </g>
        <g>
          <g>
            <path class="cls-3" d="m28.44,282.89c0,5.28-4.3,9.58-9.58,9.58s-9.58-4.3-9.58-9.58,4.3-9.58,9.58-9.58,9.58,4.3,9.58,9.58Zm-15.79,0c0,3.42,2.78,6.21,6.21,6.21s6.21-2.79,6.21-6.21-2.78-6.21-6.21-6.21-6.21,2.79-6.21,6.21Z"/>
            <path class="cls-3" d="m28.44,214.43c0,5.28-4.3,9.58-9.58,9.58s-9.58-4.3-9.58-9.58,4.3-9.58,9.58-9.58,9.58,4.3,9.58,9.58Zm-15.79,0c0,3.42,2.78,6.21,6.21,6.21s6.21-2.79,6.21-6.21-2.78-6.21-6.21-6.21-6.21,2.79-6.21,6.21Z"/>
            <path class="cls-3" d="m24.14,274.7l-2.54.41-2.74.14c-4.21,0-7.64,3.43-7.64,7.64s3.43,7.64,7.64,7.64c.71,0,1.42-.1,2.1-.29l1.38-.39,1.03,2.19-.29,7.89-2.61-2.06c-.87-.69-1-.67-1.37-.63-.27.03-.55.07-.9.07-.56,0-2.8.04-5.07.08-2.37.04-4.78.08-5.41.08-1.28,0-2.49-.68-3.18-1.16-3.16,0-6.83-.18-7.69-3.23-.46-1.66-1.54-7.71-1.91-9.85-2.35-1.46-10.31-6.46-12.92-8.79-2.2-1.97-4.49-7.51-4.72-33.62-.17-19.34.13-30.46.95-34.97.14-.75.66-1.34,1.37-1.53.62-.17,1.42-.14,2.69,1.1,5.88-1.34,21.15-2.27,23.42-2.34.57-.62,1.32-1.3,3.07-1.53,1.26-.17,3.76-.36,5.93-.46,4.39-.19,5.26-.03,5.81,1.06.28.55.59,1.77.75,2.44l.28,1.17-1.02.64c-.1.06-.18.12-.26.18l-.49.37-.61-.03c-.12,0-.24,0-.36,0-4.15,0-7.52,3.37-7.52,7.52s3.37,7.52,7.52,7.52c.39,0,.77-.03,1.16-.09l.15-.02h.15c.79.03,1.24-.04,1.24-.04l1.91-.29.04,1.93.63,51.27Zm-5.33-2.82l1.92-.1-.58-46.55c-.43.05-.87.08-1.3.08-6,0-10.89-4.88-10.89-10.89,0-4.44,2.67-8.27,6.49-9.96-1.91.09-4.01.25-5.2.41-.69.09-.8.22-1.04.48-.34.38-.98,1.08-2.27,1.08-1.19,0-19.18,1.09-23.69,2.47l-1.04.32c-.51,5.48-.68,15.68-.54,31.55.22,24.49,2.35,30.02,3.6,31.14,2.78,2.49,12.98,8.77,13.08,8.83l.65.4.13.75c.4,2.34,1.54,8.75,1.96,10.27.22.77,3.57.77,5,.77h.61l.47.39c.44.36,1.18.77,1.54.77.62,0,3.01-.04,5.35-.08,2.29-.04,4.55-.08,5.12-.08.15,0,.29-.02.41-.03-5.96-.13-10.76-5.02-10.76-11s4.91-10.98,10.96-11.01Zm1.11,21.99v-.03s-.08,0-.12.01c.04,0,.08,0,.12.02Z"/>
            <path class="cls-3" d="m22.2,228.06v41.4c0,1.76-1.38,3.19-3.14,3.24l-20.53.61c-1.08.03-2.16-.22-3.12-.72l-13.45-7.1c-1.75-.92-2.86-2.73-2.9-4.71l-.68-36.6c-.04-2.24,1.74-4.11,3.98-4.16l26.61-.68c1.16-.03,2.28.37,3.15,1.13,1.86,1.63,3.97,2.65,6.27,3.05,2.21.38,3.82,2.28,3.82,4.54Zm-3.37,41.28v-41.28c0-.6-.43-1.11-1.02-1.21-2.93-.5-5.59-1.79-7.93-3.83-.23-.2-.53-.31-.84-.3l-26.61.68c-.39,0-.7.33-.7.71h0s.68,36.62.68,36.62c.01.75.44,1.44,1.1,1.79l13.45,7.1c.45.24.95.35,1.45.34l20.41-.61Z"/>
            <polygon class="cls-3" points="20.59 244.28 20.43 247.65 -19.65 245.77 -19.5 242.41 20.59 244.28"/>
            <path class="cls-3" d="m1.71,249.62c0,3.64-.78,5.34-2.46,5.34s-2.46-1.7-2.46-5.34.78-5.34,2.46-5.34,2.46,1.7,2.46,5.34Z"/>
            <path class="cls-3" d="m1.71,240.44c0,3.64-.78,5.34-2.46,5.34s-2.46-1.7-2.46-5.34.78-5.34,2.46-5.34,2.46,1.7,2.46,5.34Z"/>
          </g>
          <g>
            <path id="Fill_468-6" data-name="Fill 468" class="cls-3" d="m3.98,325.55c0-3.47-2.81-6.28-6.28-6.28s-6.28,2.81-6.28,6.28,2.81,6.28,6.28,6.28,6.28-2.81,6.28-6.28Zm-3.14,0c0,1.74-1.41,3.14-3.14,3.14s-3.14-1.41-3.14-3.14,1.41-3.14,3.14-3.14,3.14,1.41,3.14,3.14Z"/>
            <path id="Fill_469-6" data-name="Fill 469" class="cls-3" d="m1.3,304.02l-25.13,25.13,2.22,2.22,25.13-25.13-2.22-2.22Z"/>
          </g>
        </g>
        <g>
          <path class="cls-3" d="m243.61,7.11h-105.81V-1.3h3.27v-4.61h4.24v-4.58h90.81v4.58h4.24V-1.3h3.27V7.11Zm-102.81-3h99.81V1.7h-3.27V-2.92h-4.24v-4.58h-84.81V-2.92h-4.24V1.7h-3.27v2.41Z"/>
          <path id="Fill_1392-5" data-name="Fill 1392" class="cls-3" d="m47.17,12.84v-3.21h3.21v-3.21h-3.21v-3.21c0-.89-.72-1.61-1.61-1.61h-6.42c-.89,0-1.61.72-1.61,1.61v3.21h-19.26v3.21h19.26v3.21c0,.89.72,1.61,1.61,1.61h6.42c.89,0,1.61-.72,1.61-1.61Zm-3.21-8.03v6.42h-3.21v-6.42h3.21Z"/>
          <g>
            <path id="Fill_1247-2" data-name="Fill 1247" class="cls-3" d="m328.72,27.13h5.47c3.02,0,5.47-2.45,5.47-5.47V-3.87c0-3.02-2.45-5.47-5.47-5.47h-36.47c-3.02,0-5.47,2.45-5.47,5.47v25.53c0,3.02,2.45,5.47,5.47,5.47h11.55l19.45,14.59h0v-14.59Zm3.65-29.18v21.88h-10.94v7.29l-9.73-7.29h-12.16V-2.04h32.82Z"/>
            <path id="Fill_1248-2" data-name="Fill 1248" class="cls-3" d="m263.08,27.13v-14.59h-5.47c-3.02,0-5.47-2.45-5.47-5.47v-40.12c0-3.02,2.45-5.47,5.47-5.47h47.41c3.02,0,5.47,2.45,5.47,5.47v16.41h-7.29v-14.59h-43.76V5.25h10.94v7.29l9.73-7.29h4.86v7.29h-2.43l-19.45,14.59Z"/>
          </g>
        </g>
      </g>
    </pattern>
  </defs>
  <g id="Layer_1-2" data-name="Layer 1">
    <rect class="cls-2" width="350" height="350"/>
  </g>
</svg>