<?xml version="1.0" encoding="utf-8"?>
<!-- Generator: Adobe Illustrator 27.2.0, SVG Export Plug-In . SVG Version: 6.00 Build 0)  -->
<svg version="1.1" id="Layer_1" xmlns="http://www.w3.org/2000/svg" xmlns:xlink="http://www.w3.org/1999/xlink" x="0px" y="0px"
	 viewBox="0 0 1094 425" style="enable-background:new 0 0 1094 425;" xml:space="preserve">
<style type="text/css">
	.st0{fill:#0087AA;}
	.st1{fill:#E72E31;}
</style>
<g id="Interest" transform="translate(784.869 507.598)">
	<g id="Interest-2">
		<path id="Principal" class="st0" d="M-764.9-507.6h94c11,0,20,9,20,20v385c0,11-9,20-20,20h-94c-11,0-20-9-20-20v-385
			C-784.9-498.6-775.9-507.6-764.9-507.6z"/>
		<path id="Interest-3" class="st1" d="M-764.9-507.6h94c11,0,20,9,20,20v121.7h-134v-121.7C-784.9-498.6-775.9-507.6-764.9-507.6
			L-764.9-507.6z"/>
	</g>
	<g id="Interest-4">
		<path id="Principal-2" class="st0" d="M-572.9-507.6h94c11,0,20,9,20,20v385c0,11-9,20-20,20h-94c-11,0-20-9-20-20v-385
			C-592.9-498.6-583.9-507.6-572.9-507.6z"/>
		<path id="Interest-5" class="st1" d="M-572.9-507.6h94c11,0,20,9,20,20v121.7h-134v-121.7C-592.9-498.6-583.9-507.6-572.9-507.6
			L-572.9-507.6z"/>
	</g>
	<g id="Interest-6">
		<path id="Principal-3" class="st0" d="M-380.9-507.6h94c11,0,20,9,20,20v385c0,11-9,20-20,20h-94c-11,0-20-9-20-20v-385
			C-400.9-498.6-391.9-507.6-380.9-507.6z"/>
		<path id="Interest-7" class="st1" d="M-380.9-507.6h94c11,0,20,9,20,20v121.7h-134v-121.7C-400.9-498.6-391.9-507.6-380.9-507.6
			L-380.9-507.6z"/>
	</g>
	<g id="Interest-8">
		<path id="Principal-4" class="st0" d="M-188.9-507.6h94c11,0,20,9,20,20v385c0,11-9,20-20,20h-94c-11,0-20-9-20-20v-385
			C-208.9-498.6-199.9-507.6-188.9-507.6z"/>
		<path id="Interest-9" class="st1" d="M-188.9-507.6h94c11,0,20,9,20,20v121.7h-134v-121.7C-208.9-498.6-199.9-507.6-188.9-507.6
			L-188.9-507.6z"/>
	</g>
	<g id="Interest-10">
		<path id="Principal-5" class="st0" d="M3.1-507.6h94c11,0,20,9,20,20v385c0,11-9,20-20,20h-94c-11,0-20-9-20-20v-385
			C-16.9-498.6-7.9-507.6,3.1-507.6z"/>
		<path id="Interest-11" class="st1" d="M3.1-507.6h94c11,0,20,9,20,20v121.7h-134v-121.7C-16.9-498.6-7.9-507.6,3.1-507.6
			L3.1-507.6z"/>
	</g>
	<g id="Interest-12">
		<path id="Principal-6" class="st0" d="M195.1-507.6h94c11,0,20,9,20,20v385c0,11-9,20-20,20h-94c-11,0-20-9-20-20v-385
			C175.1-498.6,184.1-507.6,195.1-507.6z"/>
		<path id="Interest-13" class="st1" d="M195.1-507.6h94c11,0,20,9,20,20v121.7h-134v-121.7C175.1-498.6,184.1-507.6,195.1-507.6
			L195.1-507.6z"/>
	</g>
</g>
</svg>
