<?xml version="1.0" encoding="utf-8"?>
<!-- Generator: Adobe Illustrator 27.2.0, SVG Export Plug-In . SVG Version: 6.00 Build 0)  -->
<svg version="1.1" id="Layer_1" xmlns="http://www.w3.org/2000/svg" xmlns:xlink="http://www.w3.org/1999/xlink" x="0px" y="0px"
	 viewBox="0 0 1094 425" style="enable-background:new 0 0 1094 425;" xml:space="preserve">
<style type="text/css">
	.st0{fill:#0087AA;}
	.st1{fill:#E72E31;}
</style>
<g id="Interest" transform="translate(784.869 507.598)">
	<g>
		<g id="Interest-2_00000109714016301081572470000018225376858634671011_">
			<path id="Principal_00000074419609881927083280000009434165133712266885_" class="st0" d="M-764.9-507.6h94c11,0,20,9,20,20v385
				c0,11-9,20-20,20h-94c-11,0-20-9-20-20v-385C-784.9-498.6-775.9-507.6-764.9-507.6z"/>
			<path id="Interest-3_00000001650520071133076290000009969172143670339980_" class="st1" d="M-670.9-507.6c11,0,20,9,20,20v182
				h-134v-182c0-11,9-20,20-20H-670.9z"/>
		</g>
		<g>
			<path class="st0" d="M-572.9-507.6h94c11,0,20,9,20,20v385c0,11-9,20-20,20h-94c-11,0-20-9-20-20v-385
				C-592.9-498.6-583.9-507.6-572.9-507.6z"/>
			<path class="st1" d="M-478.9-507.6c11,0,20,9,20,20v163.9h-134v-163.9c0-11,9-20,20-20H-478.9z"/>
		</g>
		<g>
			<path class="st0" d="M-380.9-507.6h94c11,0,20,9,20,20v385c0,11-9,20-20,20h-94c-11,0-20-9-20-20v-385
				C-400.9-498.6-391.9-507.6-380.9-507.6z"/>
			<path class="st1" d="M-286.9-507.6c11,0,20,9,20,20v145.9h-134v-145.9c0-11,9-20,20-20H-286.9z"/>
		</g>
		<g>
			<path class="st0" d="M-188.9-507.6h94c11,0,20,9,20,20v385c0,11-9,20-20,20h-94c-11,0-20-9-20-20v-385
				C-208.9-498.6-199.9-507.6-188.9-507.6z"/>
			<path class="st1" d="M-94.9-507.6c11,0,20,9,20,20v127.8h-134v-127.8c0-11,9-20,20-20H-94.9z"/>
		</g>
		<g>
			<path class="st0" d="M3.1-507.6h94c11,0,20,9,20,20v385c0,11-9,20-20,20h-94c-11,0-20-9-20-20v-385
				C-16.9-498.6-7.9-507.6,3.1-507.6z"/>
			<path class="st1" d="M97.1-507.6c11,0,20,9,20,20v109.8h-134v-109.8c0-11,9-20,20-20H97.1z"/>
		</g>
		<g id="Interest-12_00000179634189865692545960000011681246105522964117_">
			<path id="Principal-6_00000003824719201499019720000010161541630431352508_" class="st0" d="M195.1-507.6h94c11,0,20,9,20,20v385
				c0,11-9,20-20,20h-94c-11,0-20-9-20-20v-385C175.1-498.6,184.1-507.6,195.1-507.6z"/>
			<path id="Interest-13_00000152229675465750262110000007609570166345819265_" class="st1" d="M289.1-507.6c11,0,20,9,20,20v91.7
				h-134v-91.7c0-11,9-20,20-20H289.1z"/>
		</g>
	</g>
</g>
</svg>
