<?xml version="1.0" encoding="UTF-8"?>
<svg id="flower" data-name="Layer 2" xmlns="http://www.w3.org/2000/svg" viewBox="0 0 1075.64 1062.64">
  <defs>
    <style>
      #flower {
  fill: none;
        stroke: #000;
        stroke-miterlimit: 10;
        stroke-dasharray: 1000;
      stroke-dashoffset: 900;
      animation: dash 90s infinite linear;
      border: 1px solid #fff;       
}

@keyframes dash {
      to {
        stroke-dashoffset: -900;
      }
      
      
    </style>
  </defs>
  <g id="uuid-3bc5cf43-04a9-418b-9a6d-923f322d31c0" data-name="Layer 1">
    <g>
      <path class="uuid-3645d02e-f29d-4b84-9157-d0f0734bec92" d="m749.07,98.06c6.83,11.26,19.09,20.31,31.11,29.17,12.34,9.11,24.4,18.03,32.87,29.18,8.08-2.21,16.01-3.31,23.85-3.31,1.26,0,2.49.04,3.73.1-9.42-21.12-28.4-35.14-45.18-47.53-16.22-11.97-30.52-22.53-32.03-36.58-4.78,2.99-10.7,4.45-17.9,4.45-9.42,0-20.36-2.43-31.93-5.01-13.49-3-28.77-6.4-44.05-6.4-6.69,0-13.05.68-19.11,2.02,6.26,6.23,11.78,13.87,16.15,23.33,12.75.12,25.85,3.02,39.21,5.99,14.79,3.28,29.87,6.64,43.29,4.57Z"/>
      <path class="uuid-3645d02e-f29d-4b84-9157-d0f0734bec92" d="m536.66,1009.85c-2.35-1.56-4.93-2.97-7.74-4.25-9.74-4.41-21.24-6.77-33.42-9.25-13.16-2.69-26.78-5.48-38.91-10.97-1.09-.5-2.2-1.02-3.31-1.58-7.56,6.53-15.65,11.53-24.3,15.04,18.04,15.21,41.52,20.02,62.28,24.26,20.02,4.09,37.68,7.7,45.39,19.72,7.6-12.07,25.23-15.82,45.2-20.07,19.47-4.14,41.34-8.79,58.77-22.06-9.26-3.3-17.81-8.28-25.78-14.98-11.29,4.87-24.02,7.58-37,10.34-14.85,3.15-30,6.37-41.18,13.81Z"/>
      <path class="uuid-3645d02e-f29d-4b84-9157-d0f0734bec92" d="m1022.04,421.67c-4.96,12.13-4.73,26.98-4.49,41.53.24,14.99.47,29.65-3.44,42.99,8.47,5.76,15.03,12.13,20.1,18.87,11.45-20.23,11.08-43.22,10.76-63.53-.31-19.58-.59-36.86,9.94-46.75-14.02-4.39-21.78-19.99-30.58-37.68-8.49-17.07-18.22-36.53-35.78-49.89-1.21,8.57-4.03,17.45-9.05,26.62,7.88,9.7,13.64,21.28,19.29,32.64,6.74,13.58,13.22,26.58,23.25,35.2Z"/>
      <path class="uuid-3645d02e-f29d-4b84-9157-d0f0734bec92" d="m152.51,833.73c-2.7-1.23-5.37-2.21-8.02-2.94-.98-13.01-7.9-26.31-14.68-39.33-6.79-13.05-13.43-25.82-16.09-39.06-10.45-1.64-19.37-4.65-27.08-8.65-1.12,22.89,9.54,43.4,18.97,61.52,9.13,17.55,17.18,33.03,12.14,46.29,1.07-.13,2.14-.2,3.22-.2,13.54,0,26.42,9.97,41.35,21.52,15.72,12.16,33.15,25.63,54.84,30.36-2.91-8.55-4.39-18.14-3.85-28.98-11.52-5.55-21.9-13.58-31.96-21.37-9.78-7.56-19.01-14.7-28.85-19.16Z"/>
      <path class="uuid-3645d02e-f29d-4b84-9157-d0f0734bec92" d="m927.47,827.71c-13,3.84-24.96,13.25-36.68,22.47-12.04,9.47-23.79,18.7-37.01,24.07.63,10.15-.49,19.2-2.89,27.34,23.58-4.01,42.06-18.52,58.64-31.57,14.9-11.72,27.76-21.84,41.37-21.84,1.02,0,2.03.06,3.02.17-5.16-13.22,2.77-28.76,11.75-46.37,8.74-17.14,18.55-36.39,18.57-57.68-7.84,4.46-16.98,7.87-27.8,9.77-3.04,11.53-8.79,22.79-14.64,34.27-6.65,13.06-13.44,26.36-14.34,39.36Z"/>
      <path class="uuid-3645d02e-f29d-4b84-9157-d0f0734bec92" d="m51.38,466.9c.1-14.52.22-29.34-4.82-41.43,9.98-8.85,16.52-22.28,22.94-35.44,6.44-13.21,12.73-26.14,21.9-36.38-4.97-8.7-7.95-17.14-9.43-25.3-19.51,13.5-29.7,34.35-38.55,52.52-8.65,17.75-16.28,33.42-30.25,37.92,10.6,9.8,10.47,27.07,10.31,46.67-.15,19.13-.3,40.64,9.39,59.9,5.12-7.4,11.92-14.39,20.96-20.67-2.65-11.88-2.55-24.68-2.45-37.78Z"/>
      <path class="uuid-3645d02e-f29d-4b84-9157-d0f0734bec92" d="m285.74,129.22c11.95-8.98,24.16-18.16,30.87-29.48,13.33,2.03,27.94-1.34,43.22-4.86,13.92-3.21,28.13-6.49,42.07-6.21,4.11-9.23,9.28-16.77,15.18-22.97-6.6-1.64-13.54-2.46-20.89-2.46-15.57,0-31.11,3.59-44.83,6.75-11.72,2.71-22.8,5.26-32.33,5.26-7,0-12.8-1.42-17.5-4.31-1.39,14.06-15.6,24.74-31.71,36.85-15.7,11.79-33.32,25.05-43.03,44.25,2.23-.19,4.48-.3,6.79-.3,7.46,0,14.99,1.01,22.66,3.01,8.09-9.46,18.68-17.42,29.49-25.54Z"/>
      <path class="uuid-3645d02e-f29d-4b84-9157-d0f0734bec92" d="m869.45,783.83h-.02c-14.94,4.78-30.95,6.97-47.28,6.57,7.47,13.16,14.53,27.19,20.87,42.1,6.7,15.73,10,29.54,10.76,41.75,13.22-5.38,24.96-14.6,37.01-24.07,11.72-9.22,23.68-18.63,36.68-22.47.9-13,7.69-26.31,14.34-39.36,5.86-11.48,11.6-22.74,14.64-34.27-6.26,1.1-13.08,1.69-20.53,1.69h0c-8.34,0-17.36-.77-26.81-2.28-14.73-2.36-28.88-5.4-42.42-8.93,2.98,13.09,3.93,26.33,2.75,39.28Z"/>
      <path class="uuid-3645d02e-f29d-4b84-9157-d0f0734bec92" d="m949.57,437.97c-5.4,14.13-13.57,27.45-24.04,39.41,16.12,2.72,31.91,6.24,47.33,10.58,17.26,4.85,30.73,11.07,41.25,18.23,3.91-13.34,3.68-28,3.44-42.99-.24-14.55-.48-29.39,4.49-41.53-10.04-8.62-16.51-21.62-23.25-35.2-5.65-11.36-11.41-22.94-19.29-32.64-6.25,11.4-15.88,23.23-30.05,35.42-11.13,9.58-22.46,18.3-33.79,26.25,12.59,5.93,24.05,13.49,33.92,22.46h0Z"/>
      <path class="uuid-3645d02e-f29d-4b84-9157-d0f0734bec92" d="m206.44,741.56c-15.13,4.05-31.05,7.5-47.72,10.09-9.21,1.43-18.01,2.16-26.14,2.16-6.79,0-13.06-.49-18.86-1.4,2.66,13.24,9.3,26.01,16.09,39.06,6.78,13.03,13.7,26.32,14.68,39.33,2.65.74,5.32,1.71,8.02,2.94,9.84,4.47,19.07,11.61,28.85,19.16,10.06,7.79,20.44,15.81,31.96,21.37.63-12.6,4-26.89,11.07-43.27,5.68-13.16,11.92-25.63,18.5-37.42-13.91-.17-27.54-2.24-40.39-6.21-1.53-15.08-.17-30.59,3.93-45.8Z"/>
      <path class="uuid-3645d02e-f29d-4b84-9157-d0f0734bec92" d="m347.93,164.41c15.07,1.86,29.95,6.31,44.01,13.05-.74-14.56-.75-29.7.23-45.3,1.1-17.65,4.58-31.9,9.74-43.49-13.94-.29-28.15,2.99-42.07,6.21-15.27,3.52-29.89,6.89-43.22,4.86-6.71,11.33-18.92,20.5-30.87,29.48-10.81,8.12-21.4,16.08-29.49,25.54,13.6,3.55,27.62,10.27,42.38,20.29,12.12,8.24,23.42,16.84,33.94,25.61,3.28-12.93,8.43-25.17,15.34-36.26h0Z"/>
      <path class="uuid-3645d02e-f29d-4b84-9157-d0f0734bec92" d="m118.39,442.35c11.35-10.53,24.86-19.16,39.82-25.57-12.72-8.79-25.46-18.56-37.95-29.4-13.36-11.6-22.67-22.87-28.87-33.73-9.17,10.24-15.46,23.16-21.9,36.38-6.42,13.16-12.96,26.6-22.94,35.44,5.04,12.09,4.92,26.91,4.82,41.43-.11,13.1-.2,25.9,2.45,37.78,10.73-7.46,24.6-13.92,42.55-18.87,13.72-3.78,27.76-6.91,42.05-9.42-8.51-10.5-15.28-21.97-20.03-34.03h0Z"/>
      <path class="uuid-3645d02e-f29d-4b84-9157-d0f0734bec92" d="m716.85,162.47c8.16,12.81,13.95,27.19,17.2,42.43,11.69-9.88,24.36-19.56,38.06-28.78,14.25-9.59,27.79-16.12,40.93-19.71-8.46-11.16-20.53-20.07-32.87-29.18-12.02-8.87-24.28-17.92-31.11-29.17-13.42,2.07-28.5-1.29-43.29-4.57-13.36-2.97-26.46-5.88-39.21-5.99,5.45,11.79,9.13,26.41,10.28,44.67.9,14.33.97,28.27.4,41.74,12.72-5.75,26.07-9.64,39.6-11.44h0Z"/>
      <path class="uuid-3645d02e-f29d-4b84-9157-d0f0734bec92" d="m536.87,939.39h-.02c-13.24-8.23-25.04-18.88-34.9-31.39-6.11,13.82-13.2,27.87-21.44,41.93-8.2,13.98-17.25,25.25-27.22,33.87,1.11.56,2.21,1.09,3.31,1.58,12.12,5.49,25.75,8.28,38.91,10.97,12.19,2.49,23.69,4.84,33.42,9.25,2.81,1.28,5.38,2.69,7.74,4.25,11.18-7.45,26.33-10.66,41.18-13.81,12.98-2.76,25.71-5.47,37-10.34-10.46-8.8-19.91-20.59-28.57-35.53-7.23-12.47-13.55-24.94-19.09-37.23-8.82,10.35-19.03,19.29-30.31,26.46Z"/>
      <path class="uuid-3645d02e-f29d-4b84-9157-d0f0734bec92" d="m690.26,216.26h0c4.88,5.47,9.33,11.11,13.35,16.85,9.29-9.44,19.43-18.91,30.44-28.22-3.25-15.24-9.04-29.62-17.2-42.43h0c-13.52,1.8-26.87,5.68-39.6,11.43-.61,14.62-1.98,28.68-3.89,42.05,5.55-.13,11.19-.03,16.91.31Z"/>
      <path class="uuid-3645d02e-f29d-4b84-9157-d0f0734bec92" d="m885.88,458.36c-.95,4.69-2.08,9.28-3.36,13.77,14.56,1.13,28.91,2.87,43.02,5.24,10.47-11.95,18.64-25.28,24.04-39.41h0c-9.87-8.99-21.33-16.54-33.92-22.47-14.44,10.13-28.89,19-42.98,26.75,4.62,5.02,9.04,10.4,13.2,16.09v.02Z"/>
      <path class="uuid-3645d02e-f29d-4b84-9157-d0f0734bec92" d="m810.16,755.68c-2.49,1.25-4.99,2.42-7.5,3.55,6.69,9.77,13.24,20.16,19.5,31.18,16.32.4,32.34-1.79,47.28-6.57h.02c1.18-12.95.22-26.2-2.75-39.28-17.96-4.68-34.82-10.21-50.44-16.19-1.24,9-3.26,18.13-6.09,27.3h0Z"/>
      <path class="uuid-3645d02e-f29d-4b84-9157-d0f0734bec92" d="m520.09,884.48c-2.5-1.05-4.94-2.16-7.35-3.3-3.2,8.8-6.78,17.76-10.78,26.81,9.86,12.51,21.66,23.17,34.9,31.39h.02c11.28-7.16,21.49-16.11,30.31-26.46-6.67-14.8-12.21-29.37-16.79-43.43-9.29,5.7-19.43,10.74-30.3,14.97h0Z"/>
      <path class="uuid-3645d02e-f29d-4b84-9157-d0f0734bec92" d="m233.97,747.81c-1.24-4.51-2.29-9-3.16-13.47-7.87,2.56-16,4.99-24.38,7.23-4.1,15.21-5.47,30.72-3.93,45.8,12.85,3.97,26.48,6.05,40.39,6.21,6.53-11.69,13.41-22.69,20.45-33.01-9.86-3.31-19.69-7.57-29.35-12.75h-.02Z"/>
      <path class="uuid-3645d02e-f29d-4b84-9157-d0f0734bec92" d="m167.16,448.52c4.58-5.9,9.43-11.42,14.5-16.55-7.77-4.7-15.61-9.75-23.46-15.18-14.96,6.41-28.47,15.04-39.82,25.57h0c4.75,12.07,11.53,23.54,20.03,34.04,11.29-1.98,22.74-3.56,34.33-4.73-2.34-7.41-4.22-15.14-5.59-23.13v-.02Z"/>
      <path class="uuid-3645d02e-f29d-4b84-9157-d0f0734bec92" d="m369.93,211.88c8.62-.29,17.08-.02,25.29.76-1.52-11.26-2.66-23.01-3.28-35.17-14.06-6.74-28.94-11.19-44.01-13.05h0c-6.91,11.09-12.06,23.32-15.34,36.26,9.43,7.86,18.23,15.87,26.42,23.87,3.39-4.3,7.02-8.53,10.91-12.65h.02Z"/>
      <path class="uuid-3645d02e-f29d-4b84-9157-d0f0734bec92" d="m1045.25,599.17c.46-37.71,1.01-84.64-74.08-105.74-28.88-8.12-59.16-13.36-90.36-15.7-1.59,4.91-3.38,9.68-5.36,14.29,27.54,2.38,54.26,7.17,79.82,14.35,63.17,17.76,62.75,52.96,62.31,90.25-.18,14.52-.36,29.33,4.64,41.44-10.02,8.8-16.62,22.21-23.08,35.35-14.46,29.38-28.12,57.13-74.36,57.13-7.03,0-14.73-.66-22.87-1.96-30.98-4.97-59.26-13.13-84.21-22.55.06,5.4-.19,10.89-.75,16.45,27.38,10.59,58.67,19.84,93.13,25.37,9.13,1.46,17.81,2.2,25.82,2.2,56.38,0,74.5-36.81,89.06-66.4,8.72-17.71,16.41-33.35,30.4-37.79-10.56-9.84-10.35-27.12-10.12-46.7Z"/>
      <path class="uuid-3645d02e-f29d-4b84-9157-d0f0734bec92" d="m776.63,200.55c19.02-12.79,35.99-19.02,51.89-19.02,24.06,0,42.68,14.53,60.7,28.58,12.17,9.5,23.83,18.6,36.77,22.28.93,13,7.79,26.31,14.52,39.37,17.23,33.44,33.5,65.02-15.46,107.16-22.63,19.47-46.13,35.17-68.7,47.78,4.2,3.49,8.28,7.23,12.22,11.23,25.16-13.75,51.54-31.1,76.91-52.93,58.19-50.07,36.51-92.16,19.08-125.99-9.05-17.58-17.04-33.08-11.94-46.33-1.03.12-2.08.18-3.13.18h0c-13.57,0-26.45-10.04-41.36-21.68-19.46-15.17-41.51-32.38-71.21-32.38-19.3,0-39.37,7.18-61.36,21.98-26.72,17.98-49.47,37.73-68.59,57.28,2.9,4.47,5.54,9,7.91,13.58,17.42-17.48,37.93-35.04,61.77-51.08Z"/>
      <path class="uuid-3645d02e-f29d-4b84-9157-d0f0734bec92" d="m816.58,830.63c24.84,58.35-4.2,79.98-34.95,102.86-12.01,8.93-24.26,18.05-31.03,29.36-2.82-.45-5.78-.66-8.88-.66-10.79,0-22.23,2.59-34.35,5.33-13.09,2.96-26.65,6.03-40.07,6.03-18.54,0-42.75-5.05-65.58-44.45-14.38-24.81-24.93-49.59-32.66-72.93-4.23,3.52-8.73,6.87-13.49,10.04,8.31,25.86,19.87,53.5,35.92,81.2,20.79,35.87,46.09,52.58,79.6,52.58,15.43,0,30.84-3.49,44.42-6.56,11.65-2.64,22.65-5.12,32.13-5.12,7.11,0,12.96,1.44,17.71,4.36,1.46-14.05,15.72-24.66,31.88-36.69,31.1-23.15,69.81-51.97,40.29-121.32-11.63-27.32-25.67-51.71-40.35-73.05-4.99,2.07-10,3.9-15.01,5.49,12.53,18.82,24.43,40.02,34.43,63.53Z"/>
      <path class="uuid-3645d02e-f29d-4b84-9157-d0f0734bec92" d="m465.15,928.78c-22.94,39.11-47,44.13-65.39,44.13-13.55,0-27.23-3.17-40.46-6.23-12.21-2.82-23.75-5.5-34.64-5.5-2.99,0-5.84.21-8.56.63-6.71-11.35-18.92-20.53-30.88-29.52-30.63-23.04-59.55-44.8-34.41-103.04,10.05-23.27,21.95-44.25,34.46-62.89-5.34-1.02-10.71-2.34-16.09-3.94-14.27,20.76-27.91,44.37-39.3,70.76-29.89,69.21,8.66,98.22,39.65,121.52,16.09,12.11,30.3,22.79,31.68,36.85,4.7-2.88,10.47-4.28,17.47-4.28,9.54,0,20.62,2.57,32.36,5.28,13.73,3.18,29.29,6.77,44.89,6.77,33.27,0,58.5-16.58,79.38-52.19,13.62-23.22,24.06-46.41,32.06-68.56-4.98-2.53-9.78-5.23-14.35-8.1-7.21,18.95-16.32,38.62-27.86,58.31Z"/>
      <path class="uuid-3645d02e-f29d-4b84-9157-d0f0734bec92" d="m166.01,726.79c-7.93,1.23-15.44,1.86-22.31,1.86-46.68,0-60.25-27.93-74.61-57.5-6.4-13.17-12.93-26.61-22.9-35.46,5.06-12.09,4.97-26.91,4.87-41.43-.25-37.28-.47-72.5,62.79-89.95,21.48-5.93,43.78-10.16,66.69-12.7-2.19-4.64-4.18-9.45-5.95-14.42-26.33,2.6-51.95,7.3-76.56,14.09-75.19,20.74-74.89,67.67-74.63,105.38.13,19.59.25,36.87-10.38,46.66,13.98,4.5,21.59,20.18,30.22,37.95,14.47,29.77,32.47,66.83,89.33,66.83,7.82,0,16.29-.7,25.19-2.09,25.89-4.02,50.01-10.15,72.04-17.37-.88-5.51-1.47-10.97-1.77-16.36-19.15,6-39.9,11.06-62.02,14.5Z"/>
      <path class="uuid-3645d02e-f29d-4b84-9157-d0f0734bec92" d="m144.7,377.17c-48.75-42.35-32.33-73.85-14.95-107.22,6.79-13.02,13.72-26.31,14.72-39.31,12.96-3.63,24.66-12.66,36.88-22.11,18.01-13.91,36.63-28.31,60.57-28.31,15.97,0,33,6.3,52.06,19.24,19.43,13.2,36.96,28.09,52.49,43.28,2.71-4.58,5.71-9.1,8.98-13.54-17.25-16.94-37.26-33.89-60.26-49.51-22.03-14.97-42.18-22.25-61.59-22.25-29.53,0-51.58,17.03-71.03,32.07-14.93,11.53-27.82,21.5-41.34,21.5-1.09,0-2.17-.07-3.25-.2,5.04,13.27-3.03,28.74-12.17,46.27-17.59,33.75-39.48,75.74,18.46,126.07,20.27,17.61,41.21,32.33,61.66,44.63,4.16-3.94,8.46-7.62,12.87-11.01-18-11.08-36.32-24.17-54.1-39.61Z"/>
      <path class="uuid-3645d02e-f29d-4b84-9157-d0f0734bec92" d="m415.38,143.8c3.94-62.9,39.89-70.4,77.96-78.34,14.81-3.08,29.95-6.24,41.16-13.61,11.21,7.37,26.34,10.53,41.16,13.61,38.06,7.94,74.03,15.43,77.96,78.34,1.65,26.29.33,51.19-2.71,74.03,5.35-.79,10.83-1.34,16.41-1.64,3.72-25.61,5.45-53.79,3.59-83.69-4.68-74.76-52.6-84.74-91.1-92.77-19.99-4.17-37.64-7.84-45.29-19.9-7.66,12.06-25.31,15.73-45.3,19.9-38.5,8.03-86.41,18.01-91.09,92.77-1.8,28.79-.24,56.02,3.2,80.8,5.93.76,11.72,1.82,17.34,3.14-3.27-22.93-4.84-47.57-3.27-72.65Z"/>
      <path class="uuid-3645d02e-f29d-4b84-9157-d0f0734bec92" d="m1064.12,644.97c-13.38-6.87-13.18-24.03-12.91-45.75.25-21.12.56-46.63-13.36-68.87,13.81-22.3,13.42-47.8,13.08-68.91-.35-21.72-.63-38.87,12.72-45.8l9.58-4.96-10.89-.38c-15.17-.54-22.87-16.03-32.64-35.65-9.34-18.79-20.09-40.36-40.52-54.38,1.06-24.24-10.03-45.79-19.3-63.78-10.03-19.47-17.96-34.87-8.99-46.59l6.42-8.41-10,4.12c-2.57,1.05-5.14,1.57-7.83,1.57h0c-11.44,0-23.57-9.45-37.6-20.4-17.09-13.34-37.89-29.55-64.66-33-9.64-24.17-30.69-39.73-48.13-52.61-17.97-13.27-32.16-23.74-29.51-38.05l.17-.95-2.49-4.63-2.88,3.22c-4.34,4.83-10.33,7.09-18.87,7.09s-19.36-2.37-30.59-4.86c-13.79-3.06-29.42-6.54-45.39-6.54-8.58,0-16.64,1.01-24.24,3.05-19.16-15.93-43.71-21.05-64.22-25.33-22.17-4.62-39.68-8.27-43.69-22.29l-2.87-10.06-2.87,10.06c-4,14.01-21.52,17.67-43.69,22.29-21.19,4.42-46.71,9.74-66.13,26.97-8.06-2.39-16.59-3.59-25.61-3.59-16.28,0-32.19,3.67-46.22,6.92-11.37,2.63-22.12,5.1-30.93,5.1-8.33,0-14.22-2.2-18.54-6.93l-.89-.97h-4.94l.65,3.37c2.79,14.28-11.32,24.87-29.17,38.28-16.51,12.41-36.28,27.28-46.27,49.63-25,4.28-44.74,19.53-61.08,32.16-14.04,10.85-26.17,20.23-37.59,20.23-2.73,0-5.32-.53-7.93-1.6l-9.98-4.15,6.38,8.43c8.9,11.77.91,27.11-9.23,46.55-9.8,18.81-21.63,41.52-19.39,67.2-22.29,14.08-33.43,36.92-43.07,56.7-9.59,19.68-17.16,35.23-32.32,35.88l-1.17.06-3.67,3.51,3.57,1.8c13.4,6.83,13.27,23.98,13.09,45.7-.16,20.12-.33,44.22,11.77,65.65-12.13,21.42-11.97,45.53-11.84,65.65.14,21.71.25,38.87-13.16,45.67l-.83.43-2.54,4.74,4.63.2c15.16.67,22.72,16.22,32.29,35.92,9.63,19.83,20.77,42.72,43.12,56.82-2.3,25.73,9.52,48.48,19.32,67.33,10.13,19.44,18.11,34.79,9.2,46.55l-3.8,7.37,7.38-3.07c2.59-1.08,5.18-1.6,7.91-1.6,11.43,0,23.56,9.39,37.6,20.26,16.33,12.63,36.07,27.87,61.04,32.18,9.97,22.37,29.74,37.25,46.25,49.67,17.84,13.42,31.94,24.03,29.14,38.31l-1.99,10.25,7.17-7.85c4.31-4.72,10.19-6.92,18.51-6.92,8.83,0,19.58,2.49,30.96,5.12,14.06,3.25,29.98,6.94,46.29,6.94,9.49,0,18.43-1.33,26.86-3.97,19.61,17.87,45.66,23.2,67.23,27.61,22.19,4.54,39.72,8.12,43.79,22.12l2.91,10.04,2.83-10.07c3.94-14.03,21.45-17.74,43.6-22.44,20.48-4.35,45.01-9.58,64.11-25.59,7.49,1.97,15.41,2.96,23.83,2.96,16.13,0,31.9-3.57,45.8-6.71,11.3-2.56,21.97-4.98,30.75-4.98,8.29,0,14.17,2.15,18.47,6.76l9.02,16.82-3.6-18.94c-2.71-14.29,11.44-24.83,29.35-38.16,17.4-12.95,38.4-28.58,47.94-52.81,26.73-3.55,47.47-19.83,64.5-33.23,14.02-11.02,26.12-20.55,37.59-20.55,2.67,0,5.21.51,7.76,1.54l10.03,4.08-6.47-8.39c-9-11.69-1.14-27.11,8.81-46.63,9.19-18.02,20.18-39.6,19.03-63.83,20.38-14.1,31.03-35.73,40.3-54.57,9.67-19.64,17.31-35.16,32.48-35.76l10.88-.42-9.6-4.93Zm-39.15,38.68c-14.56,29.59-32.68,66.41-89.06,66.4-8.01,0-16.69-.74-25.82-2.2-34.47-5.53-65.75-14.78-93.13-25.37-.2,1.95-.44,3.91-.71,5.88,15.61,5.98,32.47,11.51,50.44,16.19,13.53,3.52,27.68,6.56,42.42,8.93,9.45,1.51,18.46,2.28,26.81,2.28h0c7.45,0,14.27-.59,20.53-1.69,10.82-1.9,19.96-5.31,27.8-9.77-.02,21.29-9.83,40.54-18.57,57.68-8.98,17.61-16.91,33.15-11.75,46.37-1-.12-2.01-.17-3.02-.17-13.61,0-26.47,10.12-41.37,21.84-16.58,13.05-35.07,27.56-58.64,31.57,2.4-8.14,3.52-17.19,2.89-27.34-.76-12.22-4.06-26.02-10.76-41.75-6.34-14.9-13.39-28.94-20.87-42.1-6.26-11.01-12.81-21.41-19.5-31.18-1.83.82-3.66,1.62-5.49,2.38,14.68,21.33,28.72,45.72,40.35,73.05,29.51,69.35-9.19,98.17-40.29,121.32-16.16,12.02-30.42,22.64-31.88,36.69-4.75-2.93-10.6-4.36-17.71-4.36-9.47,0-20.47,2.49-32.13,5.12-13.59,3.07-28.99,6.56-44.42,6.56-33.51,0-58.81-16.71-79.6-52.58-16.05-27.7-27.61-55.33-35.92-81.2-1.69,1.12-3.41,2.22-5.17,3.29,4.58,14.06,10.11,28.62,16.79,43.43,5.54,12.3,11.86,24.76,19.09,37.23,8.66,14.95,18.11,26.73,28.57,35.53,7.96,6.7,16.52,11.67,25.78,14.98-17.43,13.27-39.3,17.93-58.77,22.06-19.97,4.24-37.6,8-45.2,20.07-7.71-12.02-25.37-15.63-45.39-19.72-20.76-4.24-44.24-9.05-62.28-24.26,8.66-3.51,16.75-8.51,24.3-15.04,9.97-8.62,19.02-19.89,27.22-33.87,8.25-14.06,15.34-28.11,21.44-41.93,4-9.06,7.58-18.02,10.78-26.81-1.81-.85-3.6-1.72-5.36-2.62-8.01,22.15-18.44,45.34-32.06,68.56-20.88,35.61-46.1,52.19-79.38,52.19-15.6,0-31.16-3.6-44.89-6.77-11.74-2.71-22.82-5.28-32.36-5.28-6.99,0-12.77,1.4-17.47,4.28-1.38-14.06-15.58-24.74-31.68-36.85-30.99-23.3-69.54-52.31-39.65-121.52,11.39-26.39,25.03-50,39.3-70.76-1.95-.58-3.9-1.19-5.85-1.85-7.04,10.32-13.92,21.32-20.45,33.01-6.59,11.79-12.82,24.26-18.5,37.42-7.07,16.38-10.44,30.67-11.07,43.27-.55,10.85.94,20.43,3.85,28.98-21.7-4.73-39.12-18.19-54.84-30.36-14.92-11.55-27.81-21.52-41.35-21.52-1.08,0-2.16.06-3.22.2,5.04-13.26-3.01-28.75-12.14-46.29-9.43-18.12-20.09-38.63-18.97-61.52,7.71,4,16.63,7.01,27.08,8.65,5.8.91,12.06,1.4,18.86,1.4,8.13,0,16.93-.73,26.14-2.16,16.66-2.59,32.59-6.04,47.72-10.09,8.38-2.24,16.51-4.66,24.38-7.23-.37-1.9-.71-3.8-1.01-5.69-22.03,7.23-46.15,13.35-72.04,17.37-8.9,1.38-17.36,2.09-25.19,2.09-56.86,0-74.86-37.06-89.33-66.83-8.64-17.76-16.24-33.44-30.22-37.95,10.62-9.79,10.5-27.07,10.38-46.66-.25-37.71-.56-84.64,74.63-105.38,24.61-6.79,50.23-11.5,76.56-14.09-.65-1.83-1.26-3.68-1.85-5.54-11.59,1.17-23.04,2.75-34.33,4.73-14.29,2.5-28.32,5.63-42.05,9.42-17.95,4.95-31.82,11.41-42.55,18.87-9.03,6.28-15.84,13.27-20.96,20.67-9.69-19.26-9.53-40.77-9.39-59.9.15-19.59.29-36.87-10.31-46.67,13.97-4.5,21.59-20.16,30.25-37.92,8.85-18.16,19.04-39.02,38.55-52.52,1.48,8.16,4.46,16.61,9.43,25.3,6.21,10.86,15.51,22.12,28.87,33.73,12.49,10.85,25.22,20.61,37.95,29.4,7.85,5.42,15.68,10.47,23.46,15.18,1.4-1.42,2.83-2.81,4.27-4.17-20.45-12.3-41.39-27.02-61.66-44.63-57.95-50.33-36.06-92.33-18.46-126.07,9.14-17.54,17.2-33.01,12.17-46.27,1.08.13,2.17.2,3.25.2,13.52,0,26.41-9.96,41.34-21.5,19.45-15.04,41.5-32.07,71.03-32.07,19.41,0,39.56,7.27,61.59,22.25,22.99,15.62,43.01,32.58,60.26,49.51,1.15-1.57,2.33-3.13,3.55-4.68-8.18-8-16.99-16-26.42-23.87-10.52-8.77-21.82-17.38-33.94-25.61-14.76-10.03-28.78-16.74-42.38-20.29-7.67-2-15.2-3.01-22.66-3.01-2.31,0-4.57.11-6.79.3,9.71-19.2,27.33-32.47,43.03-44.25,16.11-12.11,30.32-22.79,31.71-36.85,4.7,2.89,10.5,4.31,17.5,4.31,9.52,0,20.6-2.55,32.33-5.26,13.71-3.17,29.26-6.75,44.83-6.75,7.34,0,14.29.82,20.89,2.46-5.9,6.21-11.07,13.74-15.18,22.97-5.16,11.59-8.64,25.84-9.74,43.49-.98,15.6-.98,30.75-.23,45.3.62,12.16,1.76,23.91,3.28,35.17,2.05.19,4.08.41,6.1.67-3.44-24.79-5-52.01-3.2-80.8,4.68-74.76,52.59-84.74,91.09-92.77,20-4.17,37.65-7.84,45.3-19.9,7.65,12.06,25.3,15.73,45.29,19.9,38.5,8.03,86.42,18.01,91.1,92.77,1.87,29.89.14,58.08-3.59,83.69,2-.11,4.01-.19,6.04-.24,1.91-13.37,3.28-27.42,3.89-42.05.56-13.46.49-27.4-.4-41.74-1.14-18.26-4.83-32.87-10.28-44.67-4.37-9.46-9.89-17.1-16.15-23.33,6.06-1.35,12.42-2.02,19.11-2.02,15.29,0,30.56,3.4,44.05,6.4,11.57,2.57,22.51,5.01,31.93,5.01,7.2,0,13.12-1.46,17.9-4.45,1.51,14.05,15.82,24.61,32.03,36.58,16.78,12.38,35.76,26.41,45.18,47.53-1.23-.06-2.47-.1-3.73-.1-7.84,0-15.76,1.1-23.85,3.31-13.14,3.59-26.68,10.12-40.93,19.71-13.71,9.22-26.37,18.9-38.06,28.78-11.01,9.3-21.15,18.78-30.44,28.22,1.15,1.64,2.25,3.29,3.33,4.94,19.12-19.55,41.87-39.3,68.59-57.28,21.99-14.79,42.06-21.98,61.36-21.98,29.7,0,51.75,17.21,71.21,32.38,14.91,11.64,27.79,21.68,41.36,21.68h0c1.05,0,2.1-.06,3.13-.18-5.1,13.25,2.89,28.75,11.94,46.33,17.43,33.83,39.11,75.92-19.08,125.99-25.37,21.83-51.74,39.18-76.91,52.93,1.39,1.41,2.77,2.84,4.12,4.31,14.09-7.75,28.54-16.62,42.98-26.75,11.33-7.95,22.66-16.67,33.79-26.25,14.17-12.19,23.8-24.02,30.05-35.42,5.02-9.16,7.84-18.05,9.05-26.62,17.56,13.36,27.29,32.82,35.78,49.89,8.8,17.69,16.56,33.29,30.58,37.68-10.53,9.88-10.25,27.16-9.94,46.75.33,20.31.69,43.3-10.76,63.53-5.07-6.74-11.63-13.11-20.1-18.87-10.52-7.16-24-13.38-41.25-18.23-15.41-4.33-31.21-7.86-47.33-10.58-14.11-2.38-28.46-4.12-43.02-5.24-.54,1.88-1.1,3.75-1.69,5.59,31.2,2.33,61.48,7.57,90.36,15.7,75.09,21.1,74.53,68.03,74.08,105.74-.23,19.58-.44,36.86,10.12,46.7-13.98,4.44-21.68,20.08-30.4,37.79Z"/>
      <path class="uuid-3645d02e-f29d-4b84-9157-d0f0734bec92" d="m867.78,276.82h0c4.23,43.88-15.95,91.32-57.17,124.3,16.1,5.11,31.59,13.86,45.71,25.58,22.58-12.62,46.07-28.31,68.7-47.78,48.96-42.14,32.69-73.72,15.46-107.16-6.72-13.05-13.59-26.37-14.52-39.37-12.95-3.68-24.6-12.77-36.77-22.28-18.01-14.05-36.64-28.58-60.7-28.58-15.9,0-32.87,6.22-51.89,19.02-23.85,16.05-44.35,33.6-61.77,51.08,8.53,16.48,13.51,33.49,14.43,50.12,42.65-30.57,95.06-38.59,138.5-24.93Z"/>
      <path class="uuid-3645d02e-f29d-4b84-9157-d0f0734bec92" d="m534.19,123.26h.02c36.34,22.83,61.72,63.93,65.51,111.72,14.82-8.6,32.23-14.37,51.19-17.15,3.04-22.84,4.36-47.73,2.71-74.03-3.93-62.9-39.9-70.4-77.96-78.34-14.82-3.08-29.95-6.24-41.16-13.61-11.21,7.37-26.35,10.53-41.16,13.61-38.07,7.94-74.02,15.43-77.96,78.34-1.57,25.08,0,49.72,3.27,72.65,18.92,4.44,35.89,12.01,49.78,22.48,2.67-49.48,28.42-92.21,65.76-115.67Z"/>
      <path class="uuid-3645d02e-f29d-4b84-9157-d0f0734bec92" d="m349.09,898.79h-.01c-23.33-37.31-26.81-87.58-5.52-133.87-18.1,4.95-37.98,5.3-58.27,1.43-12.51,18.64-24.42,39.63-34.46,62.89-25.14,58.24,3.78,80,34.41,103.04,11.96,9,24.16,18.17,30.88,29.52,2.72-.41,5.57-.63,8.56-.63,10.89,0,22.43,2.68,34.64,5.5,13.23,3.07,26.92,6.23,40.46,6.23,18.39,0,42.45-5.02,65.39-44.13,11.54-19.68,20.66-39.35,27.86-58.31-16.26-10.18-29.83-22.42-39.91-36.09-25.47,36.34-64.08,59.4-104.02,64.41Z"/>
      <path class="uuid-3645d02e-f29d-4b84-9157-d0f0734bec92" d="m846.82,534.95c49.9,13.5,87.78,47.13,103.35,87.26h0c-34.06,31.29-87.17,45.7-141.2,33.84-.87-.19-1.72-.4-2.58-.6,7.38,15.09,11.12,32.31,11.33,50.59,24.95,9.42,53.23,17.58,84.21,22.55,8.14,1.31,15.84,1.96,22.87,1.96,46.25,0,59.9-27.75,74.36-57.13,6.46-13.14,13.06-26.55,23.08-35.35-5-12.11-4.82-26.92-4.64-41.44.44-37.29.86-72.5-62.31-90.25-25.57-7.18-52.29-11.97-79.82-14.35-7.15,16.64-16.83,31.22-28.63,42.93Z"/>
      <path class="uuid-3645d02e-f29d-4b84-9157-d0f0734bec92" d="m201.69,276.25h0c39.64-12.32,86.65-6.61,126.89,17.74,1.85-17.16,8-34.58,17.88-51.24-15.53-15.19-33.06-30.08-52.49-43.28-19.06-12.94-36.09-19.24-52.06-19.24-23.94,0-42.56,14.4-60.57,28.31-12.22,9.44-23.92,18.48-36.88,22.11-1,13-7.92,26.29-14.72,39.31-17.38,33.36-33.8,64.87,14.95,107.22,17.77,15.44,36.1,28.53,54.1,39.61,15.5-11.91,32.42-20.36,49.83-24.61-34.45-32.44-50.95-75.7-46.94-115.92Z"/>
      <path class="uuid-3645d02e-f29d-4b84-9157-d0f0734bec92" d="m118.67,621.51h0c14.96-38.2,50.14-70.42,96.62-84.93-14.41-11.46-26.17-26.85-34.74-44.96-22.91,2.54-45.21,6.77-66.69,12.7-63.26,17.44-63.04,52.66-62.79,89.95.1,14.52.19,29.34-4.87,41.43,9.97,8.85,16.5,22.29,22.9,35.46,14.36,29.57,27.93,57.5,74.61,57.5,6.87,0,14.38-.63,22.31-1.86,22.12-3.44,42.86-8.51,62.02-14.5-1.07-18.93,1.42-36.96,7.52-53-45.35,3.41-88.02-11.11-116.88-37.78Z"/>
      <path class="uuid-3645d02e-f29d-4b84-9157-d0f0734bec92" d="m719.25,899.1h-.01c-46.79-6.01-91.65-36.78-115.64-84.61-.32-.64-.62-1.28-.93-1.92-6.94,16.23-18.5,31.01-33.63,43.61,7.74,23.34,18.29,48.12,32.66,72.93,22.84,39.4,47.04,44.45,65.58,44.45,13.42,0,26.98-3.07,40.07-6.03,12.13-2.75,23.56-5.33,34.35-5.33,3.1,0,6.06.22,8.88.66,6.77-11.31,19.02-20.43,31.03-29.36,30.75-22.89,59.79-44.52,34.95-102.86-10-23.51-21.9-44.71-34.43-63.53-17.97,5.69-35.95,8.29-53.01,7.55,16.63,43.67,11.98,89.73-9.89,124.46Z"/>
      <path class="uuid-3645d02e-f29d-4b84-9157-d0f0734bec92" d="m534.51,284.81c7.27,0,14.47.31,21.59.87,1.38-3.83,3.01-7.6,4.94-11.28,8.65-16.55,22.03-29.76,38.67-39.42-3.79-47.8-29.17-88.89-65.51-111.72h-.02c-37.33,23.46-63.09,66.19-65.76,115.67,12.33,9.3,22.25,20.87,28.92,34.6,2.09,4.3,3.79,8.71,5.15,13.18,10.49-1.25,21.17-1.9,32.01-1.9Z"/>
      <path class="uuid-3645d02e-f29d-4b84-9157-d0f0734bec92" d="m751.96,399.33c1.92-.51,3.85-.99,5.82-1.39,17.71-3.61,35.62-2.28,52.84,3.18,41.23-32.98,61.4-80.42,57.17-124.29h0c-43.44-13.66-95.85-5.65-138.5,24.92.93,16.83-2.27,33.27-10.15,48.35-1.09,2.09-2.28,4.12-3.52,6.1,13.73,13,25.94,27.47,36.35,43.13Z"/>
      <path class="uuid-3645d02e-f29d-4b84-9157-d0f0734bec92" d="m950.16,622.22h0c-15.57-40.14-53.44-73.77-103.35-87.27-14.47,14.35-32.13,24.37-52.25,28.47-1.59.32-3.19.6-4.79.85-2.66,19-7.6,37.32-14.53,54.7,1.47,1.03,2.93,2.09,4.35,3.21,11.58,9.1,20.49,20.41,26.77,33.27.86.2,1.71.41,2.58.6,54.03,11.86,107.14-2.55,141.2-33.83Z"/>
      <path class="uuid-3645d02e-f29d-4b84-9157-d0f0734bec92" d="m609.5,767.18c.41,3.69.62,7.41.56,11.18-.17,11.9-2.76,23.37-7.39,34.21.31.64.61,1.28.93,1.92,23.98,47.83,68.85,78.61,115.64,84.61h.01c21.87-34.73,26.51-80.79,9.89-124.46-23.01-1-44.35-8.06-61.75-21.74-2.57-2.02-5-4.17-7.31-6.4-15.9,8.53-32.83,15.5-50.57,20.68Z"/>
      <path class="uuid-3645d02e-f29d-4b84-9157-d0f0734bec92" d="m390.99,735.94c-4.23,4.74-8.96,9.09-14.21,12.99-10.02,7.43-21.23,12.71-33.22,15.99-21.29,46.29-17.81,96.56,5.52,133.86h.01c39.94-5.01,78.55-28.06,104.02-64.41-12.92-17.52-20.11-37.41-19.79-58.44.09-5.82.75-11.54,1.94-17.14-15.59-6.25-30.4-13.93-44.26-22.86Z"/>
      <path class="uuid-3645d02e-f29d-4b84-9157-d0f0734bec92" d="m278.52,558.64c-7.76.03-15.52-.8-23.22-2.59-14.9-3.46-28.32-10.18-40.01-19.47-46.48,14.5-81.65,46.73-96.62,84.92h0c28.86,26.68,71.53,41.2,116.88,37.79,6.67-17.56,17.64-32.73,32.95-44.09,6.18-4.58,12.82-8.34,19.81-11.33-4.69-14.55-8-29.67-9.8-45.22Z"/>
      <path class="uuid-3645d02e-f29d-4b84-9157-d0f0734bec92" d="m347.72,361.76c-4.13-5.21-7.71-10.83-10.65-16.88-7.77-15.98-10.38-33.3-8.49-50.89-40.23-24.35-87.25-30.06-126.89-17.74h0c-4.01,40.21,12.49,83.48,46.94,115.92,15.94-3.89,32.3-4.25,48.36-.52,7.15,1.66,13.96,4.07,20.4,7.16,8.87-13.27,19.04-25.67,30.32-37.05Z"/>
      <path class="uuid-3645d02e-f29d-4b84-9157-d0f0734bec92" d="m599.71,234.98c-16.64,9.66-30.02,22.87-38.67,39.42-1.93,3.68-3.56,7.45-4.94,11.28,5.02.4,10,.94,14.93,1.62.91-2.26,1.92-4.47,3.06-6.65,17.24-32.99,58.68-52.13,109.04-50.74,31.35,37.73,40.2,80.94,22.95,113.93-.45.87-.93,1.72-1.42,2.57,3.75,3.16,7.4,6.42,10.95,9.78,1.24-1.99,2.43-4.01,3.52-6.1,7.88-15.08,11.08-31.52,10.15-48.35-.92-16.63-5.9-33.64-14.43-50.12-2.37-4.57-5.01-9.1-7.91-13.58-1.08-1.66-2.18-3.31-3.33-4.94-4.02-5.75-8.47-11.38-13.35-16.85h0c-5.71-.35-11.35-.44-16.91-.31-2.03.05-4.04.13-6.04.24-5.58.31-11.06.86-16.41,1.64-18.96,2.79-36.37,8.55-51.19,17.15Z"/>
      <path class="uuid-3645d02e-f29d-4b84-9157-d0f0734bec92" d="m598.03,292.4c15.47-11.27,37.16-17.79,61.9-18.12,13.7,18.02,21.2,37.25,21.92,54.96,7.94,5.32,15.56,11.06,22.81,17.18.49-.85.97-1.7,1.42-2.57,17.25-32.99,8.4-76.2-22.95-113.93-50.36-1.4-91.8,17.74-109.04,50.74-1.14,2.17-2.15,4.39-3.06,6.65,9.16,1.25,18.18,2.95,27,5.1Z"/>
      <path class="uuid-3645d02e-f29d-4b84-9157-d0f0734bec92" d="m659.93,274.28c-24.74.33-46.43,6.85-61.9,18.12,30.46,7.42,58.76,20.05,83.81,36.84-.72-17.71-8.22-36.94-21.92-54.96Z"/>
      <path class="uuid-3645d02e-f29d-4b84-9157-d0f0734bec92" d="m810.62,401.12c-17.21-5.46-35.13-6.79-52.84-3.18-1.97.4-3.9.88-5.82,1.39,2.72,4.09,5.31,8.26,7.78,12.51.36-.08.72-.17,1.09-.25,37.69-7.67,79.17,11.39,109.42,49.93-11.24,47-41.03,80.57-78.72,88.24-.05.01-.11.02-.16.03-.38,4.87-.91,9.69-1.58,14.47,1.6-.25,3.19-.52,4.79-.85,20.13-4.09,37.78-14.11,52.25-28.47,11.8-11.7,21.48-26.29,28.63-42.93,1.98-4.61,3.77-9.38,5.36-14.29.6-1.84,1.16-3.71,1.69-5.59,1.29-4.49,2.42-9.08,3.36-13.77v-.02c-4.16-5.7-8.58-11.07-13.2-16.09-1.35-1.47-2.73-2.9-4.12-4.31-3.94-4-8.02-7.74-12.22-11.23-14.13-11.73-29.61-20.47-45.71-25.58Z"/>
      <path class="uuid-3645d02e-f29d-4b84-9157-d0f0734bec92" d="m773.3,438.93c16.43,5.63,32.56,16.93,46.28,32.92-5.66,19.69-15.41,36.12-27.79,47.64.19,3.92.3,7.86.3,11.83,0,6.21-.25,12.37-.72,18.46.05-.01.11-.02.16-.03,37.69-7.67,67.48-41.24,78.72-88.24-30.25-38.53-71.74-57.59-109.42-49.93-.37.07-.73.17-1.09.25,5.07,8.72,9.6,17.76,13.56,27.09Z"/>
      <path class="uuid-3645d02e-f29d-4b84-9157-d0f0734bec92" d="m819.58,471.85c-13.72-15.99-29.85-27.29-46.28-32.92,10.63,25.08,17.08,52.2,18.49,80.56,12.38-11.52,22.13-27.95,27.79-47.64Z"/>
      <path class="uuid-3645d02e-f29d-4b84-9157-d0f0734bec92" d="m817.71,706.04c-.2-18.28-3.95-35.5-11.33-50.59-6.29-12.86-15.2-24.17-26.77-33.27-1.42-1.12-2.88-2.18-4.35-3.21-1.8,4.51-3.72,8.97-5.78,13.35.29.22.59.43.87.65,29.77,23.41,40.08,66.33,27.48,113.01-45.4,20.89-91.39,19.55-121.17-3.86-1.24-.97-2.43-2-3.61-3.04-4.24,2.6-8.57,5.07-12.97,7.43,2.31,2.23,4.74,4.38,7.31,6.4,17.4,13.68,38.74,20.74,61.75,21.74,17.06.74,35.04-1.86,53.01-7.55,5.01-1.59,10.02-3.42,15.01-5.49,1.83-.76,3.67-1.55,5.49-2.38,2.51-1.13,5.01-2.3,7.5-3.55h0c2.83-9.18,4.85-18.32,6.09-27.31.27-1.97.51-3.93.71-5.88.56-5.56.81-11.05.75-16.45Z"/>
      <path class="uuid-3645d02e-f29d-4b84-9157-d0f0734bec92" d="m755.35,658.09c6.06,16.04,7.05,35.63,2.43,56.4-21.49,8.82-42.84,11.54-61.09,8.21-7.54,5.86-15.42,11.34-23.63,16.37,1.17,1.04,2.37,2.06,3.61,3.04,29.78,23.41,75.77,24.76,121.17,3.86,12.6-46.67,2.29-89.6-27.48-113.01-.29-.22-.58-.43-.87-.65-4.19,8.88-8.91,17.49-14.12,25.78Z"/>
      <path class="uuid-3645d02e-f29d-4b84-9157-d0f0734bec92" d="m757.77,714.49c4.62-20.77,3.63-40.36-2.43-56.4-15.52,24.67-35.42,46.54-58.66,64.61,18.25,3.33,39.6.61,61.09-8.21Z"/>
      <path class="uuid-3645d02e-f29d-4b84-9157-d0f0734bec92" d="m602.68,812.57c4.63-10.83,7.21-22.3,7.39-34.21.06-3.77-.15-7.49-.56-11.18-4.7,1.37-9.47,2.62-14.28,3.73.2,2.4.3,4.82.26,7.24-.56,36.88-29.18,71.36-75.16,91.04-45.37-20.94-72.96-56.18-72.41-93.06.06-4.11.49-8.19,1.23-12.22-4.69-1.58-9.32-3.28-13.88-5.11-1.19,5.59-1.86,11.31-1.94,17.14-.31,21.02,6.88,40.91,19.79,58.44,10.08,13.68,23.65,25.91,39.91,36.09,4.58,2.87,9.37,5.57,14.35,8.1,1.76.89,3.55,1.77,5.36,2.62,2.41,1.13,4.86,2.24,7.35,3.3h0c10.87-4.23,21.01-9.27,30.3-14.97,1.75-1.08,3.48-2.17,5.17-3.29,4.76-3.16,9.26-6.52,13.49-10.04,15.13-12.6,26.69-27.38,33.63-43.61Z"/>
      <path class="uuid-3645d02e-f29d-4b84-9157-d0f0734bec92" d="m569.59,775.55c-8.52,17.37-25.53,33.03-48.53,44.04-24.24-12.44-41.45-30.01-48.72-49.03-7.88-1.88-15.62-4.1-23.2-6.66-.74,4.03-1.17,8.11-1.23,12.22-.55,36.88,27.04,72.12,72.41,93.06,45.98-19.69,74.6-54.17,75.16-91.04.04-2.42-.06-4.84-.26-7.24-8.39,1.95-16.94,3.5-25.63,4.64Z"/>
      <path class="uuid-3645d02e-f29d-4b84-9157-d0f0734bec92" d="m521.06,819.6c23.01-11.01,40.01-26.67,48.53-44.04-11.48,1.5-23.18,2.3-35.09,2.3-21.43,0-42.25-2.53-62.17-7.28,7.28,19.02,24.49,36.59,48.72,49.03Z"/>
      <path class="uuid-3645d02e-f29d-4b84-9157-d0f0734bec92" d="m343.55,764.92c11.99-3.28,23.2-8.56,33.22-15.99,5.26-3.89,9.98-8.25,14.21-12.99-4.06-2.62-8.04-5.35-11.94-8.19-3.4,3.71-7.13,7.11-11.21,10.14-30.47,22.58-76.48,22.68-121.24.55-11.21-47,.38-89.63,30.83-112.21,4.84-3.59,10.07-6.6,15.62-9.05-1.71-4.38-3.29-8.82-4.74-13.32-6.99,2.99-13.63,6.75-19.81,11.33-15.32,11.36-26.28,26.54-32.95,44.09-6.09,16.04-8.58,34.07-7.52,53,.3,5.39.89,10.85,1.77,16.36.3,1.89.64,3.79,1.01,5.69.87,4.47,1.91,8.96,3.16,13.47h.02c9.66,5.19,19.49,9.44,29.35,12.76,1.95.66,3.9,1.27,5.85,1.85,5.37,1.6,10.74,2.92,16.09,3.94,20.29,3.88,40.17,3.52,58.27-1.43Z"/>
      <path class="uuid-3645d02e-f29d-4b84-9157-d0f0734bec92" d="m362.23,714.43c-20.97,7.65-47.85,5.52-74.65-6.36-5.5-28.74-.45-54.96,13.55-72.51-2.94-6-5.63-12.12-8.07-18.37-5.55,2.45-10.78,5.47-15.62,9.05-30.45,22.58-42.04,65.21-30.83,112.21,44.76,22.12,90.76,22.03,121.24-.55,4.08-3.03,7.82-6.43,11.21-10.14-5.81-4.22-11.42-8.66-16.83-13.33Z"/>
      <path class="uuid-3645d02e-f29d-4b84-9157-d0f0734bec92" d="m287.57,708.07c26.8,11.88,53.69,14.01,74.65,6.36-25.49-21.99-46.38-48.79-61.11-78.87-14,17.55-19.05,43.77-13.55,72.51Z"/>
      <path class="uuid-3645d02e-f29d-4b84-9157-d0f0734bec92" d="m215.28,536.58c11.69,9.29,25.11,16.01,40.01,19.47,7.7,1.79,15.46,2.62,23.22,2.59-.54-4.63-.95-9.3-1.21-14.01-6.26-.04-12.48-.74-18.56-2.15-37.45-8.7-66.21-43.07-76.06-90.35,31.4-37.7,73.44-55.62,110.88-46.92,5.64,1.31,11.08,3.21,16.29,5.64,2.4-4.09,4.92-8.12,7.55-12.06-6.44-3.08-13.25-5.5-20.4-7.16-16.06-3.73-32.42-3.37-48.36.52-17.41,4.25-34.33,12.7-49.83,24.61-4.42,3.39-8.71,7.08-12.87,11.01-1.44,1.36-2.86,2.75-4.27,4.17-5.07,5.13-9.92,10.65-14.5,16.55v.02c1.36,7.99,3.25,15.71,5.59,23.13.59,1.87,1.2,3.72,1.85,5.54,1.77,4.97,3.75,9.78,5.95,14.42,8.57,18.11,20.33,33.5,34.74,44.96Z"/>
      <path class="uuid-3645d02e-f29d-4b84-9157-d0f0734bec92" d="m276.93,531.33c0-2.1.03-4.2.08-6.29-20.57-10.42-36.64-32.52-43.96-61.2,19.92-21.92,44.31-34.47,67.26-35.08,2.93-6.1,6.11-12.06,9.54-17.88-5.21-2.43-10.65-4.33-16.29-5.64-37.44-8.71-79.48,9.21-110.88,46.92,9.86,47.28,38.61,81.65,76.06,90.35,6.09,1.41,12.3,2.11,18.56,2.15-.25-4.41-.38-8.84-.38-13.31Z"/>
      <path class="uuid-3645d02e-f29d-4b84-9157-d0f0734bec92" d="m233.05,463.83c7.32,28.68,23.39,50.78,43.96,61.2.9-34.28,9.16-66.83,23.3-96.28-22.95.62-47.34,13.17-67.26,35.08Z"/>
      <path class="uuid-3645d02e-f29d-4b84-9157-d0f0734bec92" d="m328.58,293.99c-1.89,17.58.72,34.91,8.49,50.89,2.94,6.05,6.52,11.67,10.65,16.88,3.39-3.42,6.89-6.74,10.48-9.97-3.05-4.02-5.71-8.28-7.9-12.8-16.25-33.44-6.13-76.4,26.34-113.25,50.38-.02,91.23,20.25,107.48,53.68,1.49,3.07,2.76,6.22,3.8,9.44,4.81-.84,9.67-1.56,14.57-2.15-1.36-4.48-3.06-8.88-5.15-13.18-6.67-13.73-16.59-25.3-28.92-34.6-13.89-10.47-30.86-18.04-49.78-22.48-5.62-1.32-11.4-2.38-17.34-3.14-2.02-.26-4.05-.48-6.1-.67-8.21-.78-16.66-1.04-25.29-.76h-.02c-3.89,4.13-7.52,8.36-10.91,12.66-1.22,1.55-2.4,3.11-3.55,4.68-3.27,4.44-6.26,8.96-8.98,13.54-9.88,16.66-16.03,34.08-17.88,51.24Z"/>
      <path class="uuid-3645d02e-f29d-4b84-9157-d0f0734bec92" d="m375.28,337.68c-2.64-20.97,5.53-45.04,23.22-66.97,27.18,1.11,50.46,9.6,65.67,23.44,7.78-2.12,15.71-3.88,23.76-5.29-1.05-3.22-2.31-6.37-3.8-9.44-16.25-33.44-57.1-53.7-107.48-53.68-32.48,36.85-42.59,79.81-26.34,113.25,2.19,4.51,4.85,8.78,7.9,12.8,5.48-4.93,11.17-9.64,17.08-14.1Z"/>
      <path class="uuid-3645d02e-f29d-4b84-9157-d0f0734bec92" d="m398.5,270.71c-17.7,21.93-25.86,46-23.22,66.97,26.05-19.66,56.15-34.63,88.89-43.53-15.21-13.84-38.48-22.33-65.67-23.44Z"/>
      <path class="uuid-3645d02e-f29d-4b84-9157-d0f0734bec92" d="m783.16,531.33c0-131.21-111.55-237.97-248.65-237.97s-248.65,106.76-248.65,237.97,111.54,237.98,248.65,237.98,248.65-106.75,248.65-237.98Zm-248.65,185.71c-107,0-194.03-83.31-194.03-185.71s87.03-185.69,194.03-185.69,194.02,83.31,194.02,185.69-87.04,185.71-194.02,185.71Z"/>
      <path class="uuid-3645d02e-f29d-4b84-9157-d0f0734bec92" d="m789.78,564.26c.67-4.78,1.21-9.61,1.58-14.47.47-6.1.72-12.25.72-18.46,0-3.97-.11-7.91-.3-11.83-1.41-28.36-7.85-55.48-18.49-80.56-3.95-9.33-8.49-18.37-13.56-27.09-2.47-4.25-5.06-8.42-7.78-12.51-10.42-15.66-22.63-30.12-36.35-43.13-3.55-3.36-7.2-6.62-10.95-9.78-7.25-6.12-14.87-11.86-22.81-17.18-25.06-16.78-53.36-29.42-83.81-36.84-8.83-2.15-17.84-3.85-27-5.1-4.93-.67-9.91-1.21-14.93-1.62-7.12-.57-14.32-.87-21.59-.87-10.84,0-21.52.65-32.01,1.9-4.9.58-9.76,1.3-14.57,2.15-8.06,1.41-15.98,3.18-23.76,5.29-32.74,8.91-62.83,23.87-88.89,43.53-5.91,4.46-11.6,9.17-17.08,14.1-3.59,3.23-7.09,6.55-10.48,9.97-11.28,11.38-21.45,23.78-30.32,37.05-2.64,3.94-5.15,7.97-7.55,12.06-3.42,5.82-6.61,11.78-9.54,17.88-14.14,29.45-22.4,62.01-23.3,96.28-.06,2.09-.08,4.19-.08,6.29,0,4.47.13,8.9.38,13.31.26,4.71.68,9.38,1.21,14.01,1.8,15.55,5.11,30.67,9.8,45.22,1.45,4.5,3.03,8.94,4.74,13.32,2.43,6.25,5.13,12.37,8.07,18.37,14.73,30.08,35.61,56.88,61.11,78.87,5.41,4.66,11.02,9.11,16.83,13.33,3.9,2.83,7.87,5.57,11.94,8.19,13.86,8.93,28.68,16.61,44.26,22.86,4.56,1.83,9.19,3.53,13.88,5.11,7.58,2.56,15.32,4.78,23.2,6.66,19.92,4.74,40.74,7.28,62.17,7.28,11.9,0,23.61-.79,35.09-2.3,8.69-1.14,17.24-2.69,25.63-4.64,4.81-1.12,9.58-2.36,14.28-3.73,17.74-5.18,34.67-12.14,50.57-20.68,4.4-2.36,8.73-4.83,12.97-7.43,8.21-5.03,16.09-10.51,23.63-16.37,23.24-18.08,43.15-39.94,58.66-64.61,5.21-8.29,9.94-16.89,14.12-25.78,2.06-4.38,3.98-8.84,5.78-13.35,6.93-17.38,11.87-35.7,14.53-54.7Zm-255.27,205.04c-137.11,0-248.65-106.75-248.65-237.98s111.54-237.97,248.65-237.97,248.65,106.76,248.65,237.97-111.55,237.98-248.65,237.98Z"/>
      <path class="uuid-3645d02e-f29d-4b84-9157-d0f0734bec92" d="m728.53,531.33c0-102.39-87.04-185.69-194.02-185.69s-194.03,83.31-194.03,185.69,87.03,185.71,194.03,185.71,194.02-83.31,194.02-185.71Z"/>
    </g>
  </g>
</svg>