<svg id="links" xmlns="http://www.w3.org/2000/svg" width="100" height="100" viewBox="0 0 100 100">
  <g>
    <g id="Layer_2" data-name="Layer 2">
      <g id="Layer_1-2" data-name="Layer 1-2">
        <path id="Path_1024" data-name="Path 1024" d="M27.81,1.69a5.1,5.1,0,0,0-7.24,0L1.82,20.52a5.17,5.17,0,0,0,0,7.28L20.24,46.31a5.2,5.2,0,0,1,0,7.29L1.49,72.38a5.2,5.2,0,0,0,0,7.29L20.24,98.5a5.15,5.15,0,0,0,7.25,0l26-26.12L72.25,53.54a5.22,5.22,0,0,0,0-7.28Z" transform="translate(0 0)" style="fill: #e7eff3"/>
        <path d="M79.76,53.81a5.2,5.2,0,0,1,0-7.29L98.51,27.71a5.2,5.2,0,0,0,0-7.29L79.76,1.58l-.33-.35a5.1,5.1,0,0,0-7,.32L53.81,20.47a5.2,5.2,0,0,0,0,7.28L72.25,46.26a5.22,5.22,0,0,1,0,7.29L53.51,72.39a5.18,5.18,0,0,0,0,7.28L72.25,98.5l.31.33a5,5,0,0,0,6.87-.39L98.18,79.62a5.2,5.2,0,0,0,0-7.29ZM58.42,24.11,76.14,6.21,93.92,24.06,76.13,41.91ZM75.86,93.83,58.09,76,75.86,58.17,93.59,76Z" transform="translate(0 0)" style="fill: #e7eff3"/>
      </g>
    </g>
    <rect width="100" height="100" style="fill: none"/>
  </g>
</svg>
