<?xml version="1.0" encoding="UTF-8"?>
<svg id="uuid-dedf0975-07db-49c3-9ca7-45f4b943d08a" data-name="Layer 2" xmlns="http://www.w3.org/2000/svg" viewBox="0 0 100 95.18">
  <defs>
    <style>
      .uuid-850eddbb-5a11-4785-9538-68ec141dfc49 {
        fill: #fff;
      }
    </style>
  </defs>
  <g id="uuid-a1c670f9-f02b-44c7-acee-81b759c041e7" data-name="santander">
    <path id="uuid-a358543c-4876-4ada-9e0c-b42be473c58e" data-name="santander-logo" class="uuid-850eddbb-5a11-4785-9538-68ec141dfc49" d="m71.68,43.61c-.16-3.49-1.15-6.88-2.89-9.91l-15.66-27.09c-1.17-2.05-2-4.29-2.45-6.61l-.68,1.14c-3.88,6.71-3.88,14.98,0,21.69l12.53,21.78c3.87,6.71,3.87,14.98,0,21.69l-.66,1.1c-.46-2.32-1.29-4.56-2.48-6.61l-11.46-19.88-7.32-12.62c-1.18-2.04-2.02-4.25-2.48-6.56l-.65,1.1c-3.85,6.7-3.85,14.93,0,21.63h0l12.52,21.8c3.86,6.71,3.86,14.98,0,21.69l-.67,1.11c-.45-2.32-1.29-4.56-2.47-6.61l-15.66-27c-2.06-3.59-3.06-7.7-2.88-11.84C11.57,48,0,57.33,0,68.06c0,15,22.39,27.12,50,27.12s50-12.12,50-27.12c0-10.73-11.57-20.06-28.32-24.45Z"/>
  </g>
</svg>