<svg id="santander" xmlns="http://www.w3.org/2000/svg" width="100" height="100" viewBox="0 0 100 100">
  <g>
    <g id="Layer_2" data-name="Layer 2">
      <g id="Layer_1-2" data-name="Layer 1-2">
        <path id="Path_291" data-name="Path 291" d="M71.68,46a21.86,21.86,0,0,0-2.89-9.91L53.13,9a21.69,21.69,0,0,1-2.45-6.61L50,3.53a21.66,21.66,0,0,0,0,21.69L62.53,47a21.71,21.71,0,0,1,0,21.69l-.66,1.1a21.49,21.49,0,0,0-2.48-6.61L47.93,43.3,40.61,30.68a21.46,21.46,0,0,1-2.48-6.56l-.65,1.1a21.7,21.7,0,0,0,0,21.63h0L50,68.65a21.76,21.76,0,0,1,0,21.69l-.67,1.11a21.38,21.38,0,0,0-2.47-6.61l-15.66-27A21.82,21.82,0,0,1,28.32,46C11.57,50.39,0,59.72,0,70.45c0,15,22.39,27.12,50,27.12s50-12.12,50-27.12C100,59.72,88.43,50.39,71.68,46Z" style="fill: #e7eff3"/>
      </g>
    </g>
    <rect width="100" height="100" style="fill: none"/>
  </g>
</svg>
